<?xml version="1.0" standalone="no"?>
<!DOCTYPE svg PUBLIC "-//W3C//DTD SVG 20010904//EN"
 "http://www.w3.org/TR/2001/REC-SVG-20010904/DTD/svg10.dtd">
<svg version="1.0" xmlns="http://www.w3.org/2000/svg"
 width="990.000000pt" height="622.000000pt" viewBox="0 0 990.000000 622.000000"
 preserveAspectRatio="xMidYMid meet">
<metadata>
Created by potrace 1.14, written by Peter Selinger 2001-2017
</metadata>
<g transform="translate(0.000000,622.000000) scale(0.100000,-0.100000)"
fill="#000000" stroke="none">
<path d="M5405 5333 c-49 -8 -109 -23 -133 -34 -23 -10 -49 -19 -57 -19 -26 0
-63 -22 -74 -44 -7 -12 -34 -32 -61 -45 -27 -13 -75 -46 -106 -75 -31 -28 -83
-66 -116 -84 -34 -18 -85 -55 -115 -82 -34 -31 -64 -50 -78 -50 -22 0 -65 -34
-65 -51 0 -4 -3 -14 -6 -23 -14 -38 86 -3 146 51 16 14 26 31 23 39 -8 21 16
44 47 44 26 0 28 -3 33 -57 6 -69 -4 -81 -62 -76 -35 3 -41 0 -41 -17 0 -21
-52 -60 -81 -60 -9 0 -27 -9 -41 -19 -13 -11 -35 -23 -49 -26 -46 -12 -118
-74 -141 -121 l-21 -46 21 -17 22 -16 -25 -29 c-14 -16 -25 -32 -25 -36 0 -4
-13 -21 -30 -38 -16 -18 -30 -37 -30 -44 0 -7 11 -1 23 13 16 17 38 28 68 32
49 7 61 2 76 -28 28 -55 21 -137 -7 -85 -9 17 -19 20 -48 18 -29 -2 -41 -10
-60 -38 -20 -29 -30 -35 -63 -37 -44 -1 -43 -3 -26 40 l14 32 -39 -3 c-36 -4
-51 -23 -28 -37 17 -10 11 -36 -7 -34 -28 4 -73 -22 -73 -42 0 -10 -12 -32
-26 -49 -24 -28 -31 -31 -65 -25 -35 6 -40 4 -48 -17 -6 -16 -5 -25 5 -31 14
-8 19 -39 8 -50 -3 -3 -21 3 -39 14 l-33 20 -6 -25 c-7 -30 2 -56 20 -56 8 0
23 -9 34 -20 21 -21 70 -28 70 -10 0 18 16 10 70 -36 41 -35 59 -44 77 -39 17
4 30 -1 48 -19 20 -21 25 -35 25 -79 0 -52 -1 -54 -67 -121 -69 -69 -70 -69
-130 -51 -19 6 -25 1 -42 -36 -10 -24 -23 -62 -28 -83 -6 -30 -16 -43 -42 -57
-39 -21 -51 -17 -51 16 0 27 -21 38 -54 25 -17 -6 -30 -4 -45 6 -28 20 -27 42
6 76 24 25 25 29 11 45 -9 10 -16 37 -16 60 -1 42 -14 76 -39 101 -11 11 -20
11 -58 -4 -25 -9 -48 -21 -51 -25 -3 -5 -14 -9 -25 -9 -12 0 -19 -7 -19 -19 0
-11 -6 -21 -12 -24 -19 -6 15 -40 57 -57 19 -8 35 -20 35 -28 0 -10 -4 -12
-12 -4 -7 6 -30 13 -50 17 -47 9 -62 27 -54 66 3 17 2 29 -2 27 -53 -26 -63
-35 -68 -57 -7 -35 -19 -56 -33 -57 -6 -1 -16 -2 -21 -3 -6 0 -10 -20 -9 -43
2 -49 -27 -128 -46 -128 -7 0 -20 11 -29 24 -8 13 -29 27 -46 31 -24 5 -36 17
-53 53 -19 40 -27 48 -57 52 -20 4 -48 19 -65 36 -25 25 -30 26 -33 12 -5 -27
-54 -23 -82 7 -20 21 -33 25 -80 25 -44 0 -61 -4 -75 -20 -10 -11 -38 -33 -62
-48 -33 -20 -43 -33 -43 -53 0 -14 -5 -40 -11 -57 -8 -25 -17 -31 -42 -34 -25
-2 -36 -11 -52 -41 -17 -31 -99 -97 -122 -97 -3 0 -40 -15 -82 -34 -71 -32
-177 -54 -226 -47 -11 2 -43 25 -71 51 -69 66 -110 76 -234 60 -132 -16 -236
-13 -287 10 -45 20 -83 69 -83 107 0 30 -16 37 -42 19 -29 -21 -47 -20 -55 2
-17 45 -72 63 -119 39 -16 -8 -65 -22 -109 -32 -44 -10 -99 -27 -123 -37 -24
-10 -52 -18 -61 -18 -10 0 -29 -10 -42 -21 -13 -12 -41 -29 -62 -39 -22 -10
-51 -31 -67 -46 -15 -16 -42 -42 -60 -57 -30 -27 -31 -31 -25 -75 4 -26 7 -99
8 -162 2 -123 16 -170 71 -242 13 -18 40 -67 60 -108 29 -63 36 -92 45 -185
14 -168 32 -229 77 -277 42 -43 42 -43 184 -96 l95 -36 310 -1 c256 -1 316 -4
340 -17 105 -53 156 -94 160 -126 13 -132 17 -142 62 -187 48 -49 81 -69 131
-80 60 -13 165 -140 176 -215 8 -52 25 -100 36 -100 15 0 92 -218 105 -300 4
-25 20 -72 35 -106 37 -83 121 -145 236 -173 43 -11 95 -24 114 -30 53 -17
121 -13 160 8 20 10 56 48 84 87 63 89 81 103 171 142 84 36 105 38 166 17 27
-10 64 -14 99 -12 30 3 64 0 75 -6 11 -6 34 -12 50 -12 34 -2 143 -72 175
-112 11 -14 20 -36 20 -48 0 -12 7 -28 15 -35 8 -7 15 -19 15 -26 0 -8 27 -40
60 -71 33 -32 60 -62 60 -68 0 -20 92 -165 111 -175 11 -6 77 -8 166 -5 145 4
148 5 169 31 l21 26 28 -26 c30 -28 103 -66 127 -66 9 0 32 -7 51 -15 53 -22
107 -19 147 9 19 13 46 27 60 31 14 4 39 16 56 26 17 11 39 19 48 19 9 0 35 9
59 20 23 10 85 31 137 45 52 14 127 36 167 49 39 14 100 30 135 37 35 6 86 22
114 35 28 13 54 24 58 24 4 0 49 20 99 44 51 24 103 47 117 51 61 19 121 59
205 140 50 47 131 113 182 147 67 45 101 75 125 112 18 27 53 81 78 120 30 46
63 81 97 105 35 25 68 61 104 115 51 78 102 138 224 260 69 71 137 99 270 115
100 12 126 22 192 72 60 45 106 113 170 248 24 53 53 105 63 116 57 61 133
269 133 365 1 93 -16 247 -34 315 -11 38 -19 98 -19 132 0 39 -8 82 -20 115
-27 68 -40 125 -51 218 -5 41 -11 98 -15 126 -3 31 -1 60 5 72 9 16 7 29 -6
56 -9 20 -21 36 -25 36 -5 0 -20 11 -34 25 -22 22 -24 30 -18 74 6 44 4 51
-22 79 -85 89 -144 175 -144 211 0 9 -16 61 -35 116 -19 55 -35 106 -35 114 0
47 -127 241 -158 241 -4 0 -21 14 -39 30 -18 17 -36 30 -40 30 -5 0 -29 20
-53 43 -25 24 -72 63 -105 87 -33 24 -65 49 -71 54 -6 6 -27 22 -47 36 -20 14
-37 28 -37 33 0 4 -6 7 -13 7 -7 0 -42 19 -78 43 -65 41 -104 62 -164 86 -51
21 -179 85 -196 99 -45 35 -149 75 -218 83 -40 5 -85 16 -99 25 -17 11 -55 18
-116 22 -91 5 -131 17 -155 46 -21 25 -60 19 -135 -19 -87 -44 -115 -44 -181
-1 -66 45 -82 47 -190 29z m-856 -1195 c1 -22 -26 -23 -52 -3 -25 18 -18 48
13 55 26 6 36 -8 39 -52z m-232 30 c13 -12 23 -16 23 -10 0 23 47 13 65 -14
21 -33 6 -54 -39 -54 -51 0 -75 -33 -32 -44 43 -11 38 -31 -8 -31 l-41 1 -1
54 c-2 82 -3 83 -19 76 -18 -6 -19 -1 -5 25 14 25 28 24 57 -3z m-98 -60 c-1
-29 -4 -41 -6 -25 -2 15 -11 27 -18 27 -21 0 1 49 23 50 1 0 1 -24 1 -52z
m-49 -44 c0 -8 5 -14 11 -14 18 0 5 -45 -14 -48 -39 -8 -59 36 -36 79 8 16 13
18 25 8 8 -6 14 -18 14 -25z m-570 -454 c0 -5 -4 -10 -10 -10 -5 0 -10 5 -10
10 0 6 5 10 10 10 6 0 10 -4 10 -10z m712 -92 c-7 -7 -12 -8 -12 -2 0 6 3 14
7 17 3 4 9 5 12 2 2 -3 -1 -11 -7 -17z m382 -28 c5 -5 9 -20 9 -35 0 -37 30
-52 122 -60 44 -4 89 -13 100 -19 11 -7 33 -16 49 -20 l29 -7 -5 -68 c-4 -49
-12 -80 -32 -113 -31 -54 -32 -72 -6 -138 11 -29 20 -74 20 -106 0 -53 7 -75
43 -123 13 -18 17 -43 17 -108 0 -46 -4 -93 -10 -103 -5 -10 -27 -24 -47 -31
-21 -6 -51 -20 -67 -30 -18 -11 -40 -16 -57 -12 -25 5 -29 1 -48 -43 -18 -39
-20 -54 -11 -77 14 -40 13 -117 -2 -174 -13 -48 -56 -89 -123 -118 -16 -8 -50
-28 -75 -46 -35 -26 -54 -33 -86 -31 -35 1 -48 -4 -76 -31 -19 -17 -46 -38
-61 -46 -23 -12 -28 -11 -55 10 -17 13 -33 34 -36 47 -4 12 -18 28 -32 34 -21
10 -27 9 -39 -9 -12 -18 -20 -19 -57 -12 -24 4 -47 8 -51 9 -5 0 -7 12 -5 27
3 24 -1 28 -30 34 -18 4 -41 14 -51 23 -10 9 -23 16 -29 16 -6 0 -17 9 -26 21
-12 18 -12 25 0 55 8 18 14 46 14 62 0 33 -41 90 -85 119 -26 17 -31 27 -33
69 -3 44 -6 76 -10 112 -1 6 -11 12 -22 12 -11 0 -20 7 -20 15 0 9 -11 20 -24
26 -14 7 -26 23 -30 40 -3 16 -14 38 -24 49 -19 20 -19 20 -35 -21 -20 -51
-47 -50 -62 3 -5 20 -18 45 -28 56 -14 15 -16 25 -9 38 5 9 7 25 4 36 -3 13 2
21 16 25 27 7 59 53 43 62 -7 5 -6 14 5 29 12 17 25 22 63 22 26 0 52 -5 58
-11 10 -10 51 24 91 75 8 10 21 14 31 11 22 -7 44 17 39 41 -2 10 -9 19 -17
22 -10 3 -12 0 -8 -12 6 -15 4 -15 -23 -1 -36 19 -37 25 -6 54 20 19 28 21 44
12 12 -6 27 -11 35 -11 16 0 97 76 97 91 0 4 14 25 32 44 l32 37 -30 -4 c-25
-2 -29 -8 -32 -35 -2 -25 -8 -33 -22 -33 -28 0 -33 17 -13 44 23 33 68 49 92
34 18 -11 29 -7 116 47 54 34 93 51 135 58 20 4 59 25 88 46 l52 39 82 -5 c46
-3 87 -9 92 -13z m-1089 -552 c29 -13 32 -26 8 -44 -24 -18 -53 -18 -53 0 0 8
-9 21 -20 29 -37 26 15 38 65 15z m-60 -128 c-3 -5 -10 -10 -16 -10 -5 0 -9 5
-9 10 0 6 7 10 16 10 8 0 12 -4 9 -10z m75 -116 c0 -23 -17 -34 -52 -34 -11 0
-28 -10 -39 -22 -15 -19 -18 -20 -19 -6 0 9 8 21 18 27 14 8 15 13 5 30 -15
24 -5 30 50 28 31 -1 37 -4 37 -23z m10 -104 c0 -5 -5 -10 -11 -10 -5 0 -7 5
-4 10 3 6 8 10 11 10 2 0 4 -4 4 -10z"/>
<path d="M3710 2905 c-14 -17 -2 -78 15 -75 6 1 8 7 6 14 -3 6 -4 26 -4 44 2
36 0 38 -17 17z"/>
</g>
</svg>
