<?xml version="1.0" standalone="no"?>
<!DOCTYPE svg PUBLIC "-//W3C//DTD SVG 20010904//EN"
 "http://www.w3.org/TR/2001/REC-SVG-20010904/DTD/svg10.dtd">
<svg version="1.0" xmlns="http://www.w3.org/2000/svg"
 width="990.000000pt" height="622.000000pt" viewBox="0 0 990.000000 622.000000"
 preserveAspectRatio="xMidYMid meet">
<metadata>
Created by potrace 1.14, written by Peter Selinger 2001-2017
</metadata>
<g transform="translate(0.000000,622.000000) scale(0.100000,-0.100000)"
fill="#000000" stroke="none">
<path d="M5460 5350 c-14 -4 -61 -13 -104 -20 -44 -6 -86 -16 -95 -20 -9 -5
-37 -15 -62 -24 -26 -10 -55 -29 -67 -46 -12 -16 -43 -39 -68 -51 -25 -11 -75
-47 -111 -81 -35 -33 -85 -69 -111 -80 -26 -12 -61 -36 -79 -54 -17 -18 -59
-47 -93 -64 -47 -24 -65 -39 -76 -65 -8 -19 -14 -37 -14 -40 0 -11 58 -4 87
10 38 19 65 10 61 -19 -2 -15 -16 -25 -49 -36 -25 -8 -57 -22 -70 -31 -13 -9
-35 -20 -49 -24 -35 -11 -118 -82 -126 -108 -4 -11 -13 -27 -20 -34 -17 -17
-8 -40 17 -48 18 -6 18 -9 -11 -41 -16 -19 -30 -39 -30 -44 0 -5 -16 -24 -35
-41 -19 -18 -32 -36 -29 -40 10 -16 -33 -51 -55 -44 -27 8 -48 -27 -26 -45 20
-17 19 -32 -2 -27 -26 5 -73 -21 -73 -40 0 -9 -12 -31 -26 -50 -24 -32 -29
-34 -65 -28 -35 6 -40 4 -48 -17 -6 -16 -5 -25 5 -31 16 -9 19 -47 4 -47 -6 0
-24 7 -40 15 -27 14 -29 14 -35 -5 -9 -27 3 -60 21 -60 8 0 23 -9 34 -20 21
-21 70 -28 70 -10 0 18 16 10 70 -36 41 -35 59 -44 77 -39 17 4 30 -1 48 -19
20 -21 25 -35 25 -79 0 -53 0 -54 -70 -121 -54 -52 -75 -67 -90 -62 -11 3 -29
9 -39 12 -15 5 -24 -3 -40 -35 -12 -22 -21 -49 -21 -60 0 -35 -20 -65 -55 -83
-37 -18 -45 -15 -45 18 0 27 -14 33 -57 26 -62 -9 -81 33 -36 80 24 25 25 29
11 45 -8 10 -15 37 -16 61 -1 47 -19 90 -44 105 -22 14 -147 -41 -148 -65 0
-9 -5 -18 -12 -20 -14 -5 21 -57 39 -58 6 0 15 -5 19 -11 9 -15 -57 -1 -75 16
-11 11 -11 20 -2 46 13 38 8 48 -16 27 -10 -8 -26 -18 -35 -21 -10 -3 -20 -19
-24 -34 -10 -48 -12 -51 -36 -55 -20 -3 -24 -10 -28 -58 -6 -56 -33 -120 -50
-120 -6 0 -16 11 -22 25 -7 16 -22 27 -44 31 -27 5 -38 15 -56 53 -19 38 -28
47 -54 49 -19 2 -43 15 -60 33 -30 31 -60 40 -50 14 8 -23 -37 -19 -65 6 -47
41 -125 53 -150 22 -8 -9 -38 -31 -66 -50 -43 -28 -53 -39 -53 -62 0 -15 -5
-42 -11 -60 -9 -25 -17 -31 -39 -31 -28 0 -45 -14 -65 -53 -10 -20 -92 -85
-108 -86 -5 -1 -44 -17 -88 -36 -58 -25 -100 -36 -158 -41 l-80 -7 -50 50
c-70 70 -112 81 -245 64 -56 -7 -110 -12 -121 -12 -11 0 -42 0 -68 0 -50 1
-124 27 -143 52 -6 8 -17 35 -24 61 -13 50 -31 65 -50 42 -19 -22 -39 -17 -74
21 -38 40 -64 44 -110 16 -17 -10 -47 -22 -66 -26 -19 -3 -46 -10 -60 -14 -14
-5 -45 -14 -70 -21 -25 -6 -53 -16 -62 -21 -10 -5 -29 -9 -42 -9 -13 0 -26 -6
-29 -12 -3 -7 -27 -24 -53 -37 -27 -14 -63 -39 -79 -55 -17 -17 -42 -40 -56
-51 -36 -28 -39 -44 -24 -116 10 -49 11 -79 3 -131 -10 -61 -9 -73 12 -128 12
-33 39 -84 59 -113 71 -101 92 -161 102 -282 5 -60 13 -121 18 -135 5 -14 12
-43 16 -64 7 -45 54 -108 101 -135 18 -11 77 -34 131 -52 l98 -33 311 -2 c331
-2 314 1 409 -54 70 -40 82 -58 97 -149 11 -72 17 -88 48 -120 48 -51 88 -77
130 -85 25 -4 50 -21 86 -59 74 -78 93 -110 100 -171 4 -30 14 -63 24 -74 9
-10 22 -27 27 -38 19 -36 81 -229 88 -274 4 -25 20 -72 35 -106 37 -83 126
-148 238 -176 43 -10 93 -23 112 -28 61 -16 130 -12 167 11 18 12 52 48 74 81
57 84 86 108 173 146 85 36 106 38 167 17 24 -9 71 -15 106 -14 35 1 69 -3 76
-10 8 -6 21 -9 30 -5 17 6 53 -11 121 -56 55 -38 86 -75 86 -105 0 -12 7 -28
15 -35 8 -7 15 -19 15 -26 0 -8 25 -38 55 -67 33 -32 67 -77 84 -113 16 -32
43 -78 60 -102 l32 -43 161 5 c158 6 188 12 188 42 0 8 5 14 10 14 6 0 10 -6
10 -12 0 -7 10 -18 23 -24 12 -6 40 -21 62 -32 52 -27 143 -52 186 -52 20 0
50 10 71 25 20 14 42 25 48 25 6 0 33 11 60 25 27 14 54 25 60 25 6 0 29 9 53
20 23 10 89 31 147 46 58 14 110 30 115 34 13 10 102 35 178 50 55 11 250 87
292 114 11 7 54 25 95 41 87 32 123 56 205 139 59 59 196 166 212 166 13 0 83
60 83 72 0 5 15 28 34 50 19 22 44 59 55 82 20 44 85 109 126 128 13 6 31 25
39 43 9 18 22 38 30 44 8 7 23 29 34 49 11 20 37 55 58 77 21 22 69 73 106
112 94 100 166 135 314 152 166 18 266 105 349 306 30 73 51 111 72 133 18 19
88 166 109 232 29 86 22 323 -11 439 -16 53 -25 110 -25 153 0 41 -7 84 -16
106 -41 95 -73 333 -54 404 15 55 -4 93 -64 123 -18 10 -21 18 -18 70 2 56 1
61 -36 99 -99 105 -142 173 -142 226 0 15 -9 50 -21 77 -12 26 -30 80 -41 118
-22 80 -83 189 -125 223 -15 12 -59 46 -98 74 -38 28 -90 70 -115 94 -70 67
-124 106 -306 227 -39 26 -76 47 -81 47 -6 0 -16 6 -22 13 -6 8 -30 19 -53 26
-23 7 -80 33 -127 58 -227 121 -222 119 -321 133 -30 4 -73 15 -95 23 -22 8
-77 17 -122 20 -71 4 -88 9 -119 32 -44 34 -85 30 -158 -16 -74 -46 -103 -47
-151 -9 -41 34 -95 61 -117 59 -7 0 -24 -4 -38 -9z m-622 -461 l-3 -54 -39 -3
c-50 -4 -66 11 -41 38 10 11 18 32 19 47 1 20 7 29 26 34 36 9 42 -1 38 -62z
m-329 -516 c6 -14 9 -33 6 -43 -3 -10 -1 -21 5 -25 15 -9 12 -25 -4 -25 -8 0
-16 7 -20 15 -9 24 -69 19 -93 -7 -11 -13 -23 -30 -25 -38 -3 -10 -18 -15 -46
-16 -31 0 -39 3 -31 12 5 6 8 16 7 22 -2 5 9 24 25 41 15 17 27 37 27 44 0 23
33 45 70 49 51 5 66 -1 79 -29z m40 -235 c1 -24 -31 -23 -54 2 -21 24 -14 47
17 52 23 3 35 -14 37 -54z m-235 31 c14 -11 26 -16 26 -10 0 22 48 11 65 -15
21 -33 6 -54 -39 -54 -30 0 -56 -15 -56 -32 0 -4 6 -8 13 -8 8 0 21 -8 30 -17
15 -17 13 -18 -26 -18 l-42 1 -1 54 c-2 82 -3 83 -19 76 -18 -6 -19 -1 -5 25
13 24 21 24 54 -2z m-102 -51 c-21 -21 -32 -3 -15 22 16 22 18 23 21 6 2 -10
-1 -23 -6 -28z m-42 -54 c0 -8 5 -14 11 -14 18 0 5 -45 -13 -48 -21 -4 -48 20
-48 43 0 9 5 25 11 36 8 16 13 18 25 8 8 -6 14 -18 14 -25z m47 4 c-3 -7 -5
-2 -5 12 0 14 2 19 5 13 2 -7 2 -19 0 -25z m-617 -458 c0 -5 -4 -10 -10 -10
-5 0 -10 5 -10 10 0 6 5 10 10 10 6 0 10 -4 10 -10z m140 -26 c0 -8 -4 -12
-10 -9 -5 3 -10 10 -10 16 0 5 5 9 10 9 6 0 10 -7 10 -16z m571 -67 c-10 -9
-11 -8 -5 6 3 10 9 15 12 12 3 -3 0 -11 -7 -18z m383 -27 c5 -5 9 -20 9 -35 0
-38 30 -53 122 -61 44 -3 89 -12 100 -19 11 -6 33 -15 49 -19 l29 -7 -5 -68
c-4 -49 -12 -80 -32 -113 -31 -54 -32 -67 -6 -141 11 -31 20 -79 20 -107 0
-49 8 -71 43 -119 13 -18 17 -43 17 -108 0 -46 -4 -93 -10 -103 -5 -10 -27
-24 -47 -31 -21 -6 -51 -20 -67 -30 -18 -11 -40 -16 -57 -12 -25 5 -29 1 -48
-43 -18 -39 -20 -54 -11 -77 14 -41 12 -123 -4 -177 -14 -48 -46 -77 -141
-126 -27 -14 -60 -35 -73 -47 -17 -16 -34 -21 -66 -19 -37 1 -49 -4 -78 -31
-19 -17 -46 -38 -61 -46 -23 -12 -28 -11 -54 10 -16 13 -35 37 -43 54 -18 36
-47 44 -66 17 -11 -17 -19 -18 -56 -11 -24 4 -47 8 -51 9 -5 0 -7 12 -5 27 3
24 -1 28 -30 34 -18 4 -41 14 -51 23 -10 9 -23 16 -29 16 -6 0 -17 9 -26 21
-12 18 -12 25 0 55 8 18 14 46 14 62 0 33 -41 90 -85 119 -27 18 -30 26 -32
79 -4 80 -12 114 -28 114 -8 0 -19 9 -25 19 -5 11 -18 22 -29 26 -10 3 -21 19
-25 35 -3 17 -14 39 -24 50 -19 20 -19 20 -35 -21 -20 -51 -47 -50 -62 3 -5
20 -18 45 -28 55 -9 11 -14 23 -10 26 3 4 6 21 5 37 0 24 5 33 23 40 29 11 52
49 36 59 -7 5 -6 14 5 29 12 18 25 22 64 22 30 0 50 -5 52 -12 6 -17 74 35 83
62 5 15 15 20 45 20 32 0 38 4 42 24 7 37 -5 49 -40 41 -41 -9 -51 11 -19 42
20 21 28 23 45 14 35 -19 51 -13 97 36 25 26 45 50 45 53 0 13 60 70 74 70 8
0 27 10 43 23 53 42 121 75 200 96 23 6 50 19 59 29 43 43 62 49 147 44 45 -2
86 -8 91 -12z m-574 -170 c0 -5 -11 -10 -25 -10 -18 0 -25 -5 -25 -19 0 -30
-11 -51 -25 -51 -26 0 -27 22 -4 47 32 34 79 54 79 33z m-515 -382 c29 -13 32
-26 8 -44 -24 -18 -53 -18 -53 0 0 8 -9 21 -21 30 -20 13 -20 14 -2 19 31 8
41 7 68 -5z m-60 -128 c-3 -5 -10 -10 -16 -10 -5 0 -9 5 -9 10 0 6 7 10 16 10
8 0 12 -4 9 -10z m72 -109 c0 -25 -17 -41 -44 -41 -14 0 -33 -10 -44 -22 -15
-19 -18 -20 -19 -6 0 9 8 21 18 27 14 8 15 13 5 30 -15 24 -5 30 48 28 25 0
36 -5 36 -16z"/>
<path d="M3704 2894 c-7 -29 11 -78 26 -69 7 4 7 13 0 25 -6 11 -8 31 -4 45 4
15 2 25 -5 25 -6 0 -14 -12 -17 -26z"/>
</g>
</svg>
