<?xml version="1.0" standalone="no"?>
<!DOCTYPE svg PUBLIC "-//W3C//DTD SVG 20010904//EN"
 "http://www.w3.org/TR/2001/REC-SVG-20010904/DTD/svg10.dtd">
<svg version="1.0" xmlns="http://www.w3.org/2000/svg"
 width="990.000000pt" height="622.000000pt" viewBox="0 0 990.000000 622.000000"
 preserveAspectRatio="xMidYMid meet">
<metadata>
Created by potrace 1.14, written by Peter Selinger 2001-2017
</metadata>
<g transform="translate(0.000000,622.000000) scale(0.100000,-0.100000)"
fill="#000000" stroke="none">
<path d="M5441 5361 c-8 -5 -42 -12 -75 -16 -109 -12 -246 -71 -246 -105 0 -5
-24 -22 -52 -36 -29 -15 -80 -52 -113 -84 -33 -31 -80 -67 -103 -79 -24 -12
-60 -37 -80 -55 -20 -18 -62 -47 -92 -63 -53 -29 -100 -81 -100 -110 0 -24 51
-37 81 -19 24 14 69 12 69 -4 0 -4 -23 -14 -51 -23 -27 -9 -57 -23 -65 -31 -8
-9 -30 -20 -49 -25 -44 -12 -124 -77 -131 -107 -3 -13 -12 -28 -20 -35 -19
-16 -18 -25 6 -49 l21 -21 -31 -30 c-16 -17 -30 -37 -30 -44 0 -7 -15 -23 -34
-34 -22 -14 -36 -31 -40 -52 -5 -27 -10 -31 -31 -27 -16 4 -30 -1 -42 -14 -17
-19 -17 -21 5 -38 26 -21 29 -35 6 -26 -22 8 -74 -21 -74 -42 0 -10 -13 -33
-28 -51 -26 -32 -31 -33 -59 -24 -33 12 -42 8 -60 -23 -10 -19 -9 -23 8 -27
11 -3 19 -14 19 -26 0 -25 -17 -27 -49 -5 -19 14 -25 14 -32 3 -17 -26 -6 -69
17 -69 8 0 22 -9 31 -20 19 -22 68 -27 77 -7 5 10 7 10 12 0 3 -7 10 -13 16
-13 6 0 28 -16 50 -36 31 -27 45 -34 64 -30 42 11 74 -32 74 -96 0 -52 -1 -54
-70 -122 -48 -47 -74 -66 -86 -62 -55 21 -62 19 -83 -23 -12 -22 -21 -49 -21
-60 0 -34 -20 -66 -50 -80 -44 -19 -44 -18 -50 14 -5 28 -8 30 -49 27 -70 -4
-95 37 -46 76 29 23 31 35 10 52 -9 7 -15 22 -14 34 5 57 -3 87 -28 115 l-28
30 -67 -32 c-46 -21 -68 -38 -68 -49 0 -10 -4 -18 -10 -18 -5 0 -10 7 -10 15
0 42 -87 -22 -96 -71 -4 -24 -12 -34 -25 -34 -24 0 -33 -17 -30 -62 2 -39 -31
-118 -49 -118 -6 0 -14 10 -19 23 -6 15 -23 27 -48 35 -33 10 -41 18 -54 54
-13 36 -20 43 -46 46 -18 2 -42 15 -59 33 -30 31 -81 41 -70 14 9 -24 -19 -18
-55 12 -21 18 -49 29 -82 33 -47 6 -52 5 -96 -32 -100 -83 -101 -85 -101 -118
0 -47 -16 -70 -49 -70 -23 0 -32 -7 -45 -35 -14 -30 -50 -61 -110 -96 -41 -25
-161 -70 -205 -79 -107 -20 -129 -15 -180 38 -26 27 -62 54 -80 60 -42 15
-139 15 -212 2 -69 -13 -231 2 -265 25 -13 8 -26 28 -29 43 -17 83 -40 108
-73 79 -22 -20 -42 -22 -42 -4 0 24 -45 57 -77 57 -17 0 -48 -9 -70 -19 -35
-18 -91 -36 -188 -62 -22 -6 -54 -15 -71 -20 -17 -5 -38 -9 -47 -9 -9 0 -17
-4 -17 -9 0 -5 -23 -21 -51 -36 -28 -14 -78 -53 -112 -85 l-60 -59 12 -70 c6
-40 9 -106 5 -153 -5 -76 -4 -88 21 -143 15 -33 42 -81 61 -106 19 -26 34 -50
34 -54 0 -4 11 -29 25 -56 19 -39 27 -75 34 -169 6 -66 14 -127 19 -137 5 -10
13 -36 16 -58 12 -72 91 -139 206 -174 121 -37 144 -39 446 -39 321 1 303 3
399 -52 70 -40 82 -58 94 -144 6 -44 17 -86 24 -95 56 -70 104 -106 157 -115
25 -4 50 -21 83 -55 71 -73 94 -112 102 -172 4 -33 17 -69 34 -94 28 -42 91
-221 111 -315 12 -60 47 -138 70 -158 52 -44 128 -86 177 -98 32 -8 88 -24
126 -36 112 -34 182 -8 251 96 48 73 81 105 125 123 20 8 55 24 78 34 51 23
77 24 133 4 23 -8 73 -15 111 -15 37 0 71 -5 74 -10 4 -6 15 -8 25 -5 21 7 55
-9 124 -55 54 -37 86 -75 86 -104 0 -29 46 -96 100 -144 30 -26 51 -57 63 -89
9 -26 34 -70 55 -98 l38 -50 149 -1 c162 0 194 5 202 36 6 22 23 27 23 8 0
-16 102 -76 140 -83 16 -3 41 -10 55 -15 45 -17 105 -12 144 13 39 24 56 31
171 72 41 15 80 31 85 35 6 5 42 16 80 25 39 9 115 32 170 50 55 18 127 39
160 45 33 6 69 15 80 20 38 17 110 47 145 60 19 7 46 21 60 30 14 9 59 30 100
45 94 35 117 51 209 142 68 67 197 163 220 163 24 0 103 99 174 219 21 36 51
67 87 92 50 34 74 62 128 153 16 28 37 51 184 207 29 31 71 66 93 77 58 29
171 62 212 62 79 0 159 37 230 108 39 39 119 182 143 255 6 21 23 51 36 66 62
74 153 340 139 405 -4 17 -11 78 -15 136 -5 58 -16 130 -25 160 -9 30 -18 93
-20 140 -2 61 -8 97 -22 125 -24 48 -35 105 -39 205 -5 110 -5 120 2 176 5 47
3 54 -26 87 -17 20 -39 39 -49 42 -16 5 -18 14 -14 68 l4 62 -68 72 c-70 73
-113 143 -113 182 0 25 -38 142 -51 156 -5 5 -9 19 -9 32 0 23 -9 50 -43 122
-23 52 -112 144 -176 186 -53 33 -51 31 -121 96 -113 105 -413 312 -470 326
-14 3 -97 43 -185 88 -122 62 -177 85 -229 94 -38 7 -85 19 -104 27 -19 8 -56
14 -82 14 -70 0 -162 20 -185 41 -39 35 -84 30 -168 -21 -36 -22 -75 -40 -86
-40 -12 0 -38 15 -58 34 -21 18 -48 38 -60 45 -26 13 -92 14 -112 2z m-609
-496 c-7 -24 -14 -31 -40 -33 -26 -3 -32 0 -32 15 0 10 7 28 15 40 8 12 12 28
9 36 -4 11 2 16 18 19 28 4 41 -31 30 -77z m-327 -494 c8 -17 12 -36 9 -44 -3
-8 -1 -18 5 -22 6 -3 11 -10 11 -16 0 -15 -19 -10 -40 11 -11 11 -29 20 -39
20 -18 0 -81 -61 -81 -79 0 -5 -18 -8 -40 -7 -30 0 -37 3 -27 11 8 5 12 15 10
22 -2 6 10 22 27 35 21 15 30 29 26 41 -8 31 28 57 79 57 39 0 46 -4 60 -29z
m-194 -202 c16 -11 29 -16 29 -10 0 22 48 11 65 -15 21 -33 6 -54 -39 -54 -30
0 -56 -15 -56 -32 0 -4 6 -8 13 -8 8 0 21 -8 30 -17 15 -17 13 -18 -26 -18
l-42 1 0 64 c0 56 -2 65 -17 64 -10 -1 -18 2 -18 7 0 5 5 9 10 9 6 0 10 7 10
15 0 20 6 19 41 -6z m233 -1 c10 -38 7 -48 -12 -48 -25 0 -56 35 -49 55 10 24
54 19 61 -7z m-329 -37 c-3 -12 -13 -21 -21 -21 -9 0 -12 5 -8 13 23 40 41 46
29 8z m-45 -67 c0 -8 5 -14 11 -14 18 0 5 -45 -13 -48 -21 -4 -48 20 -48 43 0
9 5 25 11 36 8 16 13 18 25 8 8 -6 14 -18 14 -25z m47 4 c-3 -7 -5 -2 -5 12 0
14 2 19 5 13 2 -7 2 -19 0 -25z m-543 -453 c15 -22 15 -23 -12 -16 -17 5 -28
15 -30 29 -4 28 20 20 42 -13z m-74 -5 c0 -5 -4 -10 -10 -10 -5 0 -10 5 -10
10 0 6 5 10 10 10 6 0 10 -4 10 -10z m1094 -120 c5 -5 9 -20 9 -35 0 -38 30
-53 122 -61 44 -3 89 -12 100 -19 11 -6 33 -15 49 -19 l29 -7 -6 -71 c-4 -52
-13 -81 -32 -109 -28 -43 -32 -87 -11 -127 8 -16 18 -61 22 -102 4 -43 15 -88
25 -105 10 -16 23 -40 29 -52 11 -27 11 -171 -1 -194 -4 -9 -35 -26 -68 -38
-33 -12 -63 -26 -66 -31 -3 -5 -19 -7 -34 -4 -27 6 -31 2 -50 -41 -17 -39 -19
-54 -11 -84 13 -47 13 -98 -2 -160 -9 -42 -18 -55 -57 -83 -25 -18 -66 -43
-91 -56 -25 -12 -60 -33 -78 -46 -25 -19 -41 -23 -67 -19 -30 5 -38 1 -56 -21
-11 -14 -27 -26 -35 -26 -8 0 -14 -4 -14 -8 0 -5 -11 -15 -25 -22 -22 -12 -27
-11 -46 6 -12 10 -32 36 -45 57 -26 41 -53 47 -71 18 -10 -16 -18 -17 -55 -10
-24 4 -47 8 -51 9 -5 0 -7 12 -5 28 2 22 -1 28 -22 30 -14 2 -47 18 -73 35
-44 29 -48 34 -43 62 19 96 18 109 -8 144 -13 18 -39 43 -56 55 -28 19 -32 28
-36 76 -6 94 -13 117 -34 123 -11 3 -20 12 -20 20 0 8 -11 18 -25 21 -19 5
-25 13 -25 34 0 15 -10 37 -24 49 l-23 22 -16 -40 c-20 -51 -47 -50 -62 3 -5
20 -18 44 -27 55 -11 12 -14 23 -8 33 5 8 7 25 4 37 -5 18 0 25 19 32 31 12
55 50 38 60 -7 5 -6 14 5 29 12 18 25 22 64 22 29 0 50 -5 52 -12 5 -15 59 22
82 57 12 19 25 25 51 25 24 0 35 5 40 19 10 33 -4 50 -48 53 l-41 3 27 30 c20
24 28 28 38 18 25 -25 59 -14 104 34 25 26 45 50 45 54 0 14 55 60 94 79 53
26 82 43 103 62 10 8 36 20 58 26 99 28 115 34 123 48 22 39 60 51 145 46 45
-2 86 -8 91 -12z m-624 -209 c0 -20 -13 -41 -25 -41 -21 0 -28 19 -15 35 14
17 40 20 40 6z m-465 -343 c29 -13 32 -26 8 -44 -24 -18 -53 -18 -53 0 0 8 -9
21 -21 30 -20 13 -20 14 -2 19 31 8 41 7 68 -5z m-60 -128 c-3 -5 -11 -10 -16
-10 -6 0 -7 5 -4 10 3 6 11 10 16 10 6 0 7 -4 4 -10z m72 -109 c0 -25 -17 -41
-44 -41 -14 0 -33 -10 -44 -22 -15 -19 -18 -20 -19 -6 0 9 8 21 18 27 14 8 15
13 5 30 -15 24 -5 30 48 28 25 0 36 -5 36 -16z"/>
<path d="M3706 2904 c-16 -42 8 -104 30 -79 8 8 8 16 -2 30 -8 10 -11 29 -8
42 7 26 -10 32 -20 7z"/>
<path d="M3806 2805 c-3 -8 -1 -15 4 -15 6 0 10 7 10 15 0 8 -2 15 -4 15 -2 0
-6 -7 -10 -15z"/>
</g>
</svg>
