<?xml version="1.0" standalone="no"?>
<!DOCTYPE svg PUBLIC "-//W3C//DTD SVG 20010904//EN"
 "http://www.w3.org/TR/2001/REC-SVG-20010904/DTD/svg10.dtd">
<svg version="1.0" xmlns="http://www.w3.org/2000/svg"
 width="990.000000pt" height="622.000000pt" viewBox="0 0 990.000000 622.000000"
 preserveAspectRatio="xMidYMid meet">
<metadata>
Created by potrace 1.14, written by Peter Selinger 2001-2017
</metadata>
<g transform="translate(0.000000,622.000000) scale(0.100000,-0.100000)"
fill="#000000" stroke="none">
<path d="M5405 5365 c-27 -8 -62 -15 -77 -15 -64 0 -180 -50 -208 -89 -11 -16
-40 -39 -64 -50 -23 -12 -66 -45 -94 -74 -65 -66 -72 -72 -119 -98 -21 -12
-55 -37 -77 -56 -21 -20 -57 -44 -80 -54 -61 -26 -106 -82 -106 -128 0 -16 6
-21 24 -21 55 0 33 -35 -41 -63 -51 -20 -117 -80 -142 -130 -18 -36 -18 -77 0
-77 17 0 9 -22 -15 -41 -14 -11 -26 -29 -28 -41 -2 -14 -12 -24 -28 -28 -16
-4 -32 -20 -45 -46 -14 -28 -25 -39 -37 -36 -26 5 -48 -22 -48 -57 0 -24 -5
-32 -25 -37 -16 -4 -25 -13 -25 -27 0 -11 -12 -36 -26 -54 -26 -35 -37 -37
-88 -17 -11 4 -19 -2 -26 -20 -5 -14 -15 -26 -22 -27 -7 -1 -2 -4 12 -8 15 -4
26 -15 28 -29 4 -26 -14 -29 -47 -6 -19 14 -25 14 -32 3 -17 -26 -6 -69 17
-69 8 0 22 -9 31 -20 19 -22 68 -27 77 -7 5 10 7 10 12 0 3 -7 10 -13 16 -13
6 0 28 -16 50 -36 31 -27 45 -34 64 -30 42 11 74 -32 74 -96 0 -52 -1 -54 -70
-122 -48 -47 -74 -66 -86 -62 -55 21 -62 19 -83 -23 -12 -22 -21 -52 -21 -67
0 -16 -11 -37 -31 -55 -40 -37 -67 -38 -71 -1 -3 25 -6 27 -47 24 -70 -4 -96
37 -46 76 28 22 31 32 13 50 -7 7 -14 35 -15 61 -1 48 -8 68 -37 105 -14 17
-18 17 -90 -18 -41 -20 -81 -36 -90 -36 -8 0 -31 -10 -50 -22 -27 -18 -37 -32
-42 -60 -5 -28 -12 -38 -25 -38 -25 0 -33 -17 -30 -62 4 -70 -57 -146 -72 -89
-2 9 -22 22 -44 29 -33 10 -42 18 -46 42 -8 38 -40 70 -64 64 -12 -3 -29 6
-47 25 -28 29 -76 42 -76 21 0 -17 -19 -11 -62 20 -63 46 -107 42 -170 -15
-28 -25 -55 -45 -60 -45 -19 0 -37 -34 -38 -68 0 -49 -16 -72 -49 -72 -23 0
-32 -7 -45 -35 -15 -31 -108 -105 -132 -105 -5 0 -21 -6 -36 -14 -60 -32 -143
-56 -208 -62 l-69 -7 -53 56 c-64 66 -88 73 -226 62 -122 -9 -246 -7 -293 6
-41 10 -69 45 -69 84 0 39 -18 65 -45 65 -13 0 -29 -8 -35 -17 -8 -12 -13 -14
-16 -6 -19 43 -47 63 -90 63 -25 0 -55 -7 -67 -15 -30 -19 -178 -65 -297 -92
-14 -3 -27 -9 -30 -13 -3 -4 -27 -17 -54 -31 -62 -30 -176 -130 -176 -153 1
-6 7 -36 14 -67 9 -35 12 -90 9 -150 -5 -88 -3 -98 24 -159 17 -36 38 -72 48
-80 24 -20 81 -140 93 -194 5 -25 8 -63 6 -85 -2 -22 3 -69 12 -103 8 -35 20
-82 24 -106 11 -49 66 -114 121 -142 19 -10 79 -30 132 -44 95 -26 104 -26
401 -25 l304 1 68 -36 c100 -54 110 -68 123 -160 12 -86 14 -90 78 -153 29
-29 58 -46 89 -54 33 -8 60 -26 98 -63 66 -65 92 -108 101 -171 3 -27 18 -67
32 -87 27 -40 96 -233 107 -298 11 -68 47 -150 79 -181 16 -16 33 -29 38 -29
4 0 20 -11 36 -24 16 -14 58 -32 94 -40 35 -9 94 -26 132 -38 112 -34 182 -8
251 96 48 73 81 105 125 123 20 8 55 24 78 34 51 23 77 24 133 4 23 -8 73 -15
111 -15 37 0 71 -5 74 -10 4 -6 15 -8 25 -5 21 7 55 -9 124 -55 54 -37 86 -75
86 -103 0 -31 53 -107 104 -150 26 -21 46 -44 46 -51 0 -22 42 -100 77 -144
l35 -43 151 2 c156 2 197 12 197 44 0 18 20 20 20 3 1 -21 100 -74 168 -92 87
-22 124 -20 179 9 76 39 160 75 177 75 8 0 30 8 48 18 29 16 102 38 193 57 17
4 44 12 60 20 44 19 122 42 189 55 64 13 150 47 292 116 50 24 96 44 102 44
11 0 71 31 105 55 11 7 51 44 90 82 70 67 172 144 231 173 16 8 42 33 58 55
15 22 36 51 46 63 9 13 29 45 43 72 32 58 50 77 109 117 30 20 60 56 90 103
46 75 67 100 196 232 51 52 94 86 131 103 68 31 159 55 207 55 19 0 61 10 93
22 107 39 201 158 268 337 9 25 24 56 34 70 78 110 148 324 137 413 -4 29 -11
96 -15 148 -4 52 -13 108 -20 125 -7 16 -16 81 -20 145 -5 67 -15 128 -23 145
-25 50 -31 103 -32 277 -1 163 -1 167 -26 193 -14 15 -35 31 -46 35 -20 8 -21
12 -11 47 14 54 5 80 -50 139 -91 96 -133 161 -133 207 0 15 -13 59 -30 98
-16 38 -32 86 -36 106 -19 105 -93 204 -207 280 -40 26 -104 77 -143 113 -96
89 -98 90 -272 207 -84 57 -165 106 -180 110 -15 3 -106 46 -202 94 -123 61
-190 89 -226 93 -29 4 -67 14 -85 23 -20 10 -73 20 -129 24 -96 7 -149 21
-162 42 -4 7 -28 12 -55 11 -36 0 -63 -9 -111 -37 -35 -20 -72 -37 -83 -37
-10 0 -37 17 -60 37 -35 32 -48 37 -97 40 -32 1 -79 -4 -107 -12z m-572 -445
c3 -11 1 -36 -4 -55 -8 -28 -15 -35 -34 -35 -27 0 -31 14 -16 52 5 13 12 31
15 41 7 23 32 22 39 -3z m-347 -528 c14 -10 26 -40 30 -79 4 -38 1 -40 -26
-13 -11 11 -29 20 -39 20 -18 0 -74 -54 -83 -80 -2 -7 -13 -9 -29 -5 -40 10
-29 58 17 75 19 8 23 15 19 32 -9 38 13 56 70 57 17 0 35 -3 41 -7z m-236
-152 c0 -5 -2 -10 -4 -10 -3 0 -8 5 -11 10 -3 6 -1 10 4 10 6 0 11 -4 11 -10z
m59 -76 c17 -22 22 -24 27 -10 10 25 49 19 69 -10 21 -33 6 -54 -39 -54 -30 0
-56 -15 -56 -32 0 -4 6 -8 13 -8 8 0 21 -8 30 -17 15 -17 13 -18 -26 -18 l-42
0 -1 65 c-1 36 -5 75 -9 88 -10 30 9 28 34 -4z m235 4 c10 -38 7 -48 -12 -48
-25 0 -56 35 -49 55 10 24 54 19 61 -7z m-329 -37 c-3 -12 -13 -21 -21 -21 -9
0 -12 5 -8 13 23 40 41 46 29 8z m55 25 c0 -3 -4 -8 -10 -11 -5 -3 -10 -1 -10
4 0 6 5 11 10 11 6 0 10 -2 10 -4z m-94 -101 c17 -36 13 -55 -12 -55 -36 0
-54 43 -33 81 13 24 24 18 45 -26z m41 23 c-3 -8 -6 -5 -6 6 -1 11 2 17 5 13
3 -3 4 -12 1 -19z m-549 -461 c4 -19 -6 -21 -27 -8 -16 10 -5 34 12 28 7 -2
13 -11 15 -20z m-68 -7 c0 -5 -4 -10 -10 -10 -5 0 -10 5 -10 10 0 6 5 10 10
10 6 0 10 -4 10 -10z m1088 -115 c6 -3 12 -18 12 -34 0 -43 30 -59 125 -67 44
-3 89 -12 100 -19 11 -6 33 -15 49 -19 l29 -7 -6 -71 c-4 -52 -13 -81 -32
-109 -28 -43 -32 -81 -11 -130 7 -19 17 -65 21 -103 5 -47 16 -86 36 -123 27
-49 29 -60 25 -137 -2 -46 -6 -88 -9 -93 -4 -6 -33 -20 -66 -32 -33 -12 -63
-26 -66 -31 -3 -5 -19 -7 -34 -4 -27 6 -31 2 -50 -41 -17 -39 -19 -54 -11 -84
13 -47 13 -98 -2 -160 -9 -42 -18 -55 -57 -83 -25 -18 -66 -43 -91 -56 -25
-12 -60 -33 -78 -46 -25 -19 -41 -23 -67 -19 -30 5 -38 1 -56 -21 -11 -14 -27
-26 -35 -26 -8 0 -14 -4 -14 -8 0 -5 -11 -15 -25 -22 -23 -12 -28 -11 -54 14
-16 16 -32 39 -35 52 -9 33 -53 43 -71 17 -12 -18 -20 -19 -57 -12 -24 4 -47
8 -51 9 -5 0 -7 12 -5 28 2 22 -1 28 -22 30 -14 2 -47 18 -73 35 -44 29 -48
34 -43 62 20 102 20 112 -10 150 -16 20 -41 43 -55 50 -23 13 -28 23 -34 77
-10 99 -15 116 -36 121 -10 3 -19 12 -19 20 0 8 -11 18 -25 21 -19 5 -25 13
-25 34 0 17 -10 38 -23 50 l-24 22 -16 -40 c-8 -22 -22 -40 -30 -40 -14 0 -37
40 -37 64 0 7 -9 21 -20 31 -15 14 -17 22 -9 37 6 10 7 27 4 38 -4 13 0 20 15
25 29 9 58 54 41 65 -10 6 -8 13 8 29 27 27 105 30 115 4 6 -14 9 -14 27 5 11
12 24 22 29 22 5 0 16 14 25 30 13 25 22 30 50 30 29 0 36 4 41 27 8 32 -14
52 -51 45 -32 -6 -34 20 -4 42 19 13 24 13 45 0 16 -11 28 -13 41 -5 20 11 87
84 116 125 10 14 39 38 65 51 26 14 61 34 77 45 45 30 114 60 136 60 24 0 79
27 79 39 0 5 14 18 31 28 25 17 44 19 107 16 42 -3 83 -6 90 -8z m-618 -214
c0 -20 -13 -41 -25 -41 -21 0 -28 19 -15 35 14 17 40 20 40 6z m-459 -350 c24
-20 24 -20 4 -35 -25 -20 -55 -20 -55 -2 0 8 -9 21 -21 30 -20 13 -20 14 -2
19 36 9 51 7 74 -12z m-66 -121 c-3 -5 -11 -10 -16 -10 -6 0 -7 5 -4 10 3 6
11 10 16 10 6 0 7 -4 4 -10z m72 -109 c0 -25 -17 -41 -45 -41 -13 0 -31 -8
-38 -17 -7 -10 -16 -14 -21 -10 -4 5 1 15 12 23 16 12 17 18 8 34 -15 23 -4
29 48 27 25 0 36 -5 36 -16z"/>
<path d="M3706 2904 c-9 -24 -7 -47 7 -77 12 -28 31 -38 21 -12 -7 18 7 20 24
3 7 -7 12 -8 12 -4 0 5 -11 19 -25 32 -19 18 -24 30 -19 49 7 27 -10 35 -20 9z"/>
<path d="M3806 2805 c-3 -9 0 -15 9 -15 8 0 15 7 15 15 0 8 -4 15 -9 15 -5 0
-11 -7 -15 -15z"/>
</g>
</svg>
