<?xml version="1.0" standalone="no"?>
<!DOCTYPE svg PUBLIC "-//W3C//DTD SVG 20010904//EN"
 "http://www.w3.org/TR/2001/REC-SVG-20010904/DTD/svg10.dtd">
<svg version="1.0" xmlns="http://www.w3.org/2000/svg"
 width="990.000000pt" height="622.000000pt" viewBox="0 0 990.000000 622.000000"
 preserveAspectRatio="xMidYMid meet">
<metadata>
Created by potrace 1.14, written by Peter Selinger 2001-2017
</metadata>
<g transform="translate(0.000000,622.000000) scale(0.100000,-0.100000)"
fill="#000000" stroke="none">
<path d="M5400 5388 c-47 -10 -105 -24 -130 -29 -63 -14 -100 -34 -158 -83
-27 -23 -63 -48 -80 -55 -17 -7 -42 -30 -57 -51 -33 -47 -92 -103 -132 -123
-16 -9 -45 -30 -64 -48 -19 -18 -56 -43 -82 -56 -90 -46 -144 -124 -119 -169
11 -19 -6 -44 -30 -44 -20 0 -106 -91 -128 -136 -21 -41 -19 -94 3 -94 7 0 0
-8 -15 -17 -15 -9 -29 -26 -32 -37 -3 -12 -20 -28 -38 -36 -23 -10 -36 -25
-43 -47 -6 -23 -15 -33 -28 -33 -25 0 -57 -37 -57 -66 0 -13 -8 -29 -18 -36
-10 -7 -22 -25 -25 -40 -4 -15 -18 -39 -30 -54 -22 -25 -26 -26 -56 -16 -34
12 -51 9 -51 -10 0 -6 -8 -17 -17 -24 -17 -12 -16 -13 4 -14 13 0 24 -8 28
-21 12 -36 -1 -36 -66 -2 -3 2 -10 -7 -16 -20 -12 -26 -1 -57 21 -57 7 0 21
-9 31 -20 20 -22 70 -27 79 -7 5 10 7 10 12 0 3 -7 10 -13 16 -13 6 0 28 -16
50 -36 31 -27 45 -34 64 -30 41 11 74 -32 74 -93 0 -49 -2 -53 -65 -116 -63
-65 -66 -66 -112 -63 -45 3 -48 1 -64 -32 -10 -19 -21 -52 -24 -73 -5 -29 -15
-44 -39 -58 -44 -27 -56 -24 -56 12 l0 31 -46 -7 c-71 -10 -101 30 -49 69 28
21 31 36 13 54 -7 7 -14 37 -15 68 -2 40 -8 63 -25 84 -13 16 -27 29 -31 29
-4 1 -37 -12 -72 -29 -35 -16 -74 -30 -87 -30 -36 0 -98 -63 -98 -99 0 -23 -5
-31 -18 -31 -28 0 -42 -20 -35 -52 4 -20 -2 -43 -17 -73 -13 -25 -24 -45 -26
-45 -2 0 -14 11 -28 25 -14 14 -33 25 -44 25 -21 0 -42 18 -42 38 0 25 -41 72
-62 72 -11 0 -36 14 -55 30 -34 30 -67 39 -78 20 -9 -15 -19 -12 -51 15 -30
26 -45 30 -103 26 -22 -2 -43 -13 -65 -36 -17 -18 -46 -40 -64 -49 -31 -16
-35 -24 -47 -98 -5 -31 -11 -39 -33 -44 -42 -8 -56 -19 -62 -45 -11 -45 -202
-149 -220 -119 -10 16 -33 2 -26 -15 3 -10 -15 -18 -64 -29 -116 -27 -140 -21
-183 46 -31 49 -71 60 -203 55 -66 -2 -128 -6 -139 -9 -11 -3 -26 -1 -33 5 -7
5 -30 7 -52 4 -89 -12 -160 34 -160 104 0 46 -24 65 -65 49 -33 -12 -35 -12
-35 1 0 20 -31 41 -70 46 -29 4 -48 0 -77 -17 -21 -12 -51 -27 -68 -32 -73
-22 -174 -47 -215 -53 -25 -4 -52 -13 -60 -20 -8 -7 -37 -25 -65 -41 -54 -30
-122 -80 -143 -104 -9 -11 -11 -31 -5 -75 4 -33 7 -114 8 -180 1 -113 3 -123
32 -180 17 -34 38 -67 47 -74 9 -8 33 -48 53 -90 33 -68 37 -88 44 -186 11
-177 51 -284 124 -333 31 -22 108 -49 198 -71 30 -7 162 -11 364 -11 l316 0
66 -36 c75 -42 114 -80 108 -106 -3 -10 -1 -21 4 -24 5 -3 9 -21 9 -41 0 -19
7 -50 16 -69 24 -50 103 -117 155 -131 42 -12 149 -97 149 -119 0 -5 9 -20 20
-34 12 -15 20 -41 20 -66 0 -26 8 -54 23 -75 41 -63 96 -211 122 -332 22 -106
50 -152 123 -204 38 -27 87 -51 120 -60 32 -8 83 -23 114 -34 123 -41 204 -14
272 91 48 75 82 109 125 127 20 8 56 24 81 35 40 19 50 20 95 8 28 -7 84 -14
125 -16 41 -3 84 -9 96 -15 11 -6 24 -9 30 -8 24 4 44 -4 101 -41 64 -41 103
-85 103 -116 0 -28 56 -108 105 -149 25 -20 45 -44 45 -52 0 -25 48 -117 82
-155 l33 -37 144 4 c152 5 176 9 202 31 14 13 22 10 67 -21 58 -39 110 -56
198 -62 53 -4 66 -1 99 21 21 14 44 26 52 26 7 0 32 8 56 18 114 50 159 66
242 88 50 13 126 37 170 53 44 15 103 32 130 36 50 7 216 71 323 124 31 16 68
32 82 36 56 17 103 49 196 136 55 50 134 112 177 137 42 25 92 62 110 82 46
54 95 122 103 145 14 38 48 76 102 113 31 21 62 52 73 74 10 20 23 40 29 43 6
3 19 24 30 45 19 38 244 270 262 270 4 0 27 9 51 19 64 29 75 32 169 46 134
21 226 72 282 160 38 58 75 133 92 186 9 30 25 65 34 79 67 96 137 295 141
395 4 96 -14 253 -37 323 -8 24 -14 82 -14 133 0 50 -5 99 -10 109 -25 46 -38
167 -33 298 6 146 3 161 -52 220 -27 30 -30 38 -27 90 3 49 -1 61 -23 87 -14
17 -32 39 -40 50 -9 11 -35 45 -59 75 -50 65 -66 92 -66 117 0 10 -12 43 -26
73 -15 30 -35 87 -45 127 -34 134 -84 200 -214 288 -38 25 -104 79 -145 118
-61 59 -300 231 -394 284 -69 39 -400 194 -446 208 -30 10 -79 27 -108 38 -32
11 -94 23 -150 27 -70 5 -109 13 -139 28 -24 13 -61 22 -85 22 -40 0 -139 -28
-155 -43 -13 -14 -62 -6 -75 11 -13 18 -89 43 -125 41 -10 -1 -56 -10 -103
-21z m-575 -514 c-4 -26 -11 -34 -23 -32 -13 3 -16 12 -14 38 2 19 9 41 15 48
16 21 30 -13 22 -54z m-325 -509 c15 -39 4 -54 -35 -48 -36 6 -37 5 -95 -67
-20 -24 -20 -25 -35 -6 -21 28 -19 35 15 54 23 13 30 24 30 48 0 41 5 44 62
44 42 0 50 -3 58 -25z m-194 -200 c27 -29 34 -31 34 -10 0 25 46 18 65 -11 21
-32 6 -54 -39 -54 -29 -1 -66 -19 -66 -34 0 -3 8 -6 18 -6 11 0 26 -8 35 -17
15 -17 13 -18 -26 -17 l-42 1 -1 64 c-1 35 -5 74 -9 87 -10 29 2 28 31 -3z
m234 6 c15 -30 12 -51 -8 -51 -25 0 -56 35 -49 55 9 21 44 19 57 -4z m-327
-39 c-6 -24 -23 -30 -23 -9 0 13 21 39 26 34 2 -2 1 -13 -3 -25z m4 -54 c-3
-8 -6 -5 -6 6 -1 11 2 17 5 13 3 -3 4 -12 1 -19z m-42 -24 c16 -30 17 -37 4
-45 -20 -12 -24 -12 -44 11 -12 13 -15 27 -11 45 9 35 28 31 51 -11z m-515
-429 c10 -12 10 -15 -4 -15 -9 0 -16 7 -16 15 0 8 2 15 4 15 2 0 9 -7 16 -15z
m-60 -9 c0 -3 -4 -8 -10 -11 -5 -3 -10 -1 -10 4 0 6 5 11 10 11 6 0 10 -2 10
-4z m1088 -121 c6 -3 12 -17 12 -33 0 -45 25 -60 120 -67 47 -4 94 -13 105
-20 11 -6 33 -15 49 -19 l29 -7 -6 -64 c-4 -37 -16 -82 -29 -107 -34 -64 -36
-79 -18 -128 10 -25 20 -76 24 -115 4 -42 16 -87 31 -115 33 -62 35 -74 27
-163 l-7 -78 -60 -26 c-33 -14 -76 -26 -95 -27 -31 -1 -38 -7 -59 -46 -21 -40
-22 -50 -12 -88 14 -54 14 -94 -1 -159 -12 -49 -16 -54 -80 -95 -38 -24 -90
-58 -118 -75 -36 -24 -61 -33 -91 -33 -32 0 -45 -6 -61 -25 -11 -14 -26 -25
-34 -25 -8 0 -14 -4 -14 -8 0 -5 -11 -14 -24 -22 -23 -12 -27 -10 -53 16 -16
16 -34 41 -40 57 -14 30 -59 38 -69 12 -7 -17 -50 -20 -89 -5 -21 8 -24 14
-19 35 5 22 3 25 -19 25 -14 0 -49 14 -77 32 -48 30 -51 34 -46 63 21 105 20
111 -15 155 -19 23 -44 46 -55 50 -18 7 -23 20 -29 77 -9 95 -14 110 -36 116
-10 3 -19 11 -19 19 0 7 -10 18 -22 23 -14 6 -24 21 -26 36 -2 15 -14 37 -27
49 l-24 23 -11 -27 c-5 -15 -10 -31 -10 -36 0 -4 -6 -10 -14 -13 -17 -7 -34
11 -39 41 -2 12 -11 29 -20 40 -26 29 -16 86 22 121 23 22 31 36 26 50 -9 30
20 51 71 51 32 0 44 -4 44 -15 0 -8 4 -15 8 -15 12 0 92 79 92 91 0 6 15 9 33
7 25 -2 35 2 45 21 18 34 -10 64 -50 56 -34 -8 -37 6 -7 36 19 19 22 19 38 5
10 -9 23 -16 30 -16 14 0 105 91 132 131 9 13 29 31 45 39 15 8 64 36 107 62
44 27 102 52 133 58 34 7 59 19 68 32 31 45 62 55 144 51 42 -3 83 -6 90 -8z
m-618 -219 c0 -18 -27 -39 -40 -31 -7 4 -7 12 0 26 12 22 40 26 40 5z m-464
-342 c23 -16 24 -18 8 -35 -23 -25 -27 -24 -62 10 -32 32 -32 30 21 40 4 0 19
-6 33 -15z m-61 -124 c-3 -5 -11 -10 -16 -10 -6 0 -7 5 -4 10 3 6 11 10 16 10
6 0 7 -4 4 -10z m65 -110 c8 -15 6 -21 -9 -30 -30 -16 -47 -12 -65 14 -14 23
-14 25 2 29 38 10 62 6 72 -13z m-76 -55 c-4 -8 -11 -15 -16 -15 -6 0 -5 6 2
15 7 8 14 15 16 15 2 0 1 -7 -2 -15z"/>
<path d="M3704 2905 c-4 -8 -3 -29 0 -45 3 -17 9 -43 12 -60 4 -16 10 -30 15
-30 5 0 7 14 4 30 -6 32 3 38 23 18 7 -7 12 -8 12 -4 0 5 -11 19 -25 32 -19
18 -24 30 -19 49 7 27 -12 36 -22 10z"/>
<path d="M3795 2800 c-10 -11 -16 -23 -13 -26 9 -8 48 19 48 33 0 19 -14 16
-35 -7z"/>
</g>
</svg>
