<?xml version="1.0" standalone="no"?>
<!DOCTYPE svg PUBLIC "-//W3C//DTD SVG 20010904//EN"
 "http://www.w3.org/TR/2001/REC-SVG-20010904/DTD/svg10.dtd">
<svg version="1.0" xmlns="http://www.w3.org/2000/svg"
 width="990.000000pt" height="622.000000pt" viewBox="0 0 990.000000 622.000000"
 preserveAspectRatio="xMidYMid meet">
<metadata>
Created by potrace 1.14, written by Peter Selinger 2001-2017
</metadata>
<g transform="translate(0.000000,622.000000) scale(0.100000,-0.100000)"
fill="#000000" stroke="none">
<path d="M5420 5381 c-14 -5 -54 -14 -90 -20 -109 -20 -160 -41 -202 -83 -21
-21 -58 -48 -81 -60 -23 -12 -51 -34 -62 -48 -36 -46 -100 -105 -130 -119 -17
-8 -46 -30 -65 -47 -19 -18 -66 -50 -105 -72 -100 -56 -146 -143 -85 -159 11
-3 20 -9 20 -13 0 -9 -57 -40 -74 -40 -14 0 -116 -96 -116 -109 0 -5 -8 -23
-17 -39 -16 -28 -16 -31 0 -55 16 -25 16 -27 -4 -37 -11 -7 -25 -24 -30 -38
-5 -15 -24 -34 -41 -42 -23 -10 -35 -25 -41 -48 -6 -26 -12 -32 -26 -27 -24 7
-61 -37 -54 -65 4 -14 -2 -23 -20 -31 -14 -6 -27 -22 -30 -38 -3 -15 -16 -39
-28 -55 -21 -27 -34 -29 -83 -10 -11 4 -19 -2 -26 -20 -5 -14 -15 -26 -22 -27
-7 -1 -2 -4 12 -8 15 -4 26 -15 28 -29 4 -26 -14 -29 -47 -6 -19 14 -25 14
-32 3 -17 -26 -10 -59 14 -68 13 -5 29 -16 36 -25 16 -19 67 -21 75 -3 5 10 7
10 12 0 3 -7 10 -13 16 -13 6 0 28 -16 50 -36 31 -27 45 -34 64 -30 41 11 74
-32 74 -93 0 -46 -4 -54 -51 -106 -59 -64 -98 -88 -120 -74 -39 25 -77 -17
-93 -103 -4 -25 -16 -44 -35 -58 -40 -28 -59 -26 -63 8 -3 25 -6 27 -47 24
-70 -4 -96 37 -46 76 28 22 31 32 13 50 -7 7 -14 35 -15 63 -1 50 -35 119 -58
119 -5 0 -40 -16 -77 -34 -40 -21 -75 -32 -88 -29 -11 3 -20 1 -20 -5 0 -6
-14 -19 -30 -29 -23 -13 -32 -27 -37 -55 -4 -26 -11 -38 -22 -38 -27 0 -40
-20 -34 -55 3 -21 -2 -46 -16 -73 -23 -46 -35 -52 -50 -24 -5 10 -28 24 -49
30 -32 10 -41 18 -45 42 -8 36 -40 70 -68 70 -11 0 -34 13 -52 30 -35 33 -55
38 -63 15 -9 -22 -25 -18 -64 15 -47 41 -115 42 -151 4 -13 -14 -39 -35 -59
-47 -48 -29 -59 -46 -60 -87 0 -46 -11 -61 -50 -69 -32 -6 -43 -17 -54 -53 -9
-31 -216 -142 -216 -117 0 5 -4 9 -10 9 -5 0 -10 -6 -10 -14 0 -18 -46 -33
-127 -42 -69 -7 -106 7 -118 46 -3 11 -26 31 -49 45 -38 22 -54 25 -146 25
-57 0 -119 -5 -137 -12 -25 -9 -39 -9 -51 -2 -10 6 -32 9 -50 6 -47 -6 -123
16 -142 41 -8 12 -17 40 -20 61 -6 48 -28 65 -68 50 -26 -10 -30 -8 -44 16
-24 42 -77 48 -142 16 -28 -13 -76 -32 -106 -41 -30 -8 -68 -20 -85 -24 -16
-5 -49 -12 -73 -16 -42 -7 -173 -78 -217 -119 -12 -12 -34 -32 -49 -45 -28
-25 -32 -47 -15 -101 6 -19 10 -87 9 -151 0 -130 12 -172 80 -264 20 -27 43
-66 50 -85 7 -19 18 -41 23 -48 5 -7 13 -61 17 -120 9 -132 42 -254 82 -305
39 -48 85 -72 204 -103 93 -24 107 -24 405 -24 l310 1 67 -37 c98 -54 109 -68
117 -144 4 -36 14 -80 22 -98 23 -50 105 -118 150 -125 28 -5 54 -21 96 -60
31 -30 57 -58 57 -62 0 -5 8 -17 17 -27 9 -10 20 -43 24 -74 5 -34 18 -70 33
-93 27 -39 100 -244 111 -314 13 -78 58 -161 101 -187 22 -13 48 -31 60 -42
11 -10 54 -27 95 -37 40 -11 96 -27 123 -36 27 -8 66 -15 86 -15 51 0 119 46
162 111 50 75 85 109 127 126 20 8 56 24 81 35 41 19 50 20 95 8 28 -7 86 -14
130 -17 44 -3 85 -9 91 -14 6 -5 18 -7 27 -3 17 6 53 -11 121 -56 50 -34 86
-78 86 -106 0 -28 56 -108 105 -149 25 -20 45 -43 45 -50 0 -22 36 -98 58
-123 11 -13 27 -33 35 -45 13 -20 20 -21 158 -19 179 3 197 6 205 39 6 21 9
24 18 12 26 -33 105 -78 164 -93 88 -22 134 -20 189 8 63 33 167 76 182 76 7
0 29 9 51 20 37 19 79 31 168 50 24 5 58 16 75 24 49 22 95 35 173 52 71 14
259 87 319 123 16 10 48 24 70 31 38 13 91 39 127 64 9 7 52 46 95 87 72 68
113 99 230 172 23 15 57 49 75 77 18 27 36 50 40 50 5 0 8 4 8 10 0 27 69 116
116 151 30 22 67 59 82 82 15 23 33 48 40 55 7 8 19 27 28 43 8 17 65 81 127
143 97 98 121 116 179 139 36 14 97 31 135 37 159 27 222 55 287 131 35 41
126 215 126 242 0 8 11 31 25 51 68 100 145 311 145 396 0 83 -20 252 -37 309
-9 30 -17 95 -18 145 -1 54 -8 109 -17 136 -32 87 -38 144 -33 283 6 152 0
174 -53 219 -27 22 -29 30 -28 86 1 58 -1 63 -40 104 -22 24 -47 52 -55 64 -8
12 -28 40 -46 63 -17 23 -36 65 -43 94 -6 28 -23 75 -36 103 -13 28 -24 58
-24 67 0 9 -12 48 -27 88 -31 85 -108 173 -199 229 -31 19 -83 60 -114 91 -57
55 -122 108 -197 161 -132 92 -237 158 -279 173 -27 10 -61 27 -76 37 -14 10
-29 18 -32 18 -3 0 -61 27 -128 61 -68 33 -147 65 -178 71 -30 5 -75 19 -98
30 -28 12 -81 22 -147 28 -80 6 -111 13 -134 29 -41 29 -90 26 -174 -10 -86
-38 -115 -38 -144 -2 -20 25 -29 28 -95 30 -40 1 -84 -1 -98 -6z m-592 -482
c4 -44 -19 -79 -41 -61 -12 10 -13 19 -4 45 5 18 12 38 14 45 6 26 28 5 31
-29z m-331 -526 c8 -10 11 -28 8 -40 -3 -12 -1 -25 5 -28 5 -3 10 -11 10 -17
0 -7 -9 -2 -20 10 -12 12 -32 22 -46 22 -26 0 -69 -38 -79 -71 -9 -26 -30 -24
-49 6 -15 23 -15 25 6 40 12 8 29 15 36 15 8 0 13 9 12 23 -4 44 0 56 23 59
45 6 81 -1 94 -19z m-189 -208 c23 -29 32 -32 32 -10 0 25 46 18 65 -11 21
-32 6 -54 -39 -54 -29 -1 -66 -19 -66 -34 0 -3 8 -6 18 -6 11 0 26 -8 35 -17
15 -17 13 -18 -26 -18 l-42 0 -1 65 c-1 36 -5 75 -9 88 -10 30 8 28 33 -3z
m232 6 c15 -30 12 -51 -8 -51 -25 0 -56 35 -49 55 9 21 44 19 57 -4z m-327
-39 c-3 -12 -12 -22 -20 -22 -14 0 -11 10 10 38 13 17 17 11 10 -16z m4 -54
c-3 -8 -6 -5 -6 6 -1 11 2 17 5 13 3 -3 4 -12 1 -19z m-44 -19 c22 -39 21 -46
-3 -54 -35 -11 -60 28 -44 69 9 25 27 19 47 -15z m-503 -451 c0 -5 -9 -4 -20
2 -11 6 -18 15 -14 21 6 11 34 -7 34 -23z m-70 2 c0 -5 -4 -10 -10 -10 -5 0
-10 5 -10 10 0 6 5 10 10 10 6 0 10 -4 10 -10z m1088 -115 c6 -3 12 -17 12
-33 0 -45 25 -60 120 -67 47 -4 94 -13 105 -20 11 -6 33 -15 49 -19 l29 -7 -6
-69 c-4 -48 -13 -80 -30 -107 -34 -53 -36 -71 -17 -123 10 -25 21 -75 25 -113
4 -43 17 -88 36 -125 27 -53 28 -63 24 -141 -3 -46 -8 -87 -10 -91 -2 -4 -31
-17 -64 -29 -33 -12 -63 -26 -66 -31 -4 -7 -13 -6 -26 0 -26 15 -37 6 -60 -47
-16 -37 -17 -52 -9 -82 13 -48 13 -94 -2 -156 -10 -42 -19 -57 -56 -85 -25
-19 -62 -42 -83 -52 -22 -9 -54 -29 -73 -43 -23 -18 -45 -25 -76 -25 -33 0
-46 -5 -62 -25 -11 -14 -26 -25 -34 -25 -8 0 -14 -4 -14 -8 0 -5 -11 -15 -25
-22 -22 -12 -27 -10 -50 11 -14 13 -32 39 -40 57 -16 37 -57 45 -74 13 -9 -15
-17 -17 -51 -11 -48 9 -55 14 -55 43 0 15 -8 23 -25 27 -14 3 -47 18 -73 34
-45 27 -48 31 -43 60 21 106 20 112 -15 156 -19 23 -44 46 -55 50 -18 7 -23
20 -28 72 -11 99 -16 116 -37 121 -10 3 -19 12 -19 20 0 8 -11 18 -25 21 -19
5 -25 13 -25 34 0 17 -10 38 -24 51 l-23 22 -17 -40 c-21 -55 -43 -52 -61 9
-4 14 -13 32 -21 40 -23 27 -11 86 25 119 23 22 31 36 26 50 -9 29 20 51 70
51 30 0 45 -5 49 -16 5 -13 11 -12 39 11 17 15 38 38 45 51 9 18 21 24 46 24
25 0 35 6 44 24 15 33 -14 60 -52 50 -33 -8 -36 18 -5 40 19 13 24 13 45 0 16
-11 28 -13 41 -5 20 11 87 84 116 126 11 14 31 32 45 38 15 6 58 31 95 55 37
23 92 49 122 57 61 15 95 32 95 44 0 5 14 18 31 28 25 17 44 19 107 16 42 -3
83 -6 90 -8z m-618 -219 c0 -18 -27 -39 -40 -31 -7 4 -7 12 0 26 12 22 40 26
40 5z m-459 -345 c24 -20 24 -20 4 -35 -22 -17 -60 -22 -50 -7 3 5 -6 18 -20
29 -23 18 -24 21 -8 25 36 9 51 7 74 -12z m-66 -121 c-3 -5 -11 -10 -16 -10
-6 0 -7 5 -4 10 3 6 11 10 16 10 6 0 7 -4 4 -10z m65 -110 c8 -15 6 -21 -9
-30 -11 -5 -29 -10 -40 -10 -11 0 -24 -8 -30 -17 -5 -10 -13 -14 -17 -10 -4 4
1 14 12 21 16 12 17 18 7 35 -14 23 -6 29 39 30 17 1 31 -6 38 -19z"/>
<path d="M3707 2913 c-11 -10 -8 -55 6 -95 17 -50 29 -60 22 -20 -6 33 3 40
23 20 7 -7 12 -8 12 -4 0 5 -11 19 -25 32 -19 18 -24 30 -19 49 6 23 -4 33
-19 18z"/>
<path d="M3800 2805 c-7 -9 -11 -18 -8 -20 9 -10 38 7 38 21 0 18 -14 18 -30
-1z"/>
</g>
</svg>
