<?xml version="1.0" standalone="no"?>
<!DOCTYPE svg PUBLIC "-//W3C//DTD SVG 20010904//EN"
 "http://www.w3.org/TR/2001/REC-SVG-20010904/DTD/svg10.dtd">
<svg version="1.0" xmlns="http://www.w3.org/2000/svg"
 width="990.000000pt" height="622.000000pt" viewBox="0 0 990.000000 622.000000"
 preserveAspectRatio="xMidYMid meet">
<metadata>
Created by potrace 1.14, written by Peter Selinger 2001-2017
</metadata>
<g transform="translate(0.000000,622.000000) scale(0.100000,-0.100000)"
fill="#000000" stroke="none">
<path d="M5480 5419 c-99 -12 -228 -38 -266 -54 -20 -8 -64 -36 -97 -62 -34
-27 -78 -56 -97 -66 -22 -11 -50 -41 -74 -78 -21 -34 -56 -73 -78 -87 -21 -15
-58 -44 -81 -65 -23 -21 -64 -49 -92 -62 -27 -12 -62 -36 -77 -51 -34 -36 -61
-99 -53 -124 4 -13 0 -20 -13 -24 -28 -9 -116 -105 -141 -153 -18 -35 -19 -46
-9 -68 10 -22 9 -28 -10 -41 -12 -8 -22 -22 -22 -30 0 -8 -16 -22 -35 -30 -24
-9 -40 -25 -49 -49 -8 -19 -22 -35 -30 -35 -19 0 -46 -38 -46 -65 0 -12 -8
-30 -18 -41 -10 -11 -22 -32 -25 -46 -4 -15 -18 -39 -31 -55 -22 -26 -25 -27
-52 -13 -16 8 -32 16 -36 18 -5 2 -12 -8 -18 -22 -5 -14 -14 -26 -20 -26 -5 0
-10 -4 -10 -10 0 -5 6 -10 14 -10 22 0 41 -29 28 -42 -8 -8 -18 -6 -37 6 -25
17 -27 17 -41 -1 -22 -29 -17 -40 32 -72 44 -30 94 -41 94 -21 0 14 38 -8 82
-49 29 -27 42 -32 62 -27 42 10 76 -30 76 -91 0 -44 -4 -53 -47 -99 -69 -73
-96 -88 -132 -76 -24 8 -32 7 -43 -6 -25 -32 -38 -61 -44 -103 -5 -32 -14 -45
-38 -60 -34 -21 -50 -20 -52 2 -1 8 -2 20 -3 27 -1 11 -13 12 -51 7 -47 -6
-50 -5 -61 19 -11 23 -9 28 14 49 30 25 33 37 15 55 -6 6 -12 36 -13 66 -3 59
-35 116 -66 116 -9 0 -43 -13 -74 -30 -31 -16 -68 -30 -81 -30 -32 0 -82 -46
-92 -83 -4 -17 -17 -35 -27 -41 -29 -16 -34 -26 -28 -61 4 -23 -2 -42 -18 -68
-26 -40 -37 -45 -45 -22 -3 8 -22 17 -41 21 -28 5 -38 14 -50 43 -19 47 -42
71 -65 71 -11 0 -33 14 -51 31 -26 25 -38 29 -65 25 -33 -5 -82 10 -82 25 0 4
-13 12 -30 17 -40 14 -93 -1 -122 -36 -13 -15 -39 -37 -59 -49 -38 -24 -62
-63 -53 -87 9 -23 -11 -48 -47 -60 -22 -7 -39 -22 -48 -41 -16 -35 -48 -65
-68 -65 -7 0 -13 -4 -13 -8 0 -16 -123 -63 -134 -52 -18 18 -44 11 -48 -12 -3
-20 -13 -25 -77 -37 -86 -16 -112 -8 -141 44 -31 56 -64 66 -207 66 -70 0
-137 -1 -148 -1 -119 -3 -163 1 -175 15 -7 8 -21 15 -31 15 -11 0 -20 9 -23
23 -20 105 -18 102 -62 103 -28 0 -48 8 -62 22 -20 20 -52 28 -92 22 -8 -1
-42 -14 -75 -30 -33 -16 -79 -33 -102 -39 -90 -23 -119 -30 -159 -36 -23 -3
-70 -24 -105 -46 -35 -21 -68 -39 -72 -39 -19 0 -97 -76 -102 -100 -3 -15 1
-58 10 -97 12 -53 13 -80 6 -114 -19 -84 10 -196 70 -272 17 -20 44 -65 61
-100 26 -52 33 -79 40 -170 9 -113 39 -247 63 -282 53 -75 102 -102 235 -131
48 -10 147 -14 387 -14 l321 0 69 -36 c74 -39 117 -80 108 -102 -3 -8 -1 -20
4 -26 4 -6 11 -35 13 -64 5 -50 9 -58 66 -112 42 -41 71 -61 96 -65 43 -9 134
-84 166 -140 13 -22 27 -63 31 -90 4 -28 18 -67 31 -87 26 -38 102 -254 114
-323 9 -55 47 -136 73 -159 33 -30 144 -96 161 -96 9 0 49 -11 90 -25 45 -14
99 -25 133 -25 74 0 119 29 176 115 52 79 77 104 120 122 20 8 56 24 81 35 41
19 50 20 95 8 28 -7 86 -14 130 -17 44 -3 84 -8 90 -13 5 -4 23 -8 38 -8 18 0
55 -18 98 -47 66 -45 99 -85 99 -119 0 -21 59 -102 107 -147 23 -21 45 -55 55
-85 10 -27 35 -71 56 -99 l38 -50 148 -1 c125 -1 154 2 184 18 47 23 46 23 97
-13 42 -30 76 -42 165 -59 53 -10 85 -4 121 22 14 11 41 23 60 28 19 4 59 18
89 30 108 44 146 58 200 73 95 27 123 35 185 57 33 11 92 27 130 35 71 15 183
58 291 113 33 16 86 40 119 52 72 28 96 45 201 147 53 50 111 95 167 126 88
49 147 110 196 204 20 40 65 89 125 137 20 15 61 67 92 115 34 51 99 128 163
192 94 93 115 109 184 138 46 19 118 38 173 46 136 21 228 75 281 165 43 73
93 175 93 190 0 8 24 62 53 120 29 58 66 146 83 195 26 82 29 101 28 220 -1
98 -7 152 -24 220 -14 57 -22 119 -21 169 0 44 -7 107 -15 140 -12 45 -16 106
-15 230 1 165 1 169 -25 213 -14 25 -33 54 -42 64 -11 13 -15 34 -13 65 3 44
-24 116 -55 150 -6 7 -25 35 -43 63 -18 28 -37 51 -41 51 -15 0 -111 212 -130
286 -33 134 -77 192 -205 278 -38 25 -104 80 -145 121 -41 40 -96 86 -122 102
-25 15 -74 47 -108 71 -34 23 -66 42 -70 42 -5 0 -10 3 -12 8 -7 16 -122 85
-181 109 -34 14 -73 33 -87 43 -23 16 -152 75 -260 120 -116 48 -192 70 -272
79 -47 6 -110 18 -138 27 -41 13 -70 15 -148 9 -121 -9 -143 -8 -212 2 -30 4
-80 5 -110 2z m-653 -505 c8 -21 -15 -70 -28 -57 -11 11 -1 73 13 73 5 0 11
-7 15 -16z m-343 -530 c9 -4 16 -18 16 -34 0 -25 -3 -28 -36 -28 -39 0 -68
-21 -91 -66 l-16 -30 -18 23 c-23 28 -10 51 29 51 23 0 24 2 18 38 -3 22 -3
42 1 45 8 9 76 9 97 1z m-194 -204 c0 -5 -4 -10 -10 -10 -5 0 -10 5 -10 10 0
6 5 10 10 10 6 0 10 -4 10 -10z m251 -17 c14 -37 -3 -51 -35 -29 -28 18 -34
41 -13 49 26 11 38 6 48 -20z m-227 -17 c-2 -23 17 -20 23 4 8 29 50 26 65 -4
14 -33 3 -60 -22 -53 -10 3 -35 -4 -54 -14 -19 -10 -37 -15 -40 -11 -3 6 -1
85 3 100 3 12 26 -8 25 -22z m-101 -14 c-6 -24 -23 -30 -23 -9 0 13 21 39 26
34 2 -2 1 -13 -3 -25z m4 -54 c-3 -8 -6 -5 -6 6 -1 11 2 17 5 13 3 -3 4 -12 1
-19z m-57 -2 c0 -7 7 -19 15 -26 20 -16 19 -36 -2 -44 -26 -10 -57 26 -49 58
7 27 36 37 36 12z m190 -41 c11 -13 8 -15 -19 -15 -17 0 -34 0 -38 -1 -5 0 -9
7 -11 15 -5 21 51 22 68 1z m338 -547 c6 -6 12 -23 12 -38 0 -15 6 -32 13 -38
6 -5 53 -13 102 -17 50 -4 99 -13 110 -19 11 -7 33 -16 49 -20 l29 -7 -6 -65
c-4 -39 -16 -84 -31 -112 -35 -69 -37 -80 -21 -112 8 -16 20 -64 25 -107 12
-84 25 -128 47 -155 11 -12 14 -43 14 -114 -1 -54 -4 -101 -8 -105 -5 -4 -26
-12 -48 -19 -22 -7 -50 -19 -62 -27 -11 -8 -34 -13 -49 -11 -24 3 -31 -3 -52
-42 -22 -41 -23 -48 -11 -106 10 -50 10 -73 -2 -124 -15 -68 -33 -89 -117
-136 -26 -15 -66 -40 -89 -55 -30 -22 -53 -29 -87 -29 -29 0 -48 -5 -53 -14
-4 -8 -28 -28 -53 -45 l-44 -29 -30 25 c-17 14 -36 39 -43 54 -9 21 -19 29
-38 29 -14 0 -28 -7 -31 -15 -7 -17 -50 -20 -89 -5 -21 8 -24 14 -19 35 5 22
3 25 -20 25 -14 0 -49 15 -77 32 -46 30 -49 36 -44 63 20 98 18 112 -17 156
-18 23 -43 45 -56 50 -16 6 -22 16 -22 36 1 16 -1 39 -4 53 -3 14 -8 42 -11
62 -4 25 -12 39 -25 43 -11 4 -20 12 -20 18 0 7 -10 17 -22 22 -14 6 -24 21
-26 38 -2 15 -14 39 -27 53 l-23 25 -13 -38 c-6 -21 -17 -41 -23 -45 -15 -10
-36 11 -36 37 0 12 -9 30 -21 40 -28 27 -17 89 23 127 21 19 28 33 23 47 -9
31 20 51 70 49 39 -2 45 -5 45 -25 0 -18 9 -12 59 38 48 50 63 60 87 57 23 -2
30 2 38 24 8 23 6 31 -10 43 -10 8 -28 13 -40 10 -27 -6 -36 3 -23 26 10 20
44 26 54 9 13 -21 42 -8 86 38 25 26 55 61 66 77 12 17 53 47 93 69 39 21 86
48 104 60 18 12 58 28 89 35 37 8 63 21 75 35 31 41 66 52 145 48 39 -2 78 -9
85 -14z m-618 -213 c0 -8 -2 -15 -4 -15 -2 0 -11 -3 -20 -6 -10 -4 -16 -1 -16
9 0 14 13 24 33 26 4 1 7 -6 7 -14z m-469 -341 c30 -15 30 -16 13 -35 -19 -22
-44 -25 -44 -6 0 7 -10 18 -22 26 -22 14 -22 14 -3 22 11 4 21 8 23 8 2 1 17
-6 33 -15z m-61 -124 c0 -5 -5 -10 -11 -10 -5 0 -7 5 -4 10 3 6 8 10 11 10 2
0 4 -4 4 -10z m70 -110 c8 -15 6 -21 -9 -30 -30 -16 -47 -12 -65 14 -14 23
-14 25 2 29 38 10 62 6 72 -13z m-80 -60 c0 -5 -5 -10 -11 -10 -5 0 -7 5 -4
10 3 6 8 10 11 10 2 0 4 -4 4 -10z"/>
<path d="M3713 2919 c-16 -16 -16 -46 -1 -102 9 -36 17 -45 44 -53 29 -10 36
-8 55 12 13 14 19 30 15 39 -5 15 -10 13 -37 -9 -33 -28 -44 -31 -54 -16 -3 5
6 12 21 16 l27 7 -23 19 c-15 12 -26 34 -29 59 -5 32 -8 38 -18 28z m37 -99
c0 -5 -5 -10 -11 -10 -5 0 -7 5 -4 10 3 6 8 10 11 10 2 0 4 -4 4 -10z"/>
</g>
</svg>
