<?xml version="1.0" standalone="no"?>
<!DOCTYPE svg PUBLIC "-//W3C//DTD SVG 20010904//EN"
 "http://www.w3.org/TR/2001/REC-SVG-20010904/DTD/svg10.dtd">
<svg version="1.0" xmlns="http://www.w3.org/2000/svg"
 width="990.000000pt" height="622.000000pt" viewBox="0 0 990.000000 622.000000"
 preserveAspectRatio="xMidYMid meet">
<metadata>
Created by potrace 1.14, written by Peter Selinger 2001-2017
</metadata>
<g transform="translate(0.000000,622.000000) scale(0.100000,-0.100000)"
fill="#000000" stroke="none">
<path d="M5440 5406 c-30 -7 -86 -19 -125 -26 -87 -16 -159 -49 -207 -95 -21
-20 -53 -42 -72 -50 -20 -8 -48 -34 -65 -57 -43 -63 -74 -93 -142 -139 -33
-22 -62 -46 -65 -54 -3 -7 -24 -21 -47 -31 -96 -42 -154 -111 -145 -173 3 -23
-1 -32 -23 -45 -80 -48 -155 -157 -145 -212 5 -21 2 -35 -6 -41 -7 -4 -19 -20
-27 -35 -8 -16 -22 -28 -31 -28 -21 0 -50 -31 -50 -54 0 -9 -8 -19 -17 -23
-34 -12 -63 -46 -63 -74 0 -16 -8 -34 -18 -41 -10 -7 -22 -25 -25 -40 -4 -15
-18 -39 -31 -54 -22 -26 -25 -27 -55 -15 -29 13 -33 12 -56 -13 -30 -33 -30
-32 -5 -39 21 -5 37 -33 26 -45 -4 -4 -21 1 -38 11 -29 17 -31 17 -44 0 -16
-21 -16 -24 -6 -40 25 -40 132 -82 132 -53 0 14 38 -8 82 -49 29 -27 42 -32
62 -27 43 11 76 -30 76 -92 0 -48 -3 -52 -66 -116 -64 -65 -68 -67 -112 -64
-41 3 -47 0 -63 -27 -9 -16 -20 -50 -24 -73 -6 -34 -14 -48 -39 -63 -39 -24
-58 -24 -55 -1 4 42 1 44 -51 37 -47 -6 -50 -5 -61 19 -11 23 -9 28 14 49 30
25 33 37 15 55 -7 7 -14 37 -15 68 -2 40 -8 63 -25 84 -29 37 -41 37 -108 0
-30 -16 -68 -29 -83 -30 -36 0 -97 -60 -97 -94 0 -17 -8 -29 -27 -38 -24 -12
-28 -19 -25 -49 2 -23 -4 -49 -18 -72 -23 -39 -37 -46 -46 -23 -3 8 -20 18
-37 22 -40 8 -57 21 -57 44 0 27 -39 70 -64 70 -12 0 -35 14 -52 31 -25 27
-34 30 -67 25 -30 -5 -45 -1 -77 20 -52 35 -111 29 -150 -13 -14 -16 -42 -39
-63 -52 -36 -22 -40 -29 -52 -102 -5 -31 -10 -37 -43 -45 -29 -7 -41 -17 -55
-48 -12 -24 -29 -42 -48 -49 -16 -6 -29 -14 -29 -18 0 -3 -30 -19 -66 -34 -52
-22 -68 -25 -74 -15 -11 17 -41 5 -34 -14 13 -34 -177 -56 -209 -24 -9 9 -17
23 -17 32 0 8 -19 26 -42 40 -40 23 -53 25 -168 25 -255 -1 -305 2 -337 17
-33 15 -37 23 -49 86 -8 49 -25 62 -69 54 -26 -5 -35 -3 -35 7 0 18 -43 37
-83 37 -18 0 -52 -11 -77 -24 -25 -13 -72 -31 -105 -41 -33 -9 -73 -20 -90
-25 -16 -5 -50 -12 -75 -15 -24 -4 -73 -25 -108 -46 -35 -22 -66 -39 -69 -39
-12 0 -96 -78 -103 -96 -4 -11 -3 -42 3 -70 5 -27 11 -105 11 -174 2 -114 4
-129 28 -175 14 -27 35 -59 45 -70 53 -56 90 -156 97 -263 6 -101 38 -242 63
-282 31 -50 68 -80 122 -101 111 -42 179 -49 508 -49 l311 0 69 -36 c74 -39
117 -80 108 -102 -3 -8 -1 -20 4 -26 4 -6 11 -35 13 -64 5 -50 9 -58 65 -111
42 -41 72 -61 104 -69 79 -21 189 -148 189 -218 0 -22 13 -59 34 -97 35 -64
93 -230 122 -350 17 -68 61 -143 92 -154 9 -4 31 -17 49 -31 42 -31 211 -82
293 -89 58 -4 69 -2 106 23 23 15 58 52 78 83 48 76 82 110 125 128 20 8 56
24 81 35 40 19 50 20 95 8 28 -7 84 -14 125 -16 41 -3 85 -10 97 -16 13 -6 26
-9 29 -5 10 10 69 -19 127 -62 51 -39 77 -75 77 -107 0 -22 72 -116 114 -147
20 -16 36 -35 36 -43 0 -25 47 -116 80 -156 l30 -36 147 2 c117 1 155 5 182
19 45 23 50 22 97 -12 48 -35 135 -61 203 -61 37 0 60 6 87 25 20 14 44 25 53
25 9 0 34 9 55 19 21 11 51 23 67 26 15 4 45 14 66 24 21 10 67 26 103 35 36
10 109 33 163 52 54 19 110 34 124 34 39 0 167 47 288 104 61 30 121 57 135
61 52 16 106 49 153 94 120 114 147 136 234 187 91 54 93 56 173 177 62 92 92
129 126 149 39 24 68 60 139 173 29 46 95 117 191 206 74 69 165 106 313 128
145 22 229 87 305 234 25 49 46 94 46 101 0 6 26 66 59 131 32 66 71 158 87
205 26 76 29 97 27 195 -2 101 -15 194 -42 302 -6 23 -10 77 -9 120 1 43 -3
94 -9 113 -24 73 -31 151 -26 267 7 136 -2 175 -51 231 -28 32 -31 41 -28 88
4 49 -14 94 -59 148 -9 10 -33 43 -101 134 -15 21 -27 43 -28 50 0 8 -15 48
-34 90 -18 43 -36 95 -40 117 -4 21 -20 66 -35 100 -31 68 -120 157 -209 207
-29 17 -74 55 -100 85 -28 32 -94 85 -162 131 -63 42 -117 79 -120 83 -3 3 -9
8 -15 10 -5 2 -41 25 -80 50 -38 25 -90 54 -115 63 -25 10 -66 31 -93 47 -26
16 -50 29 -53 29 -3 0 -44 18 -91 40 -47 23 -120 52 -162 67 -42 14 -84 29
-93 34 -9 5 -63 14 -119 20 -56 6 -122 20 -147 30 -69 30 -175 24 -259 -14
-16 -7 -28 -5 -50 10 -37 27 -132 35 -203 19z m-616 -534 c-5 -15 -14 -27 -19
-27 -15 0 -18 64 -4 82 12 13 14 13 23 -6 6 -14 6 -32 0 -49z m-326 -524 c3
-37 3 -37 -30 -32 -24 4 -40 0 -61 -16 -15 -12 -27 -27 -27 -35 0 -18 -23 -35
-36 -27 -31 21 -19 62 18 62 18 0 22 8 18 47 -3 37 9 44 63 41 l52 -3 3 -37z
m-197 -177 c12 -11 18 -24 15 -30 -4 -7 -1 -8 8 -5 9 3 16 12 16 20 0 23 46
16 63 -10 13 -20 14 -27 3 -41 -7 -11 -20 -16 -29 -12 -8 3 -31 -3 -51 -14
-40 -21 -46 -17 -43 36 1 17 -2 40 -6 53 -10 27 -3 28 24 3z m241 -6 c17 -37
-2 -54 -36 -31 -28 18 -34 41 -13 49 25 11 38 6 49 -18z m-329 -33 c-6 -24
-23 -30 -23 -9 0 13 21 39 26 34 2 -2 1 -13 -3 -25z m4 -54 c-3 -8 -6 -5 -6 6
-1 11 2 17 5 13 3 -3 4 -12 1 -19z m-57 -2 c0 -7 7 -19 15 -26 20 -16 19 -36
-2 -44 -26 -10 -57 26 -49 58 7 27 36 37 36 12z m193 -43 c15 -17 13 -18 -26
-17 -30 1 -43 6 -45 18 -5 22 50 22 71 -1z m339 -547 c4 -6 8 -21 8 -33 0 -39
24 -51 117 -58 49 -4 97 -13 108 -19 11 -7 33 -16 49 -20 l29 -7 -6 -64 c-4
-37 -16 -82 -29 -107 -34 -63 -36 -79 -21 -118 8 -19 18 -68 24 -110 11 -82
24 -126 47 -153 12 -13 15 -41 14 -114 -1 -53 -5 -100 -9 -104 -5 -3 -26 -12
-48 -19 -22 -7 -50 -19 -62 -27 -11 -8 -34 -13 -49 -11 -24 3 -31 -3 -52 -42
-22 -40 -23 -49 -13 -88 14 -54 14 -88 -1 -152 -13 -56 -36 -81 -116 -126 -26
-15 -66 -40 -89 -55 -30 -21 -53 -29 -86 -29 -37 0 -48 -5 -61 -25 -9 -14 -21
-25 -27 -25 -6 0 -22 -9 -36 -20 l-25 -20 -32 27 c-17 14 -36 39 -43 54 -9 21
-19 29 -38 29 -14 0 -28 -7 -31 -15 -7 -17 -50 -20 -89 -5 -21 8 -24 14 -19
35 5 22 3 25 -20 25 -14 0 -49 15 -77 32 -46 30 -49 36 -44 63 20 98 18 112
-17 156 -18 23 -43 45 -54 49 -18 7 -23 20 -29 77 -9 95 -14 111 -36 118 -10
4 -19 12 -19 18 0 7 -10 17 -22 22 -13 6 -25 21 -28 35 -7 33 -36 74 -48 66
-5 -3 -13 -18 -17 -33 -3 -15 -12 -31 -18 -35 -16 -10 -37 11 -37 37 0 12 -9
30 -21 40 -28 27 -17 89 23 127 21 19 28 33 23 47 -9 31 20 51 70 49 37 -2 45
-6 45 -21 0 -16 6 -14 38 13 20 18 44 44 52 57 12 19 22 24 48 21 21 -3 32 0
32 9 0 7 5 13 10 13 16 0 11 26 -9 44 -13 12 -27 15 -45 10 -32 -8 -34 8 -5
37 19 19 22 19 38 5 10 -9 24 -16 32 -16 15 0 98 84 130 131 9 14 29 31 45 39
16 8 64 36 107 62 45 27 102 52 133 58 34 7 60 19 71 34 38 46 58 53 145 48
46 -3 86 -10 90 -16z m-622 -207 c0 -16 -29 -41 -40 -34 -14 9 6 45 25 45 8 0
15 -5 15 -11z m-464 -345 c23 -16 24 -18 8 -35 -20 -22 -44 -25 -44 -6 0 8
-12 20 -26 28 l-26 14 23 6 c36 10 38 10 65 -7z m-61 -124 c-3 -5 -11 -10 -16
-10 -6 0 -7 5 -4 10 3 6 11 10 16 10 6 0 7 -4 4 -10z m65 -110 c8 -15 6 -21
-9 -30 -30 -16 -47 -12 -65 14 -14 23 -14 25 2 29 38 10 62 6 72 -13z m-76
-55 c-4 -8 -11 -15 -16 -15 -6 0 -5 6 2 15 7 8 14 15 16 15 2 0 1 -7 -2 -15z"/>
<path d="M3711 2917 c-20 -25 2 -147 26 -147 11 0 13 4 6 13 -8 11 -9 18 -4
45 1 4 5 0 11 -8 5 -8 12 -11 17 -7 4 5 -2 16 -14 25 -14 11 -23 30 -25 56 -3
35 -5 37 -17 23z"/>
<path d="M3783 2795 c-12 -14 -17 -27 -12 -31 14 -8 59 23 59 41 0 23 -22 18
-47 -10z"/>
</g>
</svg>
