<?xml version="1.0" standalone="no"?>
<!DOCTYPE svg PUBLIC "-//W3C//DTD SVG 20010904//EN"
 "http://www.w3.org/TR/2001/REC-SVG-20010904/DTD/svg10.dtd">
<svg version="1.0" xmlns="http://www.w3.org/2000/svg"
 width="990.000000pt" height="622.000000pt" viewBox="0 0 990.000000 622.000000"
 preserveAspectRatio="xMidYMid meet">
<metadata>
Created by potrace 1.14, written by Peter Selinger 2001-2017
</metadata>
<g transform="translate(0.000000,622.000000) scale(0.100000,-0.100000)"
fill="#000000" stroke="none">
<path d="M5540 5450 c-82 -8 -243 -35 -302 -51 -20 -5 -61 -28 -90 -52 -57
-45 -68 -52 -138 -92 -34 -19 -51 -38 -69 -77 -29 -61 -64 -104 -100 -122 -14
-8 -42 -30 -61 -50 -19 -19 -54 -42 -77 -51 -24 -9 -58 -31 -75 -48 -31 -31
-78 -108 -78 -127 0 -5 -25 -36 -55 -67 -69 -72 -108 -146 -99 -190 5 -25 2
-31 -15 -36 -13 -3 -21 -13 -21 -26 0 -16 -6 -21 -24 -21 -22 0 -66 -43 -66
-64 0 -4 -16 -22 -35 -42 -19 -19 -35 -44 -35 -55 0 -12 -6 -33 -14 -47 -8
-15 -20 -41 -26 -59 -7 -17 -20 -39 -30 -48 -18 -16 -21 -16 -52 -1 -31 16
-33 16 -45 -1 -7 -10 -17 -23 -23 -30 -14 -16 -13 -23 4 -23 21 0 41 -29 29
-41 -8 -8 -19 -5 -38 7 -26 17 -28 17 -41 -1 -22 -30 -17 -42 31 -74 36 -24
55 -30 90 -29 40 2 49 -2 84 -36 29 -29 45 -37 61 -33 12 3 28 3 36 0 23 -8
44 -58 44 -101 0 -35 -7 -45 -70 -106 -54 -52 -75 -67 -90 -62 -11 3 -28 9
-38 12 -14 4 -23 -5 -40 -38 -11 -24 -26 -62 -32 -86 -8 -32 -18 -46 -38 -54
-40 -17 -47 -16 -47 12 0 23 -3 25 -53 25 -36 0 -56 5 -62 15 -15 23 -12 34
15 54 28 21 33 51 9 60 -10 4 -14 12 -10 23 12 30 -5 98 -33 132 l-28 35 -78
-39 c-64 -33 -80 -37 -96 -27 -11 7 -19 8 -19 2 0 -5 -13 -24 -29 -42 -15 -18
-31 -43 -35 -55 -4 -11 -18 -29 -32 -38 -22 -14 -25 -22 -19 -51 6 -32 -2 -51
-42 -103 -1 -2 -9 2 -17 8 -8 7 -27 16 -43 20 -20 5 -36 22 -54 56 -17 33 -34
51 -52 56 -14 4 -43 21 -65 39 -32 25 -46 31 -69 26 -21 -5 -40 1 -76 24 -26
16 -52 30 -58 30 -18 0 -74 -33 -87 -52 -7 -10 -38 -36 -67 -58 -50 -37 -54
-43 -57 -86 -3 -43 -5 -47 -38 -58 -23 -7 -40 -21 -49 -41 -18 -37 -29 -46
-116 -89 -58 -29 -77 -34 -112 -29 -38 5 -41 4 -36 -15 5 -23 1 -25 -93 -42
-74 -14 -99 -5 -120 46 -21 49 -62 66 -174 72 -52 3 -108 4 -125 3 -136 -6
-218 -2 -234 13 -10 9 -23 16 -29 16 -16 0 -32 33 -32 65 0 47 -17 65 -60 65
-22 0 -40 4 -40 8 0 14 -48 32 -82 32 -16 0 -53 -12 -82 -26 -81 -41 -145 -62
-231 -75 -75 -11 -141 -35 -175 -64 -8 -7 -31 -18 -51 -25 -52 -19 -100 -64
-108 -102 -4 -18 -1 -57 5 -87 8 -35 11 -89 7 -150 -4 -83 -2 -104 16 -153 12
-31 37 -76 55 -100 40 -52 81 -132 90 -173 3 -16 10 -73 16 -126 26 -261 79
-336 268 -385 40 -11 137 -14 397 -14 l343 0 69 -36 c72 -38 116 -80 108 -103
-3 -7 -1 -19 4 -25 4 -6 11 -35 13 -64 5 -48 10 -59 58 -107 29 -30 67 -59 84
-65 57 -22 78 -34 122 -73 55 -49 86 -99 91 -150 3 -23 12 -55 20 -72 9 -16
23 -46 33 -65 20 -42 82 -230 105 -318 20 -80 57 -140 98 -157 18 -7 43 -22
57 -33 35 -27 235 -85 296 -85 66 -1 118 35 173 119 43 65 103 124 125 124 8
0 39 12 71 26 57 26 58 26 116 10 32 -9 90 -16 129 -16 40 0 70 -4 70 -10 0
-5 17 -10 38 -10 30 0 54 -11 108 -49 65 -45 94 -81 94 -117 0 -23 52 -93 104
-142 25 -23 46 -49 46 -58 0 -26 48 -117 82 -153 l31 -35 145 2 c125 1 149 4
179 22 44 26 47 26 93 -11 21 -17 55 -35 76 -40 22 -6 57 -15 79 -20 44 -11
102 -4 125 15 8 7 29 18 45 24 17 5 64 22 105 37 41 15 95 35 120 45 25 10 74
26 110 35 36 10 106 33 157 51 51 19 106 34 122 34 36 0 197 59 273 99 29 16
89 43 133 61 92 38 130 63 200 135 63 65 114 103 190 144 73 39 92 54 130 106
17 22 33 42 36 45 4 3 15 23 27 45 22 43 81 109 126 139 15 10 43 41 62 70 19
28 49 74 67 101 37 56 137 160 207 216 40 32 66 47 145 79 38 16 90 28 165 40
82 12 143 38 198 86 43 36 121 172 150 259 10 33 38 100 62 150 63 132 99 251
106 347 5 68 0 114 -25 249 -23 130 -28 174 -20 202 6 24 6 43 -2 63 -8 18
-13 107 -15 232 -4 216 -11 252 -64 319 -14 19 -20 41 -20 79 0 35 -7 67 -20
91 -11 21 -20 44 -20 51 0 15 -51 93 -85 132 -39 43 -120 183 -134 230 -49
166 -65 203 -116 253 -27 27 -68 61 -90 76 -22 14 -42 28 -45 31 -3 3 -16 11
-30 18 -14 7 -47 39 -75 71 -46 53 -87 88 -140 117 -21 11 -64 40 -223 147
-55 37 -120 74 -143 82 -23 9 -63 28 -88 43 -25 16 -62 34 -81 42 -19 7 -44
20 -55 27 -11 7 -27 13 -36 13 -9 0 -48 15 -85 34 -126 62 -163 76 -236 87
-40 6 -103 17 -140 25 -37 9 -132 17 -210 18 -79 2 -150 5 -158 8 -8 2 -49 1
-90 -2z m-714 -566 c-3 -8 -10 -14 -16 -14 -11 0 -14 43 -3 54 10 10 26 -23
19 -40z m-338 -510 c7 -2 12 -14 10 -26 -2 -18 -8 -22 -30 -20 -15 2 -36 -1
-46 -7 -17 -9 -20 -6 -26 20 -3 17 -4 35 -1 39 5 8 61 4 93 -6z m-108 -93 c0
-20 -13 -41 -25 -41 -18 0 -28 17 -21 35 6 16 46 21 46 6z m-90 -95 c0 -3 -4
-8 -10 -11 -5 -3 -10 -1 -10 4 0 6 5 11 10 11 6 0 10 -2 10 -4z m250 -22 c17
-44 -2 -56 -41 -25 -20 16 -21 21 -10 35 20 23 40 20 51 -10z m-146 -10 c16
-16 22 -53 9 -55 -42 -4 -65 -10 -87 -24 -24 -16 -26 -16 -32 0 -4 10 -2 25 4
35 8 13 7 21 -1 29 -6 6 -8 14 -4 17 10 10 39 -5 32 -16 -3 -5 -1 -10 5 -10 7
0 14 9 17 20 6 24 35 26 57 4z m-185 -26 c-8 -14 -14 -18 -17 -10 -4 13 17 46
25 38 3 -2 -1 -15 -8 -28z m8 -50 c-3 -8 -6 -5 -6 6 -1 11 2 17 5 13 3 -3 4
-12 1 -19z m-57 -2 c0 -7 7 -19 15 -26 20 -16 19 -36 -2 -44 -26 -10 -57 26
-49 58 7 27 36 37 36 12z m190 -41 c11 -13 7 -15 -29 -15 -30 0 -41 4 -41 15
0 10 10 15 29 15 16 0 34 -7 41 -15z m338 -547 c6 -6 12 -23 12 -38 0 -15 6
-32 13 -38 7 -6 53 -14 102 -17 50 -4 99 -13 110 -20 11 -6 33 -15 49 -19 l29
-7 -6 -64 c-4 -40 -15 -81 -30 -107 -33 -61 -37 -84 -21 -124 8 -18 19 -69 25
-111 6 -43 22 -100 35 -126 20 -41 24 -63 24 -142 l0 -93 -47 -18 c-27 -10
-58 -24 -70 -32 -13 -8 -33 -12 -46 -9 -30 8 -42 -1 -61 -48 -15 -35 -16 -48
-5 -102 24 -120 -15 -206 -117 -258 -21 -11 -61 -35 -88 -52 -36 -25 -59 -33
-92 -33 -27 0 -46 -5 -51 -14 -4 -8 -28 -28 -53 -45 l-44 -29 -30 25 c-17 14
-36 39 -43 54 -9 23 -18 29 -43 29 -20 0 -30 -5 -30 -15 0 -18 -45 -20 -85 -5
-21 8 -24 14 -19 35 6 22 3 25 -23 25 -17 0 -38 9 -48 20 -10 11 -23 20 -30
20 -7 0 -20 9 -30 20 -16 18 -17 25 -7 54 20 56 15 95 -19 138 -18 22 -42 44
-55 48 -17 7 -23 17 -22 37 0 25 -6 70 -18 130 -2 12 -13 24 -24 28 -11 3 -19
10 -17 16 1 5 -9 15 -23 22 -16 8 -26 23 -28 40 -2 15 -14 39 -26 52 l-23 25
-16 -41 c-18 -46 -50 -52 -55 -9 -2 14 -13 34 -23 46 -16 17 -18 29 -13 63 4
22 12 41 18 41 17 0 47 55 40 73 -10 26 24 48 70 44 33 -3 42 -8 44 -25 3 -22
22 -31 22 -11 0 5 22 32 49 60 42 43 52 48 79 43 28 -6 31 -3 37 27 6 27 3 35
-15 49 -13 10 -31 15 -41 13 -21 -6 -22 -3 -13 21 8 20 28 20 59 0 23 -15 25
-14 73 38 28 29 64 70 82 90 17 20 41 40 53 44 12 4 52 26 90 50 40 26 94 51
133 60 42 11 68 23 75 36 21 39 62 54 141 50 40 -2 79 -9 86 -14z m-618 -206
c0 -4 -5 -13 -12 -20 -7 -7 -16 -12 -20 -12 -13 0 -9 28 5 33 19 8 27 8 27 -1z
m-460 -382 c-23 -23 -40 -26 -40 -7 0 7 -9 19 -20 27 -21 15 -21 15 2 21 13 3
35 0 50 -8 28 -13 28 -13 8 -33z m-70 -90 c0 -5 -5 -10 -11 -10 -5 0 -7 5 -4
10 3 6 8 10 11 10 2 0 4 -4 4 -10z m68 -117 c3 -17 -3 -24 -24 -29 -21 -5 -30
-2 -45 17 -18 23 -18 24 4 31 38 11 62 4 65 -19z m-78 -53 c0 -5 -5 -10 -11
-10 -5 0 -7 5 -4 10 3 6 8 10 11 10 2 0 4 -4 4 -10z"/>
<path d="M3905 2949 c-11 -17 1 -21 15 -4 8 9 8 15 2 15 -6 0 -14 -5 -17 -11z"/>
<path d="M3705 2914 c-7 -11 -8 -38 -1 -80 8 -54 12 -64 29 -64 11 0 29 -7 39
-16 16 -16 19 -15 37 7 37 44 18 91 -20 50 -11 -12 -27 -21 -37 -21 -14 1 -14
2 3 12 11 6 22 12 24 14 2 2 -8 13 -22 25 -20 15 -27 30 -27 55 0 37 -9 43
-25 18z"/>
</g>
</svg>
