<?xml version="1.0" standalone="no"?>
<!DOCTYPE svg PUBLIC "-//W3C//DTD SVG 20010904//EN"
 "http://www.w3.org/TR/2001/REC-SVG-20010904/DTD/svg10.dtd">
<svg version="1.0" xmlns="http://www.w3.org/2000/svg"
 width="990.000000pt" height="622.000000pt" viewBox="0 0 990.000000 622.000000"
 preserveAspectRatio="xMidYMid meet">
<metadata>
Created by potrace 1.14, written by Peter Selinger 2001-2017
</metadata>
<g transform="translate(0.000000,622.000000) scale(0.100000,-0.100000)"
fill="#000000" stroke="none">
<path d="M5467 5434 c-6 -7 -73 -20 -202 -41 -38 -6 -80 -30 -185 -105 -25
-18 -59 -40 -75 -49 -17 -9 -43 -40 -58 -68 -15 -28 -48 -67 -73 -88 -26 -21
-65 -55 -88 -75 -24 -21 -61 -46 -83 -55 -59 -27 -102 -68 -129 -123 -13 -28
-23 -53 -22 -57 1 -5 -27 -37 -62 -73 -72 -75 -107 -142 -91 -177 8 -17 7 -24
-5 -31 -9 -5 -21 -19 -27 -32 -7 -13 -23 -27 -37 -30 -15 -3 -33 -20 -45 -42
-11 -21 -29 -42 -41 -49 -24 -12 -44 -49 -44 -78 0 -10 -6 -24 -14 -30 -7 -6
-16 -24 -19 -40 -3 -16 -17 -41 -30 -56 -23 -28 -24 -28 -57 -12 -35 18 -50
15 -50 -9 0 -8 -7 -17 -15 -20 -19 -8 -20 -24 -1 -24 21 0 41 -29 29 -41 -8
-8 -19 -6 -37 6 -26 17 -27 17 -41 -1 -23 -30 -18 -40 31 -73 44 -30 94 -41
94 -21 0 14 38 -8 82 -49 28 -26 42 -32 61 -27 42 10 69 -21 74 -85 4 -53 3
-55 -44 -105 -70 -73 -96 -88 -132 -76 -24 8 -32 7 -43 -6 -21 -26 -37 -63
-46 -106 -6 -30 -15 -44 -41 -58 -37 -21 -46 -17 -46 15 0 20 -5 22 -53 19
-47 -2 -53 0 -64 23 -10 22 -8 28 15 48 30 25 33 37 15 55 -6 6 -12 36 -13 66
-3 59 -35 116 -65 116 -9 0 -45 -14 -79 -31 -36 -18 -70 -29 -82 -26 -25 7
-80 -50 -91 -93 -4 -15 -19 -32 -33 -38 -24 -11 -26 -15 -19 -57 4 -30 3 -45
-5 -45 -6 0 -11 -5 -11 -11 0 -22 -28 -40 -47 -29 -10 5 -31 14 -46 20 -17 6
-34 23 -42 42 -21 47 -40 68 -61 68 -10 0 -37 16 -59 35 -44 39 -48 40 -76 25
-16 -9 -28 -5 -63 21 -39 27 -49 30 -85 24 -27 -4 -49 -17 -68 -38 -16 -18
-47 -44 -71 -60 -41 -26 -49 -41 -54 -101 -2 -23 -10 -31 -38 -40 -23 -7 -39
-21 -48 -41 -14 -31 -102 -94 -159 -113 -18 -6 -48 -8 -67 -5 -30 5 -35 3 -38
-18 -3 -21 -12 -25 -82 -37 -74 -14 -80 -13 -105 5 -14 11 -27 29 -29 40 -2
11 -21 30 -45 44 -41 22 -49 23 -261 24 -165 0 -220 3 -224 13 -2 6 -12 12
-22 12 -24 0 -36 22 -43 78 -3 24 -8 46 -11 50 -4 3 -24 5 -46 4 -22 -2 -40 2
-40 7 0 6 -14 18 -32 27 -28 15 -39 15 -83 4 -27 -7 -55 -17 -61 -22 -27 -21
-137 -56 -215 -68 -66 -11 -100 -23 -159 -57 -41 -24 -79 -43 -85 -43 -5 -1
-28 -16 -50 -35 -37 -32 -40 -37 -38 -82 1 -26 3 -111 5 -188 3 -129 5 -145
31 -200 16 -33 39 -71 51 -85 13 -14 38 -56 56 -93 29 -58 35 -84 41 -173 16
-231 71 -342 189 -384 103 -36 143 -39 482 -40 l336 0 69 -36 c74 -39 117 -80
108 -102 -3 -8 -1 -20 4 -26 4 -6 11 -35 13 -64 5 -50 9 -58 66 -112 37 -36
74 -62 97 -69 48 -13 136 -86 165 -136 13 -22 27 -63 31 -91 4 -28 18 -69 32
-90 27 -41 101 -252 113 -319 4 -22 19 -67 34 -100 25 -56 32 -63 107 -108 44
-26 87 -47 95 -47 8 0 48 -11 88 -25 103 -35 179 -34 230 3 21 15 57 55 79 88
42 64 102 124 124 124 7 0 32 9 55 20 61 30 92 33 141 16 24 -9 76 -16 117
-16 40 0 76 -5 79 -10 3 -6 21 -10 39 -10 64 0 196 -111 196 -165 0 -22 54
-96 104 -143 25 -23 46 -49 46 -57 0 -24 32 -88 69 -135 19 -25 36 -47 38 -49
1 -2 69 -3 150 -2 127 1 151 4 180 21 42 25 54 25 79 1 68 -63 247 -99 291
-58 11 9 45 26 76 37 31 11 81 29 111 39 30 11 65 25 77 32 12 6 48 18 78 26
31 8 74 18 96 24 21 6 53 16 70 24 44 19 124 42 172 49 55 8 216 73 308 123
11 6 52 24 90 39 82 32 109 51 190 130 84 83 120 109 193 146 54 27 93 62 142
124 5 7 29 43 53 80 24 38 71 91 103 119 33 27 60 53 62 57 18 41 122 176 182
237 159 162 202 184 420 222 36 6 84 19 107 29 57 25 130 95 157 150 13 25 32
61 43 80 11 19 26 53 33 75 11 37 31 81 88 205 93 199 107 342 55 562 -10 40
-18 114 -19 163 -1 50 -8 133 -16 185 -7 52 -11 120 -7 150 3 30 3 94 -2 142
-6 75 -12 94 -43 142 -28 44 -36 67 -36 103 0 29 -10 67 -26 102 -30 62 -93
160 -118 180 -22 18 -100 175 -120 241 -44 148 -52 164 -94 211 -41 46 -163
139 -182 139 -4 0 -35 29 -68 65 -53 58 -132 125 -147 125 -6 0 -97 60 -130
86 -55 42 -192 125 -233 140 -26 10 -58 25 -72 35 -32 21 -196 99 -210 99 -6
0 -33 11 -60 25 -90 45 -184 76 -260 85 -41 5 -109 16 -150 25 -41 9 -106 16
-145 15 -107 -3 -162 -2 -255 5 -47 3 -89 3 -93 -1z m-637 -533 c0 -10 -7 -24
-15 -31 -13 -11 -15 -8 -15 17 0 16 3 33 6 36 11 10 24 -3 24 -22z m-340 -526
c5 -3 10 -18 10 -32 0 -21 -4 -24 -23 -19 -12 3 -34 -1 -49 -8 -25 -13 -26
-12 -36 22 -9 27 -8 38 0 44 14 8 82 3 98 -7z m-100 -80 c0 -16 -26 -55 -37
-55 -20 0 -27 28 -13 45 11 14 50 22 50 10z m-90 -125 c12 -12 18 -25 15 -30
-4 -6 -1 -10 5 -10 7 0 14 9 17 21 8 31 55 22 67 -13 12 -33 7 -39 -34 -44
-16 -2 -41 -11 -55 -20 -23 -15 -25 -15 -31 1 -4 10 -2 26 4 36 8 12 8 20 1
25 -6 3 -8 12 -5 20 3 8 1 14 -4 14 -6 0 -10 5 -10 10 0 15 8 12 30 -10z m240
-6 c17 -44 -2 -56 -41 -25 -20 16 -21 21 -10 35 20 23 40 20 51 -10z m-327
-32 c-6 -24 -23 -30 -23 -9 0 13 21 39 26 34 2 -2 1 -13 -3 -25z m4 -54 c-3
-8 -6 -5 -6 6 -1 11 2 17 5 13 3 -3 4 -12 1 -19z m-57 -2 c0 -7 7 -19 15 -26
20 -16 19 -36 -2 -44 -26 -10 -57 26 -49 58 7 27 36 37 36 12z m190 -41 c11
-13 8 -15 -19 -15 -17 0 -34 0 -38 -1 -5 0 -9 7 -11 15 -5 21 51 22 68 1z
m338 -547 c6 -6 12 -23 12 -38 0 -15 6 -32 13 -38 6 -5 53 -13 102 -17 50 -4
99 -13 110 -19 11 -7 33 -16 49 -20 l29 -7 -6 -65 c-4 -39 -16 -84 -31 -112
-35 -68 -37 -78 -21 -116 8 -20 20 -70 27 -113 11 -80 30 -137 48 -148 6 -3
10 -50 10 -110 l0 -103 -47 -18 c-27 -10 -58 -24 -70 -32 -13 -8 -33 -12 -47
-8 -28 7 -56 -15 -56 -43 0 -9 -5 -22 -11 -28 -9 -9 -8 -28 1 -76 11 -53 11
-75 -1 -127 -15 -67 -41 -98 -118 -136 -20 -11 -57 -33 -82 -51 -36 -26 -57
-33 -92 -33 -30 0 -49 -5 -54 -14 -4 -8 -28 -28 -53 -45 l-44 -29 -30 25 c-17
14 -36 39 -43 54 -9 21 -19 29 -38 29 -14 0 -28 -7 -31 -15 -7 -17 -50 -20
-89 -5 -21 8 -24 14 -19 35 6 22 3 25 -23 25 -16 0 -39 9 -51 20 -12 11 -25
20 -30 20 -5 0 -17 9 -27 20 -16 18 -17 25 -7 54 20 56 15 95 -19 138 -18 22
-42 44 -55 48 -17 7 -23 17 -23 37 0 15 -2 39 -5 53 -3 14 -8 42 -11 62 -4 25
-12 39 -25 43 -11 4 -20 12 -20 18 0 7 -10 17 -22 22 -14 6 -24 21 -26 38 -2
15 -14 39 -27 53 l-23 25 -7 -23 c-4 -13 -14 -33 -22 -46 -11 -19 -17 -21 -29
-11 -8 6 -14 21 -14 32 0 11 -9 30 -20 42 -17 18 -19 30 -14 64 4 22 12 41 18
41 17 0 47 55 40 73 -10 26 24 48 70 44 32 -3 42 -8 44 -25 3 -18 12 -12 62
40 53 54 62 59 88 53 28 -6 31 -3 37 25 8 36 -13 59 -52 60 -14 0 -23 6 -23
15 0 21 29 31 51 17 10 -7 25 -12 33 -12 14 0 136 124 136 139 0 4 17 16 38
27 20 10 67 38 104 61 37 23 96 50 130 59 37 9 68 24 76 36 30 41 66 54 144
50 40 -2 79 -9 86 -14z m-618 -213 c0 -8 -2 -15 -4 -15 -2 0 -11 -3 -20 -6
-10 -4 -16 -1 -16 9 0 14 13 24 33 26 4 1 7 -6 7 -14z m-459 -376 c-23 -22
-41 -25 -41 -6 0 7 -9 19 -20 27 -21 15 -21 15 2 21 13 3 36 -1 52 -8 l28 -15
-21 -19z m-71 -89 c0 -5 -5 -10 -11 -10 -5 0 -7 5 -4 10 3 6 8 10 11 10 2 0 4
-4 4 -10z m68 -117 c3 -17 -3 -24 -24 -29 -21 -5 -30 -2 -45 17 -18 23 -18 24
4 31 38 11 62 4 65 -19z m-78 -53 c0 -5 -5 -10 -11 -10 -5 0 -7 5 -4 10 3 6 8
10 11 10 2 0 4 -4 4 -10z"/>
<path d="M3705 2913 c-9 -21 -7 -54 6 -105 7 -27 15 -38 29 -38 10 0 25 -7 34
-15 19 -19 26 -19 26 0 0 9 7 18 15 21 15 6 20 35 8 47 -3 4 -16 -2 -27 -12
-25 -23 -40 -29 -43 -17 -1 5 -7 12 -13 16 -9 5 -9 9 -1 14 6 4 11 2 11 -3 0
-6 7 -11 15 -11 22 0 19 9 -10 32 -18 14 -25 29 -25 54 0 36 -13 45 -25 17z"/>
</g>
</svg>
