<?xml version="1.0" standalone="no"?>
<!DOCTYPE svg PUBLIC "-//W3C//DTD SVG 20010904//EN"
 "http://www.w3.org/TR/2001/REC-SVG-20010904/DTD/svg10.dtd">
<svg version="1.0" xmlns="http://www.w3.org/2000/svg"
 width="990.000000pt" height="622.000000pt" viewBox="0 0 990.000000 622.000000"
 preserveAspectRatio="xMidYMid meet">
<metadata>
Created by potrace 1.14, written by Peter Selinger 2001-2017
</metadata>
<g transform="translate(0.000000,622.000000) scale(0.100000,-0.100000)"
fill="#000000" stroke="none">
<path d="M5550 5478 c-36 -5 -94 -15 -130 -23 -36 -8 -96 -19 -135 -26 -94
-16 -103 -20 -154 -68 -24 -22 -48 -41 -52 -41 -11 0 -87 -48 -107 -67 -7 -7
-18 -13 -23 -13 -5 0 -9 -6 -9 -12 0 -7 -13 -41 -29 -75 -21 -44 -41 -69 -68
-86 -21 -14 -53 -41 -72 -61 -19 -19 -51 -41 -70 -47 -37 -12 -121 -84 -121
-104 0 -11 -41 -68 -129 -182 -51 -64 -78 -130 -62 -146 16 -16 14 -24 -9 -30
-12 -3 -20 -14 -20 -26 0 -16 -6 -21 -28 -21 -28 0 -62 -26 -62 -48 0 -6 -6
-17 -13 -24 -34 -35 -67 -87 -67 -107 0 -12 -4 -29 -9 -39 -6 -9 -12 -29 -15
-44 -4 -15 -17 -39 -29 -54 -23 -27 -24 -27 -57 -11 -43 22 -47 22 -54 -8 -4
-14 -11 -25 -16 -25 -6 0 -10 -4 -10 -10 0 -5 6 -10 14 -10 21 0 41 -29 29
-41 -8 -8 -19 -5 -38 7 -26 17 -28 17 -41 -1 -22 -30 -17 -42 33 -75 35 -24
54 -31 77 -27 36 5 71 -10 105 -47 18 -19 34 -26 62 -26 32 0 41 -5 54 -30 8
-16 15 -46 15 -67 0 -34 -8 -46 -64 -102 -64 -64 -65 -64 -110 -58 l-46 7 -19
-43 c-11 -23 -25 -61 -31 -85 -9 -33 -17 -45 -43 -55 -31 -13 -32 -13 -37 12
-5 23 -10 26 -51 26 -44 0 -79 17 -79 37 0 6 11 19 25 30 26 20 33 54 14 60
-7 2 -13 30 -14 65 -2 46 -7 65 -24 82 -11 11 -21 26 -21 31 0 18 -37 10 -96
-21 -45 -23 -66 -29 -91 -24 -26 5 -33 3 -33 -10 0 -9 -14 -29 -30 -45 -17
-16 -30 -36 -30 -44 0 -8 -15 -29 -32 -45 -26 -24 -30 -33 -20 -43 18 -18 14
-40 -13 -71 l-25 -29 -44 17 c-33 13 -48 25 -57 49 -16 41 -38 66 -59 66 -9 0
-35 16 -57 35 -31 26 -50 35 -78 35 -25 0 -50 10 -80 31 -56 40 -79 35 -145
-31 -28 -28 -54 -50 -59 -50 -4 0 -20 -12 -35 -26 -20 -20 -26 -37 -26 -69 0
-40 -2 -42 -40 -54 -31 -9 -43 -20 -54 -46 -9 -22 -29 -42 -53 -54 -109 -57
-120 -61 -167 -55 -44 6 -46 6 -46 -18 0 -25 -7 -28 -121 -52 -32 -7 -54 9
-77 53 -27 54 -71 71 -179 71 -55 0 -93 4 -93 10 0 13 -47 13 -55 0 -4 -6 -41
-8 -94 -5 -91 4 -121 11 -121 26 0 5 -11 9 -25 9 -22 0 -25 4 -25 38 0 68 -8
82 -47 82 -20 0 -46 9 -60 20 -39 31 -109 27 -179 -10 -76 -39 -132 -56 -229
-71 -97 -14 -126 -24 -162 -55 -16 -13 -39 -24 -51 -24 -40 0 -100 -50 -116
-97 -12 -36 -12 -48 -1 -87 9 -28 14 -92 13 -169 0 -115 2 -128 26 -178 15
-29 42 -73 60 -98 49 -67 76 -126 76 -163 0 -40 35 -261 48 -304 22 -72 66
-130 120 -158 85 -43 122 -47 498 -47 l362 1 68 -36 c71 -37 107 -73 111 -109
12 -116 21 -137 79 -196 35 -35 74 -64 103 -75 25 -9 48 -20 51 -23 3 -3 26
-23 52 -44 27 -21 48 -44 48 -52 0 -7 5 -15 11 -17 6 -2 17 -34 25 -72 8 -37
23 -81 34 -96 11 -15 20 -33 20 -39 0 -6 4 -19 9 -29 18 -33 79 -217 86 -262
15 -88 73 -190 108 -190 6 0 28 -12 49 -27 21 -14 60 -32 86 -39 26 -7 81 -23
122 -34 41 -12 91 -19 111 -17 55 7 114 52 158 121 50 79 77 103 148 133 91
39 120 43 172 27 25 -7 78 -14 118 -14 48 0 73 -4 75 -12 3 -8 18 -12 39 -10
27 2 48 -7 106 -48 61 -43 74 -58 85 -93 16 -57 47 -103 107 -162 28 -27 51
-56 51 -65 0 -29 51 -118 91 -160 31 -32 43 -39 57 -31 10 5 69 9 133 8 103
-1 119 2 156 23 l42 23 53 -36 c92 -63 220 -82 282 -42 12 8 47 23 77 34 29
10 92 33 139 51 76 28 109 39 215 70 17 4 66 21 110 37 44 17 103 32 131 36
53 6 193 60 280 107 29 16 79 38 113 51 75 27 125 62 228 159 48 45 108 90
151 113 95 50 114 67 180 167 31 47 72 100 91 117 80 73 105 101 148 166 24
37 65 92 90 123 46 56 215 204 234 204 5 0 29 9 52 21 23 11 91 29 151 40 125
21 181 45 240 103 49 47 117 169 148 265 12 36 36 98 54 138 95 204 137 402
104 488 -16 42 -41 230 -40 303 1 172 -8 433 -18 491 -7 43 -21 78 -41 107
-25 33 -31 53 -31 92 0 97 -59 237 -138 326 -92 104 -110 136 -138 244 -29
114 -67 182 -131 237 -28 25 -54 45 -57 45 -15 0 -119 83 -152 121 -40 46
-115 108 -146 121 -18 7 -37 20 -228 149 -52 35 -124 77 -160 93 -36 16 -76
37 -90 46 -40 28 -132 68 -173 75 -20 4 -56 21 -79 38 -57 41 -138 71 -228 86
-41 7 -94 17 -117 22 -23 5 -66 9 -95 9 -29 0 -98 7 -153 15 -110 16 -130 16
-225 3z m-728 -590 c-9 -9 -12 -7 -12 12 0 19 3 21 12 12 9 -9 9 -15 0 -24z
m-334 -535 c3 -20 -1 -23 -35 -23 -28 0 -42 6 -51 20 -18 30 -9 37 40 31 35
-5 44 -10 46 -28z m-118 -86 c0 -21 -12 -28 -27 -16 -19 16 -16 29 7 29 11 0
20 -6 20 -13z m170 -103 c18 -45 -6 -58 -41 -23 -16 16 -18 23 -8 35 18 22 38
17 49 -12z m-146 -10 c31 -30 19 -60 -22 -55 -8 1 -24 -5 -37 -13 -14 -9 -31
-16 -40 -16 -16 0 -21 35 -6 44 5 3 7 15 4 26 -3 11 0 20 6 20 6 0 11 -7 11
-15 0 -22 21 -18 27 5 6 24 35 26 57 4z m-184 -25 c-7 -11 -14 -18 -17 -15 -3
3 0 12 7 21 18 21 23 19 10 -6z m-53 -58 c3 -11 11 -22 19 -25 24 -9 16 -36
-10 -36 -32 0 -50 24 -42 55 8 30 26 33 33 6z m193 -36 c11 -13 7 -15 -29 -15
-30 0 -41 4 -41 15 0 10 10 15 29 15 16 0 34 -7 41 -15z m338 -547 c6 -6 12
-23 12 -38 0 -42 22 -52 118 -57 48 -2 96 -10 107 -17 11 -7 33 -16 49 -20 29
-7 29 -7 23 -70 -4 -41 -16 -83 -38 -124 -31 -62 -31 -63 -16 -105 9 -23 19
-60 22 -82 2 -22 7 -57 10 -78 3 -21 16 -60 30 -87 21 -42 25 -63 25 -138 l0
-89 -47 -18 c-27 -10 -58 -24 -71 -32 -15 -9 -34 -12 -53 -8 -27 6 -30 4 -49
-41 -19 -43 -20 -54 -9 -118 10 -61 9 -79 -6 -129 -18 -62 -53 -97 -140 -138
-22 -11 -55 -30 -74 -44 -22 -17 -47 -25 -73 -25 -31 0 -49 -8 -87 -40 -50
-42 -78 -50 -87 -25 -4 8 -13 15 -21 15 -8 0 -19 14 -25 31 -15 45 -78 64 -78
23 0 -9 -11 -14 -32 -13 -53 1 -73 13 -73 44 0 23 -4 28 -27 29 -15 1 -35 9
-46 19 -10 9 -23 17 -29 17 -5 0 -18 9 -28 20 -14 16 -15 24 -6 51 20 57 14
98 -20 141 -18 22 -42 44 -55 48 -17 7 -23 17 -23 42 1 103 -26 163 -86 193
-12 7 -21 22 -23 43 -2 17 -8 32 -13 32 -5 0 -14 12 -20 28 l-11 27 -17 -45
c-21 -56 -52 -63 -62 -13 -3 17 -14 39 -23 49 -19 18 -14 71 8 89 6 6 22 24
34 42 16 23 19 33 10 36 -9 3 -7 11 8 27 18 19 28 21 63 15 31 -5 41 -11 41
-26 0 -11 7 -19 16 -19 8 0 13 4 10 9 -3 4 15 29 41 55 40 41 50 47 79 43 32
-4 34 -3 40 31 6 30 3 39 -16 54 -13 10 -29 17 -36 14 -20 -8 -26 10 -9 24 11
9 19 8 37 -4 12 -9 26 -16 30 -16 10 0 117 109 139 142 9 12 44 38 78 56 33
18 77 44 98 58 20 13 48 27 62 30 84 19 102 27 117 50 27 40 57 50 137 46 39
-2 78 -9 85 -14z m-629 -224 c-6 -8 -15 -14 -20 -14 -14 0 -11 28 4 33 20 7
29 -4 16 -19z m-449 -334 c19 -10 19 -11 0 -30 -24 -24 -40 -26 -40 -6 0 8
-10 22 -22 30 -22 16 -22 16 10 16 19 0 42 -5 52 -10z m-2 -237 c5 -34 -37
-42 -61 -12 -19 24 -19 24 4 31 37 10 54 5 57 -19z"/>
<path d="M3917 2972 c-30 -31 -34 -42 -13 -42 16 0 49 46 44 61 -2 6 -16 -3
-31 -19z"/>
<path d="M3704 2913 c-11 -19 -12 -69 -1 -80 4 -3 7 -21 7 -39 0 -26 4 -32 15
-28 8 4 26 -1 40 -10 31 -20 41 -20 49 2 3 9 11 25 18 35 11 15 10 20 -6 32
-17 13 -22 12 -42 -10 -13 -14 -29 -25 -36 -24 -7 0 -3 5 10 11 28 14 28 22
-3 42 -19 12 -25 25 -25 51 0 38 -9 45 -26 18z"/>
</g>
</svg>
