<?xml version="1.0" standalone="no"?>
<!DOCTYPE svg PUBLIC "-//W3C//DTD SVG 20010904//EN"
 "http://www.w3.org/TR/2001/REC-SVG-20010904/DTD/svg10.dtd">
<svg version="1.0" xmlns="http://www.w3.org/2000/svg"
 width="990.000000pt" height="622.000000pt" viewBox="0 0 990.000000 622.000000"
 preserveAspectRatio="xMidYMid meet">
<metadata>
Created by potrace 1.14, written by Peter Selinger 2001-2017
</metadata>
<g transform="translate(0.000000,622.000000) scale(0.100000,-0.100000)"
fill="#000000" stroke="none">
<path d="M5530 5459 c-65 -6 -252 -38 -317 -54 -13 -3 -45 -25 -73 -50 -28
-25 -54 -45 -59 -45 -4 0 -18 -9 -31 -20 -13 -11 -28 -20 -34 -20 -24 -1 -64
-48 -94 -110 -20 -40 -45 -73 -65 -87 -17 -12 -48 -38 -68 -58 -20 -19 -57
-44 -81 -55 -58 -25 -110 -74 -137 -127 -12 -24 -51 -79 -87 -123 -73 -91 -98
-141 -90 -181 4 -22 1 -29 -14 -34 -10 -3 -20 -16 -22 -28 -2 -15 -12 -23 -33
-27 -20 -4 -36 -16 -50 -40 -11 -19 -35 -51 -52 -70 -23 -24 -33 -44 -33 -67
0 -18 -4 -33 -10 -33 -5 0 -10 -9 -10 -20 0 -25 -23 -72 -44 -89 -12 -10 -21
-10 -47 3 -42 21 -46 20 -53 -9 -4 -14 -11 -25 -16 -25 -6 0 -10 -4 -10 -10 0
-5 6 -10 14 -10 21 0 41 -29 29 -41 -8 -8 -19 -5 -38 7 -26 17 -28 17 -41 -1
-22 -30 -17 -42 33 -75 35 -24 54 -31 77 -27 36 5 71 -10 106 -48 15 -16 34
-25 50 -24 14 0 31 1 37 0 19 -2 43 -56 43 -98 0 -34 -8 -46 -63 -101 -64 -63
-80 -71 -128 -58 -22 6 -28 3 -47 -36 -11 -24 -26 -62 -32 -85 -8 -31 -18 -46
-42 -57 -39 -20 -36 -21 -40 12 -3 25 -6 27 -49 27 -44 0 -79 17 -79 37 0 6
11 19 25 30 26 20 33 54 14 60 -7 2 -13 31 -15 65 -2 46 -8 67 -23 82 -12 12
-21 26 -21 31 0 16 -32 12 -65 -8 -50 -30 -114 -52 -120 -42 -10 15 -25 12
-32 -7 -4 -10 -17 -27 -29 -38 -12 -11 -25 -31 -29 -45 -4 -14 -22 -37 -39
-52 -25 -21 -29 -29 -18 -39 18 -19 15 -40 -11 -73 l-24 -29 -43 17 c-46 18
-69 41 -70 67 0 20 -31 49 -53 49 -9 0 -34 16 -56 35 -31 28 -46 35 -80 35
-30 0 -52 8 -75 25 -53 40 -92 32 -156 -34 -20 -20 -52 -49 -73 -64 -33 -25
-37 -33 -37 -72 0 -42 -2 -45 -32 -53 -23 -6 -42 -22 -62 -51 -15 -23 -36 -45
-45 -49 -9 -3 -32 -15 -51 -27 -50 -31 -94 -44 -112 -34 -23 13 -59 -1 -53
-20 4 -14 -9 -20 -74 -35 -92 -20 -114 -13 -132 42 -16 48 -57 65 -168 69 -51
2 -102 8 -113 14 -13 7 -23 7 -32 0 -19 -16 -197 -13 -216 3 -8 8 -24 16 -35
18 -12 2 -21 13 -23 28 -2 14 -8 42 -13 63 -9 35 -12 37 -49 37 -22 0 -40 4
-40 8 0 14 -49 32 -87 32 -19 0 -58 -12 -87 -26 -83 -42 -146 -62 -236 -75
-87 -13 -130 -28 -165 -59 -11 -10 -38 -23 -60 -29 -84 -23 -129 -100 -105
-181 5 -19 10 -89 10 -156 0 -134 11 -173 75 -263 73 -104 84 -133 100 -279
32 -280 77 -348 260 -398 38 -11 135 -14 401 -14 l352 0 68 -36 c73 -39 117
-80 109 -103 -3 -7 -1 -19 4 -25 4 -6 11 -35 13 -64 5 -49 10 -58 64 -113 39
-39 72 -63 96 -70 38 -10 158 -101 158 -120 0 -6 6 -17 14 -24 7 -8 19 -41 24
-75 6 -33 20 -73 30 -88 28 -40 92 -222 127 -365 10 -37 27 -82 39 -99 33 -50
129 -105 231 -133 33 -10 74 -22 90 -28 17 -7 55 -12 85 -12 71 0 122 35 179
120 51 77 86 110 138 129 24 9 62 23 84 31 37 14 47 14 94 0 29 -8 85 -15 124
-15 41 0 71 -4 71 -10 0 -5 17 -10 38 -10 30 0 55 -11 110 -50 60 -42 73 -56
84 -92 17 -59 47 -105 107 -161 28 -26 51 -54 51 -63 0 -27 48 -118 82 -154
l33 -35 142 2 c127 1 147 4 183 24 l40 23 44 -32 c94 -67 227 -87 298 -43 20
12 49 26 65 31 15 5 73 25 128 45 90 33 184 63 240 78 11 3 58 19 105 36 47
17 97 31 111 31 26 0 75 13 114 31 11 4 45 18 75 29 30 12 73 32 95 44 22 13
76 38 120 56 92 38 149 77 220 150 55 58 106 95 178 130 70 35 154 125 200
215 15 30 42 59 107 113 20 17 58 63 85 103 28 41 52 76 56 79 3 3 18 23 35
45 61 83 179 183 264 224 40 20 99 37 155 47 112 18 160 32 205 60 48 29 113
101 130 144 7 19 21 46 31 60 9 14 29 61 44 105 16 44 43 112 61 150 94 198
129 381 97 500 -34 124 -39 179 -47 515 -5 248 -12 296 -52 362 -28 46 -34 66
-34 112 0 31 -4 64 -9 74 -5 9 -26 52 -46 94 -20 42 -58 102 -83 132 -26 31
-56 68 -68 83 -24 32 -74 155 -74 181 0 45 -79 202 -102 202 -5 0 -19 10 -31
23 -13 12 -51 40 -86 62 -34 22 -79 58 -99 80 -72 78 -113 115 -145 131 -35
17 -319 205 -327 216 -3 3 -18 10 -33 13 -15 4 -30 11 -33 16 -3 5 -12 9 -20
9 -8 0 -40 16 -70 35 -30 19 -59 35 -65 35 -5 0 -31 11 -57 25 -26 14 -56 25
-68 25 -12 0 -48 16 -80 35 -82 50 -152 73 -247 84 -45 6 -95 14 -112 20 -58
18 -348 31 -465 20z m-706 -571 c-5 -8 -10 -5 -14 8 -10 25 0 41 12 20 5 -9 6
-21 2 -28z m-332 -522 c16 -24 6 -34 -38 -38 -37 -3 -48 0 -56 15 -17 33 -3
46 44 40 24 -3 46 -11 50 -17z m-117 -86 c7 -11 -12 -40 -25 -40 -15 0 -21 33
-8 42 17 11 26 10 33 -2z m-85 -94 c0 -3 -4 -8 -10 -11 -5 -3 -10 -1 -10 4 0
6 5 11 10 11 6 0 10 -2 10 -4z m250 -22 c18 -45 -6 -58 -41 -23 -16 16 -18 23
-8 35 18 22 38 17 49 -12z m-146 -10 c31 -30 19 -60 -22 -55 -8 1 -24 -5 -37
-13 -14 -9 -31 -16 -40 -16 -17 0 -21 35 -5 45 8 5 8 11 1 19 -6 7 -8 16 -4
19 11 12 23 8 23 -8 0 -22 21 -18 27 5 6 24 35 26 57 4z m-184 -25 c-7 -11
-14 -18 -17 -15 -8 8 5 36 17 36 7 0 7 -6 0 -21z m-50 -58 c0 -10 7 -21 15
-25 20 -7 19 -32 -2 -40 -26 -10 -57 26 -49 58 7 30 36 35 36 7z m190 -36 c11
-13 7 -15 -29 -15 -30 0 -41 4 -41 15 0 10 10 15 29 15 16 0 34 -7 41 -15z
m338 -547 c6 -6 12 -23 12 -38 0 -41 20 -51 117 -56 48 -3 97 -11 108 -18 11
-7 33 -16 49 -20 29 -7 29 -7 23 -70 -4 -41 -16 -83 -38 -124 -31 -62 -31 -63
-16 -105 16 -42 24 -79 31 -149 3 -21 16 -63 30 -94 22 -47 26 -71 26 -144 l0
-89 -57 -21 c-32 -12 -63 -26 -70 -32 -7 -5 -26 -7 -43 -3 -28 6 -31 4 -50
-41 -19 -43 -20 -54 -9 -118 10 -61 9 -79 -6 -129 -18 -62 -53 -97 -140 -138
-22 -11 -55 -30 -74 -44 -24 -17 -47 -25 -77 -25 -27 0 -46 -5 -51 -14 -10
-19 -80 -66 -96 -66 -19 1 -62 42 -75 73 -9 21 -18 27 -42 27 -20 0 -30 -5
-30 -15 0 -10 -10 -15 -32 -14 -54 1 -73 13 -73 45 0 25 -3 29 -26 26 -15 -2
-32 5 -44 18 -10 11 -23 20 -30 20 -7 0 -20 9 -30 20 -14 16 -15 24 -6 51 20
57 14 98 -20 141 -18 22 -42 44 -55 48 -17 7 -23 17 -23 42 1 42 -14 129 -24
146 -5 6 -15 12 -23 12 -8 0 -13 5 -11 10 1 6 -9 16 -23 23 -16 8 -26 23 -28
42 -2 17 -10 34 -18 38 -8 4 -14 15 -14 22 0 28 -17 15 -33 -26 -18 -46 -48
-51 -57 -9 -3 14 -13 36 -22 50 -19 28 -15 100 6 100 15 0 58 68 45 72 -15 5
0 36 21 43 11 3 35 3 55 -1 25 -4 35 -11 35 -25 0 -11 7 -19 16 -19 8 0 12 5
9 10 -3 6 17 33 45 61 47 47 53 50 80 41 27 -10 28 -9 35 26 5 30 3 38 -16 53
-12 9 -30 14 -40 12 -21 -6 -22 -3 -13 21 8 20 28 20 59 0 23 -15 25 -14 72
33 26 27 60 64 74 83 15 19 55 50 90 69 35 19 78 44 94 57 17 12 58 29 93 37
47 11 70 22 90 45 15 17 35 34 44 39 23 11 159 4 176 -9z m-618 -206 c0 -4 -5
-13 -12 -20 -7 -7 -16 -12 -20 -12 -13 0 -9 28 5 33 19 8 27 8 27 -1z m-460
-352 c19 -10 19 -11 0 -30 -24 -24 -40 -26 -40 -6 0 8 -10 22 -22 30 -22 16
-22 16 10 16 19 0 42 -5 52 -10z m-2 -236 c6 -39 -61 -43 -71 -4 -3 12 1 21
12 23 33 10 56 2 59 -19z"/>
<path d="M3921 2969 c-13 -17 -21 -33 -17 -36 7 -7 45 38 46 55 0 16 -1 15
-29 -19z"/>
<path d="M3705 2913 c-10 -25 -12 -74 -3 -80 5 -2 8 -17 8 -34 0 -21 5 -29 18
-29 10 0 28 -7 40 -16 21 -14 23 -13 47 13 13 15 25 33 25 39 0 22 -32 24 -57
4 -14 -11 -31 -20 -37 -20 -6 0 -2 6 9 12 11 6 22 12 24 14 2 2 -8 13 -22 25
-20 15 -27 30 -27 55 0 36 -13 45 -25 17z"/>
</g>
</svg>
