<?xml version="1.0" standalone="no"?>
<!DOCTYPE svg PUBLIC "-//W3C//DTD SVG 20010904//EN"
 "http://www.w3.org/TR/2001/REC-SVG-20010904/DTD/svg10.dtd">
<svg version="1.0" xmlns="http://www.w3.org/2000/svg"
 width="990.000000pt" height="622.000000pt" viewBox="0 0 990.000000 622.000000"
 preserveAspectRatio="xMidYMid meet">
<metadata>
Created by potrace 1.14, written by Peter Selinger 2001-2017
</metadata>
<g transform="translate(0.000000,622.000000) scale(0.100000,-0.100000)"
fill="#000000" stroke="none">
<path d="M5600 5503 c-19 -2 -102 -17 -185 -32 -82 -16 -167 -32 -188 -36 -25
-4 -54 -20 -80 -44 -23 -21 -64 -50 -92 -66 -95 -52 -133 -90 -151 -153 -12
-39 -28 -67 -53 -90 -20 -19 -54 -51 -77 -72 -22 -21 -55 -41 -74 -45 -35 -8
-85 -54 -127 -120 -15 -22 -32 -45 -39 -52 -21 -21 -120 -165 -139 -202 -9
-18 -15 -44 -12 -58 3 -16 -2 -27 -14 -34 -11 -5 -19 -19 -19 -30 0 -15 -5
-19 -18 -15 -25 8 -44 -9 -94 -85 -27 -40 -49 -89 -58 -125 -15 -67 -32 -105
-54 -123 -12 -10 -22 -9 -51 5 -31 15 -38 15 -46 3 -5 -8 -9 -20 -9 -26 0 -7
-4 -13 -10 -13 -5 0 -10 -4 -10 -10 0 -5 6 -10 14 -10 21 0 41 -29 29 -41 -8
-8 -19 -5 -38 7 -26 17 -28 17 -41 -1 -8 -10 -14 -24 -14 -31 0 -16 28 -44 44
-44 8 0 19 -7 27 -16 9 -11 24 -14 48 -11 41 5 75 -10 110 -47 18 -19 34 -26
62 -26 32 0 41 -5 53 -28 8 -15 13 -47 12 -71 -2 -38 -9 -49 -64 -103 -62 -60
-63 -61 -107 -54 l-45 6 -20 -43 c-10 -23 -25 -62 -32 -86 -10 -34 -20 -46
-45 -57 -32 -13 -33 -12 -33 11 0 32 -26 45 -63 33 -24 -9 -32 -7 -50 11 l-21
21 27 28 c28 29 35 58 17 64 -6 2 -12 31 -14 65 -3 45 -10 67 -25 82 -12 12
-21 26 -21 31 0 17 -40 11 -92 -15 -54 -27 -82 -32 -110 -20 -14 5 -18 2 -18
-13 0 -10 -11 -30 -24 -43 -13 -13 -31 -38 -40 -56 -9 -17 -26 -39 -38 -47
-19 -14 -20 -18 -9 -40 12 -21 10 -28 -10 -55 -37 -50 -95 -35 -134 35 -12 22
-35 45 -51 53 -16 7 -41 25 -56 38 -15 15 -47 29 -74 34 -27 5 -64 20 -84 34
-52 36 -88 33 -133 -11 -20 -20 -37 -39 -37 -43 0 -4 -14 -15 -30 -25 -51 -29
-70 -56 -70 -98 0 -35 -3 -39 -40 -54 -24 -10 -47 -28 -55 -44 -8 -16 -29 -37
-47 -48 -101 -62 -111 -65 -178 -63 -52 1 -62 -1 -52 -11 30 -30 17 -37 -109
-54 l-46 -6 -21 45 c-12 26 -32 52 -44 59 -24 13 -154 25 -356 32 -67 2 -128
9 -135 14 -7 6 -23 12 -37 14 -23 3 -25 8 -28 60 -3 61 -19 77 -61 63 -12 -3
-23 0 -28 8 -12 22 -75 36 -119 28 -22 -4 -73 -24 -115 -45 -58 -28 -102 -41
-192 -55 -74 -11 -125 -25 -143 -37 -48 -34 -69 -44 -95 -44 -14 0 -40 -14
-61 -33 -44 -40 -56 -90 -38 -150 8 -24 14 -97 15 -172 1 -147 -1 -142 93
-293 60 -95 65 -108 73 -180 25 -242 55 -339 126 -401 84 -74 99 -76 522 -73
l373 3 75 -38 c41 -21 81 -49 89 -62 17 -25 20 -35 32 -122 10 -72 72 -148
152 -186 124 -58 190 -129 205 -222 4 -24 20 -69 36 -100 33 -66 100 -257 122
-353 18 -78 57 -143 89 -154 13 -3 41 -19 63 -34 54 -38 213 -83 295 -84 58
-1 69 2 103 29 21 17 55 57 76 90 45 69 85 110 121 120 14 4 44 16 67 27 33
16 54 19 95 13 29 -3 90 -8 135 -11 51 -3 86 -11 93 -19 7 -8 23 -12 43 -9 27
5 44 -3 104 -46 66 -47 73 -55 88 -106 12 -43 30 -70 84 -127 48 -51 71 -85
80 -117 15 -52 69 -130 107 -155 20 -13 28 -14 40 -4 9 8 32 9 72 4 96 -11
151 -6 202 20 l47 24 34 -21 c19 -11 35 -24 37 -29 6 -14 131 -49 176 -49 23
0 59 9 81 22 22 11 58 27 80 34 22 7 78 27 125 44 47 18 99 35 115 40 17 4 71
22 120 40 149 52 209 70 238 70 34 0 190 60 273 105 34 18 88 42 120 55 83 30
111 50 219 149 64 59 120 100 170 125 80 40 132 90 193 186 19 30 67 87 106
125 40 39 90 97 111 130 22 33 48 69 59 80 10 11 29 36 41 56 33 52 168 161
250 202 45 22 104 41 160 52 152 27 192 42 249 93 29 26 61 63 72 82 10 19 34
61 51 93 18 32 40 86 48 119 9 33 29 89 45 124 38 83 67 161 92 249 21 77 21
218 -1 310 -15 60 -25 295 -22 499 2 152 -15 282 -43 316 -26 31 -46 89 -50
147 -10 114 -65 235 -144 318 -62 64 -96 123 -118 205 -43 161 -94 231 -239
330 -39 26 -90 69 -115 96 -55 60 -95 92 -205 158 -46 28 -117 74 -157 102
-40 28 -116 74 -168 101 -52 28 -116 62 -143 77 -26 14 -73 33 -105 42 -31 9
-83 34 -115 55 -33 21 -78 44 -100 50 -96 26 -188 42 -287 49 -58 5 -139 15
-180 24 -73 15 -118 17 -190 9z m-783 -605 c-3 -8 -6 -5 -6 6 -1 11 2 17 5 13
3 -3 4 -12 1 -19z m-335 -532 c15 -22 7 -36 -19 -36 -30 1 -63 20 -63 38 0 13
73 12 82 -2z m-112 -90 c0 -15 -14 -35 -21 -30 -15 9 -10 34 6 34 8 0 15 -2
15 -4z m170 -112 c18 -45 -6 -58 -41 -23 -16 16 -18 23 -8 35 18 22 38 17 49
-12z m-146 -10 c27 -26 20 -54 -12 -54 -16 0 -37 -7 -48 -15 -28 -21 -54 -19
-54 5 0 11 12 26 29 34 16 9 31 22 34 31 8 19 31 19 51 -1z m-84 -9 c0 -8 -4
-15 -10 -15 -5 0 -10 7 -10 15 0 8 5 15 10 15 6 0 10 -7 10 -15z m-100 -16
c-7 -11 -14 -18 -17 -15 -3 3 0 12 7 21 18 21 23 19 10 -6z m-53 -58 c3 -11
11 -22 19 -25 24 -9 16 -36 -10 -36 -32 0 -50 24 -42 55 8 30 26 33 33 6z
m193 -36 c11 -13 7 -15 -29 -15 -30 0 -41 4 -41 15 0 10 10 15 29 15 16 0 34
-7 41 -15z m338 -547 c6 -6 12 -23 12 -38 0 -42 22 -53 118 -57 48 -3 96 -10
107 -17 11 -7 33 -16 49 -20 29 -7 29 -7 23 -69 -4 -42 -16 -83 -38 -124 -32
-62 -32 -63 -16 -105 8 -24 18 -72 21 -108 4 -40 17 -88 36 -128 26 -56 30
-75 30 -152 l0 -87 -47 -18 c-27 -10 -58 -24 -71 -32 -15 -9 -34 -12 -53 -8
-27 6 -30 4 -50 -42 -19 -44 -20 -54 -9 -120 9 -52 10 -80 2 -100 -6 -15 -13
-40 -16 -55 -6 -28 -73 -83 -136 -112 -19 -9 -50 -27 -69 -41 -23 -17 -47 -25
-73 -25 -31 0 -49 -8 -87 -40 -49 -42 -74 -49 -88 -27 -4 8 -16 16 -25 20 -10
3 -18 15 -18 26 0 24 -43 56 -65 47 -8 -3 -15 -12 -15 -21 0 -10 -10 -15 -32
-14 -53 1 -73 13 -73 44 0 23 -4 28 -27 29 -15 1 -35 9 -46 19 -10 9 -23 17
-29 17 -5 0 -18 9 -27 19 -15 17 -16 25 -6 55 21 63 16 92 -24 141 -21 25 -44
45 -52 45 -8 0 -15 5 -15 10 -1 6 -3 22 -5 38 -2 15 -6 50 -10 77 -6 51 -32
87 -79 110 -12 6 -21 23 -23 40 -2 16 -10 34 -17 40 -14 10 -32 65 -21 65 3 0
21 -7 40 -17 34 -16 36 -16 55 8 25 29 26 52 6 69 -12 10 -19 10 -27 2 -8 -8
-19 -6 -40 9 -21 16 -28 28 -28 55 0 36 -13 45 -26 17 -11 -27 -13 -72 -3 -79
14 -8 10 -101 -6 -140 -18 -44 -46 -43 -56 3 -3 17 -14 39 -23 48 -9 9 -16 20
-16 25 0 15 24 64 40 82 41 46 44 52 32 56 -19 6 -14 20 12 37 31 21 96 11 96
-14 0 -9 12 -21 26 -28 25 -12 26 -11 10 6 -15 16 -13 21 30 64 44 45 63 55
77 41 4 -4 -3 -20 -14 -36 -12 -16 -18 -36 -15 -45 16 -41 76 67 76 136 0 26
-25 50 -52 51 -20 0 -24 15 -7 25 5 4 18 0 28 -9 10 -9 23 -16 30 -16 15 0
107 92 134 132 9 15 36 37 60 49 23 12 74 41 113 65 39 24 81 44 93 44 34 0
88 26 100 49 19 35 55 47 134 43 39 -2 78 -9 85 -14z m-629 -224 c-6 -8 -15
-14 -20 -14 -14 0 -11 28 4 33 20 7 29 -4 16 -19z m-449 -334 c19 -10 19 -11
0 -30 -24 -24 -40 -26 -40 -6 0 8 -10 22 -22 30 -22 16 -22 16 10 16 19 0 42
-5 52 -10z m-2 -237 c5 -34 -37 -42 -61 -12 -19 24 -19 24 4 31 37 10 54 5 57
-19z"/>
</g>
</svg>
