<?xml version="1.0" standalone="no"?>
<!DOCTYPE svg PUBLIC "-//W3C//DTD SVG 20010904//EN"
 "http://www.w3.org/TR/2001/REC-SVG-20010904/DTD/svg10.dtd">
<svg version="1.0" xmlns="http://www.w3.org/2000/svg"
 width="990.000000pt" height="622.000000pt" viewBox="0 0 990.000000 622.000000"
 preserveAspectRatio="xMidYMid meet">
<metadata>
Created by potrace 1.14, written by Peter Selinger 2001-2017
</metadata>
<g transform="translate(0.000000,622.000000) scale(0.100000,-0.100000)"
fill="#000000" stroke="none">
<path d="M5609 5519 c-48 -5 -118 -15 -155 -24 -38 -8 -108 -22 -157 -30 -110
-19 -124 -25 -169 -69 -20 -19 -56 -45 -80 -57 -24 -12 -58 -33 -76 -47 -45
-35 -114 -139 -107 -162 9 -27 -112 -145 -163 -161 -43 -13 -77 -47 -167 -169
-30 -41 -59 -80 -64 -86 -4 -5 -13 -20 -20 -31 -6 -12 -17 -27 -24 -35 -22
-22 -47 -80 -47 -110 0 -15 -5 -28 -10 -28 -6 0 -15 -11 -20 -25 -6 -16 -15
-23 -24 -19 -19 7 -45 -22 -103 -111 -36 -54 -47 -83 -53 -127 -11 -96 -61
-138 -111 -92 -15 13 -18 12 -38 -21 -25 -43 -25 -45 -7 -45 22 0 41 -29 28
-42 -7 -7 -19 -5 -40 10 l-29 21 -12 -25 c-16 -36 -6 -60 29 -73 17 -5 30 -15
30 -21 0 -8 16 -11 43 -10 62 4 64 3 104 -35 29 -27 46 -35 75 -35 44 0 53
-13 61 -85 l5 -50 -64 -63 c-62 -61 -65 -63 -111 -60 -45 3 -48 1 -65 -32 -9
-19 -20 -52 -24 -72 -8 -47 -22 -64 -56 -72 -25 -6 -28 -3 -28 18 0 30 -20 38
-61 24 -27 -9 -34 -8 -52 11 l-21 21 27 28 c28 29 35 58 17 64 -6 2 -12 31
-14 66 -3 46 -11 70 -28 91 -28 36 -50 38 -109 9 -25 -13 -62 -22 -86 -22 -33
1 -43 -3 -43 -15 0 -9 -13 -31 -30 -49 -16 -18 -30 -37 -30 -42 0 -5 -14 -23
-31 -40 -29 -28 -31 -34 -19 -55 11 -21 10 -27 -11 -54 -13 -16 -32 -30 -41
-30 -34 -2 -70 24 -89 62 -11 21 -34 46 -51 55 -17 9 -47 31 -67 48 -20 16
-48 31 -64 32 -26 2 -61 16 -120 48 -38 21 -59 12 -126 -54 -32 -32 -69 -68
-84 -81 -21 -18 -27 -32 -27 -62 0 -36 -3 -40 -40 -55 -24 -10 -47 -28 -55
-44 -9 -18 -42 -44 -89 -69 -63 -35 -82 -41 -135 -41 -61 0 -71 -6 -49 -28 12
-12 8 -15 -47 -27 -93 -20 -104 -19 -122 15 -44 80 -51 84 -170 93 -59 4 -153
9 -208 12 -55 3 -129 11 -165 18 l-65 14 -3 54 c-3 58 -19 80 -53 72 -11 -3
-28 2 -39 12 -37 33 -122 24 -221 -24 -69 -33 -106 -44 -206 -59 -97 -15 -131
-25 -161 -46 -21 -14 -50 -26 -64 -26 -34 0 -106 -54 -114 -85 -3 -13 -3 -48
0 -77 4 -29 10 -118 14 -198 9 -156 14 -172 87 -285 65 -100 85 -142 85 -177
0 -60 37 -283 55 -324 18 -44 94 -127 140 -152 27 -15 71 -17 430 -14 387 3
401 2 435 -18 19 -11 52 -27 72 -36 40 -17 68 -52 74 -93 14 -102 23 -133 45
-158 56 -64 99 -101 126 -106 43 -8 140 -85 167 -131 13 -23 27 -61 31 -86 4
-25 20 -70 35 -100 38 -73 99 -249 115 -328 20 -99 52 -152 116 -189 74 -44
106 -59 159 -73 25 -7 59 -17 75 -24 17 -6 62 -11 100 -11 62 0 74 3 107 28
21 16 55 57 77 90 44 71 85 111 121 122 14 4 44 16 67 27 33 16 54 19 95 13
29 -3 90 -8 135 -11 52 -4 86 -10 93 -19 8 -9 22 -12 41 -8 24 4 41 -2 84 -31
82 -57 91 -67 110 -125 13 -39 35 -73 84 -125 52 -56 71 -83 84 -128 13 -40
32 -73 66 -110 46 -50 50 -52 74 -39 17 9 40 11 73 6 86 -12 151 -7 193 15 52
26 73 25 108 -4 50 -42 111 -61 194 -61 58 0 79 4 93 17 9 10 36 23 59 29 23
6 56 17 73 24 82 35 514 175 540 175 40 0 243 80 304 121 14 9 51 26 83 38 90
33 105 43 212 141 59 54 124 104 159 121 104 51 146 90 213 199 16 25 64 81
108 125 44 44 118 132 164 196 141 196 290 295 495 330 128 22 178 45 239 108
45 46 147 228 147 262 0 10 14 53 31 96 17 43 51 134 75 202 42 118 44 128 44
238 0 67 -5 123 -12 136 -7 15 -12 127 -14 357 -2 366 -6 394 -63 507 -20 40
-31 80 -34 119 -6 75 -36 179 -69 235 -15 24 -50 71 -79 104 -53 60 -100 149
-114 215 -13 62 -62 155 -102 196 -42 42 -72 67 -176 145 -37 28 -75 62 -84
75 -15 23 -167 130 -238 167 -16 9 -43 27 -59 41 -16 14 -34 26 -40 26 -6 0
-25 13 -42 30 -18 16 -65 47 -105 68 -41 21 -112 59 -159 85 -47 25 -112 53
-145 62 -35 10 -73 29 -90 45 -32 31 -66 46 -130 60 -168 37 -248 50 -297 50
-31 0 -83 6 -115 14 -87 22 -129 25 -224 15z m-1131 -1168 c4 -25 -8 -26 -48
-6 -41 21 -38 32 8 30 29 -2 38 -7 40 -24z m-122 -98 c-10 -10 -19 5 -10 18 6
11 8 11 12 0 2 -7 1 -15 -2 -18z m182 -101 c2 -17 0 -32 -3 -32 -18 0 -45 23
-45 39 0 45 44 39 48 -7z m-144 2 c27 -26 20 -54 -12 -54 -16 0 -37 -7 -48
-15 -28 -21 -54 -19 -54 5 0 11 12 26 29 34 16 9 31 22 34 31 8 19 31 19 51
-1z m-84 -9 c0 -8 -4 -15 -10 -15 -5 0 -10 7 -10 15 0 8 5 15 10 15 6 0 10 -7
10 -15z m-100 -19 c0 -3 -4 -8 -10 -11 -5 -3 -10 -1 -10 4 0 6 5 11 10 11 6 0
10 -2 10 -4z m-50 -61 c0 -7 7 -15 15 -19 24 -9 18 -36 -8 -36 -41 0 -62 41
-35 68 13 13 28 7 28 -13z m183 -30 c1 -5 -13 -11 -30 -13 -31 -3 -42 6 -26
22 10 10 53 3 56 -9z m345 -547 c6 -6 12 -23 12 -39 0 -42 31 -56 125 -58 45
-1 89 -8 100 -15 11 -7 33 -16 49 -20 29 -7 29 -7 23 -69 -4 -42 -16 -83 -38
-124 -32 -62 -32 -63 -16 -105 8 -24 17 -70 20 -104 3 -37 17 -88 36 -131 27
-61 31 -83 31 -155 l0 -84 -77 -32 c-48 -19 -87 -29 -100 -26 -20 5 -26 -1
-44 -42 -19 -45 -20 -55 -9 -117 10 -59 10 -75 -6 -128 -15 -51 -25 -66 -64
-94 -25 -18 -61 -40 -80 -49 -19 -9 -50 -27 -69 -41 -23 -17 -47 -25 -73 -25
-31 0 -49 -8 -87 -40 -49 -42 -74 -49 -88 -27 -4 8 -16 16 -25 20 -10 3 -18
14 -18 23 0 24 -29 54 -51 54 -10 0 -23 -9 -29 -20 -12 -22 -44 -26 -84 -10
-22 8 -25 14 -19 40 5 29 4 31 -19 25 -16 -4 -32 1 -50 14 -14 12 -30 21 -36
21 -5 0 -17 9 -26 19 -16 18 -16 23 -2 72 9 29 16 56 16 60 0 16 -81 109 -95
109 -8 0 -16 5 -16 10 -1 6 -3 22 -5 38 -2 15 -7 51 -10 80 -4 37 -12 57 -25
65 -10 6 -19 17 -19 24 0 7 -8 13 -18 13 -26 0 -42 20 -42 52 0 15 -4 28 -9
28 -11 0 -36 59 -28 66 3 4 21 -3 40 -15 l34 -21 26 37 c25 35 26 38 10 56
-10 10 -25 16 -36 13 -33 -8 -67 22 -67 60 0 35 -10 43 -27 22 -12 -16 -14
-88 -2 -88 12 0 11 -76 -2 -123 -17 -61 -58 -60 -59 1 0 12 -7 25 -15 28 -32
13 -25 71 15 116 41 46 44 52 32 56 -19 6 -14 20 12 37 31 21 96 11 96 -14 0
-9 11 -21 25 -28 14 -6 25 -7 25 -2 0 5 -4 9 -10 9 -21 0 -8 30 31 69 23 22
48 41 55 41 18 0 18 -2 -3 -45 -12 -25 -14 -38 -6 -46 18 -18 49 27 67 94 15
61 15 62 -7 79 -12 10 -30 18 -39 18 -20 0 -24 15 -7 25 5 4 18 0 28 -9 10 -9
24 -16 32 -16 15 0 105 89 131 131 9 14 44 40 79 59 35 18 86 48 114 67 29 19
62 33 80 33 32 0 95 33 95 50 0 6 13 18 29 28 23 14 45 17 103 14 40 -2 79 -9
86 -14z m-629 -224 c-6 -8 -15 -14 -20 -14 -14 0 -11 28 4 33 20 7 29 -4 16
-19z m-448 -335 c20 -10 19 -11 -5 -30 -29 -23 -36 -24 -36 -5 0 8 -10 22 -22
30 -22 16 -22 16 10 16 19 0 42 -5 53 -11z m-3 -233 c4 -17 -12 -35 -30 -36
-5 0 -18 10 -30 22 l-22 22 24 7 c37 11 54 6 58 -15z"/>
</g>
</svg>
