<?xml version="1.0" standalone="no"?>
<!DOCTYPE svg PUBLIC "-//W3C//DTD SVG 20010904//EN"
 "http://www.w3.org/TR/2001/REC-SVG-20010904/DTD/svg10.dtd">
<svg version="1.0" xmlns="http://www.w3.org/2000/svg"
 width="990.000000pt" height="622.000000pt" viewBox="0 0 990.000000 622.000000"
 preserveAspectRatio="xMidYMid meet">
<metadata>
Created by potrace 1.14, written by Peter Selinger 2001-2017
</metadata>
<g transform="translate(0.000000,622.000000) scale(0.100000,-0.100000)"
fill="#000000" stroke="none">
<path d="M5535 5526 c-55 -7 -118 -18 -140 -24 -22 -6 -82 -21 -134 -33 -81
-19 -100 -28 -141 -64 -26 -23 -69 -52 -96 -65 -27 -14 -67 -44 -89 -68 -22
-25 -55 -60 -74 -79 -29 -30 -33 -38 -23 -54 10 -15 7 -26 -21 -66 -41 -61
-61 -77 -120 -98 -28 -10 -55 -28 -65 -43 -9 -14 -26 -36 -37 -48 -51 -57
-173 -230 -206 -296 -10 -20 -19 -46 -19 -57 0 -10 -7 -21 -15 -25 -8 -3 -15
-12 -15 -21 0 -8 -9 -15 -19 -15 -19 0 -81 -65 -81 -83 0 -5 -13 -26 -28 -46
-38 -47 -45 -68 -43 -116 4 -79 -61 -135 -105 -90 -20 20 -19 20 -43 -21 -25
-42 -25 -44 -7 -44 22 0 41 -29 28 -42 -7 -7 -19 -4 -41 11 l-31 22 -10 -26
c-16 -43 -12 -55 25 -71 19 -8 35 -19 35 -25 0 -6 17 -10 43 -9 62 4 64 3 104
-35 29 -27 46 -35 75 -35 44 0 53 -13 61 -84 5 -48 5 -48 -59 -113 -63 -65
-64 -65 -107 -59 -54 8 -58 3 -88 -89 -26 -81 -25 -80 -61 -89 -25 -6 -28 -4
-28 18 0 31 -28 41 -65 24 -25 -11 -29 -10 -47 11 -19 24 -19 24 7 51 24 25
34 60 16 60 -4 0 -11 29 -14 66 -7 72 -36 122 -72 123 -11 1 -45 -8 -75 -19
-34 -13 -67 -19 -86 -15 -28 5 -32 2 -37 -22 -6 -27 -20 -47 -95 -133 -28 -33
-30 -39 -17 -50 8 -7 15 -18 15 -24 -1 -18 -47 -66 -64 -66 -33 0 -69 26 -87
63 -11 21 -35 46 -52 55 -17 9 -48 33 -67 52 -27 26 -46 36 -73 37 -21 1 -57
14 -81 28 -65 38 -82 34 -152 -37 -33 -35 -73 -72 -87 -83 -19 -14 -28 -31
-30 -60 -3 -32 -9 -43 -33 -55 -16 -8 -50 -35 -74 -60 -25 -25 -72 -58 -104
-73 -51 -25 -66 -28 -112 -22 l-54 6 0 -29 c0 -27 -4 -31 -37 -36 -95 -17
-104 -15 -128 32 -35 70 -45 76 -127 75 -40 -1 -101 5 -136 14 -34 8 -70 12
-80 8 -22 -8 -233 15 -251 29 -9 7 -12 24 -8 54 5 49 -12 75 -48 70 -12 -1
-30 4 -40 12 -31 26 -131 18 -195 -15 -87 -43 -147 -61 -259 -75 -76 -10 -112
-20 -138 -37 -19 -13 -49 -23 -68 -23 -26 0 -44 -9 -74 -38 -49 -46 -61 -103
-37 -172 11 -31 16 -82 16 -160 0 -63 5 -131 10 -150 8 -31 45 -95 130 -230
16 -24 25 -60 30 -115 25 -250 50 -326 137 -405 77 -70 40 -66 545 -55 309 7
339 6 370 -10 18 -10 53 -28 78 -40 58 -29 68 -49 89 -177 4 -28 18 -60 32
-75 48 -56 101 -103 114 -103 15 0 77 -35 123 -70 42 -31 78 -93 87 -150 4
-25 18 -67 32 -94 36 -72 103 -261 118 -338 16 -76 38 -128 64 -152 79 -72
265 -139 386 -140 65 -1 74 2 112 32 23 18 54 54 69 80 37 64 90 119 121 127
14 3 45 15 69 26 34 17 54 20 96 14 29 -3 90 -8 135 -11 52 -4 86 -10 93 -19
8 -9 22 -12 41 -8 24 4 41 -2 84 -31 79 -55 93 -69 101 -102 12 -51 34 -85
100 -155 35 -38 64 -77 64 -87 0 -32 48 -116 90 -157 36 -36 41 -38 64 -26 16
9 40 11 72 6 96 -13 152 -9 204 15 55 26 61 24 129 -25 19 -14 52 -30 75 -36
52 -14 162 -6 184 14 9 8 44 23 77 34 131 43 375 127 462 159 51 19 107 34
125 34 37 0 171 50 292 109 45 22 110 53 146 69 46 20 93 55 163 119 55 51
123 103 155 119 53 26 111 64 139 90 6 6 42 54 79 105 37 52 78 103 92 114 43
35 89 87 155 180 94 130 121 159 210 226 102 77 178 111 292 133 172 33 187
40 271 124 44 43 120 190 157 302 14 41 37 107 51 145 83 218 100 330 72 465
-11 54 -14 106 -10 185 3 61 5 124 4 140 0 17 -2 109 -3 205 -3 191 -12 241
-69 357 -20 42 -33 87 -39 135 -8 77 -22 136 -42 178 -20 44 -77 131 -103 158
-39 41 -70 100 -98 185 -35 105 -68 168 -108 206 -61 58 -113 101 -185 157
-40 30 -77 63 -83 74 -5 10 -65 53 -132 96 -121 76 -224 145 -283 190 -17 12
-51 31 -76 42 -25 11 -52 26 -60 33 -26 25 -193 107 -233 115 -21 3 -52 19
-70 34 -48 42 -83 56 -195 79 -58 12 -108 24 -112 27 -5 3 -58 9 -120 14 -61
6 -119 15 -130 21 -31 16 -206 19 -314 5z m-1079 -1156 c15 0 24 -6 24 -15 0
-21 -31 -18 -60 6 -18 15 -20 19 -7 15 10 -3 30 -6 43 -6z m82 -218 c2 -17 0
-32 -3 -32 -18 0 -45 23 -45 39 0 45 44 39 48 -7z m-144 2 c27 -26 20 -54 -12
-54 -16 0 -37 -7 -48 -15 -28 -21 -54 -19 -54 5 0 11 12 26 29 34 16 9 31 22
34 31 8 19 31 19 51 -1z m-84 -9 c0 -8 -4 -15 -10 -15 -5 0 -10 7 -10 15 0 8
5 15 10 15 6 0 10 -7 10 -15z m-150 -80 c0 -7 7 -15 15 -19 25 -9 18 -37 -7
-34 -46 7 -63 39 -36 66 13 13 28 7 28 -13z m183 -30 c1 -5 -13 -11 -30 -13
-31 -3 -42 6 -26 22 10 10 53 3 56 -9z m345 -547 c6 -6 12 -23 12 -39 0 -42
31 -56 125 -58 45 -1 89 -8 100 -15 11 -7 33 -16 49 -20 29 -7 29 -7 23 -69
-4 -41 -16 -83 -38 -123 -31 -62 -31 -62 -16 -110 8 -27 18 -78 21 -113 4 -42
17 -87 36 -126 26 -53 30 -73 30 -143 0 -54 -4 -84 -12 -89 -41 -26 -144 -62
-164 -57 -19 5 -26 -1 -45 -37 -21 -41 -21 -48 -9 -120 11 -71 10 -81 -10
-137 -19 -52 -30 -67 -74 -97 -28 -19 -56 -35 -63 -35 -6 0 -24 -10 -40 -22
-46 -37 -71 -48 -109 -48 -27 0 -47 -10 -83 -40 -49 -42 -74 -49 -88 -27 -4 8
-16 16 -25 20 -10 3 -18 14 -18 23 0 44 -60 71 -79 36 -11 -20 -49 -26 -86
-12 -21 8 -24 14 -18 40 5 29 4 31 -19 25 -16 -4 -32 1 -50 14 -14 12 -30 21
-36 21 -5 0 -17 9 -27 20 -14 16 -16 25 -7 47 27 71 25 87 -18 142 -22 28 -47
51 -54 51 -18 0 -25 20 -19 52 3 14 0 29 -6 32 -6 4 -11 30 -11 58 0 41 -3 51
-20 55 -11 3 -20 12 -20 19 0 8 -8 14 -18 14 -26 0 -42 20 -42 52 0 15 -4 28
-8 28 -14 0 -34 52 -24 62 5 5 21 -1 37 -14 l28 -22 29 34 c35 43 35 50 -2 75
-16 11 -31 24 -33 30 -2 5 -2 0 0 -13 4 -22 3 -22 -27 -7 -25 13 -30 22 -30
50 0 36 -10 44 -27 23 -12 -16 -14 -88 -2 -88 20 0 0 -152 -23 -166 -14 -9
-38 16 -38 40 0 12 -9 29 -21 39 -14 13 -18 24 -14 40 7 24 53 97 70 110 6 6
6 10 -2 14 -20 7 -16 21 11 38 31 21 96 11 96 -14 0 -15 49 -46 58 -36 3 2 -3
7 -12 11 -26 10 -19 27 28 73 51 50 75 48 46 -4 -15 -26 -16 -36 -7 -44 24
-20 51 16 72 94 15 59 15 60 -7 77 -13 10 -31 18 -40 18 -20 0 -24 15 -7 25 5
4 18 0 28 -9 10 -9 24 -16 32 -16 16 0 110 94 128 127 6 12 42 39 79 59 37 21
89 53 117 71 27 18 61 33 76 33 43 0 86 19 97 44 16 36 60 51 138 48 38 -2 75
-8 82 -14z m-629 -224 c-6 -8 -15 -14 -20 -14 -14 0 -11 28 4 33 20 7 29 -4
16 -19z m-448 -335 c20 -10 19 -11 -5 -30 -29 -23 -36 -24 -36 -5 0 8 -10 22
-22 30 -22 16 -22 16 10 16 19 0 42 -5 53 -11z m-3 -235 c5 -32 -34 -38 -61
-11 l-21 21 24 7 c38 11 55 6 58 -17z"/>
</g>
</svg>
