<?xml version="1.0" standalone="no"?>
<!DOCTYPE svg PUBLIC "-//W3C//DTD SVG 20010904//EN"
 "http://www.w3.org/TR/2001/REC-SVG-20010904/DTD/svg10.dtd">
<svg version="1.0" xmlns="http://www.w3.org/2000/svg"
 width="990.000000pt" height="622.000000pt" viewBox="0 0 990.000000 622.000000"
 preserveAspectRatio="xMidYMid meet">
<metadata>
Created by potrace 1.14, written by Peter Selinger 2001-2017
</metadata>
<g transform="translate(0.000000,622.000000) scale(0.100000,-0.100000)"
fill="#000000" stroke="none">
<path d="M5695 5555 c-5 -2 -64 -9 -130 -14 -109 -9 -220 -33 -361 -75 -29 -9
-77 -37 -113 -66 -34 -27 -68 -50 -75 -50 -22 0 -105 -69 -121 -100 -9 -17
-35 -42 -58 -56 -23 -15 -44 -28 -46 -30 -2 -2 4 -11 13 -20 12 -12 15 -25 10
-48 -8 -38 -50 -96 -69 -96 -17 0 -95 -39 -112 -56 -7 -7 -13 -17 -13 -21 0
-5 -10 -19 -22 -30 -13 -12 -34 -38 -48 -58 -14 -20 -30 -42 -36 -49 -15 -16
-103 -151 -126 -193 -10 -18 -18 -42 -18 -53 0 -11 -5 -20 -10 -20 -6 0 -15
-12 -20 -26 -6 -14 -14 -23 -18 -20 -16 10 -50 -24 -82 -81 -18 -32 -40 -65
-50 -73 -9 -8 -19 -23 -23 -32 -3 -10 -12 -18 -19 -18 -9 0 -9 -3 2 -10 42
-27 0 -149 -50 -142 -13 2 -30 10 -37 18 -19 19 -18 19 -42 -22 -25 -42 -25
-44 -7 -44 22 0 41 -29 28 -42 -8 -8 -18 -4 -38 11 -27 21 -29 21 -41 5 -24
-33 -16 -64 22 -80 19 -8 35 -19 35 -25 0 -6 18 -10 43 -9 64 3 64 3 104 -35
29 -27 46 -35 75 -35 44 0 53 -13 60 -83 6 -47 5 -47 -59 -113 -64 -65 -65
-66 -107 -60 -52 8 -57 3 -87 -89 -26 -81 -25 -80 -61 -89 -25 -6 -28 -4 -28
19 0 32 -22 41 -62 24 -28 -12 -32 -11 -50 11 -19 23 -18 23 7 50 24 25 34 60
16 60 -4 0 -11 29 -14 65 -8 83 -36 125 -83 125 -18 0 -36 -4 -39 -10 -3 -5
-19 -10 -34 -10 -15 0 -32 -5 -39 -12 -8 -8 -15 -8 -26 2 -22 18 -43 6 -51
-28 -3 -16 -19 -42 -35 -57 -17 -16 -30 -34 -30 -41 0 -7 -14 -24 -30 -38 -30
-25 -30 -26 -14 -51 16 -25 16 -27 -14 -56 -30 -29 -33 -30 -66 -18 -22 8 -41
25 -53 48 -10 20 -34 45 -53 56 -18 11 -50 37 -70 58 -26 26 -46 37 -66 37
-16 0 -54 13 -86 30 -70 37 -100 30 -145 -34 -17 -24 -50 -56 -73 -72 -41 -28
-50 -42 -64 -106 -4 -16 -13 -28 -21 -28 -8 0 -41 -24 -73 -53 -33 -29 -82
-65 -109 -80 -47 -25 -55 -26 -104 -17 -57 11 -74 2 -63 -32 4 -13 -3 -18 -31
-24 -19 -3 -38 -10 -41 -15 -18 -30 -92 11 -94 51 0 8 -9 26 -20 40 -17 23
-26 25 -97 26 -43 1 -80 2 -83 4 -17 7 -98 14 -280 26 -52 4 -101 11 -108 17
-10 8 -12 24 -7 55 8 51 -5 72 -45 72 -15 0 -42 7 -60 16 -45 23 -113 13 -202
-29 -88 -42 -126 -52 -243 -67 -49 -6 -110 -21 -135 -32 -25 -11 -58 -22 -74
-24 -45 -5 -92 -48 -109 -98 -14 -40 -14 -51 -1 -98 8 -29 16 -109 19 -178 2
-69 9 -140 14 -159 6 -18 42 -83 80 -145 64 -103 69 -116 75 -181 3 -38 10
-86 15 -105 5 -19 12 -62 16 -94 10 -84 44 -152 106 -214 73 -71 95 -76 293
-64 89 5 260 10 381 11 205 2 222 1 255 -18 19 -11 53 -29 75 -40 53 -26 64
-47 84 -173 4 -28 18 -59 32 -75 59 -67 99 -103 114 -103 10 0 48 -20 85 -45
76 -51 113 -103 125 -175 4 -25 19 -70 35 -100 15 -30 31 -66 35 -80 4 -14 22
-68 40 -120 18 -52 41 -126 49 -164 18 -77 51 -128 99 -152 18 -9 41 -25 52
-35 25 -22 243 -79 305 -79 63 0 113 37 173 127 56 84 81 107 132 123 22 7 51
19 63 27 18 11 39 13 80 8 32 -3 93 -8 137 -11 49 -3 86 -11 96 -20 9 -8 24
-12 33 -8 24 9 57 -2 90 -31 16 -14 32 -25 35 -25 20 0 61 -52 71 -90 13 -48
53 -104 112 -158 24 -22 42 -50 49 -76 16 -58 35 -92 81 -142 40 -43 70 -55
84 -33 4 8 23 9 58 4 94 -14 158 -10 203 13 49 25 66 27 85 9 62 -60 164 -92
242 -75 28 5 58 16 66 23 8 7 42 21 75 32 136 45 396 134 475 162 47 17 98 31
115 31 37 0 141 39 270 101 55 26 129 61 165 77 46 20 93 55 164 120 69 63
121 102 171 126 85 41 150 103 211 197 23 36 64 85 91 107 45 39 94 97 184
222 68 94 92 119 159 167 36 26 67 50 70 54 3 3 37 22 75 41 47 23 103 41 170
52 138 25 176 41 243 101 63 58 128 169 163 278 20 64 33 97 52 132 6 11 14
36 18 55 4 19 22 76 41 125 35 97 34 79 26 430 -1 28 -1 122 0 210 0 88 0 176
0 195 0 19 0 69 2 110 3 85 -23 186 -71 281 -19 38 -32 85 -39 142 -17 142
-59 238 -158 369 -30 41 -58 91 -71 132 -36 111 -72 176 -130 235 -63 64 -174
161 -199 175 -10 5 -30 24 -47 41 -29 32 -137 105 -203 139 -18 10 -60 37 -92
62 -32 24 -61 44 -64 44 -3 0 -33 20 -66 44 -33 25 -71 48 -83 52 -12 4 -37
18 -54 31 -42 32 -161 93 -238 121 -34 13 -73 35 -87 51 -26 27 -85 51 -128
51 -12 0 -64 11 -116 25 -52 14 -118 25 -146 25 -29 0 -88 9 -130 20 -82 20
-166 32 -183 25z m-1225 -1200 c0 -8 -4 -15 -9 -15 -13 0 -22 16 -14 24 11 11
23 6 23 -9z m70 -206 c0 -32 -3 -34 -31 -19 -21 12 -26 46 -6 53 23 8 37 -5
37 -34z m-145 5 c24 -24 14 -47 -23 -55 -19 -4 -39 -12 -45 -18 -13 -13 -47
-15 -47 -2 0 21 13 41 26 41 7 0 21 11 30 25 19 29 36 32 59 9z m-85 -9 c0 -8
-4 -15 -10 -15 -5 0 -10 7 -10 15 0 8 5 15 10 15 6 0 10 -7 10 -15z m-150 -77
c0 -6 8 -17 18 -24 26 -19 3 -38 -31 -25 -28 11 -35 39 -15 59 12 12 28 7 28
-10z m183 -33 c1 -5 -13 -11 -30 -13 -31 -3 -42 6 -26 22 10 10 53 3 56 -9z
m345 -547 c6 -6 12 -25 12 -43 0 -42 23 -52 125 -54 45 -1 88 -7 100 -15 11
-7 33 -16 49 -20 29 -7 29 -7 23 -69 -5 -42 -17 -82 -39 -124 -30 -56 -32 -64
-20 -95 6 -19 15 -57 18 -84 9 -80 23 -133 49 -184 20 -40 25 -64 25 -129 0
-53 -4 -82 -12 -88 -36 -22 -127 -55 -158 -57 -30 -1 -37 -6 -54 -41 -17 -36
-17 -48 -7 -115 10 -68 9 -81 -10 -138 -13 -38 -29 -67 -42 -74 -11 -6 -29
-19 -40 -28 -10 -10 -38 -25 -63 -35 -24 -9 -44 -21 -44 -25 0 -15 -65 -41
-97 -38 -22 1 -42 -8 -79 -40 -48 -40 -84 -54 -84 -32 0 6 -11 15 -24 19 -15
6 -25 20 -29 40 -8 39 -52 54 -74 25 -16 -22 -51 -28 -87 -15 -22 9 -25 14
-19 42 5 29 4 31 -16 24 -15 -4 -35 3 -70 26 -54 34 -66 51 -52 77 25 49 22
85 -11 134 -18 26 -43 51 -55 54 -24 6 -26 12 -23 56 1 14 -3 29 -9 33 -6 3
-11 29 -11 57 0 41 -3 51 -20 55 -11 3 -20 12 -20 19 0 8 -6 14 -14 14 -22 0
-46 29 -46 56 0 13 -4 24 -8 24 -8 0 -32 43 -32 55 0 11 35 4 50 -10 22 -20
40 -12 68 28 26 39 27 47 8 47 -8 0 -27 15 -42 33 -23 27 -26 28 -22 10 7 -26
-8 -29 -36 -8 -13 10 -17 23 -14 44 5 32 -11 42 -29 19 -12 -16 -14 -88 -2
-88 20 0 0 -152 -23 -166 -14 -9 -38 16 -38 39 0 11 -9 30 -20 42 -18 20 -19
26 -8 51 7 16 26 47 42 68 20 26 26 41 18 44 -19 6 -14 20 12 37 32 21 96 11
96 -15 0 -10 8 -20 18 -24 9 -3 24 -9 32 -12 11 -5 9 -1 -4 14 -19 21 -18 22
22 63 49 48 68 48 45 1 -14 -29 -14 -35 -2 -43 8 -5 17 -9 21 -9 13 0 47 67
58 115 9 42 9 51 -4 61 -21 15 -20 24 2 24 15 0 100 82 142 137 8 11 42 35 75
53 33 18 82 48 110 67 27 18 61 33 76 33 43 0 85 19 99 45 20 37 58 50 136 47
38 -2 75 -8 82 -14z m-629 -224 c-6 -8 -15 -14 -20 -14 -14 0 -11 28 4 33 20
7 29 -4 16 -19z m-121 -132 c2 -7 -6 -12 -17 -12 -21 0 -27 11 -14 24 9 9 26
2 31 -12z m-327 -203 c20 -10 19 -11 -5 -30 -29 -23 -36 -24 -36 -5 0 8 -10
22 -22 30 -22 16 -22 16 10 16 19 0 42 -5 53 -11z m-13 -221 c18 -18 14 -35
-9 -41 -13 -4 -28 2 -42 16 l-21 21 24 7 c36 10 35 10 48 -3z"/>
</g>
</svg>
