<?xml version="1.0" standalone="no"?>
<!DOCTYPE svg PUBLIC "-//W3C//DTD SVG 20010904//EN"
 "http://www.w3.org/TR/2001/REC-SVG-20010904/DTD/svg10.dtd">
<svg version="1.0" xmlns="http://www.w3.org/2000/svg"
 width="990.000000pt" height="622.000000pt" viewBox="0 0 990.000000 622.000000"
 preserveAspectRatio="xMidYMid meet">
<metadata>
Created by potrace 1.14, written by Peter Selinger 2001-2017
</metadata>
<g transform="translate(0.000000,622.000000) scale(0.100000,-0.100000)"
fill="#000000" stroke="none">
<path d="M5615 5578 c-239 -21 -448 -83 -537 -157 -20 -17 -49 -36 -65 -43
-42 -19 -92 -57 -153 -119 -30 -30 -74 -64 -97 -75 -23 -10 -43 -21 -43 -24 0
-3 13 -12 29 -21 36 -21 48 -70 24 -105 -9 -14 -22 -23 -28 -20 -7 2 -29 -6
-48 -20 -20 -13 -40 -24 -46 -24 -5 0 -20 -15 -33 -32 -32 -46 -40 -57 -65
-84 -13 -14 -23 -29 -23 -34 0 -5 -12 -23 -27 -41 -33 -39 -128 -192 -144
-231 -6 -16 -15 -28 -20 -28 -5 0 -9 -6 -9 -12 0 -7 -13 -21 -30 -30 -16 -9
-42 -40 -57 -69 -15 -29 -40 -65 -55 -80 -16 -15 -28 -32 -28 -38 0 -6 -9 -11
-20 -11 -11 0 -20 -7 -20 -15 0 -8 6 -15 13 -15 6 0 18 -14 25 -30 29 -65 -53
-133 -97 -79 l-17 22 -25 -39 c-13 -22 -25 -42 -27 -46 -2 -3 7 -8 20 -10 15
-2 24 -11 26 -25 4 -28 -3 -29 -36 -2 -25 19 -27 19 -39 3 -24 -33 -16 -63 22
-81 19 -9 35 -20 35 -25 0 -4 25 -8 56 -8 51 0 59 -3 90 -35 27 -28 41 -35 73
-35 48 0 58 -14 62 -83 3 -46 1 -50 -54 -107 -62 -64 -86 -77 -116 -61 -11 6
-26 8 -34 5 -14 -5 -49 -86 -63 -147 -7 -31 -8 -32 -46 -41 -25 -6 -28 -4 -28
19 0 32 -20 40 -62 26 -29 -11 -35 -9 -51 10 -17 22 -17 23 8 49 25 26 32 54
16 64 -4 3 -11 31 -13 63 -4 36 -15 72 -29 96 -21 33 -27 37 -54 31 -16 -3
-64 -9 -105 -12 l-75 -7 -13 -41 c-7 -23 -37 -66 -71 -103 -58 -62 -58 -64
-40 -82 19 -19 19 -20 -8 -54 -16 -19 -32 -35 -36 -35 -25 0 -69 35 -85 67
-12 26 -31 44 -63 61 -29 14 -54 36 -65 58 -16 30 -23 34 -59 34 -23 0 -50 7
-61 15 -10 8 -27 15 -36 15 -9 0 -24 7 -33 16 -12 13 -19 14 -28 5 -6 -6 -19
-11 -29 -11 -10 0 -28 -18 -42 -42 -14 -24 -35 -50 -47 -58 -61 -42 -89 -73
-89 -100 0 -27 -22 -60 -39 -60 -4 0 -36 -25 -72 -56 -35 -31 -83 -65 -107
-76 -38 -17 -50 -18 -95 -8 -45 9 -53 9 -64 -7 -7 -9 -13 -22 -13 -29 0 -7
-20 -23 -45 -35 l-45 -23 -30 29 c-17 16 -30 37 -30 47 0 11 -11 30 -25 43
-26 27 -73 33 -121 14 -18 -6 -35 -7 -49 -1 -45 22 -207 45 -320 46 l-70 1 -1
50 c-1 28 -2 55 -3 62 -2 17 -87 36 -167 37 -63 1 -80 -3 -163 -43 -68 -33
-111 -46 -164 -52 -40 -4 -101 -10 -137 -14 -36 -4 -75 -14 -87 -21 -12 -8
-34 -14 -48 -14 -14 0 -43 -11 -64 -25 -31 -21 -40 -35 -51 -79 -7 -30 -10
-69 -6 -87 4 -19 13 -102 21 -186 7 -84 16 -162 20 -175 7 -25 107 -197 137
-237 11 -14 18 -41 18 -65 0 -69 47 -310 68 -352 29 -55 99 -123 152 -146 48
-21 46 -21 260 0 58 5 211 9 340 8 219 -1 237 -2 265 -21 17 -12 47 -30 68
-40 20 -11 37 -25 37 -32 0 -7 5 -13 10 -13 6 0 10 -9 10 -20 0 -11 4 -39 10
-62 5 -24 12 -54 14 -68 8 -42 104 -134 176 -169 36 -18 79 -45 95 -60 37 -32
77 -95 74 -113 -4 -19 20 -98 37 -123 27 -41 107 -277 124 -365 6 -30 21 -73
33 -94 41 -73 183 -140 373 -176 55 -11 66 -10 105 8 51 23 100 69 122 115 45
93 162 162 267 159 142 -4 229 -14 240 -27 7 -9 23 -12 43 -8 24 3 41 -2 71
-24 72 -52 116 -100 116 -125 0 -28 60 -113 119 -167 27 -25 41 -47 41 -63 0
-29 59 -131 96 -165 26 -24 58 -30 69 -13 8 13 56 13 92 -1 51 -19 114 -14
163 15 25 14 52 26 60 26 9 0 35 -17 59 -38 71 -62 181 -78 260 -38 26 12 65
28 86 35 22 7 60 21 85 31 25 10 72 26 105 35 33 10 87 28 120 40 137 54 268
95 300 95 39 0 117 30 260 100 55 27 125 59 155 71 60 24 128 74 175 127 35
41 140 116 175 127 63 19 155 107 219 208 24 37 60 75 126 134 25 22 148 179
164 210 34 65 206 199 316 246 33 14 103 33 155 42 52 9 109 22 125 28 48 17
175 125 175 149 0 5 10 25 23 46 13 20 36 69 51 107 15 39 35 86 44 105 26 58
42 104 42 125 0 11 6 32 14 46 7 14 16 42 20 61 4 20 14 50 22 67 17 34 23
228 10 345 -4 32 -2 64 3 70 14 17 33 213 25 260 -4 22 -8 104 -9 181 -2 147
-12 190 -86 352 -11 25 -27 89 -33 142 -15 107 -59 223 -130 339 -24 38 -72
129 -108 203 -67 137 -86 162 -213 279 -107 98 -182 159 -211 172 -16 7 -47
24 -69 39 -22 14 -61 38 -87 53 -26 14 -53 32 -60 39 -7 7 -44 32 -83 57 -38
24 -83 55 -100 68 -16 13 -64 44 -105 70 -41 25 -77 49 -80 52 -3 3 -47 23
-99 45 -55 23 -107 52 -125 70 -33 34 -123 65 -187 65 -19 0 -65 11 -103 25
-51 19 -89 25 -146 25 -42 0 -80 3 -84 7 -31 31 -159 45 -301 31z m-1075
-1428 c0 -26 -2 -28 -22 -21 -13 4 -24 18 -26 30 -3 17 2 21 22 21 22 0 26 -4
26 -30z m-143 6 c2 -1 4 -13 5 -26 2 -18 -3 -25 -17 -28 -11 -1 -37 -10 -58
-19 -20 -9 -40 -14 -43 -10 -10 10 7 47 21 47 8 0 22 11 31 25 12 19 22 24 38
19 11 -4 22 -7 23 -8z m-87 -11 c0 -8 -4 -15 -10 -15 -5 0 -10 7 -10 15 0 8 5
15 10 15 6 0 10 -7 10 -15z m-150 -80 c0 -8 8 -18 18 -24 28 -16 2 -34 -31
-22 -28 11 -35 39 -15 59 13 13 28 7 28 -13z m183 -30 c1 -5 -13 -11 -30 -13
-31 -3 -42 6 -26 22 10 10 53 3 56 -9z m345 -547 c6 -6 12 -25 12 -43 0 -43
29 -55 128 -55 49 0 85 -5 97 -14 11 -7 33 -16 49 -20 l29 -7 -7 -62 c-4 -39
-17 -83 -37 -120 -22 -43 -29 -67 -25 -86 4 -14 13 -65 21 -113 8 -48 28 -120
45 -159 24 -57 30 -85 30 -144 0 -48 -4 -77 -12 -82 -41 -26 -128 -55 -159
-54 -34 1 -37 -1 -53 -43 -13 -35 -15 -58 -9 -122 14 -140 -26 -211 -154 -268
-24 -11 -43 -23 -43 -27 0 -14 -73 -41 -98 -36 -16 3 -36 -6 -65 -31 -59 -49
-84 -59 -100 -40 -6 9 -18 18 -26 20 -7 2 -19 19 -25 38 -13 41 -51 53 -73 24
-16 -21 -49 -26 -85 -12 -23 9 -26 13 -17 29 13 26 2 42 -25 35 -13 -3 -35 4
-61 21 -62 42 -65 47 -49 101 8 26 12 58 9 71 -7 29 -60 91 -88 106 -13 6 -21
23 -23 45 -2 19 -6 51 -8 70 -2 19 -5 43 -5 53 -1 11 -10 21 -21 24 -11 3 -20
12 -20 19 0 8 -6 14 -14 14 -22 0 -46 29 -46 56 0 13 -4 24 -9 24 -5 0 -14 14
-20 30 -8 25 -7 30 6 30 9 0 24 -7 34 -16 20 -18 59 -11 59 12 0 8 4 14 8 14
8 0 32 43 32 57 0 3 -7 2 -16 -1 -10 -4 -26 6 -45 26 -27 30 -29 31 -29 10 0
-25 -7 -27 -34 -7 -14 11 -17 22 -13 45 7 32 -8 41 -31 18 -15 -15 -16 -84 -2
-93 21 -13 2 -141 -23 -157 -16 -10 -37 11 -37 35 0 11 -10 31 -21 43 l-22 23
42 67 c32 50 39 69 31 79 -9 11 -5 18 14 30 32 21 96 11 96 -15 0 -10 8 -20
18 -24 9 -3 23 -9 31 -12 11 -5 10 -1 -2 16 -16 23 -15 25 21 56 46 41 53 42
39 4 -9 -25 -9 -33 5 -46 15 -16 19 -14 46 29 37 58 50 127 27 143 -21 16 -19
24 7 24 22 0 104 80 135 130 8 14 42 39 76 55 33 17 72 39 86 51 39 32 87 54
118 54 34 0 93 34 93 54 0 25 53 41 126 38 38 -2 75 -8 82 -14z m-631 -225
c-9 -9 -19 -14 -23 -11 -10 10 6 28 24 28 15 0 15 -1 -1 -17z m-119 -131 c2
-7 -6 -12 -17 -12 -21 0 -27 11 -14 24 9 9 26 2 31 -12z m-331 -203 c20 -8 24
-13 13 -17 -8 -3 -19 -11 -23 -18 -11 -18 -27 -18 -27 0 0 8 -10 22 -22 30
l-22 16 26 0 c15 0 39 -5 55 -11z m-9 -221 c21 -21 13 -38 -18 -38 -16 0 -30
2 -30 4 0 2 -3 11 -6 19 -5 14 3 19 37 26 3 0 10 -4 17 -11z"/>
</g>
</svg>
