<?xml version="1.0" standalone="no"?>
<!DOCTYPE svg PUBLIC "-//W3C//DTD SVG 20010904//EN"
 "http://www.w3.org/TR/2001/REC-SVG-20010904/DTD/svg10.dtd">
<svg version="1.0" xmlns="http://www.w3.org/2000/svg"
 width="990.000000pt" height="622.000000pt" viewBox="0 0 990.000000 622.000000"
 preserveAspectRatio="xMidYMid meet">
<metadata>
Created by potrace 1.14, written by Peter Selinger 2001-2017
</metadata>
<g transform="translate(0.000000,622.000000) scale(0.100000,-0.100000)"
fill="#000000" stroke="none">
<path d="M5540 5555 c-127 -14 -159 -22 -302 -67 -69 -22 -111 -42 -143 -69
-26 -21 -67 -49 -93 -61 -26 -13 -76 -53 -112 -89 -36 -36 -80 -74 -97 -83
-38 -19 -41 -31 -13 -46 41 -22 9 -130 -38 -130 -9 0 -28 -9 -42 -20 -14 -11
-30 -20 -37 -20 -6 0 -30 -24 -52 -52 -22 -29 -50 -62 -61 -73 -11 -12 -20
-25 -20 -30 0 -6 -10 -21 -23 -35 -32 -35 -147 -226 -147 -245 0 -8 -4 -15 -9
-15 -5 0 -13 -9 -16 -20 -3 -11 -12 -20 -19 -20 -17 0 -69 -58 -84 -93 -16
-38 -74 -107 -89 -107 -17 0 -16 -10 1 -24 8 -6 17 -25 20 -41 9 -44 -30 -101
-65 -97 -13 2 -28 10 -32 18 -14 24 -33 16 -50 -21 -21 -43 -21 -45 -3 -45 20
0 36 -23 26 -39 -6 -11 -13 -10 -36 8 -27 21 -29 21 -41 5 -24 -33 -16 -63 22
-81 19 -9 35 -21 35 -25 0 -5 21 -8 48 -7 53 3 80 -8 107 -45 16 -21 28 -26
62 -26 49 0 58 -11 65 -82 5 -45 4 -48 -51 -106 -63 -65 -89 -79 -121 -62 -32
17 -54 -8 -80 -93 -26 -83 -26 -82 -62 -91 -25 -6 -28 -4 -28 19 0 32 -22 41
-62 24 -28 -12 -32 -11 -50 11 -19 23 -18 23 7 50 24 25 34 60 16 60 -4 0 -11
29 -13 64 -4 45 -13 73 -29 97 -13 19 -25 36 -26 38 -1 1 -32 -4 -68 -14 -37
-9 -79 -16 -93 -15 -46 3 -50 1 -57 -30 -7 -32 -52 -93 -107 -147 -18 -18 -28
-33 -21 -33 7 0 16 -8 22 -17 7 -14 2 -26 -20 -52 l-29 -35 -35 17 c-21 10
-42 30 -52 51 -10 21 -33 43 -59 58 -24 13 -55 39 -69 57 -18 25 -32 34 -58
36 -34 2 -127 41 -138 58 -4 5 -9 5 -13 -2 -4 -6 -15 -11 -25 -11 -18 0 -61
-39 -61 -56 0 -14 -53 -64 -67 -64 -21 0 -63 -61 -63 -91 0 -23 -7 -34 -31
-47 -17 -9 -50 -36 -74 -59 -67 -65 -133 -94 -207 -91 -57 3 -62 1 -67 -20 -8
-31 -95 -71 -120 -55 -9 5 -27 33 -41 62 -21 43 -31 53 -62 62 -26 6 -51 6
-83 -2 -32 -8 -49 -8 -58 -1 -13 11 -149 28 -304 39 l-82 5 -3 62 c-3 60 -4
61 -33 64 -16 2 -44 10 -62 18 -52 24 -110 17 -198 -22 -108 -49 -151 -60
-280 -77 -60 -8 -126 -20 -145 -27 -84 -30 -129 -54 -138 -74 -37 -81 -40
-105 -17 -159 9 -21 15 -67 15 -109 0 -112 17 -232 37 -266 66 -112 108 -178
116 -183 5 -4 13 -42 17 -86 5 -44 13 -97 18 -119 6 -21 13 -66 17 -99 15
-129 110 -249 218 -275 48 -11 68 -11 129 0 50 10 163 14 372 14 289 1 302 0
331 -20 17 -11 46 -28 66 -37 47 -22 58 -45 78 -169 4 -27 17 -58 28 -70 11
-13 33 -38 49 -56 16 -19 57 -47 91 -64 35 -16 79 -43 100 -59 39 -32 85 -100
82 -121 -4 -22 12 -69 47 -145 19 -39 34 -76 34 -82 0 -6 14 -45 30 -87 17
-42 37 -110 45 -151 20 -103 46 -145 120 -192 34 -21 77 -44 96 -50 92 -30
190 -51 240 -51 73 0 121 34 183 127 55 84 80 107 131 123 22 7 51 19 63 27
18 11 39 13 80 8 32 -3 93 -8 137 -11 49 -3 86 -11 96 -20 9 -8 24 -12 33 -8
24 9 57 -2 90 -31 16 -14 32 -25 36 -25 18 0 61 -57 71 -93 12 -46 56 -108
111 -156 26 -22 41 -48 52 -85 17 -58 78 -148 114 -167 17 -10 27 -10 46 1 15
8 37 10 58 6 105 -21 148 -19 197 8 27 14 55 26 64 26 8 0 32 -16 53 -35 30
-26 56 -38 113 -51 80 -18 95 -16 186 26 47 22 148 58 260 93 44 14 118 40
165 57 137 50 172 61 231 70 31 4 76 17 102 29 25 12 51 21 56 21 6 0 46 18
88 41 43 22 116 57 161 76 70 30 101 52 183 128 70 65 121 103 172 128 87 42
144 95 220 203 30 43 76 96 102 117 25 21 71 73 103 115 31 42 60 79 63 82 3
3 17 23 31 45 36 56 62 81 159 150 108 77 182 110 294 130 134 23 158 33 228
91 68 57 121 141 167 269 12 33 33 83 46 112 13 28 24 62 24 74 0 13 8 41 18
63 17 38 27 70 52 166 5 19 9 141 8 270 0 129 4 249 9 265 7 20 6 61 -2 125
-9 70 -9 112 -1 158 9 56 8 75 -11 148 -13 47 -40 124 -61 172 -29 64 -41 106
-45 157 -7 84 -36 174 -85 259 -19 33 -40 70 -46 81 -6 11 -24 38 -39 61 -15
22 -43 77 -61 123 -19 45 -47 103 -62 129 -26 45 -135 157 -218 225 -22 18
-61 51 -86 75 -26 23 -51 42 -56 42 -5 0 -26 11 -45 24 -20 14 -58 37 -85 52
-27 15 -65 39 -84 53 -35 27 -160 110 -320 213 -47 30 -120 68 -164 84 -43 16
-94 43 -115 60 -52 45 -71 53 -149 64 -39 5 -105 21 -149 35 -51 16 -102 25
-148 25 -38 1 -88 8 -110 16 -55 21 -198 25 -335 9z m-1000 -1405 c0 -26 -2
-28 -22 -21 -13 4 -24 18 -26 30 -3 17 2 21 22 21 22 0 26 -4 26 -30z m-143 6
c2 -1 4 -13 5 -26 3 -20 -3 -25 -30 -31 -19 -4 -39 -12 -45 -18 -13 -13 -47
-15 -47 -2 0 21 13 41 26 41 7 0 21 11 30 25 12 19 22 24 38 19 11 -4 22 -7
23 -8z m-87 -11 c0 -8 -4 -15 -10 -15 -5 0 -10 7 -10 15 0 8 5 15 10 15 6 0
10 -7 10 -15z m-150 -80 c0 -8 8 -18 18 -24 28 -16 2 -34 -31 -22 -28 11 -35
39 -15 59 13 13 28 7 28 -13z m183 -30 c1 -5 -13 -11 -30 -13 -31 -3 -42 6
-26 22 10 10 53 3 56 -9z m345 -547 c6 -6 12 -25 12 -43 0 -43 29 -55 128 -55
49 0 85 -5 97 -14 11 -7 33 -16 49 -20 l29 -7 -7 -65 c-5 -46 -16 -82 -37
-120 -23 -40 -30 -62 -25 -82 4 -15 15 -72 25 -127 10 -55 30 -124 45 -154 21
-45 26 -69 26 -132 0 -51 -4 -81 -12 -86 -41 -26 -128 -55 -159 -54 -34 1 -37
-1 -53 -43 -13 -35 -15 -58 -10 -108 11 -85 11 -85 -8 -149 -19 -60 -48 -87
-140 -130 -27 -12 -48 -25 -48 -30 0 -14 -65 -40 -97 -37 -22 1 -42 -8 -79
-40 -48 -40 -84 -54 -84 -32 0 6 -10 14 -21 19 -12 4 -27 22 -33 42 -13 40
-51 52 -73 23 -15 -20 -55 -27 -89 -14 -21 8 -23 13 -14 30 14 26 4 43 -21 35
-20 -7 -114 47 -123 70 -2 7 2 30 9 51 8 22 14 46 15 54 0 26 -71 120 -91 120
-11 0 -19 3 -20 8 -1 13 -9 76 -13 112 -2 19 -5 43 -5 53 -1 11 -10 21 -21 24
-11 3 -20 12 -20 19 0 8 -6 14 -14 14 -22 0 -46 29 -46 56 0 13 -4 24 -9 24
-5 0 -14 14 -20 30 -8 25 -7 30 6 30 9 0 24 -7 33 -15 22 -20 52 -10 68 23 24
47 24 52 10 52 -9 0 -27 14 -42 32 -24 29 -26 30 -26 10 0 -25 -8 -27 -34 -7
-13 10 -17 23 -14 44 5 32 -11 42 -29 19 -13 -17 -15 -88 -3 -88 21 0 1 -152
-22 -166 -14 -9 -38 16 -38 39 0 11 -10 31 -21 43 l-22 23 28 48 c15 26 35 57
44 67 12 14 13 20 4 23 -20 7 -15 21 11 38 32 21 96 11 96 -15 0 -10 8 -20 18
-24 9 -3 24 -9 32 -12 10 -5 9 0 -4 15 l-20 22 44 39 c24 22 46 37 48 35 3 -2
-1 -18 -8 -34 -10 -26 -10 -33 4 -46 14 -15 18 -12 45 29 36 57 49 126 26 142
-20 15 -19 24 4 24 20 0 113 88 138 130 9 15 45 41 82 60 36 19 72 40 80 47
22 23 89 53 115 53 36 0 72 19 86 46 20 36 59 49 136 46 38 -2 75 -8 82 -14z
m-631 -225 c-9 -9 -19 -14 -23 -11 -10 10 6 28 24 28 15 0 15 -1 -1 -17z
m-119 -131 c2 -7 -6 -12 -17 -12 -21 0 -27 11 -14 24 9 9 26 2 31 -12z m-327
-203 c20 -10 19 -11 -5 -30 -29 -23 -36 -24 -36 -5 0 8 -10 22 -22 30 -22 16
-22 16 10 16 19 0 42 -5 53 -11z m-13 -221 c21 -21 14 -38 -16 -38 -16 0 -32
8 -39 19 -11 17 -9 20 10 24 12 2 24 5 28 6 3 0 10 -4 17 -11z"/>
</g>
</svg>
