<?xml version="1.0" standalone="no"?>
<!DOCTYPE svg PUBLIC "-//W3C//DTD SVG 20010904//EN"
 "http://www.w3.org/TR/2001/REC-SVG-20010904/DTD/svg10.dtd">
<svg version="1.0" xmlns="http://www.w3.org/2000/svg"
 width="990.000000pt" height="622.000000pt" viewBox="0 0 990.000000 622.000000"
 preserveAspectRatio="xMidYMid meet">
<metadata>
Created by potrace 1.14, written by Peter Selinger 2001-2017
</metadata>
<g transform="translate(0.000000,622.000000) scale(0.100000,-0.100000)"
fill="#000000" stroke="none">
<path d="M5685 5613 c-44 -6 -111 -12 -150 -13 -38 0 -95 -7 -125 -14 -66 -17
-168 -53 -184 -64 -6 -5 -38 -19 -71 -32 -33 -13 -84 -41 -114 -62 -30 -21
-60 -38 -66 -38 -7 0 -19 -7 -26 -16 -7 -9 -24 -20 -36 -25 -13 -5 -33 -25
-44 -44 -12 -19 -24 -35 -29 -35 -4 0 -23 -15 -42 -33 -19 -18 -59 -40 -91
-50 -31 -10 -57 -21 -57 -25 0 -4 20 -13 44 -21 45 -13 74 -47 63 -75 -3 -8
-37 -37 -74 -65 -38 -27 -84 -71 -103 -98 -18 -26 -40 -52 -47 -56 -7 -4 -13
-16 -13 -26 0 -9 -13 -30 -30 -46 -16 -16 -30 -33 -30 -39 0 -19 -130 -212
-176 -261 -26 -27 -54 -66 -62 -85 -19 -48 -73 -96 -101 -92 -19 3 -22 0 -19
-25 2 -19 9 -29 23 -31 56 -8 40 -114 -19 -120 -20 -3 -32 3 -43 17 -19 28
-31 26 -39 -4 -3 -13 -12 -29 -20 -36 -20 -17 -17 -27 9 -31 14 -2 23 -11 25
-25 4 -28 -3 -29 -36 -2 -25 19 -27 20 -40 2 -21 -29 -11 -66 23 -82 17 -8 32
-18 33 -23 2 -4 28 -8 59 -8 49 0 58 -3 89 -35 27 -28 41 -35 73 -35 49 0 61
-18 61 -88 0 -48 -2 -51 -66 -112 -48 -45 -72 -60 -85 -56 -11 3 -28 9 -39 12
-16 5 -24 -3 -45 -49 -14 -31 -25 -65 -25 -75 0 -48 -72 -88 -78 -44 -4 30
-24 37 -63 23 -24 -8 -36 -8 -45 0 -20 17 -17 47 6 61 20 13 27 52 11 62 -4 3
-11 33 -14 66 -3 34 -12 69 -20 78 -7 9 -17 25 -20 35 -7 19 -33 22 -69 8 -13
-5 -45 -5 -72 -1 -71 11 -82 5 -97 -48 -7 -26 -22 -56 -33 -68 -12 -11 -30
-31 -42 -45 -12 -13 -31 -32 -43 -41 -25 -21 -27 -38 -6 -38 27 0 27 -26 -1
-58 -26 -29 -28 -30 -58 -15 -18 8 -41 31 -51 51 -12 22 -38 46 -64 61 -30 17
-49 36 -62 65 -16 37 -21 40 -53 38 -19 -2 -48 4 -65 12 -16 9 -39 16 -51 16
-11 0 -23 6 -26 14 -5 12 -9 12 -32 0 -15 -8 -33 -14 -39 -14 -7 0 -22 -19
-34 -42 -23 -46 -40 -63 -76 -78 -26 -11 -63 -66 -63 -93 0 -17 -22 -47 -34
-47 -9 0 -70 -45 -106 -78 -52 -49 -93 -66 -138 -57 -97 18 -89 20 -103 -19
-7 -20 -19 -36 -27 -36 -8 0 -22 -10 -32 -22 l-17 -22 -31 25 c-17 13 -34 35
-37 49 -18 75 -49 91 -137 70 -43 -11 -53 -10 -62 1 -7 9 -37 15 -84 17 -40 2
-94 10 -120 18 -55 16 -101 18 -136 4 -53 -20 -65 3 -41 76 10 31 -14 49 -95
68 -88 22 -134 14 -254 -45 -83 -40 -170 -57 -326 -63 -89 -4 -205 -50 -219
-89 -19 -51 -22 -123 -7 -167 9 -27 16 -80 16 -130 1 -141 21 -223 77 -315 26
-44 59 -95 72 -113 16 -23 24 -50 26 -85 6 -92 45 -290 69 -342 25 -54 96
-131 136 -147 82 -33 119 -36 188 -16 56 15 115 20 352 24 l285 6 70 -37 c97
-51 109 -66 126 -160 11 -66 20 -88 53 -130 48 -60 55 -66 132 -105 115 -59
162 -112 169 -191 3 -22 18 -64 34 -94 17 -30 37 -76 45 -102 8 -27 27 -84 44
-128 16 -44 32 -105 36 -136 16 -129 113 -209 312 -259 65 -16 128 -30 139
-30 69 0 154 60 188 133 26 54 85 106 152 134 68 29 151 41 168 24 6 -6 46
-11 93 -11 58 0 85 -4 93 -14 8 -10 23 -13 44 -9 24 3 41 -2 71 -24 68 -49
116 -100 116 -122 0 -38 23 -72 108 -159 28 -30 52 -63 52 -73 0 -33 28 -89
71 -140 41 -49 72 -62 97 -37 8 8 31 7 92 -6 90 -20 115 -17 169 20 19 13 41
24 49 24 7 0 31 -17 55 -38 68 -62 181 -80 260 -41 23 11 65 27 92 35 28 9 69
24 92 35 24 10 47 19 52 19 11 0 109 29 141 42 140 57 296 108 332 108 15 0
53 11 84 25 31 14 60 25 65 25 8 0 157 69 306 142 23 11 70 47 103 79 96 92
140 124 210 156 71 33 133 90 202 188 24 34 81 99 128 145 47 47 105 114 130
148 75 107 113 148 170 191 30 22 64 47 75 56 51 41 167 86 275 108 139 29
168 43 245 121 53 53 70 82 137 226 42 91 81 188 87 215 17 87 31 136 46 166
12 22 15 70 15 214 0 145 3 191 14 208 16 23 29 127 29 212 -2 166 -17 345
-33 400 -18 58 -69 185 -88 222 -6 10 -15 60 -21 112 -12 93 -34 164 -92 287
-16 34 -29 68 -29 75 0 7 -6 20 -14 28 -13 15 -33 50 -114 201 -53 99 -124
178 -287 321 -27 24 -58 52 -68 61 -11 9 -33 22 -51 28 -59 22 -176 87 -207
116 -14 13 -29 24 -33 24 -7 0 -142 91 -196 132 -102 78 -170 122 -212 139
-87 34 -132 61 -160 94 -30 35 -46 40 -178 54 -41 4 -97 18 -125 30 -31 14
-82 26 -135 30 -47 4 -95 13 -107 19 -51 28 -145 38 -228 25z m-1147 -1465 c3
-25 1 -27 -20 -19 -13 4 -24 18 -26 30 -3 19 1 22 20 19 17 -2 24 -10 26 -30z
m-134 -11 c7 -26 0 -37 -25 -37 -11 0 -34 -7 -51 -16 -18 -9 -34 -12 -39 -7
-15 15 0 41 26 47 12 3 25 14 28 25 6 26 53 17 61 -12z m-94 8 c0 -8 -4 -15
-10 -15 -5 0 -10 7 -10 15 0 8 5 15 10 15 6 0 10 -7 10 -15z m-133 -105 c7 0
13 -4 13 -9 0 -15 -18 -23 -25 -12 -3 6 -12 8 -19 5 -19 -7 -28 24 -14 49 12
22 12 22 22 -5 5 -16 16 -28 23 -28z m163 -5 c0 -16 -45 -21 -54 -6 -8 12 4
21 31 21 14 0 23 -6 23 -15z m348 -547 c6 -6 12 -25 12 -44 0 -45 20 -54 122
-54 54 0 91 -5 103 -14 11 -7 33 -16 49 -20 l29 -7 -7 -62 c-4 -39 -17 -83
-37 -121 -30 -57 -31 -62 -19 -110 6 -28 11 -55 9 -61 -5 -19 30 -150 53 -195
25 -51 38 -191 19 -214 -6 -7 -30 -18 -53 -26 -24 -7 -51 -18 -61 -25 -11 -8
-33 -11 -52 -8 -30 5 -33 3 -49 -37 -13 -32 -15 -58 -10 -118 9 -113 -13 -187
-69 -227 -23 -16 -60 -38 -82 -48 -22 -10 -42 -22 -45 -26 -13 -19 -76 -41
-101 -36 -20 5 -32 1 -47 -15 -29 -31 -84 -70 -99 -70 -7 0 -13 6 -13 14 0 8
-10 16 -23 20 -15 3 -26 17 -32 38 -11 37 -51 51 -69 26 -16 -21 -63 -30 -87
-18 -16 9 -19 17 -14 42 7 30 6 31 -22 25 -22 -4 -40 2 -73 24 -52 35 -61 48
-50 68 4 9 11 36 15 62 6 42 4 48 -30 90 -21 24 -42 46 -49 48 -26 9 -36 23
-25 37 6 7 8 18 5 23 -4 5 -11 36 -17 68 -11 59 -37 95 -79 108 -11 3 -23 18
-26 33 -3 15 -14 44 -24 65 -19 36 -19 37 1 37 10 0 19 -4 19 -9 0 -14 29 -22
56 -15 13 3 24 12 24 20 0 8 4 14 9 14 5 0 11 8 15 18 3 9 10 27 15 39 9 21 9
21 -15 11 -22 -10 -29 -8 -60 23 -30 28 -35 30 -30 12 9 -29 -7 -37 -29 -13
-11 12 -15 28 -11 43 8 32 -3 41 -25 21 -23 -20 -58 -12 -37 9 20 20 46 27 78
20 23 -4 30 -11 30 -30 0 -14 4 -21 10 -18 6 3 18 -1 27 -11 13 -13 18 -14 22
-3 2 7 -1 15 -7 17 -20 6 -13 27 19 58 l31 29 -3 -25 c-4 -34 21 -73 38 -58 7
6 13 15 13 20 0 6 9 23 20 39 24 33 40 129 21 129 -6 0 -11 5 -11 10 0 6 7 10
16 10 18 0 114 92 133 128 6 12 33 33 59 46 26 13 78 45 117 70 50 34 79 46
106 46 38 0 89 31 89 54 0 25 54 41 126 38 38 -2 75 -8 82 -14z m-628 -217 c0
-5 -7 -11 -15 -15 -15 -5 -20 5 -8 17 9 10 23 9 23 -2z m-130 -136 c0 -8 -7
-15 -15 -15 -16 0 -20 12 -8 23 11 12 23 8 23 -8z m-313 -209 c5 -5 -29 -46
-38 -46 -4 0 -9 8 -13 18 -3 9 -9 23 -12 31 -5 11 0 13 26 7 19 -3 35 -8 37
-10z m73 -65 c0 -17 5 -33 11 -36 19 -13 -3 -150 -27 -159 -14 -5 -34 22 -34
45 0 7 -10 23 -22 36 l-22 23 22 30 c12 16 22 32 22 35 0 11 33 55 41 55 5 0
9 -13 9 -29z m-84 -180 c-7 -10 -56 -16 -56 -7 0 2 -3 11 -6 19 -4 11 2 17 18
19 26 5 54 -15 44 -31z"/>
</g>
</svg>
