<?xml version="1.0" standalone="no"?>
<!DOCTYPE svg PUBLIC "-//W3C//DTD SVG 20010904//EN"
 "http://www.w3.org/TR/2001/REC-SVG-20010904/DTD/svg10.dtd">
<svg version="1.0" xmlns="http://www.w3.org/2000/svg"
 width="990.000000pt" height="622.000000pt" viewBox="0 0 990.000000 622.000000"
 preserveAspectRatio="xMidYMid meet">
<metadata>
Created by potrace 1.14, written by Peter Selinger 2001-2017
</metadata>
<g transform="translate(0.000000,622.000000) scale(0.100000,-0.100000)"
fill="#000000" stroke="none">
<path d="M5685 5599 c-38 -5 -117 -13 -175 -18 -147 -13 -377 -94 -458 -161
-20 -17 -40 -30 -44 -30 -19 0 -101 -61 -154 -116 -53 -54 -97 -83 -146 -98
-28 -8 -21 -21 17 -35 26 -9 37 -20 43 -44 11 -41 5 -56 -27 -71 -64 -29 -119
-72 -154 -122 -21 -30 -42 -54 -47 -54 -6 0 -10 -6 -10 -14 0 -7 -16 -34 -35
-59 -19 -25 -35 -48 -35 -52 0 -19 -122 -199 -165 -245 -29 -30 -61 -71 -70
-90 -22 -45 -74 -100 -95 -100 -9 0 -20 -3 -23 -6 -10 -10 12 -44 26 -39 6 3
18 -7 24 -22 11 -22 10 -32 -5 -62 -21 -45 -63 -54 -91 -20 l-17 22 -25 -39
c-13 -22 -25 -42 -27 -46 -2 -3 7 -8 20 -10 15 -2 24 -11 26 -25 4 -28 -3 -29
-36 -2 -25 19 -27 19 -39 3 -24 -33 -16 -63 22 -81 19 -9 35 -20 35 -25 0 -4
25 -8 56 -8 51 0 59 -3 90 -35 27 -28 41 -35 73 -35 48 0 58 -14 62 -83 3 -46
1 -50 -51 -104 -71 -71 -84 -78 -121 -62 -39 15 -43 10 -77 -87 -21 -57 -35
-82 -52 -91 -28 -14 -40 -9 -40 18 0 26 -23 34 -62 20 -29 -11 -35 -9 -51 10
-17 22 -17 23 8 49 25 26 32 54 16 64 -4 3 -11 33 -14 66 -3 34 -12 69 -20 78
-7 9 -17 25 -21 36 -5 15 -12 17 -44 12 -20 -4 -68 -8 -106 -9 l-69 -2 -16
-45 c-17 -47 -29 -65 -95 -131 l-40 -39 23 -21 23 -22 -25 -23 c-14 -13 -27
-29 -29 -36 -8 -22 -68 16 -92 58 -14 26 -37 47 -68 63 -33 17 -51 34 -63 62
-15 33 -21 38 -42 33 -22 -6 -69 8 -134 41 -43 21 -91 0 -118 -50 -13 -24 -41
-53 -71 -73 -42 -28 -52 -40 -61 -78 -10 -39 -20 -51 -70 -85 -33 -22 -59 -43
-59 -47 0 -4 -23 -22 -51 -41 -53 -34 -52 -34 -169 -19 -20 2 -27 -3 -34 -28
-6 -18 -20 -35 -35 -42 -14 -6 -34 -17 -43 -24 -14 -10 -21 -9 -42 11 -14 13
-31 40 -37 60 -20 62 -25 64 -115 57 -44 -3 -84 -3 -88 1 -8 8 -26 11 -121 19
-38 4 -76 11 -82 16 -7 6 -50 9 -95 7 l-83 -4 0 60 c0 57 -1 60 -30 68 -16 5
-48 14 -70 21 -60 20 -136 5 -238 -44 -89 -43 -139 -54 -316 -66 -36 -2 -69
-8 -75 -14 -5 -5 -21 -10 -34 -10 -38 0 -111 -48 -118 -78 -3 -15 -10 -42 -16
-60 -7 -24 -6 -46 6 -85 8 -28 17 -103 21 -165 8 -154 19 -200 71 -279 24 -37
44 -72 44 -77 0 -5 12 -22 27 -38 20 -21 27 -39 29 -80 4 -96 46 -302 71 -353
66 -135 180 -191 327 -159 54 12 143 16 366 17 l295 2 59 -37 c67 -43 96 -70
96 -92 0 -9 4 -35 10 -58 5 -24 12 -54 15 -68 5 -30 110 -150 130 -150 16 0
76 -34 132 -75 40 -29 72 -78 79 -120 8 -48 22 -93 37 -116 25 -38 106 -276
122 -357 18 -94 43 -133 114 -181 62 -42 112 -60 246 -92 104 -24 143 -20 199
21 36 27 86 89 86 107 0 4 17 27 38 50 50 56 147 97 222 95 142 -4 229 -14
240 -27 7 -9 23 -12 43 -8 24 3 41 -2 71 -24 72 -52 116 -100 116 -125 0 -28
60 -113 119 -167 23 -21 41 -47 41 -59 0 -36 36 -105 78 -150 42 -44 60 -50
91 -30 15 9 34 8 89 -5 90 -22 88 -22 155 13 32 16 63 30 69 30 5 0 29 -17 53
-38 70 -61 181 -79 258 -41 43 21 164 65 277 100 36 11 94 31 130 44 217 80
263 95 294 95 19 0 56 9 83 21 26 11 67 27 91 35 23 8 69 31 102 50 32 18 63
34 69 34 6 0 19 4 29 10 9 5 42 20 72 34 33 15 84 53 127 94 82 79 157 136
193 147 24 8 78 40 111 67 8 7 50 58 91 114 42 55 93 114 113 130 20 16 74 78
120 139 46 60 94 121 105 135 12 14 24 30 28 36 13 19 186 140 242 168 30 15
78 32 105 37 201 36 228 46 317 127 31 28 56 68 100 162 57 120 65 139 102
223 9 21 16 53 16 71 0 19 6 39 14 45 8 7 16 28 19 49 3 20 13 62 22 92 14 46
16 82 11 215 -6 142 -4 163 11 185 16 22 17 52 15 283 -2 286 -1 282 -76 464
-25 61 -46 124 -46 140 0 15 -6 57 -14 93 -13 58 -21 85 -42 141 -14 40 -213
422 -248 477 -39 62 -328 332 -356 332 -10 0 -46 18 -135 70 -44 25 -183 120
-258 175 -22 17 -54 38 -71 48 -17 11 -54 36 -82 57 -28 22 -88 53 -133 70
-52 20 -96 45 -123 71 -46 43 -77 54 -190 69 -40 5 -104 21 -143 35 -48 17
-91 25 -137 25 -37 0 -69 4 -72 8 -5 8 -93 30 -141 36 -11 2 -51 -1 -90 -5z
m-1145 -1449 c0 -26 -2 -28 -22 -21 -13 4 -24 18 -26 30 -3 17 2 21 22 21 22
0 26 -4 26 -30z m-136 -13 c7 -26 0 -37 -24 -37 -11 0 -35 -8 -55 -17 -19 -9
-37 -14 -41 -11 -12 13 7 46 30 52 13 3 26 14 29 25 6 26 53 17 61 -12z m-94
8 c0 -8 -4 -15 -10 -15 -5 0 -10 7 -10 15 0 8 5 15 10 15 6 0 10 -7 10 -15z
m-132 -105 c7 0 12 -6 9 -12 -5 -14 -46 -13 -61 2 -6 6 -4 20 4 37 l13 28 11
-27 c5 -16 16 -28 24 -28z m162 -5 c0 -10 -10 -15 -30 -15 -29 0 -38 9 -23 23
13 13 53 7 53 -8z m348 -547 c6 -6 12 -25 12 -44 0 -45 20 -54 122 -54 54 0
91 -5 103 -14 11 -7 33 -16 49 -20 29 -7 29 -7 22 -68 -4 -39 -18 -84 -38
-124 -29 -58 -31 -66 -20 -97 7 -18 12 -49 12 -68 1 -51 25 -141 54 -203 21
-44 26 -70 26 -129 0 -82 -3 -87 -65 -107 -22 -7 -48 -19 -59 -26 -10 -7 -32
-10 -50 -7 -31 5 -33 3 -49 -39 -13 -34 -16 -61 -11 -121 10 -110 -13 -181
-70 -222 -22 -16 -59 -38 -81 -48 -22 -10 -42 -22 -45 -26 -12 -19 -74 -42
-96 -37 -17 5 -32 -2 -56 -22 -70 -60 -108 -77 -108 -48 0 8 -10 16 -23 20
-15 3 -26 17 -32 38 -12 39 -51 51 -72 22 -16 -21 -49 -26 -85 -12 -23 9 -26
13 -17 29 13 26 2 42 -25 35 -13 -3 -35 4 -61 21 -57 38 -66 52 -54 76 6 11
12 40 13 66 1 39 -4 53 -34 88 -19 24 -40 43 -46 43 -18 0 -37 27 -25 35 7 4
6 17 -3 39 -8 19 -14 50 -14 70 0 39 -31 78 -72 91 -11 3 -23 18 -26 33 -6 31
-9 37 -29 72 -13 22 -13 25 0 28 8 2 22 -4 31 -12 28 -29 47 -20 87 39 33 49
34 57 2 49 -20 -5 -30 0 -47 21 -21 27 -22 27 -30 6 -7 -19 -10 -20 -28 -9
-17 10 -20 20 -17 45 7 39 -1 48 -24 27 -19 -17 -55 -12 -44 7 11 17 53 29 85
23 23 -5 30 -12 30 -30 0 -17 4 -22 15 -18 8 4 15 1 15 -5 0 -6 8 -11 17 -11
13 0 14 3 5 12 -20 20 -13 41 23 71 l34 28 -6 -33 c-3 -23 0 -38 10 -46 13
-11 20 -6 45 30 40 58 52 133 26 153 -18 14 -18 14 5 15 24 0 94 65 142 132
10 14 48 41 84 59 36 18 73 40 83 50 31 28 79 49 115 49 36 0 87 32 87 54 0
25 54 41 126 38 38 -2 75 -8 82 -14z m-628 -217 c0 -5 -7 -11 -15 -15 -15 -5
-20 5 -8 17 9 10 23 9 23 -2z m-122 -139 c2 -7 -6 -12 -17 -12 -21 0 -27 11
-14 24 9 9 26 2 31 -12z m-321 -206 c5 -5 -29 -46 -38 -46 -4 0 -9 8 -13 18
-3 9 -9 23 -12 31 -5 11 0 13 26 7 19 -3 35 -8 37 -10z m73 -61 c0 -14 5 -34
12 -44 14 -23 -4 -140 -24 -152 -17 -11 -38 9 -38 34 0 11 -10 31 -22 44 l-22
23 22 30 c12 16 22 32 22 35 0 11 33 55 41 55 5 0 9 -11 9 -25z m-92 -157 c21
-21 13 -38 -18 -38 -16 0 -30 2 -30 4 0 2 -3 11 -6 19 -5 14 3 19 37 26 3 0
10 -4 17 -11z"/>
</g>
</svg>
