<?xml version="1.0" standalone="no"?>
<!DOCTYPE svg PUBLIC "-//W3C//DTD SVG 20010904//EN"
 "http://www.w3.org/TR/2001/REC-SVG-20010904/DTD/svg10.dtd">
<svg version="1.0" xmlns="http://www.w3.org/2000/svg"
 width="990.000000pt" height="622.000000pt" viewBox="0 0 990.000000 622.000000"
 preserveAspectRatio="xMidYMid meet">
<metadata>
Created by potrace 1.14, written by Peter Selinger 2001-2017
</metadata>
<g transform="translate(0.000000,622.000000) scale(0.100000,-0.100000)"
fill="#000000" stroke="none">
<path d="M5695 5650 c-33 -4 -89 -8 -125 -9 -61 -1 -209 -30 -255 -50 -11 -5
-63 -29 -116 -55 -53 -25 -99 -46 -103 -46 -4 0 -34 -18 -67 -40 -33 -22 -67
-40 -76 -40 -8 0 -56 -41 -106 -91 -88 -88 -134 -119 -176 -119 -10 0 -38 -12
-61 -27 -35 -23 -38 -28 -23 -34 10 -4 36 -8 58 -8 45 -1 85 -24 85 -48 0 -9
-30 -46 -67 -82 -93 -91 -132 -137 -148 -174 -7 -18 -25 -43 -39 -56 -14 -14
-26 -30 -26 -37 0 -17 -68 -134 -89 -154 -52 -49 -143 -167 -148 -192 -7 -36
-63 -83 -100 -83 -53 0 -39 -39 31 -88 23 -16 24 -20 13 -45 -23 -52 -79 -72
-92 -32 -10 31 -28 24 -52 -20 -13 -21 -23 -41 -23 -44 0 -2 10 -6 23 -8 14
-2 23 -11 25 -25 4 -28 -1 -29 -37 -2 -37 27 -51 18 -51 -31 0 -35 3 -39 34
-50 19 -6 36 -16 38 -22 2 -6 29 -11 61 -12 51 -2 60 -5 83 -34 23 -27 34 -32
70 -32 52 0 64 -16 64 -87 0 -46 -3 -52 -52 -100 -64 -61 -95 -80 -111 -64
-25 25 -47 11 -71 -41 -13 -29 -27 -66 -30 -83 -4 -16 -12 -36 -18 -42 -14
-18 -59 -17 -52 0 9 23 -21 37 -72 35 -40 -3 -49 0 -52 16 -2 11 7 29 23 43
24 23 25 27 12 46 -8 12 -17 48 -20 81 -3 32 -13 66 -21 75 -9 10 -16 25 -16
35 0 23 -26 31 -57 17 -20 -9 -38 -9 -79 0 -76 17 -100 5 -109 -55 -7 -44 -37
-83 -127 -164 -23 -20 -23 -32 1 -32 32 0 35 -19 7 -45 -14 -13 -26 -29 -26
-35 0 -17 -58 18 -71 43 -18 35 -51 67 -87 84 -19 9 -36 23 -39 32 -2 9 -9 24
-14 33 -5 10 -9 24 -9 31 0 9 -11 12 -36 9 -20 -3 -46 0 -57 6 -12 6 -35 13
-52 14 -24 2 -30 7 -28 25 l2 21 -42 -21 c-23 -11 -48 -23 -56 -27 -8 -4 -19
-20 -24 -36 -13 -39 -24 -52 -72 -82 -50 -32 -64 -50 -65 -83 0 -27 -17 -46
-63 -69 -16 -8 -53 -36 -83 -62 -60 -52 -89 -64 -132 -53 -15 3 -44 9 -64 12
-33 4 -38 2 -43 -19 -4 -14 -22 -39 -40 -57 l-34 -32 -30 22 c-22 16 -32 33
-37 64 -4 32 -12 45 -30 54 -35 16 -80 14 -116 -5 -29 -15 -32 -15 -44 0 -8
12 -31 18 -80 21 -38 2 -98 13 -134 24 -77 25 -113 26 -130 6 -7 -8 -21 -15
-32 -15 -21 0 -21 19 -3 75 9 28 -25 65 -59 65 -15 0 -43 7 -62 15 -32 13 -44
13 -100 0 -35 -8 -99 -33 -143 -55 -68 -35 -93 -42 -177 -50 -55 -5 -128 -10
-164 -10 -127 0 -200 -38 -213 -110 -4 -25 -10 -59 -13 -77 -4 -18 1 -51 9
-75 9 -24 19 -97 22 -163 7 -141 23 -202 69 -273 19 -28 37 -60 41 -72 3 -11
19 -33 36 -49 24 -25 29 -38 29 -79 0 -27 4 -62 10 -78 5 -16 16 -76 25 -133
11 -79 22 -116 46 -158 50 -88 90 -119 188 -149 61 -18 86 -18 146 5 43 16 90
20 334 26 l284 7 75 -39 c41 -21 82 -49 92 -63 9 -14 23 -56 30 -95 18 -100
82 -190 156 -221 117 -49 191 -125 199 -204 3 -24 13 -57 24 -76 11 -18 36
-79 56 -136 20 -57 40 -112 45 -123 20 -48 29 -84 35 -136 14 -123 107 -201
300 -249 134 -33 171 -36 218 -16 42 17 97 71 122 119 33 63 84 106 165 139
58 23 84 28 115 23 22 -3 80 -9 128 -13 48 -4 91 -12 95 -18 4 -5 25 -10 48
-10 28 0 50 -7 73 -24 87 -68 101 -82 107 -118 8 -43 53 -108 118 -171 32 -30
46 -52 46 -70 0 -32 36 -96 80 -145 34 -37 75 -47 97 -25 8 8 34 5 95 -11 l84
-21 59 35 c32 20 63 36 68 36 5 0 26 -18 47 -40 45 -48 80 -60 170 -60 48 0
74 5 99 21 19 12 59 27 88 35 30 8 73 23 95 34 23 11 49 20 57 20 16 1 72 20
246 85 105 39 195 64 232 65 12 0 47 11 77 25 30 14 58 25 63 25 4 0 60 25
123 56 63 31 139 68 169 82 31 15 93 62 144 110 64 60 112 95 165 120 87 42
151 101 234 214 31 42 73 89 93 105 42 33 161 171 197 228 66 104 278 252 395
275 32 6 74 15 93 20 19 5 52 12 72 15 80 12 200 121 250 225 17 36 55 114 85
175 29 60 53 119 53 131 0 21 15 77 46 174 11 34 12 77 8 180 -6 134 0 181 35
247 36 69 42 177 23 418 -12 149 -27 223 -59 281 -15 26 -60 144 -79 204 -7
25 -14 69 -14 98 0 95 -124 408 -202 512 -10 14 -40 57 -66 96 -93 141 -306
340 -395 369 -61 20 -88 35 -220 124 -54 36 -108 71 -120 78 -11 7 -35 25 -53
41 -18 16 -61 50 -97 76 -35 25 -70 53 -77 61 -7 8 -19 15 -27 15 -29 0 -138
62 -184 105 -52 48 -73 55 -195 59 -67 2 -88 7 -127 29 -33 19 -71 31 -129 38
-45 6 -110 19 -143 29 -78 24 -127 29 -200 20z m-1157 -1498 c3 -20 0 -23 -20
-20 -15 2 -24 11 -26 26 -3 20 0 23 20 20 15 -2 24 -11 26 -26z m-228 -1 c0
-6 -4 -13 -10 -16 -5 -3 -10 1 -10 9 0 9 5 16 10 16 6 0 10 -4 10 -9z m93 -13
c8 -29 1 -38 -29 -38 -14 0 -36 -7 -50 -16 -16 -11 -28 -14 -35 -7 -15 15 0
40 27 47 13 4 24 13 24 21 0 10 10 15 29 15 21 0 30 -6 34 -22z m-248 -98 c-4
-11 -10 -20 -15 -20 -15 0 -20 31 -9 52 10 19 12 20 21 4 5 -9 6 -25 3 -36z
m185 -5 c0 -16 -45 -21 -54 -6 -8 12 4 21 31 21 14 0 23 -6 23 -15z m-150 -5
c0 -5 -7 -10 -15 -10 -8 0 -15 5 -15 10 0 6 7 10 15 10 8 0 15 -4 15 -10z
m498 -543 c8 -6 12 -22 9 -35 -9 -46 22 -62 121 -62 57 0 94 -5 107 -14 11 -7
33 -16 49 -20 29 -7 29 -7 22 -68 -3 -33 -13 -72 -21 -87 -45 -81 -48 -94 -35
-143 6 -26 9 -52 5 -58 -8 -13 16 -97 56 -200 44 -112 40 -230 -8 -230 -7 0
-35 -10 -61 -22 -26 -13 -62 -23 -81 -23 -32 0 -35 -3 -51 -50 -12 -35 -14
-59 -8 -80 24 -87 -6 -199 -67 -250 -23 -19 -53 -37 -67 -40 -15 -4 -34 -14
-45 -24 -33 -31 -86 -52 -114 -46 -20 5 -33 0 -51 -18 -12 -13 -38 -34 -57
-47 -30 -21 -35 -21 -45 -8 -6 8 -21 18 -32 22 -13 4 -24 18 -27 36 -4 16 -15
34 -26 39 -23 13 -51 5 -51 -14 0 -17 -57 -27 -81 -15 -14 8 -17 17 -12 40 5
29 4 30 -30 30 -22 0 -51 11 -77 27 -39 26 -41 30 -35 63 19 105 19 103 -20
150 -20 25 -45 49 -55 54 -12 5 -19 19 -18 35 0 14 -5 55 -11 90 -11 62 -37
100 -68 101 -21 0 -43 31 -43 61 0 16 -4 29 -9 29 -5 0 -11 11 -13 25 -6 30 5
32 32 7 23 -22 85 -19 76 4 -3 7 -2 14 2 16 11 5 48 80 56 112 4 16 21 49 38
74 35 50 51 138 28 152 -8 5 -4 9 12 13 13 4 31 18 38 33 8 14 27 35 42 46 16
11 35 33 43 49 10 17 36 39 68 55 28 15 78 45 111 66 35 25 74 42 100 45 55 7
96 29 96 51 0 30 52 47 128 44 37 -2 73 -9 80 -15z m-628 -216 c0 -5 -7 -11
-15 -15 -15 -5 -20 5 -8 17 9 10 23 9 23 -2z m-130 -136 c0 -8 -4 -15 -9 -15
-13 0 -22 16 -14 24 11 11 23 6 23 -9z m-45 -205 c11 -9 11 -17 -2 -50 -21
-53 -42 -59 -73 -20 -29 35 -40 38 -40 10 0 -18 -3 -19 -20 -10 -17 9 -20 17
-14 46 7 37 -4 44 -30 19 -17 -17 -36 -20 -36 -5 0 19 45 38 78 33 26 -4 32
-10 32 -29 0 -13 3 -23 8 -22 4 1 17 -3 30 -10 18 -11 22 -10 22 2 0 8 -4 16
-10 18 -5 2 0 19 12 38 20 32 23 33 26 13 2 -12 9 -27 17 -33z m-268 -4 c6 -5
-29 -46 -39 -46 -5 0 -8 9 -8 20 0 11 -4 20 -10 20 -5 0 -10 5 -10 11 0 10 56
6 67 -5z m71 -66 c-3 -18 0 -31 8 -34 14 -5 8 -107 -8 -138 -18 -35 -48 -15
-48 32 0 10 -7 20 -15 24 -18 7 -20 52 -2 63 6 4 20 25 29 46 21 45 42 49 36
7z m-82 -179 c-7 -10 -56 -16 -56 -7 0 2 -3 11 -6 19 -4 11 2 17 18 19 26 5
54 -15 44 -31z"/>
</g>
</svg>
