<?xml version="1.0" standalone="no"?>
<!DOCTYPE svg PUBLIC "-//W3C//DTD SVG 20010904//EN"
 "http://www.w3.org/TR/2001/REC-SVG-20010904/DTD/svg10.dtd">
<svg version="1.0" xmlns="http://www.w3.org/2000/svg"
 width="990.000000pt" height="622.000000pt" viewBox="0 0 990.000000 622.000000"
 preserveAspectRatio="xMidYMid meet">
<metadata>
Created by potrace 1.14, written by Peter Selinger 2001-2017
</metadata>
<g transform="translate(0.000000,622.000000) scale(0.100000,-0.100000)"
fill="#000000" stroke="none">
<path d="M5635 5629 c-228 -21 -286 -34 -410 -94 -27 -14 -77 -36 -110 -50
-32 -14 -62 -29 -65 -34 -3 -4 -42 -29 -88 -56 -45 -27 -90 -60 -99 -75 -15
-23 -40 -49 -91 -91 -11 -10 -44 -24 -73 -33 -30 -9 -63 -23 -73 -31 -22 -16
-16 -20 47 -29 99 -13 84 -82 -35 -160 -15 -10 -41 -39 -58 -66 -17 -26 -37
-51 -45 -54 -8 -3 -15 -14 -15 -24 0 -11 -12 -32 -27 -48 -16 -16 -36 -47 -46
-68 -30 -64 -81 -137 -156 -223 -39 -46 -71 -89 -71 -98 0 -8 -16 -33 -36 -55
-27 -29 -44 -40 -66 -40 -26 0 -29 -3 -26 -27 2 -18 10 -29 22 -31 11 -3 27
-14 37 -25 13 -17 15 -26 5 -47 -22 -50 -79 -69 -91 -30 -10 31 -28 24 -52
-20 -13 -21 -23 -41 -23 -44 0 -2 10 -6 23 -8 14 -2 23 -11 25 -25 4 -28 -3
-29 -35 -3 -33 26 -55 11 -51 -34 2 -23 11 -34 33 -45 17 -8 33 -19 37 -25 4
-6 30 -10 58 -8 47 1 55 -1 86 -33 27 -28 41 -35 73 -35 49 0 61 -18 61 -88 0
-48 -2 -51 -66 -112 -48 -45 -72 -60 -85 -56 -11 3 -28 9 -39 12 -16 5 -23 -3
-43 -47 -14 -30 -28 -67 -31 -84 -10 -41 -24 -55 -53 -55 -18 0 -24 4 -20 14
9 24 -17 36 -69 34 -40 -3 -49 0 -52 16 -2 11 7 29 23 43 24 23 25 27 12 46
-8 12 -17 48 -20 81 -3 32 -12 65 -20 75 -8 9 -18 26 -22 39 -5 18 -11 21 -28
15 -12 -4 -57 -6 -100 -5 -47 2 -84 -2 -92 -8 -7 -6 -17 -30 -20 -53 -6 -33
-20 -54 -78 -111 -68 -67 -70 -71 -47 -76 31 -7 31 -17 0 -58 l-25 -32 -32 19
c-17 11 -37 32 -45 48 -7 15 -36 43 -64 61 -39 25 -54 42 -64 72 -13 39 -14
40 -61 40 -26 0 -51 5 -54 10 -3 6 -22 10 -42 10 -30 0 -35 3 -30 20 5 21 -7
28 -18 10 -3 -5 -23 -14 -45 -20 -32 -8 -41 -17 -50 -46 -12 -35 -56 -84 -76
-84 -18 0 -45 -36 -59 -77 -9 -28 -26 -47 -61 -71 -27 -18 -65 -48 -85 -66
-20 -19 -52 -43 -72 -52 -35 -17 -40 -17 -85 -1 -63 23 -70 22 -84 -10 -7 -16
-28 -43 -47 -61 l-35 -32 -33 35 c-18 19 -33 45 -33 58 -1 60 -69 78 -164 41
-12 -5 -23 -2 -30 9 -8 11 -34 17 -86 20 -41 3 -107 13 -147 22 -66 17 -74 17
-105 2 -28 -13 -35 -14 -47 -3 -11 11 -11 20 0 49 21 60 7 74 -104 98 -72 16
-124 5 -240 -50 -89 -42 -112 -47 -303 -60 -169 -12 -254 -52 -254 -121 0 -16
-5 -41 -12 -55 -9 -21 -8 -35 5 -73 8 -26 19 -96 22 -157 8 -141 28 -226 64
-278 15 -23 37 -60 49 -82 11 -22 29 -49 41 -59 15 -14 21 -31 21 -61 0 -24 6
-73 14 -111 8 -38 20 -102 26 -142 23 -141 96 -233 218 -272 l73 -23 73 21
c63 19 109 22 352 28 l279 6 70 -37 c97 -51 109 -66 126 -160 11 -66 20 -88
53 -130 55 -69 60 -74 103 -91 115 -49 191 -125 198 -203 3 -23 17 -65 32 -94
16 -29 34 -70 42 -92 7 -22 28 -80 46 -130 18 -49 36 -117 40 -149 7 -60 39
-122 80 -158 58 -51 285 -128 376 -128 67 0 126 43 183 132 19 31 48 68 63 83
43 41 139 79 198 77 109 -3 235 -18 246 -29 6 -6 25 -9 43 -6 23 3 41 -2 70
-24 77 -55 116 -99 116 -129 0 -31 26 -68 108 -153 28 -31 52 -65 52 -76 1
-62 94 -185 140 -185 16 0 30 6 32 12 4 10 23 8 84 -6 99 -24 105 -24 163 13
26 17 53 31 60 31 6 0 30 -17 54 -39 71 -65 186 -81 269 -37 25 13 60 27 79
31 32 7 84 26 120 45 9 5 33 12 54 16 37 7 54 13 220 76 97 37 200 67 237 67
15 1 52 12 82 26 30 14 57 25 61 25 5 0 124 56 294 138 30 14 79 51 111 81 79
78 138 124 185 145 22 9 50 22 62 28 37 18 105 88 171 176 34 46 79 97 99 115
21 18 47 42 58 55 11 13 31 36 45 51 14 16 37 45 50 65 14 20 28 36 33 36 4 0
7 6 7 14 0 21 79 101 166 166 93 70 181 115 256 129 160 31 193 41 245 77 92
63 110 89 222 324 46 96 66 159 92 278 5 24 12 49 16 55 5 7 10 98 13 202 4
157 8 195 22 217 15 23 40 151 40 203 0 11 -5 97 -11 190 -10 172 -23 234 -69
335 -55 121 -71 172 -78 251 -7 78 -34 166 -89 286 -8 17 -15 36 -15 42 0 14
-69 142 -114 212 -17 27 -46 72 -64 101 -35 57 -150 181 -222 239 -25 20 -62
52 -83 72 -22 20 -54 38 -75 42 -19 4 -51 17 -71 31 -20 13 -39 24 -43 24 -12
0 -261 170 -293 201 -17 16 -34 29 -38 29 -4 0 -13 4 -20 10 -44 36 -117 90
-123 90 -23 0 -175 84 -196 108 -37 44 -55 50 -170 61 -101 10 -122 15 -181
47 -15 8 -60 18 -100 21 -39 3 -97 13 -127 24 -72 24 -142 29 -265 18z m-1097
-1481 c3 -25 1 -27 -20 -19 -13 4 -24 18 -26 30 -3 19 1 22 20 19 17 -2 24
-10 26 -30z m-134 -11 c7 -28 0 -37 -30 -37 -14 0 -36 -7 -50 -16 -16 -11 -28
-14 -35 -7 -15 15 -1 40 26 47 12 3 25 14 28 25 6 26 53 17 61 -12z m-94 14
c0 -6 -4 -13 -10 -16 -5 -3 -10 1 -10 9 0 9 5 16 10 16 6 0 10 -4 10 -9z
m-155 -111 c-4 -11 -10 -20 -15 -20 -15 0 -20 31 -9 52 10 19 12 20 21 4 5 -9
6 -25 3 -36z m185 -5 c0 -16 -45 -21 -54 -6 -8 12 4 21 31 21 14 0 23 -6 23
-15z m-152 -6 c-2 -6 -8 -10 -13 -10 -5 0 -11 4 -13 10 -2 6 4 11 13 11 9 0
15 -5 13 -11z m500 -541 c6 -6 12 -25 12 -44 0 -45 20 -54 122 -54 54 0 91 -5
103 -14 11 -7 33 -16 49 -20 l29 -7 -7 -62 c-4 -39 -17 -83 -37 -120 -26 -50
-29 -65 -23 -96 5 -20 9 -52 10 -71 1 -47 30 -150 60 -213 18 -39 24 -69 24
-122 0 -71 -10 -95 -38 -95 -8 0 -35 -11 -61 -24 -30 -15 -58 -22 -78 -19 -29
5 -32 2 -51 -48 -14 -39 -17 -61 -11 -83 13 -46 11 -106 -6 -163 -11 -38 -26
-59 -59 -86 -23 -20 -54 -39 -68 -42 -15 -4 -34 -14 -45 -24 -32 -30 -86 -52
-113 -46 -20 4 -34 -1 -57 -24 -17 -16 -43 -37 -58 -47 -25 -16 -29 -16 -39
-2 -6 8 -21 18 -32 22 -13 4 -24 18 -27 36 -9 41 -41 56 -65 32 -25 -25 -68
-35 -93 -22 -16 9 -19 17 -14 40 6 28 5 29 -27 28 -21 0 -49 10 -76 28 -48 31
-46 19 -26 134 5 31 1 42 -31 80 -21 25 -42 47 -49 49 -26 9 -36 23 -25 37 6
7 8 18 4 23 -3 6 -10 36 -15 67 -10 59 -36 95 -77 108 -14 4 -25 18 -29 34 -3
15 -12 41 -20 59 -8 17 -14 34 -14 37 0 11 21 6 36 -9 9 -8 27 -15 42 -15 23
1 31 9 54 58 34 75 60 126 92 186 28 52 35 121 14 129 -8 3 -6 8 7 13 25 10
118 101 134 131 6 13 31 32 54 44 23 12 72 41 109 66 38 24 84 47 105 49 60 9
93 25 99 49 8 34 54 50 132 47 37 -2 73 -8 80 -14z m-628 -217 c0 -5 -7 -11
-15 -15 -15 -5 -20 5 -8 17 9 10 23 9 23 -2z m-130 -136 c0 -8 -4 -15 -9 -15
-13 0 -22 16 -14 24 11 11 23 6 23 -9z m-55 -174 c-3 -10 1 -23 9 -30 18 -16
0 -78 -27 -93 -16 -8 -24 -4 -48 21 -30 33 -45 40 -36 16 8 -20 -11 -29 -29
-14 -10 9 -14 22 -10 41 6 33 -7 44 -27 23 -26 -26 -47 -17 -29 12 8 13 29 17
75 15 22 -2 27 -7 27 -28 0 -14 4 -23 10 -19 6 3 18 -1 27 -11 13 -13 18 -14
22 -3 2 7 -1 15 -7 17 -17 5 -15 16 9 46 24 30 43 34 34 7z m-258 -35 c5 -5
-29 -46 -38 -46 -4 0 -9 8 -13 18 -3 9 -9 23 -12 31 -5 11 0 13 26 7 19 -3 35
-8 37 -10z m71 -63 c-2 -16 3 -33 10 -38 16 -13 0 -144 -20 -156 -15 -10 -38
16 -38 42 0 9 -7 22 -15 29 -17 14 -20 56 -5 65 6 4 19 24 30 46 24 45 43 51
38 12z m-82 -182 c-7 -10 -56 -16 -56 -7 0 2 -3 11 -6 19 -4 11 2 17 18 19 26
5 54 -15 44 -31z"/>
</g>
</svg>
