<?xml version="1.0" standalone="no"?>
<!DOCTYPE svg PUBLIC "-//W3C//DTD SVG 20010904//EN"
 "http://www.w3.org/TR/2001/REC-SVG-20010904/DTD/svg10.dtd">
<svg version="1.0" xmlns="http://www.w3.org/2000/svg"
 width="990.000000pt" height="622.000000pt" viewBox="0 0 990.000000 622.000000"
 preserveAspectRatio="xMidYMid meet">
<metadata>
Created by potrace 1.14, written by Peter Selinger 2001-2017
</metadata>
<g transform="translate(0.000000,622.000000) scale(0.100000,-0.100000)"
fill="#000000" stroke="none">
<path d="M5615 5390 c-16 -5 -89 -13 -161 -19 -190 -15 -259 -36 -434 -131
-30 -17 -60 -30 -66 -30 -6 0 -19 -9 -29 -20 -10 -11 -23 -20 -30 -20 -7 0
-20 -8 -29 -19 -9 -10 -30 -21 -45 -24 -15 -3 -39 -18 -52 -32 -13 -15 -41
-43 -61 -63 -21 -21 -38 -42 -38 -47 0 -11 -79 -50 -125 -61 -16 -4 -49 -20
-73 -35 -24 -16 -48 -29 -54 -29 -7 0 -6 -5 2 -15 9 -11 32 -15 80 -15 111 0
116 -29 22 -126 -86 -89 -142 -157 -142 -175 0 -9 -9 -24 -20 -34 -11 -10 -36
-51 -56 -91 -20 -41 -53 -91 -73 -112 -69 -70 -141 -164 -141 -183 0 -10 -14
-34 -31 -54 -28 -31 -37 -35 -83 -36 -28 0 -45 -3 -38 -6 6 -2 12 -12 12 -22
0 -21 19 -41 40 -41 9 0 26 -10 38 -23 l22 -24 -23 -34 c-29 -43 -59 -48 -81
-15 -22 35 -30 33 -55 -14 -26 -51 -26 -60 -1 -60 11 0 23 -7 27 -15 10 -27
-6 -30 -36 -7 -21 15 -31 18 -40 9 -8 -8 -11 -5 -11 11 0 12 -4 22 -10 22 -5
0 -10 -9 -10 -19 0 -11 5 -23 10 -26 6 -3 10 -20 10 -36 0 -25 6 -33 35 -45
19 -8 35 -19 35 -24 0 -6 26 -10 58 -10 53 0 60 -3 91 -36 28 -29 40 -35 61
-30 44 8 62 -13 67 -77 l4 -56 -56 -55 c-62 -61 -85 -72 -114 -57 -11 6 -26 8
-35 5 -11 -4 -52 -101 -71 -170 -2 -6 -15 -14 -29 -16 -19 -4 -26 -1 -28 15
-5 31 -32 44 -62 28 -54 -29 -84 15 -41 59 26 27 27 31 13 47 -9 11 -17 43
-20 79 -3 40 -10 67 -21 78 -9 10 -17 26 -17 37 0 28 -26 34 -65 16 -29 -14
-34 -14 -39 -1 -4 10 -21 14 -56 14 -74 0 -90 -11 -90 -66 0 -42 -4 -48 -76
-118 -72 -70 -88 -105 -43 -91 26 8 25 -16 -1 -33 -11 -7 -20 -19 -20 -27 0
-26 -54 9 -79 51 -21 34 -21 38 -5 55 10 11 14 22 10 26 -9 10 -42 -12 -38
-26 5 -23 -19 -10 -30 17 -9 21 -12 23 -15 10 -7 -28 -30 1 -45 55 l-12 46
-47 -6 c-29 -3 -49 -1 -53 6 -4 6 -22 11 -40 11 -42 0 -50 9 -29 32 21 23 11
23 -35 -1 -20 -11 -48 -24 -63 -29 -17 -7 -29 -23 -38 -49 -9 -28 -26 -48 -63
-73 -53 -36 -58 -43 -78 -96 -8 -22 -26 -39 -58 -55 -26 -13 -70 -45 -99 -71
-57 -51 -93 -60 -129 -33 -23 18 -78 19 -92 3 -5 -7 -13 -23 -17 -36 -3 -12
-18 -34 -31 -47 l-25 -25 -29 22 c-20 14 -30 31 -30 47 0 14 -3 36 -6 48 -10
38 -87 42 -167 8 -13 -6 -20 -3 -23 11 -4 16 -15 19 -72 20 -39 0 -86 7 -110
17 -23 9 -66 20 -96 23 -47 6 -57 4 -77 -15 -33 -31 -49 -11 -25 33 14 27 16
38 7 55 -15 27 -33 35 -108 51 -86 17 -127 10 -240 -45 -109 -53 -147 -60
-336 -64 -183 -4 -234 -34 -256 -152 -11 -57 -10 -71 3 -104 9 -20 16 -61 16
-89 1 -89 27 -250 47 -291 53 -106 87 -163 114 -190 23 -25 29 -40 29 -77 0
-26 4 -68 10 -95 5 -26 17 -88 25 -138 30 -161 90 -238 222 -280 l81 -26 74
22 c76 23 113 25 468 31 l165 3 73 -40 c73 -39 101 -67 101 -101 0 -40 29
-141 47 -164 52 -64 103 -110 123 -110 11 0 21 -4 21 -10 0 -5 4 -10 10 -10 5
0 33 -14 61 -31 58 -36 99 -94 104 -149 2 -20 18 -66 34 -101 50 -106 112
-290 121 -362 18 -133 113 -213 309 -261 125 -31 179 -33 230 -6 40 20 111 94
111 116 0 6 21 34 48 61 38 40 62 56 126 78 71 26 82 27 122 17 24 -7 76 -12
114 -12 59 0 72 -3 90 -22 17 -18 23 -20 29 -9 14 22 51 7 124 -50 58 -45 68
-57 74 -92 6 -39 60 -114 132 -181 20 -19 31 -39 31 -57 0 -32 32 -91 77 -142
24 -27 40 -37 62 -37 16 0 33 4 36 10 7 11 51 4 124 -21 52 -18 56 -18 79 -1
93 66 100 66 163 7 42 -39 54 -45 96 -47 91 -4 125 1 168 26 24 15 55 26 69
26 14 0 50 11 80 25 30 14 58 25 63 25 14 0 155 47 203 67 88 38 199 74 274
88 79 15 110 27 271 105 55 26 120 56 145 66 57 23 96 52 192 140 51 46 104
83 155 108 88 43 148 96 234 207 32 42 80 96 107 120 57 51 158 168 189 219
40 65 150 155 274 225 58 34 116 51 289 86 51 11 94 38 166 107 40 39 66 79
132 212 52 106 88 194 101 245 10 44 27 100 36 125 13 36 15 63 9 135 -12 156
-9 189 25 258 41 85 65 204 57 287 -26 282 -36 368 -41 385 -11 32 -21 57 -43
105 -74 165 -80 183 -86 275 -6 89 -35 205 -66 260 -11 20 -20 41 -20 47 0 21
-64 152 -95 194 -16 23 -39 54 -50 69 -58 82 -119 151 -226 257 -118 116 -133
127 -289 197 -54 24 -289 176 -328 212 -15 14 -43 36 -62 49 -19 13 -46 33
-60 46 -14 12 -69 45 -122 72 -53 28 -113 65 -133 84 -57 51 -74 57 -162 58
-70 0 -91 4 -148 31 -37 17 -104 37 -149 45 -80 13 -94 17 -209 48 -32 9 -59
16 -60 15 -1 0 -15 -5 -32 -9z m-1199 -1515 c8 -33 1 -40 -25 -25 -32 17 -25
45 11 49 4 1 10 -10 14 -24z m-144 -9 c-2 -5 2 -12 9 -16 21 -13 2 -40 -28
-40 -16 0 -39 -7 -52 -16 -14 -10 -26 -13 -32 -7 -13 13 -1 41 22 48 10 4 24
15 30 26 10 20 58 24 51 5z m-82 -6 c0 -5 -4 -10 -10 -10 -5 0 -10 5 -10 10 0
6 5 10 10 10 6 0 10 -4 10 -10z m-160 -90 c0 -31 -16 -41 -26 -15 -5 13 11 45
22 45 2 0 4 -13 4 -30z m190 -19 c0 -11 -40 -22 -52 -15 -5 3 -6 10 -3 15 8
12 55 12 55 0z m-150 -11 c0 -5 -4 -10 -9 -10 -6 0 -13 5 -16 10 -3 6 1 10 9
10 9 0 16 -4 16 -10z m499 -536 c9 -3 12 -15 9 -34 -7 -48 19 -64 110 -67 83
-3 181 -29 190 -51 6 -18 -18 -152 -27 -152 -5 0 -16 -18 -26 -39 -13 -29 -15
-50 -10 -78 5 -21 9 -56 10 -78 2 -41 31 -152 44 -170 31 -40 52 -214 28 -233
-28 -22 -143 -60 -168 -55 -25 5 -28 1 -48 -51 -16 -43 -18 -62 -11 -82 15
-38 12 -102 -8 -166 -20 -63 -49 -91 -134 -129 -27 -12 -48 -26 -48 -30 0 -13
-68 -39 -102 -39 -20 0 -45 -13 -77 -40 -48 -41 -81 -51 -81 -26 0 8 -10 16
-21 18 -14 2 -25 15 -33 37 -6 19 -19 39 -29 45 -15 9 -22 6 -41 -16 -22 -28
-41 -33 -84 -22 -20 6 -22 11 -16 41 7 35 7 35 -25 28 -24 -5 -37 -2 -60 17
-15 13 -36 28 -45 33 -16 9 -16 17 -5 75 l12 65 -39 53 c-22 28 -47 52 -56 52
-11 0 -18 8 -18 20 0 11 5 20 10 20 6 0 5 11 -3 28 -8 15 -17 46 -20 70 -6 45
-40 92 -69 92 -21 0 -42 35 -35 60 3 11 -1 21 -9 24 -15 6 -20 46 -5 46 5 0
14 -7 21 -15 7 -8 27 -15 45 -15 30 0 34 4 41 33 3 17 15 42 25 55 10 13 21
36 24 53 4 16 22 54 40 84 38 63 51 116 35 145 -8 15 -8 20 3 20 13 0 137 126
137 140 0 5 33 27 74 49 41 22 78 45 81 51 11 18 82 49 127 56 44 7 78 28 78
49 0 29 43 43 120 38 41 -3 81 -7 89 -9z m-634 -223 c-3 -6 -11 -11 -17 -11
-6 0 -6 6 2 15 14 17 26 13 15 -4z m-130 -131 c3 -5 1 -10 -4 -10 -6 0 -11 5
-11 10 0 6 2 10 4 10 3 0 8 -4 11 -10z m-58 -172 c-2 -7 2 -21 10 -30 12 -14
13 -23 3 -51 -15 -49 -37 -54 -72 -18 -29 29 -23 56 7 31 19 -16 40 -3 25 15
-9 10 -7 20 5 39 18 27 30 34 22 14z m-89 -23 c2 -2 0 -24 -4 -50 l-7 -47 -20
21 c-18 17 -19 24 -9 46 10 22 9 25 -7 25 -10 0 -24 -7 -31 -15 -10 -12 -16
-13 -24 -5 -19 19 23 42 64 35 19 -4 36 -8 38 -10z m-165 -11 c3 -3 -3 -15
-13 -27 -11 -11 -21 -19 -22 -16 -29 47 -29 49 0 49 16 0 31 -3 35 -6z m74
-69 c-4 -27 -2 -35 9 -35 12 0 14 -9 9 -47 -11 -85 -16 -101 -31 -107 -14 -5
-17 0 -38 54 -3 8 -12 23 -18 33 -10 14 -10 20 0 35 7 9 21 36 32 60 24 52 45
56 37 7z m-79 -166 c4 -23 -35 -31 -54 -12 -13 13 -13 18 -2 25 20 13 52 5 56
-13z"/>
</g>
</svg>
