<?xml version="1.0" standalone="no"?>
<!DOCTYPE svg PUBLIC "-//W3C//DTD SVG 20010904//EN"
 "http://www.w3.org/TR/2001/REC-SVG-20010904/DTD/svg10.dtd">
<svg version="1.0" xmlns="http://www.w3.org/2000/svg"
 width="990.000000pt" height="622.000000pt" viewBox="0 0 990.000000 622.000000"
 preserveAspectRatio="xMidYMid meet">
<metadata>
Created by potrace 1.14, written by Peter Selinger 2001-2017
</metadata>
<g transform="translate(0.000000,622.000000) scale(0.100000,-0.100000)"
fill="#000000" stroke="none">
<path d="M5579 5406 c-2 -2 -40 -7 -84 -11 -206 -16 -333 -51 -437 -117 -29
-19 -67 -41 -85 -47 -17 -7 -39 -21 -49 -32 -9 -10 -22 -19 -29 -19 -7 0 -20
-9 -30 -20 -10 -11 -29 -20 -42 -20 -24 0 -123 -89 -123 -111 0 -5 -6 -9 -13
-9 -7 0 -24 -13 -37 -28 -16 -18 -48 -36 -85 -47 -33 -10 -64 -25 -68 -32 -4
-7 -17 -13 -27 -13 -11 0 -20 -4 -20 -10 0 -5 -9 -10 -19 -10 -22 0 -32 -20
-24 -49 5 -19 10 -20 58 -15 116 14 134 -18 58 -100 -71 -77 -137 -156 -147
-177 -5 -11 -14 -19 -20 -19 -12 0 -53 -84 -68 -137 -5 -19 -37 -62 -76 -101
-84 -86 -120 -136 -128 -178 -9 -50 -53 -83 -106 -81 -34 2 -43 -1 -43 -15 0
-9 -4 -20 -8 -24 -15 -15 -6 -23 31 -30 79 -14 100 -48 61 -98 -26 -33 -52
-33 -73 -1 -22 34 -32 32 -56 -15 -25 -49 -25 -60 0 -60 11 0 23 -7 27 -15 10
-27 -6 -29 -37 -6 -17 12 -35 19 -41 15 -7 -4 -9 1 -4 15 4 15 2 21 -8 21 -21
0 -26 -20 -14 -50 10 -25 13 -35 15 -58 1 -7 18 -20 37 -28 19 -8 35 -19 35
-24 0 -6 26 -10 58 -10 53 0 60 -3 91 -36 28 -29 40 -35 61 -30 44 8 62 -13
67 -77 l4 -56 -56 -53 c-72 -68 -82 -73 -112 -59 -44 20 -50 14 -81 -81 -26
-79 -34 -93 -56 -99 -21 -6 -26 -4 -26 11 0 32 -27 45 -66 31 -27 -10 -38 -10
-49 -1 -21 18 -19 30 12 62 25 26 25 29 10 46 -12 13 -17 36 -17 74 0 41 -5
61 -20 78 -11 13 -20 33 -20 45 0 28 -28 37 -61 19 -13 -7 -28 -9 -34 -4 -10
8 -61 14 -107 11 -39 -2 -58 -25 -51 -64 4 -26 -2 -40 -31 -77 -19 -24 -52
-56 -73 -70 -40 -27 -52 -55 -34 -73 9 -9 14 -8 21 3 5 8 12 11 16 7 4 -4 -2
-14 -13 -22 -12 -8 -23 -24 -25 -35 -3 -20 -4 -20 -35 2 -36 26 -60 75 -43 92
13 13 13 46 0 46 -6 0 -19 -9 -31 -21 l-20 -20 -6 21 c-4 16 -11 20 -28 16
-20 -5 -23 -1 -29 39 -4 24 -12 47 -17 51 -6 3 -36 8 -67 10 -32 2 -69 4 -84
5 -32 2 -35 14 -11 41 24 26 -4 24 -33 -3 -13 -12 -38 -24 -56 -28 -27 -5 -37
-15 -56 -54 -16 -34 -37 -57 -76 -83 -41 -27 -58 -46 -70 -79 -13 -32 -25 -46
-49 -56 -28 -11 -75 -41 -114 -74 -7 -5 -18 -15 -25 -21 -24 -20 -61 -23 -89
-8 -15 7 -44 14 -63 14 -31 0 -39 -6 -60 -39 -14 -22 -28 -51 -32 -65 -5 -22
-8 -23 -20 -11 -8 7 -23 16 -33 20 -16 5 -19 13 -15 49 4 38 2 46 -18 60 -28
20 -104 20 -138 1 -32 -18 -40 -18 -40 0 0 16 -7 17 -85 17 -27 0 -55 4 -61 9
-12 10 -158 49 -184 49 -9 0 -23 -11 -30 -25 -7 -14 -17 -25 -22 -25 -13 0 -9
30 6 46 22 21 5 65 -32 87 -24 14 -55 19 -124 20 -92 2 -94 2 -192 -46 -110
-54 -179 -66 -379 -67 -121 0 -151 -10 -191 -62 -30 -41 -45 -152 -25 -189 7
-13 16 -71 21 -129 14 -200 26 -246 78 -325 15 -22 31 -51 35 -64 4 -14 22
-39 40 -56 29 -27 34 -38 38 -95 5 -74 31 -238 46 -289 18 -60 74 -141 118
-171 24 -15 77 -36 118 -45 74 -18 75 -18 137 5 66 24 101 26 453 31 l170 3
76 -42 c67 -37 112 -82 97 -97 -9 -10 30 -142 49 -165 64 -78 98 -110 115
-110 10 0 24 -5 31 -10 7 -6 37 -25 67 -43 30 -18 59 -42 65 -53 6 -12 17 -29
23 -37 7 -9 15 -35 17 -58 3 -23 18 -69 34 -103 17 -34 37 -81 45 -106 8 -25
26 -76 41 -115 15 -38 31 -101 35 -139 15 -133 103 -209 295 -257 132 -32 186
-36 237 -15 39 17 89 64 109 104 25 50 81 113 113 127 17 7 48 21 70 30 44 19
69 20 213 8 84 -7 105 -11 117 -28 13 -16 17 -17 25 -6 14 21 50 7 119 -45 58
-45 73 -67 86 -126 3 -14 40 -62 81 -106 57 -60 75 -87 75 -108 1 -33 29 -82
78 -138 33 -38 34 -38 89 -31 44 5 70 2 125 -16 l69 -22 27 25 c64 60 94 61
148 4 40 -40 46 -43 111 -49 75 -7 107 -1 168 32 22 11 50 21 64 21 13 0 49
11 80 24 31 13 97 38 146 54 50 16 140 48 200 71 61 23 144 47 185 55 80 15
157 44 279 106 42 21 105 50 140 64 66 26 101 52 210 154 35 33 89 72 120 87
107 50 137 75 239 195 82 98 123 143 148 160 10 8 44 44 74 80 30 36 57 67 61
70 3 3 18 23 34 45 42 58 143 153 184 175 20 9 61 30 91 46 30 15 57 31 60 35
6 8 46 19 170 45 158 33 245 112 350 319 67 131 107 233 125 315 4 19 12 41
18 48 13 16 14 151 3 258 -6 54 -4 74 6 85 7 8 19 25 26 39 7 14 21 41 32 60
34 66 43 140 36 303 -4 84 -11 170 -16 192 -5 22 -10 65 -10 96 0 56 -29 158
-53 188 -21 27 -37 60 -37 76 0 8 -4 15 -8 15 -17 0 -42 104 -42 173 0 70 -37
216 -66 262 -7 11 -23 49 -35 85 -24 70 -50 114 -114 197 -22 28 -51 66 -65
84 -44 59 -294 304 -340 336 -25 16 -66 35 -92 43 -26 7 -77 32 -113 56 -37
23 -96 59 -133 79 -37 21 -69 40 -72 44 -8 10 -239 181 -245 181 -9 0 -100 44
-105 50 -3 4 -16 13 -29 20 -13 7 -42 29 -65 50 -48 44 -96 60 -184 60 -49 0
-75 6 -120 29 -31 15 -88 34 -127 40 -82 15 -120 24 -194 45 -48 14 -162 22
-172 12z m-1159 -1548 c0 -21 -4 -22 -31 -8 -24 13 -25 37 -1 42 19 4 32 -9
32 -34z m-147 4 c-2 -6 2 -12 7 -12 23 0 8 -30 -17 -35 -16 -3 -41 -13 -57
-21 -22 -11 -31 -12 -37 -3 -10 17 0 37 22 44 10 4 24 15 30 26 11 22 56 23
52 1z m-83 -2 c0 -5 -4 -10 -10 -10 -5 0 -10 5 -10 10 0 6 5 10 10 10 6 0 10
-4 10 -10z m-160 -90 c0 -31 -16 -41 -26 -15 -5 13 11 45 22 45 2 0 4 -13 4
-30z m190 -20 c0 -5 -4 -10 -9 -10 -5 0 -16 -3 -25 -6 -11 -4 -16 -1 -16 10 0
10 9 16 25 16 14 0 25 -4 25 -10z m-150 -10 c0 -5 -4 -10 -10 -10 -5 0 -10 5
-10 10 0 6 5 10 10 10 6 0 10 -4 10 -10z m499 -536 c9 -3 12 -13 8 -32 -11
-52 19 -69 123 -71 78 -1 171 -28 178 -51 6 -18 -18 -150 -27 -150 -5 0 -16
-18 -26 -39 -13 -29 -15 -50 -10 -78 4 -21 7 -57 6 -79 -1 -23 2 -45 7 -48 6
-3 13 -25 17 -49 4 -23 13 -51 19 -62 36 -57 59 -223 33 -242 -26 -21 -134
-58 -165 -58 -31 0 -35 -4 -53 -50 -15 -39 -17 -56 -9 -79 15 -43 12 -104 -8
-168 -15 -49 -25 -61 -67 -90 -28 -19 -65 -40 -82 -47 -18 -8 -33 -17 -33 -22
0 -13 -68 -39 -102 -39 -20 0 -45 -13 -77 -40 -51 -43 -65 -48 -78 -26 -4 8
-16 15 -27 17 -11 2 -23 18 -30 38 -6 19 -19 39 -29 45 -15 9 -22 6 -41 -16
-22 -28 -41 -33 -84 -22 -20 6 -22 11 -16 41 7 35 7 35 -25 28 -24 -5 -37 -2
-60 17 -15 13 -36 28 -45 33 -16 9 -16 17 -5 75 l12 65 -39 53 c-22 28 -47 52
-56 52 -11 0 -18 8 -18 20 0 11 5 20 10 20 6 0 5 11 -3 28 -8 15 -17 49 -21
75 -6 51 -34 86 -68 87 -22 0 -41 35 -33 59 3 12 0 21 -10 25 -8 3 -15 15 -15
26 0 23 13 26 29 6 6 -8 25 -16 42 -18 26 -4 32 -1 40 21 6 14 21 48 35 75 13
28 24 56 24 63 0 7 18 41 40 75 40 64 49 103 30 139 -8 14 -7 19 2 19 16 0
138 124 138 139 0 6 19 20 43 32 23 12 74 43 114 69 48 32 88 50 120 55 61 9
83 21 83 44 0 35 38 49 120 44 41 -3 81 -7 89 -9z m-634 -223 c-3 -6 -11 -11
-17 -11 -6 0 -6 6 2 15 14 17 26 13 15 -4z m-177 -337 c12 -9 13 -17 3 -46
-16 -48 -38 -56 -68 -24 -35 38 -29 64 7 31 16 -14 18 -14 23 -1 4 9 2 18 -2
21 -5 3 -4 16 2 30 7 13 14 19 16 12 2 -7 11 -17 19 -23z m-100 11 c7 -6 -9
-85 -17 -85 -19 0 -29 24 -21 50 9 33 -10 49 -30 24 -14 -16 -40 -19 -40 -4 0
18 35 30 70 24 19 -3 37 -7 38 -9z m-165 -11 c3 -3 -3 -15 -13 -27 -11 -11
-21 -19 -22 -16 -29 47 -29 49 0 49 16 0 31 -3 35 -6z m74 -69 c-4 -27 -2 -35
9 -35 14 0 14 -11 -2 -117 -8 -56 -54 -43 -54 15 0 11 -7 22 -15 26 -21 8 -19
40 5 61 11 10 20 24 20 32 0 21 19 53 32 53 7 0 9 -13 5 -35z m-79 -167 c3
-14 -3 -18 -26 -18 -30 0 -51 24 -29 34 23 9 52 1 55 -16z"/>
</g>
</svg>
