<?xml version="1.0" standalone="no"?>
<!DOCTYPE svg PUBLIC "-//W3C//DTD SVG 20010904//EN"
 "http://www.w3.org/TR/2001/REC-SVG-20010904/DTD/svg10.dtd">
<svg version="1.0" xmlns="http://www.w3.org/2000/svg"
 width="990.000000pt" height="622.000000pt" viewBox="0 0 990.000000 622.000000"
 preserveAspectRatio="xMidYMid meet">
<metadata>
Created by potrace 1.14, written by Peter Selinger 2001-2017
</metadata>
<g transform="translate(0.000000,622.000000) scale(0.100000,-0.100000)"
fill="#000000" stroke="none">
<path d="M5562 5438 c-9 -4 -33 -7 -52 -7 -58 -1 -241 -32 -310 -53 -59 -18
-99 -41 -284 -164 -75 -50 -75 -50 -111 -63 -35 -13 -75 -47 -91 -76 -6 -11
-23 -26 -39 -34 -15 -7 -30 -22 -32 -32 -3 -12 -23 -23 -57 -33 -28 -9 -67
-26 -86 -39 -19 -13 -46 -28 -60 -32 -36 -11 -60 -35 -60 -61 0 -13 -5 -26
-10 -29 -8 -5 -7 -12 2 -22 9 -11 22 -13 53 -8 104 18 105 18 111 1 12 -31
-59 -127 -149 -198 l-38 -30 -16 41 -16 40 -27 -16 c-24 -14 -27 -20 -23 -57
4 -32 0 -46 -16 -65 -40 -45 -40 -98 -1 -108 41 -11 6 -63 -43 -63 -19 0 -31
-8 -42 -30 -8 -16 -15 -35 -15 -42 0 -7 -16 -37 -35 -67 -19 -30 -38 -71 -41
-90 -4 -20 -19 -46 -33 -58 -29 -25 -37 -28 -46 -13 -12 19 -54 11 -70 -13
-12 -18 -22 -23 -45 -19 -29 4 -29 4 -18 -26 10 -26 9 -34 -4 -49 -9 -10 -19
-32 -22 -49 -4 -18 -16 -40 -27 -50 -24 -22 -24 -30 1 -82 11 -22 20 -45 20
-51 0 -5 14 -12 31 -16 17 -4 33 -13 36 -21 4 -10 22 -14 63 -14 54 0 59 -2
88 -36 27 -31 36 -36 61 -31 42 9 58 -10 64 -74 l5 -56 -46 -44 c-73 -70 -92
-79 -129 -64 -17 7 -36 21 -42 32 -8 14 -10 8 -11 -33 0 -28 -3 -54 -7 -58
-10 -9 -33 -78 -33 -97 0 -16 -19 -29 -43 -29 -7 0 -17 10 -22 23 -11 24 -51
35 -68 18 -17 -17 -35 -13 -48 10 -9 18 -7 25 15 46 30 28 31 32 11 59 -8 11
-14 42 -15 74 0 44 -4 59 -21 74 -14 12 -20 25 -16 43 3 15 -1 27 -9 30 -7 2
-18 19 -24 36 l-12 32 -14 -32 c-16 -39 -31 -48 -48 -33 -16 13 -97 5 -136
-14 -22 -10 -25 -17 -22 -59 3 -43 0 -50 -40 -90 -24 -24 -60 -56 -80 -71 -29
-21 -38 -34 -38 -57 0 -27 -2 -28 -20 -17 -28 18 -32 36 -15 61 8 12 15 27 15
33 0 17 -26 25 -52 15 -40 -14 -75 8 -91 58 l-14 46 -76 0 c-42 1 -79 4 -83 8
-4 3 -1 20 6 37 18 44 8 46 -33 6 -19 -19 -49 -37 -65 -41 -36 -7 -60 -33 -71
-71 -5 -21 -25 -40 -72 -69 -46 -28 -69 -50 -83 -77 -10 -22 -25 -38 -35 -38
-9 0 -32 -13 -51 -28 -64 -52 -123 -79 -150 -71 -38 11 -109 10 -131 -2 -11
-5 -37 -28 -57 -50 -20 -21 -41 -39 -47 -39 -5 0 -4 5 3 12 16 16 15 59 -3 82
-19 25 -110 40 -148 24 -24 -9 -34 -8 -56 5 -15 9 -47 17 -72 18 -24 2 -69 10
-99 20 -30 9 -81 23 -113 30 -37 8 -65 20 -76 34 -27 36 -71 52 -158 59 l-82
7 -113 -57 -113 -56 -134 -11 c-101 -8 -149 -7 -192 2 -56 11 -60 11 -99 -15
-22 -15 -40 -30 -40 -34 0 -4 -8 -17 -19 -29 -30 -35 -35 -125 -11 -195 13
-39 20 -85 20 -136 0 -97 16 -183 44 -240 59 -120 87 -167 114 -193 24 -23 29
-36 30 -85 1 -31 6 -73 12 -92 5 -19 10 -51 10 -70 0 -49 33 -160 64 -212 40
-68 74 -94 160 -122 91 -30 138 -32 192 -10 64 27 87 29 431 33 l182 3 70 -39
c39 -21 71 -43 71 -49 0 -7 6 -14 14 -17 8 -3 14 -18 14 -34 -1 -44 29 -143
50 -167 11 -11 30 -34 43 -50 39 -47 50 -56 64 -56 8 0 48 -20 89 -45 77 -47
123 -107 113 -147 -3 -10 -1 -18 4 -18 5 0 9 -9 9 -21 0 -11 13 -46 29 -77 17
-31 40 -88 52 -127 12 -38 27 -83 34 -100 25 -57 35 -98 35 -137 0 -55 24
-101 79 -149 58 -51 98 -72 181 -93 36 -9 79 -21 96 -26 17 -6 60 -10 95 -10
56 0 72 4 112 31 29 19 58 50 77 84 48 84 88 121 162 150 74 29 81 29 223 19
82 -5 104 -10 123 -27 19 -17 25 -19 31 -8 13 21 48 7 119 -46 40 -30 64 -56
68 -72 11 -53 34 -90 103 -164 52 -57 71 -84 71 -104 0 -36 50 -123 90 -157
33 -27 64 -34 76 -15 9 15 82 6 124 -15 48 -23 77 -20 113 14 52 49 99 52 116
8 14 -36 42 -56 91 -63 108 -15 113 -14 174 15 34 16 81 34 106 38 25 5 63 19
85 30 22 12 46 22 54 22 17 0 106 30 201 67 36 14 74 29 85 33 68 26 118 41
178 50 38 6 76 14 85 19 9 5 28 13 42 18 14 6 72 33 130 61 58 28 139 66 180
86 41 19 96 54 121 78 95 90 145 130 174 143 17 7 47 21 67 30 35 15 152 113
172 144 4 7 35 40 67 71 33 32 59 62 59 67 0 5 22 28 50 50 51 41 114 114 163
186 61 92 213 207 272 207 7 0 17 5 20 10 3 6 14 10 24 10 10 0 21 9 24 20 6
25 43 39 132 51 43 6 95 22 135 42 76 38 193 147 204 191 4 17 16 42 27 57 10
15 19 31 19 36 0 4 14 28 30 53 17 25 37 65 44 90 8 25 26 71 40 103 14 32 26
66 26 77 0 11 6 34 14 52 34 79 43 197 17 206 -9 3 -7 9 4 22 13 15 14 23 5
39 -6 12 -18 21 -26 21 -8 0 -12 5 -9 10 4 6 15 8 26 5 15 -5 23 1 35 31 8 20
22 43 29 51 8 8 24 46 36 85 18 63 21 95 20 262 -1 109 -6 195 -11 200 -6 6
-10 51 -10 101 -1 98 -23 184 -59 221 -38 40 -73 133 -77 208 -3 73 -25 160
-64 256 -12 30 -35 90 -50 132 -35 95 -64 145 -126 214 -88 98 -338 346 -437
432 -14 13 -43 28 -64 33 -52 13 -78 27 -150 76 -34 24 -69 43 -78 43 -18 0
-147 71 -180 100 -22 18 -143 92 -208 128 -74 40 -156 93 -164 106 -20 32
-114 70 -205 81 -25 3 -72 19 -104 35 -32 17 -68 30 -80 30 -28 0 -100 15
-225 46 -90 22 -179 27 -217 12z m-1534 -1510 c19 -16 14 -44 -11 -74 -29 -33
-59 -27 -77 16 -7 17 -16 30 -21 30 -5 0 -9 9 -9 19 0 30 83 36 118 9z m390
-65 c4 -26 -1 -28 -29 -13 -27 15 -25 42 4 38 14 -2 23 -11 25 -25z m-145 -3
c26 -31 20 -47 -17 -41 -4 1 -24 -7 -43 -19 -43 -25 -43 -25 -43 5 0 15 6 25
15 25 8 0 22 11 32 25 22 30 33 31 56 5z m-83 0 c0 -5 -4 -10 -10 -10 -5 0
-10 5 -10 10 0 6 5 10 10 10 6 0 10 -4 10 -10z m-297 -82 c12 -2 23 -11 25
-20 5 -25 -12 -22 -44 5 -21 18 -25 28 -19 43 8 18 9 18 12 -3 3 -13 13 -23
26 -25z m133 -36 c-4 -3 -11 -1 -17 5 -8 8 -7 18 3 34 l13 24 3 -28 c2 -16 1
-31 -2 -35z m194 8 c0 -5 -4 -10 -9 -10 -5 0 -16 -3 -25 -6 -11 -4 -16 -1 -16
10 0 10 9 16 25 16 14 0 25 -4 25 -10z m-150 -10 c0 -5 -4 -10 -10 -10 -5 0
-10 5 -10 10 0 6 5 10 10 10 6 0 10 -4 10 -10z m489 -536 c20 -4 22 -9 18 -33
-11 -52 10 -64 110 -68 56 -3 109 -11 139 -23 l49 -18 -2 -56 c-1 -31 -9 -68
-17 -83 -30 -56 -47 -98 -47 -113 6 -102 34 -230 67 -298 20 -44 37 -178 24
-201 -5 -10 -28 -24 -52 -31 -24 -8 -53 -20 -66 -28 -17 -11 -25 -12 -36 -2
-40 32 -96 -71 -76 -140 15 -52 12 -99 -9 -160 -21 -60 -68 -104 -148 -140
-24 -10 -43 -23 -43 -27 0 -10 -73 -31 -109 -31 -13 -1 -30 -10 -37 -21 -8
-10 -30 -29 -50 -42 -34 -21 -38 -21 -49 -6 -7 9 -20 17 -29 17 -9 0 -19 8
-22 18 -20 61 -27 72 -50 72 -13 0 -25 -8 -29 -19 -7 -22 -44 -34 -80 -25 -23
6 -25 10 -19 42 7 34 6 35 -20 28 -21 -5 -39 1 -77 26 -44 28 -50 36 -45 58
19 83 18 117 -1 136 -11 10 -28 31 -38 47 -9 15 -26 27 -36 27 -21 0 -25 20
-8 37 8 8 6 18 -6 36 -10 16 -14 34 -9 51 3 15 1 32 -5 40 -6 7 -8 22 -4 31 4
12 3 16 -4 12 -6 -4 -18 0 -26 8 -9 8 -22 15 -31 15 -25 0 -48 31 -42 55 4 14
0 28 -9 35 -17 14 -20 40 -5 40 6 0 10 -4 10 -9 0 -10 54 -31 81 -31 14 0 19
7 19 25 0 14 11 47 25 73 14 26 25 54 25 63 0 8 20 45 45 82 44 67 53 98 36
126 -7 11 6 30 49 73 32 31 68 71 79 87 12 16 41 39 65 51 25 11 63 34 85 50
23 17 45 30 51 30 5 0 10 4 10 9 0 5 26 15 58 22 74 16 92 25 92 49 0 41 90
56 199 34z m-624 -223 c-3 -6 -11 -11 -17 -11 -6 0 -6 6 2 15 14 17 26 13 15
-4z m-332 -323 c-13 -6 -23 -15 -23 -20 0 -4 -7 -8 -15 -8 -8 0 -15 4 -15 8 0
11 39 31 60 31 9 0 6 -5 -7 -11z m57 -17 c0 -11 -4 -22 -9 -25 -5 -3 -7 -16
-4 -27 4 -16 2 -20 -8 -17 -17 6 -23 31 -15 64 8 29 36 32 36 5z m-176 3 c13
-5 12 -9 -4 -27 -11 -11 -21 -19 -22 -16 -27 44 -28 49 -9 49 11 0 26 -3 35
-6z m280 -10 c8 -22 -21 -74 -42 -74 -19 0 -52 33 -52 51 0 7 10 5 25 -5 21
-14 26 -14 31 -3 3 8 4 18 3 23 -5 28 25 35 35 8z m-194 -47 c0 -13 -5 -28
-12 -35 -9 -9 -7 -12 11 -12 20 0 22 -4 16 -22 -3 -13 -8 -45 -10 -72 -2 -26
-7 -51 -10 -54 -12 -12 -40 16 -43 42 -2 15 -10 30 -18 33 -20 8 -17 37 6 58
11 10 20 24 20 32 0 17 22 53 32 53 5 0 8 -10 8 -23z m-85 -177 c0 -8 -11 -17
-24 -18 -27 -4 -47 18 -28 30 19 13 52 5 52 -12z"/>
<path d="M3650 3629 c0 -5 5 -7 10 -4 6 3 10 8 10 11 0 2 -4 4 -10 4 -5 0 -10
-5 -10 -11z"/>
</g>
</svg>
