<?xml version="1.0" standalone="no"?>
<!DOCTYPE svg PUBLIC "-//W3C//DTD SVG 20010904//EN"
 "http://www.w3.org/TR/2001/REC-SVG-20010904/DTD/svg10.dtd">
<svg version="1.0" xmlns="http://www.w3.org/2000/svg"
 width="990.000000pt" height="622.000000pt" viewBox="0 0 990.000000 622.000000"
 preserveAspectRatio="xMidYMid meet">
<metadata>
Created by potrace 1.14, written by Peter Selinger 2001-2017
</metadata>
<g transform="translate(0.000000,622.000000) scale(0.100000,-0.100000)"
fill="#000000" stroke="none">
<path d="M5535 5419 c-27 -4 -93 -13 -145 -20 -126 -15 -214 -39 -276 -75 -89
-51 -199 -117 -204 -123 -9 -11 -44 -31 -96 -55 -30 -14 -65 -42 -88 -69 -21
-26 -46 -49 -57 -52 -10 -4 -19 -14 -19 -24 0 -12 -16 -22 -60 -35 -33 -10
-70 -26 -83 -36 -12 -9 -39 -23 -60 -31 -44 -15 -60 -38 -55 -77 2 -22 7 -26
28 -24 14 2 44 6 68 9 49 6 75 -9 64 -36 -14 -38 -176 -221 -194 -221 -5 0
-16 7 -24 15 -25 25 -32 17 -27 -27 4 -40 2 -44 -26 -60 -33 -18 -42 -54 -16
-64 8 -4 15 -16 15 -29 0 -24 -52 -85 -73 -85 -7 0 -18 -8 -25 -17 -6 -10 -30
-44 -51 -75 -22 -32 -43 -74 -47 -94 -9 -47 -59 -97 -88 -88 -12 3 -23 6 -26
6 -31 1 -40 -5 -40 -22 0 -13 -9 -22 -26 -26 -16 -4 -24 -12 -22 -23 3 -13 14
-15 56 -13 90 6 126 -35 81 -92 -27 -34 -55 -33 -73 3 -14 26 -40 40 -73 41
-16 0 -17 -36 -3 -45 6 -4 8 -21 4 -41 -5 -30 -4 -34 15 -34 12 0 24 -7 28
-15 10 -27 -5 -29 -42 -4 -24 17 -33 29 -29 42 4 12 0 17 -14 17 -39 0 -44
-23 -18 -82 19 -43 32 -58 55 -66 17 -6 31 -16 31 -21 0 -7 24 -11 58 -11 53
0 60 -3 91 -36 28 -29 40 -35 61 -30 43 8 62 -13 66 -73 4 -53 -16 -100 -42
-101 -7 0 -14 -7 -17 -15 -4 -8 -23 -26 -45 -40 -37 -24 -40 -25 -75 -10 -48
20 -47 20 -47 -18 0 -19 -3 -37 -7 -41 -5 -4 -15 -33 -24 -64 -13 -46 -20 -57
-42 -63 -22 -6 -27 -4 -27 11 0 32 -27 45 -66 31 -27 -10 -38 -10 -49 -1 -21
18 -18 33 10 58 29 25 31 35 10 56 -10 9 -15 34 -15 69 0 40 -5 60 -21 78 -12
14 -19 33 -16 46 3 15 -2 23 -15 26 -10 3 -18 14 -18 24 0 34 -13 35 -25 1 -8
-25 -15 -32 -30 -29 -11 2 -48 5 -82 5 -52 1 -66 -3 -84 -21 -17 -16 -20 -25
-12 -35 16 -18 4 -67 -18 -79 -11 -5 -19 -15 -19 -22 0 -7 -10 -19 -22 -27
-12 -8 -37 -29 -55 -45 -33 -29 -34 -32 -25 -73 6 -23 6 -42 2 -42 -5 0 -23
14 -40 32 -32 31 -33 37 -15 96 6 19 4 22 -19 22 -18 0 -29 -7 -35 -22 l-8
-22 -5 22 c-4 13 -14 22 -25 22 -14 0 -24 12 -33 43 -20 62 -26 67 -60 54 -22
-8 -38 -8 -63 1 -18 7 -41 12 -50 12 -19 0 -23 15 -7 25 6 3 10 15 10 26 0 18
-4 17 -32 -10 -18 -17 -47 -34 -65 -37 -37 -7 -61 -31 -72 -70 -4 -17 -22 -38
-42 -51 -59 -37 -99 -74 -99 -91 -1 -25 -22 -48 -52 -55 -15 -4 -33 -13 -40
-20 -7 -7 -40 -30 -72 -51 -56 -36 -62 -37 -96 -27 -56 17 -107 14 -128 -7
-32 -35 -52 -62 -52 -72 0 -6 -12 -10 -26 -10 -26 0 -26 2 -21 44 5 34 2 47
-11 59 -25 23 -111 30 -145 12 -25 -13 -29 -13 -47 5 -15 15 -34 20 -69 20
-27 0 -71 6 -97 14 -90 26 -131 36 -152 36 -13 0 -28 12 -39 31 -18 32 -87 74
-103 64 -5 -3 -28 -1 -52 4 -59 14 -114 0 -223 -56 -81 -41 -100 -46 -195 -55
-58 -6 -146 -8 -196 -4 -84 5 -93 4 -122 -18 -49 -35 -67 -66 -80 -131 -11
-54 -10 -66 8 -113 13 -34 20 -77 20 -123 0 -99 18 -206 44 -259 51 -103 89
-167 116 -195 23 -25 29 -42 33 -95 9 -103 25 -212 37 -255 30 -108 96 -192
171 -217 132 -46 142 -47 219 -17 58 22 101 25 456 30 l161 3 69 -39 c78 -44
103 -69 102 -105 -1 -42 29 -141 50 -164 84 -94 97 -106 119 -106 12 0 23 -4
23 -8 0 -5 12 -14 28 -21 85 -38 131 -94 146 -176 4 -22 20 -67 36 -100 16
-33 38 -87 49 -120 11 -33 31 -91 45 -130 14 -38 26 -89 26 -113 0 -118 105
-207 303 -257 192 -49 258 -29 343 102 58 90 78 109 145 134 86 33 123 39 160
29 19 -6 65 -10 103 -10 58 0 74 -4 93 -22 19 -18 26 -20 32 -9 13 21 48 7
115 -44 65 -48 72 -58 80 -99 7 -38 28 -68 103 -148 44 -47 63 -75 63 -93 0
-30 41 -106 81 -148 26 -30 44 -33 109 -22 22 4 52 1 80 -10 79 -29 89 -30
118 -3 65 61 94 61 146 3 41 -45 41 -45 122 -51 75 -6 85 -5 130 20 27 14 69
30 94 35 25 5 68 18 95 30 28 11 84 30 125 42 41 12 80 25 85 29 6 4 51 22
100 40 50 17 99 36 110 40 25 11 69 20 115 26 42 5 126 38 275 109 61 29 135
64 165 79 30 14 84 53 120 87 94 88 126 112 205 150 73 35 141 95 245 219 30
35 75 82 99 105 24 22 54 51 65 64 12 14 37 43 57 65 20 23 50 62 67 87 57 85
147 154 262 203 25 11 54 27 65 37 24 20 64 32 172 53 57 11 97 25 135 49 69
45 142 118 163 165 28 61 81 165 104 202 11 19 21 42 21 50 0 8 7 28 16 45 15
29 41 113 69 228 18 70 17 137 -2 137 -19 0 -16 37 3 44 15 6 15 9 -4 29 -26
27 -20 64 11 69 14 2 24 14 29 36 5 17 12 32 16 32 5 0 19 30 33 68 23 63 24
78 22 256 -1 115 -6 193 -13 200 -5 5 -10 49 -10 96 0 68 -5 100 -25 150 -14
35 -31 70 -38 79 -41 47 -85 179 -79 233 6 50 -20 150 -75 288 -57 145 -79
192 -103 221 -61 75 -91 109 -141 163 -31 34 -76 83 -100 111 -54 60 -89 93
-109 100 -8 3 -22 16 -30 29 -20 32 -117 105 -150 112 -40 8 -91 33 -150 73
-31 21 -76 47 -101 58 -40 18 -246 152 -289 188 -8 7 -45 29 -82 49 -81 43
-130 75 -180 117 -39 33 -122 59 -192 59 -22 0 -65 13 -100 29 -33 16 -92 34
-131 41 -38 6 -86 15 -105 20 -19 5 -62 16 -95 24 -62 16 -123 18 -210 5z
m-1117 -1556 c4 -26 -1 -28 -29 -13 -27 15 -25 42 4 38 14 -2 23 -11 25 -25z
m-145 -3 c18 -21 22 -39 10 -41 -5 -1 -18 -3 -30 -4 -12 -1 -34 -10 -49 -20
-21 -13 -28 -14 -34 -4 -11 17 -2 37 21 44 10 4 24 15 29 26 14 24 31 24 53
-1z m-83 0 c0 -5 -4 -10 -10 -10 -5 0 -10 5 -10 10 0 6 5 10 10 10 6 0 10 -4
10 -10z m-160 -90 c0 -31 -16 -41 -26 -15 -5 13 11 45 22 45 2 0 4 -13 4 -30z
m190 -20 c0 -5 -4 -10 -9 -10 -5 0 -16 -3 -25 -6 -11 -4 -16 -1 -16 10 0 10 9
16 25 16 14 0 25 -4 25 -10z m-150 -10 c0 -5 -4 -10 -10 -10 -5 0 -10 5 -10
10 0 6 5 10 10 10 6 0 10 -4 10 -10z m489 -536 c20 -4 22 -9 18 -33 -11 -52
10 -64 110 -68 56 -3 109 -11 139 -23 l49 -18 -2 -57 c-1 -41 -11 -73 -32
-115 -29 -55 -30 -62 -24 -142 3 -45 9 -87 13 -93 4 -5 10 -27 14 -47 4 -21
18 -63 32 -94 29 -67 42 -195 21 -211 -26 -20 -134 -58 -165 -58 -31 0 -35 -4
-53 -50 -15 -39 -17 -57 -9 -85 26 -92 -5 -197 -72 -248 -24 -19 -60 -41 -80
-49 -20 -8 -39 -21 -42 -29 -3 -8 -14 -14 -25 -14 -11 0 -23 -4 -26 -10 -3 -5
-23 -9 -43 -9 -30 1 -45 -6 -81 -40 -47 -43 -68 -51 -77 -26 -4 8 -15 15 -25
15 -11 0 -22 8 -25 18 -26 80 -49 94 -80 47 -16 -25 -39 -30 -82 -19 -20 6
-22 11 -16 41 7 35 7 35 -25 28 -24 -5 -37 -2 -60 17 -15 13 -36 28 -46 34
-16 9 -17 15 -7 56 17 65 15 94 -7 115 -10 10 -26 30 -36 46 -9 15 -26 27 -36
27 -21 0 -27 36 -7 42 8 3 6 11 -5 29 -8 13 -16 35 -16 49 -3 77 -8 84 -73
110 -30 13 -41 34 -33 61 4 12 1 21 -9 25 -9 3 -16 15 -16 25 0 20 16 26 22 8
2 -5 21 -14 43 -19 42 -9 55 -2 55 33 0 11 9 31 19 46 11 15 23 40 27 57 4 16
25 59 46 96 31 53 39 75 37 107 -3 31 2 45 21 64 14 13 50 51 80 85 30 35 77
74 103 88 27 14 70 40 96 59 28 20 73 40 109 49 73 17 82 22 82 46 0 41 90 56
199 34z m-624 -223 c-3 -6 -11 -11 -17 -11 -6 0 -6 6 2 15 14 17 26 13 15 -4z
m-277 -326 c1 -1 0 -21 -4 -44 -8 -51 -29 -49 -29 2 0 40 -16 54 -35 31 -12
-14 -40 -20 -40 -8 0 19 38 34 70 28 19 -3 36 -7 38 -9z m-174 -11 c13 -5 12
-9 -4 -27 -11 -11 -21 -19 -22 -16 -27 44 -28 49 -9 49 11 0 26 -3 35 -6z
m281 -4 c11 -17 -15 -78 -35 -83 -18 -5 -60 32 -60 53 0 15 16 12 30 -5 17
-21 31 -9 24 21 -5 20 -2 24 14 24 12 0 24 -5 27 -10z m-195 -53 c0 -13 -5
-28 -12 -35 -9 -9 -7 -12 10 -12 24 0 24 -1 6 -117 -8 -56 -54 -43 -54 15 0
11 -7 22 -15 26 -21 8 -19 40 5 61 11 10 20 24 20 32 0 20 19 53 30 53 6 0 10
-10 10 -23z m-82 -179 c3 -14 -3 -18 -26 -18 -30 0 -51 24 -29 34 23 9 52 1
55 -16z"/>
</g>
</svg>
