<?xml version="1.0" standalone="no"?>
<!DOCTYPE svg PUBLIC "-//W3C//DTD SVG 20010904//EN"
 "http://www.w3.org/TR/2001/REC-SVG-20010904/DTD/svg10.dtd">
<svg version="1.0" xmlns="http://www.w3.org/2000/svg"
 width="990.000000pt" height="622.000000pt" viewBox="0 0 990.000000 622.000000"
 preserveAspectRatio="xMidYMid meet">
<metadata>
Created by potrace 1.14, written by Peter Selinger 2001-2017
</metadata>
<g transform="translate(0.000000,622.000000) scale(0.100000,-0.100000)"
fill="#000000" stroke="none">
<path d="M5560 5458 c-41 -5 -120 -18 -175 -28 -55 -10 -120 -22 -145 -26 -52
-7 -154 -53 -190 -85 -29 -25 -183 -129 -213 -144 -11 -5 -39 -19 -61 -30 -23
-11 -52 -37 -65 -58 -14 -21 -35 -40 -47 -43 -13 -3 -26 -14 -29 -23 -3 -9
-29 -25 -58 -36 -28 -10 -65 -28 -82 -39 -16 -12 -47 -28 -68 -36 -28 -11 -46
-27 -63 -58 -23 -40 -23 -45 -9 -72 13 -26 20 -29 42 -24 15 4 38 13 52 20 31
16 67 18 76 4 6 -10 -35 -92 -63 -124 -24 -27 -103 -76 -113 -70 -5 3 -9 14
-9 25 0 11 -4 29 -10 39 -9 17 -12 17 -60 2 -43 -15 -50 -20 -44 -37 16 -52
14 -73 -13 -132 -26 -58 -30 -63 -61 -63 -23 0 -39 8 -55 26 -77 91 -115 109
-221 100 -45 -3 -96 -10 -115 -16 -40 -11 -91 -56 -91 -81 0 -9 -9 -28 -20
-42 -45 -57 -9 -99 101 -117 70 -12 71 -12 98 14 46 44 123 68 195 60 33 -4
69 -13 79 -22 25 -22 22 -84 -6 -130 -32 -52 -47 -89 -47 -116 0 -34 -47 -78
-70 -66 -30 16 -68 11 -83 -10 -14 -20 -14 -20 -53 -1 -21 11 -40 16 -42 11
-2 -5 6 -27 18 -50 l21 -42 -21 -5 c-18 -5 -21 -11 -16 -34 5 -29 -10 -79 -25
-79 -15 0 -18 -31 -5 -57 8 -16 20 -40 26 -55 7 -14 23 -29 36 -32 12 -3 29
-13 37 -21 9 -8 39 -16 72 -18 50 -3 61 -8 86 -37 24 -27 34 -32 58 -27 42 9
58 -10 64 -72 4 -52 3 -56 -37 -98 -42 -45 -86 -73 -116 -73 -10 0 -29 11 -42
25 -29 28 -40 18 -31 -28 3 -15 -2 -42 -10 -59 -9 -18 -19 -46 -23 -63 -13
-57 -51 -75 -69 -33 -12 28 -40 34 -72 17 -22 -12 -27 -11 -39 6 -20 27 -18
31 21 58 l35 24 -25 23 c-21 20 -25 33 -25 80 0 44 -4 59 -21 73 -12 11 -19
27 -17 41 1 13 -4 31 -11 40 -23 27 -27 123 -7 145 10 11 13 22 8 25 -14 9
-52 -68 -45 -92 3 -11 -3 -34 -13 -51 -19 -32 -29 -38 -38 -22 -8 12 -94 2
-133 -16 -37 -17 -47 -37 -32 -65 14 -25 3 -68 -16 -68 -8 0 -15 -6 -15 -14 0
-14 -22 -34 -71 -66 -12 -8 -33 -25 -46 -37 -13 -13 -28 -23 -33 -23 -13 0
-13 17 0 25 6 3 10 20 10 37 0 30 -1 30 -37 25 -21 -4 -47 -4 -58 -1 -18 5
-42 45 -59 97 -4 13 -12 17 -27 12 -35 -11 -109 -9 -122 4 -9 9 -9 16 1 31 12
19 17 60 7 60 -2 0 -23 -20 -45 -43 -24 -27 -55 -48 -80 -56 -40 -12 -60 -34
-60 -69 0 -20 -45 -54 -111 -85 -20 -9 -39 -26 -42 -37 -3 -11 -20 -28 -38
-37 -18 -10 -45 -30 -60 -45 -15 -16 -31 -28 -36 -28 -4 0 -21 -8 -38 -17 -23
-12 -51 -16 -115 -14 -83 2 -86 2 -114 -28 -31 -32 -46 -39 -46 -20 0 6 -10
25 -22 41 l-21 30 -86 -4 c-59 -3 -93 -1 -111 9 -14 7 -41 15 -60 19 -19 3
-79 16 -133 30 -54 13 -106 24 -117 24 -10 0 -27 10 -37 23 -10 12 -33 29 -50
36 -18 7 -33 18 -33 24 0 7 -4 7 -12 -1 -15 -15 -52 -15 -95 0 -31 11 -40 9
-161 -52 l-127 -63 -140 -10 c-119 -9 -148 -8 -186 5 -48 16 -85 10 -95 -17
-4 -8 -13 -15 -20 -15 -8 0 -19 -10 -24 -22 -6 -13 -14 -30 -19 -38 -5 -8 -14
-37 -20 -65 -10 -43 -9 -57 8 -100 12 -32 21 -92 25 -166 4 -64 13 -137 21
-162 21 -71 107 -229 140 -258 28 -25 31 -34 33 -92 1 -35 6 -76 12 -91 5 -15
10 -43 10 -63 0 -89 54 -225 111 -281 61 -59 243 -102 302 -70 53 28 105 33
434 37 l182 3 70 -39 c39 -21 71 -43 71 -49 0 -7 6 -14 14 -17 8 -3 14 -20 14
-39 0 -57 29 -136 69 -186 46 -57 84 -92 98 -90 5 1 21 -5 35 -13 14 -9 46
-28 71 -42 47 -27 92 -91 88 -126 -2 -18 3 -33 34 -106 12 -27 25 -52 30 -53
4 -2 7 -11 7 -20 0 -10 20 -73 45 -141 29 -80 45 -140 45 -170 0 -97 98 -190
245 -232 39 -11 84 -24 101 -29 17 -6 62 -10 100 -10 88 0 136 26 181 95 77
119 97 139 172 168 78 31 83 31 226 21 82 -5 104 -10 124 -28 17 -15 25 -17
28 -8 7 20 31 14 86 -22 79 -51 107 -81 107 -115 0 -32 20 -60 112 -158 44
-47 58 -68 58 -91 0 -35 62 -145 94 -167 23 -17 76 -20 76 -5 0 18 59 11 120
-15 33 -14 62 -25 65 -25 3 0 22 16 44 35 21 19 52 38 68 41 27 5 32 2 46 -29
24 -50 36 -56 129 -68 84 -11 85 -11 144 19 33 17 78 34 100 38 21 3 52 13 68
21 16 8 74 30 130 48 102 33 284 99 321 116 11 5 50 13 86 18 36 5 85 18 109
30 24 12 49 21 55 21 5 0 27 9 47 20 115 61 174 90 185 90 18 0 134 70 172
104 19 17 58 54 88 82 32 30 73 57 103 68 27 10 68 31 90 47 45 32 161 140
219 203 20 22 57 60 82 85 25 26 68 73 94 106 27 33 55 66 62 73 8 8 20 26 28
40 7 15 42 54 77 88 48 46 76 65 118 78 87 27 129 47 135 66 7 22 45 38 109
45 72 8 94 15 158 49 103 57 162 118 219 233 29 57 61 110 71 119 9 9 21 33
24 53 4 20 17 56 29 81 13 25 28 65 35 90 7 25 18 59 25 75 27 61 46 156 36
169 -6 7 -9 15 -6 18 3 3 6 23 6 44 1 35 33 121 51 134 3 3 19 37 35 75 l28
70 -3 225 c-4 362 -6 399 -31 465 -13 33 -33 71 -46 85 -36 39 -67 120 -70
180 -2 55 -40 216 -54 235 -11 15 -71 161 -86 211 -7 24 -26 65 -43 93 -26 42
-240 260 -422 430 -30 28 -72 67 -92 86 -20 19 -49 37 -65 40 -39 9 -69 24
-135 66 -31 20 -73 43 -95 50 -59 19 -152 70 -323 176 -24 15 -72 43 -106 61
-34 18 -82 50 -106 71 -55 49 -157 96 -228 105 -32 4 -74 19 -100 35 -32 20
-64 29 -111 34 -37 3 -111 17 -165 31 -127 31 -163 35 -254 24z m-1532 -1531
c19 -15 14 -43 -11 -73 -30 -35 -58 -26 -77 24 -20 51 -19 56 15 63 32 6 52 2
73 -14z m390 -64 c3 -20 0 -22 -20 -14 -32 12 -38 44 -6 39 15 -2 24 -11 26
-25z m-143 -9 c14 -21 15 -28 4 -35 -7 -4 -16 -6 -21 -3 -4 3 -25 -5 -48 -16
l-40 -20 0 25 c0 15 6 25 15 25 8 0 22 11 32 25 23 31 37 31 58 -1z m-85 6 c0
-5 -4 -10 -10 -10 -5 0 -10 5 -10 10 0 6 5 10 10 10 6 0 10 -4 10 -10z m-320
-69 c0 -5 10 -11 22 -13 13 -2 24 -11 26 -20 5 -24 -9 -23 -42 3 -26 21 -34
39 -16 39 6 0 10 -4 10 -9z m156 -49 c-4 -3 -11 -1 -17 5 -8 8 -7 18 3 34 l13
24 3 -28 c2 -16 1 -31 -2 -35z m194 8 c0 -5 -4 -10 -9 -10 -5 0 -16 -3 -25 -6
-11 -4 -16 -1 -16 10 0 10 9 16 25 16 14 0 25 -4 25 -10z m-150 -10 c0 -5 -4
-10 -10 -10 -5 0 -10 5 -10 10 0 6 5 10 10 10 6 0 10 -4 10 -10z m498 -543 c7
-6 11 -20 8 -32 -11 -44 14 -59 105 -62 90 -3 188 -29 197 -52 8 -20 -17 -133
-33 -151 -21 -24 -45 -91 -38 -104 4 -6 11 -40 14 -76 8 -80 23 -138 51 -199
24 -53 42 -185 28 -211 -5 -9 -28 -22 -51 -29 -23 -7 -53 -19 -65 -28 -18 -11
-26 -12 -42 -2 -28 18 -47 0 -67 -62 -13 -39 -14 -56 -6 -81 16 -46 13 -97 -8
-158 -21 -60 -68 -104 -148 -140 -24 -10 -43 -23 -43 -27 0 -10 -73 -31 -109
-31 -14 -1 -34 -12 -45 -26 -12 -13 -34 -32 -50 -42 -26 -17 -29 -17 -38 -1
-5 9 -18 17 -29 17 -11 0 -22 8 -25 18 -21 63 -27 72 -51 72 -16 0 -27 -7 -30
-19 -6 -22 -42 -34 -78 -25 -23 6 -25 10 -19 42 7 34 6 35 -20 28 -21 -5 -39
1 -77 26 -44 28 -50 36 -45 58 22 97 20 113 -19 160 -21 25 -46 48 -56 52 -22
9 -23 12 -7 37 9 15 8 22 -4 35 -12 11 -15 27 -11 56 4 27 2 40 -6 40 -8 0
-10 8 -6 21 5 13 3 19 -3 15 -5 -3 -15 1 -22 9 -7 8 -21 15 -31 15 -29 0 -49
27 -43 59 4 20 1 30 -10 34 -9 4 -16 13 -16 22 0 20 9 19 29 -3 9 -11 33 -22
54 -26 36 -7 37 -6 37 21 0 15 11 51 25 78 13 28 25 55 25 60 0 6 20 43 45 83
43 69 57 123 36 137 -6 3 18 34 52 68 34 35 73 76 86 91 14 15 50 41 80 57 31
17 78 45 104 63 27 19 68 37 91 40 50 8 76 24 80 50 4 31 42 44 120 38 39 -2
77 -9 84 -15z m-633 -217 c-3 -5 -11 -10 -16 -10 -6 0 -7 5 -4 10 3 6 11 10
16 10 6 0 7 -4 4 -10z m-332 -322 c-13 -6 -23 -15 -23 -20 0 -4 -7 -8 -15 -8
-8 0 -15 4 -15 8 0 11 39 31 60 31 9 0 6 -5 -7 -11z m57 -17 c0 -11 -5 -23
-10 -26 -6 -4 -8 -15 -5 -26 5 -14 3 -17 -9 -13 -17 6 -20 24 -10 62 8 27 34
29 34 3z m-176 3 c13 -5 12 -9 -4 -27 -11 -11 -21 -19 -22 -16 -27 44 -28 49
-9 49 11 0 26 -3 35 -6z m272 -47 c-15 -39 -41 -46 -67 -18 -28 30 -24 47 6
27 23 -15 26 -15 30 -1 3 8 7 22 10 31 4 13 8 14 20 4 12 -10 12 -17 1 -43z
m-186 -10 c0 -13 -5 -28 -12 -35 -9 -9 -7 -12 11 -12 20 0 22 -4 16 -22 -4
-13 -8 -43 -10 -66 -1 -24 -8 -49 -13 -54 -16 -16 -42 9 -42 39 0 13 -7 26
-15 29 -21 8 -19 38 5 59 11 10 20 24 20 32 0 17 22 53 32 53 5 0 8 -10 8 -23z
m-91 -166 c17 -11 6 -31 -18 -31 -25 0 -47 26 -29 33 20 8 32 8 47 -2z"/>
</g>
</svg>
