<?xml version="1.0" standalone="no"?>
<!DOCTYPE svg PUBLIC "-//W3C//DTD SVG 20010904//EN"
 "http://www.w3.org/TR/2001/REC-SVG-20010904/DTD/svg10.dtd">
<svg version="1.0" xmlns="http://www.w3.org/2000/svg"
 width="990.000000pt" height="622.000000pt" viewBox="0 0 990.000000 622.000000"
 preserveAspectRatio="xMidYMid meet">
<metadata>
Created by potrace 1.14, written by Peter Selinger 2001-2017
</metadata>
<g transform="translate(0.000000,622.000000) scale(0.100000,-0.100000)"
fill="#000000" stroke="none">
<path d="M5756 5773 c-3 -4 -24 -7 -141 -20 -38 -5 -75 -11 -80 -15 -6 -4 -48
-12 -93 -18 -131 -18 -217 -50 -279 -105 -55 -48 -211 -155 -228 -155 -28 0
-87 -44 -111 -81 -13 -22 -31 -39 -39 -39 -8 0 -22 -11 -30 -24 -10 -15 -33
-28 -62 -35 -25 -7 -62 -25 -82 -40 -20 -16 -50 -32 -67 -36 -56 -11 -98 -81
-88 -145 8 -49 23 -51 94 -15 51 26 75 31 84 17 7 -12 -29 -87 -59 -120 -30
-34 -90 -66 -105 -57 -6 3 -10 28 -10 56 0 54 -15 63 -54 34 -11 -8 -37 -15
-58 -15 -43 0 -46 -8 -22 -66 18 -44 13 -83 -17 -125 -24 -34 -61 -38 -82 -9
-35 51 -129 140 -153 146 -14 4 -54 2 -88 -4 -75 -12 -152 -58 -214 -128 -107
-121 -102 -109 -71 -147 21 -28 64 -50 168 -87 68 -24 92 -21 115 15 43 65
196 99 244 55 30 -28 28 -65 -8 -130 -16 -30 -29 -68 -30 -85 0 -17 -11 -43
-25 -60 -22 -25 -29 -28 -45 -17 -27 16 -65 15 -80 -3 -17 -21 -32 -19 -66 10
-16 14 -32 25 -36 25 -12 0 -10 -58 2 -81 8 -15 7 -23 -5 -35 -18 -18 -19 -28
-4 -56 9 -18 7 -29 -10 -62 l-23 -41 30 -55 c19 -36 37 -56 51 -58 11 -2 27
-13 35 -24 12 -17 22 -20 60 -16 47 6 65 -2 111 -48 14 -14 30 -21 39 -18 9 3
27 3 40 0 21 -5 25 -12 24 -45 0 -21 3 -47 6 -58 6 -19 -21 -63 -40 -63 -5 0
-15 -9 -21 -19 -20 -32 -80 -56 -111 -45 -15 6 -26 17 -26 26 1 9 -5 15 -15
13 -12 -1 -16 -14 -17 -51 0 -27 -8 -71 -19 -99 -10 -27 -19 -56 -21 -62 -5
-18 -54 -16 -54 2 0 22 -36 38 -59 25 -29 -15 -49 -12 -60 9 -8 15 -5 24 15
45 15 14 30 23 35 20 20 -12 7 9 -16 28 -21 16 -25 28 -25 74 0 40 -6 62 -21
84 -13 17 -19 35 -15 46 4 10 -1 25 -11 36 -22 25 -24 119 -2 145 8 10 14 26
12 35 -4 14 -10 11 -33 -16 -25 -27 -29 -41 -28 -79 2 -50 -16 -81 -43 -74
-35 9 -150 -22 -169 -45 -16 -20 -16 -26 -4 -50 8 -15 14 -30 14 -33 0 -3 -21
-27 -47 -54 -75 -76 -116 -90 -127 -45 -6 24 -10 26 -47 21 -21 -3 -47 -3 -57
0 -18 4 -52 69 -52 98 0 12 -8 14 -42 8 -84 -15 -135 -1 -111 29 16 20 24 66
14 73 -5 3 -24 -15 -42 -40 -21 -29 -44 -48 -68 -56 -47 -15 -81 -47 -81 -75
0 -25 -34 -53 -98 -82 -22 -10 -52 -32 -67 -50 -15 -18 -32 -32 -39 -32 -7 0
-25 -13 -42 -29 -50 -48 -112 -69 -209 -70 -81 -1 -88 -2 -107 -26 l-20 -26
-28 33 c-27 32 -30 33 -111 34 -54 1 -98 7 -122 18 -36 16 -205 53 -290 63
-26 4 -43 13 -54 29 -8 13 -22 24 -31 24 -9 0 -27 10 -40 23 -17 15 -26 18
-29 10 -6 -15 -79 -17 -88 -3 -9 14 -46 12 -75 -4 -14 -8 -50 -28 -80 -44 -30
-16 -72 -39 -93 -50 -55 -30 -303 -42 -374 -18 -55 18 -79 14 -88 -14 -3 -11
-15 -22 -26 -25 -10 -4 -19 -11 -19 -17 0 -5 -9 -22 -19 -37 -28 -39 -37 -132
-16 -164 11 -17 19 -64 26 -154 5 -70 14 -148 21 -173 17 -67 108 -241 142
-270 25 -23 29 -35 32 -88 1 -33 8 -78 13 -99 6 -21 11 -53 11 -71 0 -82 57
-217 112 -268 73 -68 228 -102 303 -68 22 10 49 20 60 21 29 6 215 13 400 15
l160 3 53 -33 c29 -17 57 -32 63 -32 5 0 14 -11 19 -25 5 -14 15 -25 21 -25 6
0 9 -7 5 -15 -3 -8 3 -46 13 -85 15 -55 29 -83 67 -128 59 -69 75 -83 91 -77
7 2 15 0 18 -5 3 -4 24 -18 48 -29 78 -38 119 -90 130 -166 4 -22 18 -65 33
-95 46 -96 124 -336 124 -383 0 -98 99 -187 255 -232 33 -9 74 -21 91 -26 52
-16 171 -11 202 8 47 29 73 57 94 98 44 86 80 118 173 154 81 32 91 34 131 23
25 -7 74 -12 111 -12 55 0 71 -4 90 -22 19 -18 26 -20 32 -9 13 21 48 7 119
-46 37 -27 65 -56 67 -70 3 -13 7 -33 10 -45 2 -13 41 -63 85 -112 58 -65 80
-96 80 -115 0 -35 54 -135 87 -161 28 -21 83 -27 83 -9 0 17 81 4 127 -21 51
-27 61 -26 103 15 19 19 50 37 68 41 30 6 32 4 38 -24 8 -40 28 -57 86 -71 79
-19 135 -14 197 17 31 16 74 32 96 36 22 4 58 15 80 26 22 10 78 30 125 45 47
14 94 31 104 37 44 24 255 91 313 99 34 5 78 18 98 29 19 11 41 20 48 20 7 0
26 7 42 16 81 43 203 102 225 109 34 10 125 74 180 126 78 73 124 105 172 123
49 18 120 72 217 164 31 29 59 56 64 60 32 30 177 183 177 187 0 9 129 171
172 215 43 45 121 90 155 90 10 0 31 7 47 15 15 8 35 15 42 15 8 0 14 9 14 19
0 29 38 51 86 51 22 0 56 5 75 11 59 19 155 68 174 89 10 11 24 20 30 20 17 0
95 102 95 123 0 10 9 26 19 36 10 10 22 30 26 43 4 12 22 46 40 73 18 28 38
69 44 92 6 23 23 61 36 85 14 24 25 51 25 61 0 9 9 36 20 60 35 76 48 131 49
202 0 63 4 79 44 155 69 132 77 172 78 377 1 239 1 235 -10 246 -6 6 -8 39 -4
83 5 60 2 86 -18 149 -13 42 -34 88 -46 102 -41 43 -73 119 -73 170 0 60 -31
172 -80 288 -21 50 -47 117 -58 151 -33 101 -57 138 -149 225 -48 46 -130 126
-181 177 -51 50 -96 92 -100 92 -4 1 -49 40 -100 89 -69 65 -107 92 -145 106
-29 10 -81 38 -116 62 -35 24 -75 43 -90 44 -14 0 -62 20 -106 44 -44 24 -107
58 -140 76 -33 17 -79 45 -102 60 -23 16 -44 29 -48 29 -10 0 -119 71 -145 95
-37 35 -144 85 -212 101 -33 8 -79 25 -102 39 -26 15 -58 25 -81 25 -21 0 -52
4 -69 9 -74 22 -304 70 -310 64z m-1613 -1557 c23 -17 22 -37 -4 -70 -29 -37
-57 -34 -75 9 -7 19 -14 41 -14 49 0 25 64 34 93 12z m391 -52 c9 -24 7 -34
-8 -34 -18 0 -39 27 -31 40 9 15 32 12 39 -6z m-144 -18 c0 -8 5 -16 12 -18
21 -7 -2 -28 -31 -28 -15 0 -36 -7 -47 -15 -26 -20 -34 -19 -34 5 0 12 10 24
24 29 13 5 26 17 29 25 8 20 47 21 47 2z m-244 -114 c-4 -3 -11 -1 -17 5 -8 8
-7 17 3 32 13 22 13 22 16 -5 2 -14 1 -28 -2 -32z m-118 26 c6 -6 12 -14 12
-19 0 -16 -18 -9 -47 17 l-28 25 25 -7 c14 -3 31 -11 38 -16z m307 -23 c0 -5
-10 -11 -22 -13 -16 -2 -23 2 -23 13 0 11 7 15 23 13 12 -2 22 -7 22 -13z
m-150 -5 c3 -5 1 -10 -4 -10 -6 0 -11 5 -11 10 0 6 2 10 4 10 3 0 8 -4 11 -10z
m503 -544 c8 -5 11 -18 7 -36 -5 -22 -1 -32 19 -47 21 -17 36 -19 105 -15 60
3 86 1 103 -10 13 -8 35 -18 51 -22 19 -4 27 -13 27 -28 0 -34 -23 -138 -31
-138 -3 0 -16 -23 -28 -50 -16 -38 -19 -55 -11 -69 5 -11 10 -44 10 -75 0 -30
4 -57 9 -60 4 -3 11 -24 15 -47 4 -23 16 -62 28 -88 25 -55 42 -185 27 -212
-5 -11 -19 -19 -30 -19 -11 0 -39 -9 -61 -20 -48 -23 -65 -25 -70 -9 -9 26
-45 -11 -61 -61 -13 -39 -14 -61 -7 -100 10 -53 6 -110 -10 -140 -6 -10 -10
-28 -10 -38 0 -22 -78 -84 -120 -97 -14 -4 -35 -17 -48 -28 -28 -26 -84 -46
-115 -40 -17 3 -30 -2 -43 -19 -10 -13 -33 -33 -51 -43 -30 -18 -33 -18 -51
-2 -10 9 -26 17 -35 17 -11 0 -17 8 -17 25 0 37 -35 68 -60 55 -11 -6 -20 -18
-20 -26 0 -12 -10 -14 -47 -12 l-48 3 3 37 c3 37 3 38 -26 32 -22 -5 -42 1
-77 21 -41 25 -46 31 -41 54 21 96 20 116 -15 164 -19 25 -44 49 -56 53 -25 7
-31 30 -10 37 9 3 9 10 -3 31 -8 16 -13 42 -11 58 1 17 -3 34 -10 39 -10 6
-10 11 0 23 12 14 10 16 -8 16 -11 0 -21 4 -21 9 0 5 -14 12 -30 16 -35 8 -55
37 -42 61 7 12 4 22 -10 36 -27 27 -13 36 15 11 12 -11 37 -23 55 -25 29 -4
32 -2 32 22 0 14 9 43 20 65 11 21 25 53 31 72 6 18 28 60 50 92 39 59 48 96
29 131 -8 15 -6 20 9 25 16 5 94 87 128 136 7 9 43 33 79 53 36 20 83 50 103
66 24 20 53 31 88 36 52 7 93 32 93 59 0 27 46 41 117 35 37 -3 74 -9 81 -14z
m-628 -210 c0 -3 -4 -8 -10 -11 -5 -3 -10 -1 -10 4 0 6 5 11 10 11 6 0 10 -2
10 -4z m-330 -334 c-8 -3 -23 -11 -33 -20 -18 -16 -34 -11 -22 8 9 15 47 29
60 22 5 -3 2 -8 -5 -10z m50 -23 c0 -10 -5 -19 -10 -19 -6 0 -8 -11 -4 -25 5
-20 3 -24 -10 -19 -18 7 -21 46 -5 75 12 23 29 16 29 -12z m-180 11 c19 -10
19 -11 2 -28 -16 -16 -18 -16 -29 7 -7 13 -13 25 -13 27 0 7 21 4 40 -6z m280
-20 c0 -27 -21 -70 -35 -70 -15 0 -58 50 -51 58 4 3 12 0 18 -6 18 -18 38 -14
38 6 0 10 3 22 7 25 12 13 23 7 23 -13z m-190 -39 c0 -11 -4 -23 -10 -26 -17
-11 -11 -25 11 -25 16 0 19 -4 13 -17 -4 -10 -9 -40 -10 -67 -4 -60 -19 -79
-40 -52 -8 11 -14 27 -14 37 0 9 -7 22 -15 29 -20 17 -19 33 5 55 11 10 20 24
20 32 0 20 19 53 30 53 6 0 10 -9 10 -19z m-85 -181 c0 -8 -8 -16 -18 -18 -21
-4 -49 16 -41 30 9 15 59 5 59 -12z"/>
</g>
</svg>
