<?xml version="1.0" standalone="no"?>
<!DOCTYPE svg PUBLIC "-//W3C//DTD SVG 20010904//EN"
 "http://www.w3.org/TR/2001/REC-SVG-20010904/DTD/svg10.dtd">
<svg version="1.0" xmlns="http://www.w3.org/2000/svg"
 width="990.000000pt" height="622.000000pt" viewBox="0 0 990.000000 622.000000"
 preserveAspectRatio="xMidYMid meet">
<metadata>
Created by potrace 1.14, written by Peter Selinger 2001-2017
</metadata>
<g transform="translate(0.000000,622.000000) scale(0.100000,-0.100000)"
fill="#000000" stroke="none">
<path d="M5746 5791 c-4 -5 -41 -12 -84 -16 -42 -3 -113 -15 -157 -25 -44 -10
-108 -23 -143 -29 -80 -13 -155 -48 -212 -100 -25 -23 -76 -63 -113 -89 -84
-57 -84 -57 -125 -73 -44 -16 -82 -47 -93 -76 -5 -13 -24 -30 -43 -38 -19 -8
-36 -20 -38 -26 -2 -6 -28 -19 -58 -30 -29 -10 -65 -30 -79 -43 -14 -13 -40
-27 -57 -31 -20 -4 -48 -24 -74 -53 -36 -39 -43 -53 -44 -91 -2 -67 -46 -95
-123 -77 -40 9 -43 -5 -13 -66 27 -56 27 -124 0 -133 -31 -10 -55 10 -110 92
-29 43 -62 82 -74 86 -19 8 -150 1 -187 -9 -8 -2 -40 -34 -69 -69 -30 -36 -76
-80 -103 -97 -84 -54 -111 -114 -86 -186 8 -24 20 -34 47 -42 21 -5 41 -10 46
-10 5 0 44 -20 88 -45 89 -52 89 -52 171 21 62 56 100 74 152 74 45 0 75 -22
75 -55 0 -10 -12 -43 -26 -74 -15 -30 -28 -67 -29 -81 -3 -42 -14 -64 -36 -79
-19 -11 -23 -11 -31 3 -11 20 -31 20 -75 -1 l-36 -17 -36 42 c-20 23 -41 42
-48 42 -17 0 -23 -190 -6 -211 19 -22 16 -38 -12 -75 -24 -31 -24 -33 -7 -46
11 -7 27 -30 37 -51 12 -25 29 -43 51 -52 19 -8 34 -19 34 -24 0 -7 24 -11 58
-11 52 0 61 -3 95 -35 22 -21 43 -32 52 -29 8 4 26 3 39 0 22 -5 24 -11 25
-72 1 -61 -11 -94 -34 -94 -4 0 -15 -10 -25 -23 -26 -32 -94 -54 -115 -37 -8
7 -15 19 -15 26 0 20 -27 17 -38 -3 -7 -11 -6 -23 1 -35 9 -13 7 -28 -7 -65
-10 -27 -21 -59 -24 -73 -3 -14 -10 -28 -16 -32 -18 -13 -46 -9 -46 6 0 28
-27 39 -65 24 -34 -12 -38 -11 -51 7 -14 18 -13 22 10 41 13 12 31 24 38 27 9
4 5 12 -14 27 -25 20 -28 28 -28 84 0 50 -4 65 -21 80 -14 11 -19 25 -16 38 3
11 -1 31 -9 44 -19 28 -13 112 9 144 12 17 13 70 1 70 -2 0 -19 -17 -39 -37
-35 -36 -36 -40 -31 -88 7 -59 -12 -97 -38 -76 -10 8 -21 9 -33 3 -10 -5 -39
-12 -64 -16 -33 -5 -54 -16 -75 -37 -26 -28 -27 -31 -11 -40 27 -16 21 -57
-14 -92 -70 -70 -113 -84 -129 -42 -10 27 -37 33 -70 15 -15 -8 -25 -5 -48 18
-17 16 -33 43 -37 61 l-7 31 -67 -6 c-42 -4 -71 -3 -74 3 -4 6 1 32 9 58 26
74 5 77 -50 7 -31 -41 -55 -62 -75 -67 -38 -8 -70 -40 -78 -76 -6 -30 -38 -55
-103 -79 -19 -7 -42 -21 -51 -30 -8 -10 -34 -27 -56 -38 -22 -12 -43 -27 -46
-35 -3 -8 -30 -26 -60 -40 -46 -23 -67 -27 -141 -27 -73 0 -89 -3 -103 -20
-16 -19 -17 -19 -38 5 -17 18 -38 25 -88 30 -37 4 -74 4 -83 1 -9 -3 -40 5
-68 18 -28 13 -93 31 -144 40 -52 9 -102 21 -112 26 -10 6 -26 7 -35 4 -10 -4
-29 2 -45 15 -16 11 -33 21 -38 21 -5 0 -19 11 -32 25 -21 22 -25 23 -44 10
-24 -18 -76 -20 -76 -4 0 17 -99 4 -114 -15 -11 -13 -73 -51 -146 -87 -53 -27
-314 -38 -358 -15 -47 24 -87 21 -100 -9 -6 -14 -18 -25 -27 -25 -8 0 -15 -5
-15 -11 0 -5 -11 -27 -25 -47 -29 -43 -34 -121 -11 -168 8 -16 18 -67 21 -114
12 -188 27 -252 85 -350 14 -25 32 -59 38 -75 7 -17 28 -43 46 -59 22 -18 32
-34 29 -45 -2 -10 3 -59 11 -110 9 -50 16 -103 16 -117 0 -34 26 -118 53 -174
42 -85 118 -132 260 -160 53 -11 61 -10 105 12 26 12 58 24 72 26 40 5 202 11
380 14 l165 3 67 -40 c37 -22 68 -46 68 -53 0 -7 7 -15 15 -18 9 -4 13 -13 10
-23 -9 -30 30 -146 66 -191 54 -69 90 -102 105 -96 8 3 17 -1 20 -9 4 -8 14
-15 23 -15 16 0 85 -42 106 -65 23 -24 46 -77 41 -92 -4 -8 -2 -21 4 -28 6 -7
10 -17 8 -21 -1 -5 11 -33 26 -63 15 -30 34 -72 41 -95 7 -23 29 -87 49 -144
22 -62 36 -122 36 -151 0 -27 7 -57 17 -71 50 -75 145 -135 253 -160 30 -7 65
-16 78 -21 38 -15 166 -11 200 7 34 17 102 90 102 110 0 7 6 19 13 26 6 7 24
29 39 49 22 29 44 42 118 69 81 29 96 32 124 22 18 -7 66 -12 106 -12 63 0 77
-3 98 -22 17 -16 26 -19 29 -10 11 30 79 -4 156 -76 27 -27 37 -44 37 -67 0
-24 17 -49 85 -124 63 -69 85 -100 85 -120 0 -32 55 -138 85 -163 23 -20 76
-23 92 -7 15 15 65 5 128 -26 l50 -24 40 39 c46 45 98 62 109 35 3 -9 3 -21 0
-27 -10 -16 36 -51 80 -59 87 -17 151 -11 208 20 29 16 75 32 102 36 27 4 59
13 71 21 12 8 64 28 116 45 52 16 108 36 124 43 17 7 66 25 110 40 44 15 87
31 97 36 9 5 40 12 70 15 58 7 148 35 148 46 0 3 14 9 31 13 16 3 56 21 87 39
31 18 92 48 134 65 103 43 154 78 279 194 30 28 74 55 109 68 32 12 80 41 107
63 26 23 59 51 72 62 119 100 171 148 171 160 0 3 16 20 36 38 20 18 70 76
111 131 107 142 172 215 207 230 32 13 65 24 149 47 38 11 47 18 47 36 0 32
37 53 92 53 26 0 60 5 75 11 75 31 153 72 169 90 9 10 21 19 25 19 18 0 79 77
89 110 5 19 18 43 29 52 11 10 23 30 27 45 4 15 19 44 34 63 15 19 33 53 40
75 7 22 25 66 41 98 16 32 29 64 29 70 0 7 7 26 16 42 37 72 64 152 64 194 0
25 0 57 0 70 0 13 4 29 9 35 19 23 70 126 92 188 21 56 24 84 27 248 1 102 3
199 2 215 -2 160 -7 243 -17 260 -7 11 -19 44 -28 73 -10 29 -25 61 -36 71
-35 32 -69 113 -69 164 0 51 -65 261 -99 318 -11 19 -29 66 -40 106 -32 118
-86 192 -211 291 -25 20 -85 75 -135 122 -49 48 -102 95 -116 106 -15 10 -70
58 -124 107 -53 48 -104 87 -113 87 -20 0 -40 12 -114 63 -35 23 -67 37 -86
37 -17 0 -34 5 -37 10 -3 6 -16 10 -28 10 -13 0 -32 6 -43 14 -11 8 -69 40
-130 71 -60 31 -116 63 -124 70 -8 7 -42 27 -75 45 -33 18 -79 50 -102 71 -24
22 -47 39 -52 39 -6 0 -37 16 -70 35 -32 19 -65 35 -71 35 -30 0 -119 32 -138
50 -15 14 -35 20 -70 20 -27 0 -94 11 -148 25 -55 14 -119 28 -144 31 -25 4
-55 10 -68 15 -29 11 -30 11 -36 0z m-1126 -753 c0 -47 -58 -117 -113 -137
-35 -13 -43 2 -30 56 7 30 18 43 63 70 65 39 80 41 80 11z m-477 -822 c23 -17
22 -37 -4 -70 -25 -32 -57 -34 -68 -3 -22 58 -22 64 1 75 31 14 50 14 71 -2z
m391 -52 c9 -24 7 -34 -8 -34 -18 0 -39 27 -31 40 9 15 32 12 39 -6z m-144
-18 c0 -8 5 -16 12 -18 21 -7 -2 -28 -31 -28 -15 0 -36 -7 -47 -15 -26 -20
-34 -19 -34 5 0 12 10 24 24 29 13 5 26 17 29 25 8 20 47 21 47 2z m-244 -114
c-4 -3 -11 -1 -17 5 -8 8 -7 17 3 32 13 22 13 22 16 -5 2 -14 1 -28 -2 -32z
m-136 33 c29 -15 40 -35 21 -35 -12 0 -69 49 -58 50 4 0 21 -7 37 -15z m325
-30 c0 -5 -10 -11 -22 -13 -16 -2 -23 2 -23 13 0 11 7 15 23 13 12 -2 22 -7
22 -13z m-150 -5 c3 -5 1 -10 -4 -10 -6 0 -11 5 -11 10 0 6 2 10 4 10 3 0 8
-4 11 -10z m427 -531 c72 -2 91 -13 83 -49 -5 -22 -1 -32 19 -48 23 -17 36
-19 109 -15 68 5 86 3 99 -11 9 -9 23 -16 31 -16 29 0 47 -12 47 -33 0 -33
-23 -137 -31 -137 -12 0 -50 -100 -42 -113 4 -7 11 -41 14 -77 6 -63 34 -175
48 -195 13 -18 32 -85 27 -93 -2 -4 0 -29 5 -54 12 -54 0 -88 -32 -88 -11 0
-39 -9 -61 -20 -48 -23 -65 -25 -71 -7 -8 23 -41 -8 -60 -57 -14 -38 -15 -59
-8 -104 9 -61 4 -129 -10 -138 -5 -3 -9 -17 -9 -32 0 -21 -11 -36 -49 -64 -27
-21 -61 -40 -74 -43 -14 -4 -35 -18 -48 -31 -12 -13 -33 -24 -45 -24 -13 0
-25 -4 -28 -8 -3 -5 -18 -7 -34 -4 -22 3 -34 -2 -48 -20 -10 -13 -33 -33 -51
-43 -29 -17 -34 -17 -50 -3 -10 8 -25 18 -34 21 -9 3 -19 19 -22 36 -4 16 -16
35 -29 42 -19 10 -24 8 -43 -15 -18 -23 -28 -27 -61 -24 -38 3 -39 4 -36 40 3
37 3 37 -30 32 -26 -5 -42 1 -76 26 -36 26 -43 36 -37 53 3 12 9 43 12 68 5
40 1 51 -28 92 -19 25 -44 49 -56 53 -25 7 -31 30 -10 37 9 3 8 11 -4 33 -13
22 -14 34 -6 52 8 17 6 26 -8 42 -12 13 -14 20 -6 20 14 0 9 25 -5 26 -5 0
-22 6 -37 12 -16 7 -32 12 -37 12 -17 0 -29 34 -19 52 7 13 4 23 -12 39 -11
11 -18 23 -15 26 3 4 15 -4 25 -16 13 -15 32 -23 58 -24 34 -2 38 0 35 21 -2
12 6 42 17 65 11 23 25 55 31 71 6 17 32 63 57 104 42 68 46 77 35 104 -10 27
-8 32 41 82 29 29 68 70 87 91 19 21 54 47 77 57 23 10 55 29 70 41 50 41 79
55 126 62 47 7 87 35 87 60 0 15 50 46 62 39 4 -2 31 -5 60 -5z m-552 -223 c0
-3 -4 -8 -10 -11 -5 -3 -10 -1 -10 4 0 6 5 11 10 11 6 0 10 -2 10 -4z m-330
-333 c-8 -3 -23 -12 -33 -21 -21 -19 -34 -9 -16 12 8 8 25 15 39 15 15 0 19
-3 10 -6z m50 -24 c0 -10 -5 -19 -11 -19 -6 0 -8 -9 -4 -20 5 -14 2 -20 -9
-20 -19 0 -22 41 -4 69 14 23 28 18 28 -10z m-180 11 c19 -10 19 -11 2 -28
-16 -16 -18 -16 -29 7 -7 13 -13 25 -13 27 0 7 21 4 40 -6z m280 -25 c0 -23
-22 -65 -35 -65 -15 0 -58 50 -51 58 4 3 12 0 18 -6 18 -18 38 -14 38 8 0 11
7 20 15 20 8 0 15 -7 15 -15z m-190 -34 c0 -11 -4 -23 -10 -26 -17 -11 -11
-25 11 -25 16 0 19 -4 13 -17 -4 -10 -9 -40 -12 -68 -2 -27 -8 -54 -13 -59
-12 -13 -38 22 -39 52 0 12 -7 25 -15 28 -22 9 -18 30 11 53 14 11 23 25 19
30 -7 13 12 51 25 51 6 0 10 -9 10 -19z m-84 -172 c8 -13 -15 -30 -36 -26 -8
1 -16 10 -18 20 -3 12 3 17 22 17 14 0 28 -5 32 -11z"/>
</g>
</svg>
