<?xml version="1.0" standalone="no"?>
<!DOCTYPE svg PUBLIC "-//W3C//DTD SVG 20010904//EN"
 "http://www.w3.org/TR/2001/REC-SVG-20010904/DTD/svg10.dtd">
<svg version="1.0" xmlns="http://www.w3.org/2000/svg"
 width="990.000000pt" height="622.000000pt" viewBox="0 0 990.000000 622.000000"
 preserveAspectRatio="xMidYMid meet">
<metadata>
Created by potrace 1.14, written by Peter Selinger 2001-2017
</metadata>
<g transform="translate(0.000000,622.000000) scale(0.100000,-0.100000)"
fill="#000000" stroke="none">
<path d="M5750 5811 c0 -5 -39 -12 -87 -16 -49 -4 -110 -15 -138 -24 -27 -10
-88 -24 -135 -31 -114 -17 -175 -42 -235 -98 -108 -100 -115 -105 -243 -172
-40 -21 -75 -48 -87 -66 -23 -36 -98 -87 -152 -104 -21 -7 -51 -25 -68 -40
-16 -15 -43 -31 -60 -34 -36 -9 -95 -47 -95 -62 0 -6 -11 -17 -24 -24 -19 -10
-26 -22 -28 -54 -2 -31 -9 -44 -29 -55 -24 -13 -29 -13 -53 7 -58 45 -84 -5
-55 -105 23 -83 23 -83 0 -83 -24 0 -48 33 -89 124 l-32 69 -68 -6 c-85 -8
-161 -17 -188 -23 -16 -3 -27 -18 -39 -53 -28 -77 -75 -135 -125 -151 -72 -24
-105 -97 -85 -185 18 -76 28 -85 88 -85 47 0 53 -3 102 -52 l53 -53 7 -101 c4
-56 4 -111 0 -122 -4 -14 1 -28 14 -41 21 -21 19 -52 -5 -72 -20 -16 -17 -46
5 -52 10 -2 27 -21 36 -41 12 -24 30 -42 51 -51 19 -8 34 -19 34 -24 0 -7 24
-11 56 -11 51 0 61 -4 95 -35 23 -21 45 -32 54 -29 8 4 26 4 39 0 21 -5 23
-11 24 -68 1 -62 0 -64 -41 -104 -68 -64 -147 -80 -147 -28 0 8 -9 14 -19 14
-22 0 -41 -42 -22 -48 16 -5 14 -34 -9 -87 -11 -26 -20 -55 -20 -65 0 -10 -10
-22 -21 -25 -16 -5 -27 0 -43 20 -21 27 -24 27 -61 15 -35 -11 -40 -11 -52 6
-12 17 -11 21 11 40 13 12 31 24 38 27 9 4 5 12 -14 27 -25 20 -28 28 -28 84
0 50 -4 65 -21 79 -13 12 -18 24 -14 38 4 11 1 26 -5 34 -14 17 -15 138 -1
143 6 2 11 10 11 17 0 7 4 15 9 17 18 6 0 58 -20 58 -11 0 -19 -6 -19 -14 0
-7 -13 -19 -30 -26 -27 -11 -30 -17 -30 -56 0 -24 5 -44 10 -44 15 0 12 -40
-5 -57 -12 -12 -19 -13 -30 -3 -12 10 -20 9 -40 -4 -13 -9 -36 -16 -50 -16
-31 0 -59 -14 -92 -45 l-24 -21 21 -19 c26 -24 26 -62 0 -70 -11 -3 -20 -13
-20 -21 0 -15 -71 -64 -94 -64 -7 0 -17 12 -20 26 -7 25 -10 26 -54 21 -43 -5
-49 -2 -74 26 -17 18 -28 42 -28 59 0 28 -1 28 -42 21 -24 -4 -56 -7 -73 -8
-33 0 -32 -5 -19 100 l6 50 -22 -20 c-13 -11 -38 -43 -56 -71 -25 -39 -41 -53
-73 -62 -41 -13 -71 -43 -71 -73 0 -22 -61 -68 -102 -76 -18 -3 -42 -14 -53
-24 -11 -10 -37 -25 -58 -34 -21 -9 -40 -22 -44 -31 -3 -8 -31 -27 -62 -43
-46 -22 -72 -28 -141 -30 -55 -2 -90 -8 -101 -17 -13 -12 -18 -11 -32 4 -14
13 -39 18 -110 20 -60 3 -97 9 -107 18 -24 21 -89 41 -160 49 -36 4 -80 13
-99 21 -18 8 -44 11 -57 8 -16 -4 -31 -1 -42 9 -9 8 -27 18 -39 21 -13 4 -23
11 -23 16 0 5 -9 14 -19 20 -15 7 -27 6 -49 -7 -27 -16 -31 -16 -64 0 -42 20
-105 13 -113 -13 -3 -9 -29 -29 -58 -44 -28 -15 -68 -35 -87 -46 -30 -16 -59
-20 -191 -22 -148 -3 -159 -2 -187 19 -26 19 -34 20 -55 10 -14 -7 -28 -20
-31 -30 -2 -10 -14 -21 -25 -24 -12 -3 -21 -13 -21 -22 0 -10 -8 -26 -19 -37
-10 -12 -21 -44 -25 -76 -6 -46 -4 -63 13 -94 12 -23 21 -57 21 -84 0 -65 19
-220 32 -255 17 -50 68 -154 78 -160 6 -4 10 -16 10 -27 0 -12 17 -38 38 -58
34 -31 40 -44 45 -96 39 -341 81 -437 215 -488 104 -39 168 -50 213 -37 22 7
39 16 39 21 0 6 15 10 34 10 19 0 37 4 40 8 5 9 237 17 426 16 92 -1 97 -2
162 -40 37 -21 68 -45 68 -52 0 -7 6 -15 13 -17 6 -3 13 -24 14 -48 3 -78 37
-145 122 -239 14 -16 35 -28 48 -28 13 0 23 -4 23 -10 0 -5 7 -10 15 -10 24 0
105 -54 111 -74 4 -11 15 -29 26 -40 12 -13 17 -29 13 -43 -3 -12 0 -25 5 -28
6 -4 8 -10 5 -15 -3 -4 10 -37 28 -72 18 -34 42 -92 54 -128 12 -36 34 -98 48
-138 14 -41 25 -95 25 -121 0 -52 14 -77 72 -133 72 -69 239 -128 372 -130
108 -2 136 17 229 158 45 68 58 81 97 95 25 9 56 20 70 26 48 20 89 24 111 13
12 -7 55 -12 95 -11 62 1 77 -2 94 -19 22 -22 40 -26 40 -10 0 31 81 -10 153
-78 26 -26 37 -45 37 -65 0 -30 41 -87 128 -174 28 -29 42 -52 42 -70 0 -35
56 -149 83 -168 24 -17 83 -20 92 -5 11 18 51 11 108 -20 31 -16 63 -30 70
-30 7 0 23 13 35 30 26 35 77 64 99 56 8 -4 13 -16 11 -30 -5 -37 33 -63 100
-70 112 -13 138 -10 183 16 24 14 71 31 104 38 32 7 68 18 80 25 11 8 67 29
125 49 136 45 168 56 207 73 58 25 160 53 206 57 25 3 69 16 99 29 29 14 64
28 78 32 14 4 36 15 50 25 25 16 43 25 190 93 41 19 96 53 122 76 25 22 50 41
55 41 4 0 32 25 62 55 34 35 68 59 90 65 37 10 114 55 150 87 11 10 30 26 43
35 13 9 39 30 58 45 19 15 41 32 48 38 7 5 18 16 25 23 7 7 49 52 95 99 45 48
82 92 82 98 0 5 10 21 23 35 12 14 34 43 49 65 14 22 52 68 85 102 58 61 100
82 163 83 14 0 34 7 44 15 11 8 30 15 43 15 19 0 23 5 23 29 0 40 21 54 88 56
44 1 73 10 128 38 39 20 76 37 82 37 7 0 12 5 12 10 0 6 16 18 35 27 19 9 35
20 35 23 0 4 13 21 30 38 16 17 32 44 36 59 4 15 17 38 30 51 13 13 24 33 24
46 0 13 7 29 15 36 8 7 15 18 15 24 0 6 9 17 20 23 10 7 22 29 26 50 4 21 21
67 39 103 120 242 125 254 125 323 0 36 4 69 10 72 9 6 60 108 94 190 10 22
19 76 22 120 7 124 15 337 15 365 0 14 -1 70 -1 125 0 74 -5 113 -19 150 -11
28 -22 63 -26 79 -3 16 -18 41 -33 56 -36 36 -70 113 -76 175 -5 53 -44 180
-78 255 -39 87 -46 105 -57 140 -6 19 -13 46 -15 60 -10 50 -83 146 -162 213
-101 85 -137 117 -210 184 -32 30 -72 63 -88 73 -16 10 -68 56 -115 103 -82
80 -134 117 -164 117 -8 0 -23 11 -33 25 -10 14 -23 25 -29 25 -5 0 -21 9 -35
20 -14 11 -38 20 -55 20 -44 0 -109 23 -210 73 -49 25 -99 48 -110 51 -11 3
-33 18 -50 32 -16 14 -53 37 -80 50 -28 14 -70 43 -94 64 -25 22 -49 40 -55
40 -6 0 -42 20 -79 44 -38 24 -84 47 -104 51 -19 3 -56 19 -81 34 -35 21 -65
30 -119 35 -40 3 -101 13 -135 22 -35 9 -91 20 -125 25 -35 4 -72 13 -82 19
-24 12 -31 13 -31 1z m-1145 -803 c-9 -44 -77 -108 -114 -108 -15 0 -13 40 4
70 16 29 72 69 98 69 16 1 18 -4 12 -31z m-395 -428 c25 -25 25 -24 -5 -104
-14 -37 -25 -78 -25 -93 0 -15 -10 -37 -22 -50 -20 -22 -22 -22 -40 -6 -16 14
-25 15 -61 6 -53 -14 -73 -4 -87 45 -15 56 -14 58 48 121 95 98 152 121 192
81z m-67 -365 c14 -10 17 -20 12 -37 -18 -58 -68 -77 -85 -32 -13 34 -13 36 8
62 20 25 39 27 65 7z m391 -51 c9 -24 7 -34 -8 -34 -18 0 -39 27 -31 40 9 15
32 12 39 -6z m-144 -18 c0 -8 5 -16 12 -18 21 -7 -2 -28 -31 -28 -15 0 -36 -7
-47 -15 -26 -20 -34 -19 -34 5 0 13 10 24 25 30 14 5 28 17 31 25 8 19 44 20
44 1z m-244 -114 c-4 -3 -11 -1 -17 5 -8 8 -7 17 3 32 13 22 13 22 16 -5 2
-14 1 -28 -2 -32z m-106 8 c0 -14 -12 -12 -38 6 -33 23 -27 37 8 19 17 -9 30
-20 30 -25z m295 -5 c0 -5 -10 -11 -22 -13 -16 -2 -23 2 -23 13 0 11 7 15 23
13 12 -2 22 -7 22 -13z m-150 -5 c3 -5 1 -10 -4 -10 -6 0 -11 5 -11 10 0 6 2
10 4 10 3 0 8 -4 11 -10z m459 -536 c33 9 58 -12 52 -42 -12 -54 22 -71 129
-65 66 5 84 3 97 -11 9 -9 23 -16 31 -16 29 0 47 -12 47 -33 0 -33 -23 -137
-31 -137 -3 0 -16 -23 -28 -50 -16 -38 -19 -55 -11 -69 5 -11 10 -47 10 -80 0
-33 4 -62 9 -65 4 -3 11 -24 15 -47 4 -23 13 -54 22 -70 8 -16 21 -67 29 -114
17 -94 10 -125 -26 -125 -11 0 -39 -9 -61 -20 -46 -22 -68 -25 -68 -10 0 15
-26 12 -39 -4 -24 -28 -49 -113 -39 -130 13 -23 13 -138 0 -162 -6 -10 -13
-30 -17 -44 -6 -27 -79 -86 -119 -96 -13 -3 -34 -17 -47 -30 -12 -13 -33 -24
-45 -24 -13 0 -25 -4 -28 -8 -3 -5 -18 -7 -34 -4 -22 3 -34 -2 -48 -20 -10
-13 -33 -33 -51 -43 -29 -17 -34 -17 -50 -3 -10 8 -24 17 -32 20 -7 2 -19 19
-25 37 -6 19 -19 39 -29 45 -15 9 -22 6 -41 -17 -19 -24 -29 -28 -62 -25 -38
3 -39 4 -36 40 3 37 3 37 -30 32 -26 -5 -42 1 -76 26 -32 23 -42 36 -37 48 4
9 9 40 12 67 5 47 3 55 -33 103 -22 29 -47 52 -56 52 -10 0 -18 7 -18 15 0 8
5 15 10 15 6 0 10 9 10 20 0 11 -5 20 -11 20 -8 0 -9 13 -5 39 4 28 2 42 -10
51 -11 10 -12 15 -3 21 7 4 9 14 4 25 -4 11 -9 14 -12 7 -3 -8 -11 -7 -31 3
-15 8 -32 14 -39 14 -23 0 -33 35 -18 57 12 18 20 20 50 13 38 -9 50 0 40 29
-5 17 11 70 26 81 4 3 11 22 17 42 6 21 31 69 56 107 45 67 56 107 36 127 -14
14 153 186 208 213 23 12 66 39 94 61 36 27 66 41 99 45 48 7 89 34 89 60 0
26 49 43 94 33 22 -5 49 -7 60 -4z m-940 -563 c-10 -10 -22 -17 -26 -14 -11 6
14 32 31 33 11 0 9 -5 -5 -19z m68 -30 c-8 -4 -10 -15 -6 -26 5 -13 3 -16 -7
-13 -16 5 -25 58 -10 58 6 0 11 8 12 18 0 13 3 12 12 -6 8 -18 8 -25 -1 -31z
m-173 28 c17 -11 17 -13 2 -28 -15 -15 -17 -14 -28 8 -7 13 -13 25 -13 27 0 8
21 4 39 -7z m281 -25 c0 -26 -20 -54 -38 -54 -10 0 -25 9 -35 20 -24 28 -21
35 7 17 25 -16 46 -7 46 20 0 7 5 13 10 13 6 0 10 -7 10 -16z m-190 -33 c0
-23 -25 -46 -35 -32 -7 13 12 51 25 51 6 0 10 -8 10 -19z m14 -68 c-4 -10 -10
-42 -13 -72 -3 -30 -11 -56 -17 -58 -11 -4 -34 38 -34 63 0 8 -7 17 -15 20
-38 15 3 64 53 64 29 0 33 -3 26 -17z m62 -68 c13 -13 13 -15 1 -15 -8 0 -17
7 -21 15 -3 8 -3 15 0 15 3 0 12 -7 20 -15z m-159 -41 c6 -17 -27 -26 -43 -13
-8 6 -14 16 -14 21 0 13 53 6 57 -8z"/>
</g>
</svg>
