<?xml version="1.0" standalone="no"?>
<!DOCTYPE svg PUBLIC "-//W3C//DTD SVG 20010904//EN"
 "http://www.w3.org/TR/2001/REC-SVG-20010904/DTD/svg10.dtd">
<svg version="1.0" xmlns="http://www.w3.org/2000/svg"
 width="990.000000pt" height="622.000000pt" viewBox="0 0 990.000000 622.000000"
 preserveAspectRatio="xMidYMid meet">
<metadata>
Created by potrace 1.14, written by Peter Selinger 2001-2017
</metadata>
<g transform="translate(0.000000,622.000000) scale(0.100000,-0.100000)"
fill="#000000" stroke="none">
<path d="M5752 5828 c-6 -6 -28 -12 -49 -14 -88 -5 -169 -17 -181 -27 -13 -10
-63 -22 -162 -36 -112 -17 -154 -39 -240 -124 -36 -35 -85 -77 -110 -92 -25
-15 -47 -31 -50 -35 -3 -4 -26 -15 -53 -25 -44 -17 -107 -73 -107 -95 0 -6 -7
-10 -15 -10 -8 0 -15 -4 -15 -9 0 -5 -11 -12 -25 -15 -14 -4 -25 -10 -25 -15
0 -5 -21 -14 -47 -21 -29 -8 -57 -25 -72 -42 -15 -18 -38 -30 -62 -34 -23 -4
-52 -20 -75 -40 -20 -19 -47 -37 -59 -40 -12 -3 -28 -16 -35 -29 -11 -20 -24
-26 -71 -31 -35 -4 -60 -12 -63 -20 -7 -18 -37 -18 -62 1 -15 12 -42 14 -134
9 -211 -9 -230 -16 -230 -80 0 -51 -28 -129 -55 -154 -15 -14 -42 -24 -70 -27
-28 -4 -49 -12 -54 -22 -15 -30 -21 -128 -10 -187 17 -99 15 -96 67 -94 26 2
55 2 65 1 21 -1 97 -115 97 -146 0 -12 7 -43 16 -69 14 -39 15 -55 5 -85 -10
-32 -9 -38 9 -53 11 -9 20 -22 20 -30 -1 -24 -48 -68 -73 -68 -14 0 -40 -15
-63 -36 -43 -41 -51 -88 -21 -122 9 -10 17 -26 17 -34 0 -18 -41 -32 -50 -18
-3 5 -20 1 -38 -10 -18 -11 -47 -20 -66 -20 -20 0 -40 -8 -51 -20 -10 -11 -26
-22 -36 -25 -27 -9 -24 -30 6 -43 34 -16 31 -35 -12 -83 -64 -68 -106 -81
-115 -34 -3 18 -10 20 -61 17 -33 -1 -57 2 -57 8 0 5 -9 19 -20 30 -11 11 -20
33 -20 51 0 26 -3 30 -17 24 -49 -18 -133 -25 -133 -10 0 1 7 19 15 38 27 66
12 135 -20 91 -7 -11 -25 -32 -39 -49 -14 -16 -26 -38 -26 -48 0 -11 -18 -25
-54 -41 -55 -24 -88 -58 -80 -81 8 -19 -65 -65 -102 -65 -17 0 -38 -7 -45 -16
-8 -9 -34 -25 -59 -36 -25 -11 -49 -26 -53 -34 -5 -8 -38 -28 -73 -44 -54 -25
-77 -30 -142 -30 -46 0 -83 -5 -90 -12 -8 -8 -15 -8 -24 0 -8 6 -56 14 -107
18 -51 4 -98 12 -104 18 -27 25 -86 45 -147 52 -36 3 -85 13 -109 21 -24 8
-55 13 -69 10 -42 -8 -132 49 -116 74 4 6 -14 -1 -40 -16 -45 -26 -47 -27 -81
-11 -42 20 -102 13 -110 -13 -3 -10 -24 -25 -48 -35 -23 -10 -58 -30 -77 -44
-32 -24 -45 -27 -186 -35 -131 -7 -156 -6 -183 8 -17 8 -31 20 -31 25 0 11
-30 13 -55 4 -8 -4 -22 -19 -31 -35 -8 -16 -21 -29 -29 -29 -8 0 -15 -6 -15
-14 0 -8 -11 -28 -25 -44 -14 -17 -25 -34 -24 -39 1 -4 -1 -25 -6 -46 -6 -32
-4 -44 14 -68 17 -23 23 -52 31 -146 11 -136 14 -159 24 -193 13 -40 75 -168
86 -175 6 -3 10 -16 10 -28 0 -21 52 -87 68 -87 5 0 16 -67 25 -148 24 -197
59 -303 119 -360 49 -45 236 -102 290 -89 15 4 33 14 42 22 8 8 28 15 45 15
16 0 32 4 35 8 5 9 247 17 431 16 86 -1 93 -3 157 -40 37 -21 68 -44 68 -49 0
-6 5 -16 11 -22 7 -7 13 -31 15 -55 5 -57 27 -110 67 -161 57 -76 80 -97 104
-97 13 0 23 -4 23 -10 0 -5 9 -10 19 -10 11 0 23 -4 26 -10 3 -5 21 -17 40
-26 19 -9 37 -25 41 -37 3 -11 15 -30 26 -41 12 -13 17 -29 13 -43 -3 -12 -1
-24 5 -28 5 -3 7 -12 3 -21 -3 -8 1 -22 9 -32 20 -23 50 -92 82 -187 15 -44
31 -89 36 -100 19 -43 29 -92 28 -133 -1 -74 71 -155 182 -204 86 -38 231 -70
288 -64 92 11 119 32 205 162 50 76 55 80 117 102 118 42 119 42 174 28 28 -7
66 -11 83 -9 42 7 74 -2 103 -27 22 -19 24 -19 36 -2 12 16 15 16 50 -3 21
-11 59 -40 86 -63 37 -34 48 -51 48 -74 0 -33 29 -73 119 -166 36 -38 51 -61
51 -80 0 -33 43 -127 73 -159 15 -17 32 -23 64 -23 25 0 43 5 43 11 0 17 68 1
116 -27 54 -32 66 -30 102 12 17 19 37 36 44 38 7 1 19 5 26 9 6 5 17 5 22 2
13 -8 13 -35 0 -35 -18 0 2 -30 33 -49 22 -13 60 -20 121 -24 86 -6 92 -5 136
22 26 16 66 32 91 36 24 4 60 14 79 22 44 20 242 91 295 107 22 7 57 20 79 29
21 9 49 17 61 17 13 0 25 4 27 10 2 5 35 14 74 19 42 5 94 20 124 35 28 14 56
26 61 26 5 0 40 17 77 38 37 21 99 51 137 67 84 35 171 89 188 115 6 11 17 20
22 20 6 0 39 27 74 60 35 33 72 60 83 60 27 0 87 32 139 75 64 52 68 56 129
100 30 21 73 60 95 84 22 25 56 61 76 81 20 19 64 76 98 125 34 50 87 118 119
153 58 64 89 79 174 86 15 1 36 10 46 19 10 9 29 17 41 17 20 0 23 4 18 26 -7
37 15 53 75 52 42 -1 69 7 134 39 101 49 125 66 184 126 31 31 50 61 54 83 4
19 13 34 20 34 8 0 19 15 26 32 22 60 45 100 61 108 9 5 19 29 23 52 4 24 14
53 22 65 12 19 78 143 132 247 8 15 17 58 20 95 3 47 10 71 23 84 11 10 19 24
19 31 0 7 13 37 29 67 44 82 60 151 66 294 3 72 8 148 10 170 2 22 4 113 4
203 1 140 -2 169 -18 200 -10 20 -21 54 -25 74 -4 21 -20 51 -38 70 -43 44
-80 115 -73 137 5 17 -5 62 -39 176 -13 42 -36 97 -67 156 -27 54 -49 120 -49
152 0 34 -47 105 -110 167 -46 46 -54 53 -125 105 -43 32 -174 142 -190 160
-5 6 -28 23 -50 38 -22 15 -81 67 -130 117 -50 49 -106 96 -126 104 -20 8 -42
22 -49 31 -24 28 -103 62 -162 69 -50 5 -170 52 -260 101 -14 8 -31 15 -38 15
-6 0 -28 13 -48 29 -20 16 -57 39 -82 52 -25 13 -61 38 -80 56 -19 17 -51 39
-71 47 -20 8 -55 31 -78 50 -24 20 -49 36 -57 36 -18 0 -124 47 -144 64 -8 8
-51 17 -95 21 -44 3 -114 15 -157 26 -42 10 -96 19 -120 19 -24 0 -53 7 -64
15 -16 10 -24 11 -32 3z m-1152 -824 c0 -28 -46 -78 -80 -87 -47 -12 -32 43
23 83 50 37 57 37 57 4z m-402 -430 c25 -18 27 -34 9 -77 -26 -61 -37 -105
-31 -121 4 -11 -2 -26 -17 -42 l-23 -25 -17 22 c-16 21 -19 22 -63 9 -43 -12
-48 -11 -61 6 -20 26 -18 43 6 84 28 47 140 159 159 160 9 0 26 -7 38 -16z
m-55 -358 c33 -26 -7 -102 -50 -94 -23 4 -28 41 -13 79 13 31 35 36 63 15z
m391 -52 c9 -24 7 -34 -8 -34 -18 0 -39 27 -31 40 9 15 32 12 39 -6z m-144
-18 c0 -8 5 -16 12 -18 21 -7 -2 -28 -31 -28 -15 0 -36 -7 -47 -15 -26 -20
-34 -19 -34 5 0 13 10 24 25 30 14 5 28 17 31 25 8 19 44 20 44 1z m-244 -114
c-4 -3 -11 -1 -17 5 -8 8 -7 17 3 32 13 22 13 22 16 -5 2 -14 1 -28 -2 -32z
m-132 28 c14 -5 26 -14 26 -20 0 -16 -15 -12 -41 10 -27 22 -22 25 15 10z
m-118 -10 c8 0 20 -12 27 -27 15 -36 35 -56 70 -71 15 -6 27 -16 27 -22 0 -6
25 -10 56 -10 51 0 61 -4 96 -35 27 -25 45 -34 59 -30 43 14 56 -1 57 -68 1
-60 0 -63 -41 -102 -50 -46 -102 -68 -129 -54 -10 5 -18 17 -18 25 0 25 -44
13 -48 -13 -2 -13 2 -23 8 -23 15 0 9 -37 -18 -110 -27 -73 -45 -84 -75 -46
-22 27 -26 28 -56 18 -38 -13 -61 -6 -61 19 0 19 38 51 52 43 21 -13 5 26 -17
40 -22 15 -25 23 -25 79 0 50 -4 66 -20 80 -15 12 -18 24 -14 47 4 19 2 30 -5
30 -19 0 -13 102 9 145 11 22 20 52 20 68 0 22 4 28 16 23 9 -3 22 -6 30 -6z
m439 -15 c0 -5 -10 -11 -22 -13 -16 -2 -23 2 -23 13 0 11 7 15 23 13 12 -2 22
-7 22 -13z m-150 -5 c3 -5 1 -10 -4 -10 -6 0 -11 5 -11 10 0 6 2 10 4 10 3 0
8 -4 11 -10z m459 -536 c33 9 58 -12 52 -42 -12 -54 22 -71 129 -65 66 5 84 3
97 -11 9 -9 23 -16 31 -16 29 0 47 -12 47 -33 0 -32 -23 -137 -30 -137 -4 0
-17 -23 -30 -51 -20 -41 -22 -54 -12 -70 7 -10 12 -46 12 -78 0 -33 4 -62 9
-65 4 -3 11 -24 15 -47 4 -23 13 -54 21 -70 19 -35 45 -181 38 -208 -3 -13
-22 -25 -59 -37 -30 -9 -57 -21 -60 -25 -7 -12 -44 -11 -44 1 0 15 -26 12 -39
-4 -22 -26 -49 -113 -40 -127 12 -19 11 -145 0 -167 -6 -9 -12 -28 -16 -42 -6
-27 -79 -86 -119 -96 -13 -3 -34 -16 -46 -30 -17 -17 -38 -25 -82 -30 -43 -5
-63 -12 -76 -28 -26 -34 -81 -63 -90 -49 -4 6 -20 16 -35 22 -16 6 -27 18 -27
30 0 10 -9 29 -19 42 -17 22 -21 22 -45 10 -14 -8 -26 -21 -26 -28 0 -10 -11
-13 -42 -11 l-43 3 3 37 c3 37 3 38 -27 32 -21 -5 -40 0 -65 16 -46 28 -56 46
-45 84 17 59 11 93 -28 145 -21 28 -46 51 -55 51 -10 0 -18 7 -18 15 0 8 5 15
10 15 6 0 10 9 10 20 0 11 -4 20 -10 20 -5 0 -9 19 -9 43 1 57 -4 97 -13 98
-4 1 -27 7 -50 14 -38 11 -43 16 -43 41 0 28 2 29 45 30 40 1 45 3 47 25 0 13
1 27 2 32 1 4 1 9 1 12 0 3 9 22 20 42 11 21 20 44 20 51 0 8 25 51 55 97 59
89 63 100 40 125 -13 14 -6 25 73 107 49 51 109 102 137 117 28 14 71 41 96
60 26 19 64 37 89 41 53 9 90 31 90 54 0 30 47 49 94 39 22 -5 49 -7 60 -4z
m-940 -563 c-10 -10 -23 -16 -27 -14 -5 3 0 11 10 19 27 20 39 17 17 -5z
m-108 -18 c-3 -8 -6 -17 -6 -21 0 -3 -6 3 -14 13 -17 23 -12 37 10 28 8 -3 13
-12 10 -20z m173 -9 c-5 -6 -6 -19 -3 -29 5 -13 3 -16 -7 -13 -19 6 -23 44 -7
62 16 17 32 -2 17 -20z m100 -30 c-15 -29 -39 -31 -62 -4 -24 29 -21 35 9 15
14 -9 27 -15 29 -13 1 2 8 14 15 28 9 16 15 20 18 11 2 -7 -1 -24 -9 -37z
m-179 -3 c0 -20 -25 -47 -33 -34 -7 12 11 53 23 53 5 0 10 -8 10 -19z m10 -77
c-6 -14 -10 -42 -10 -63 0 -21 -6 -44 -14 -50 -12 -10 -17 -5 -27 29 -7 23
-19 44 -26 47 -36 14 10 63 59 63 25 0 27 -2 18 -26z m64 -60 c3 -8 2 -12 -4
-9 -6 3 -10 10 -10 16 0 14 7 11 14 -7z m-157 -40 c6 -17 -27 -26 -43 -13 -8
6 -14 16 -14 21 0 13 53 6 57 -8z"/>
<path d="M3555 4410 l-40 -19 40 3 c22 2 43 4 48 5 4 1 7 8 7 16 0 19 -5 18
-55 -5z"/>
</g>
</svg>
