<?xml version="1.0" standalone="no"?>
<!DOCTYPE svg PUBLIC "-//W3C//DTD SVG 20010904//EN"
 "http://www.w3.org/TR/2001/REC-SVG-20010904/DTD/svg10.dtd">
<svg version="1.0" xmlns="http://www.w3.org/2000/svg"
 width="990.000000pt" height="622.000000pt" viewBox="0 0 990.000000 622.000000"
 preserveAspectRatio="xMidYMid meet">
<metadata>
Created by potrace 1.14, written by Peter Selinger 2001-2017
</metadata>
<g transform="translate(0.000000,622.000000) scale(0.100000,-0.100000)"
fill="#000000" stroke="none">
<path d="M5748 5848 c-2 -6 -22 -13 -44 -14 -57 -3 -163 -23 -209 -39 -22 -8
-81 -21 -131 -29 -127 -21 -163 -40 -260 -140 -46 -47 -90 -86 -98 -86 -7 0
-25 -9 -40 -21 -15 -11 -54 -34 -87 -51 -37 -18 -64 -39 -69 -53 -10 -26 -120
-95 -152 -95 -11 0 -35 -15 -54 -34 -19 -19 -53 -39 -79 -46 -25 -7 -45 -16
-45 -21 0 -4 -10 -11 -22 -15 -12 -3 -28 -13 -36 -20 -7 -8 -22 -14 -32 -14
-10 0 -22 -4 -25 -10 -3 -5 -30 -10 -60 -10 -30 0 -57 -4 -60 -10 -8 -13 -56
-13 -88 -1 -17 7 -40 4 -81 -10 -52 -17 -67 -17 -157 -7 -94 11 -101 11 -127
-9 -28 -21 -29 -30 -17 -118 12 -82 -39 -171 -83 -146 -15 8 -75 -8 -92 -25
-6 -6 -6 -22 0 -44 7 -23 6 -46 -1 -70 -8 -27 -8 -43 0 -58 6 -11 14 -52 17
-91 l7 -72 -51 -49 c-36 -35 -47 -50 -34 -50 9 0 27 -3 39 -6 27 -7 63 27 63
60 0 17 11 29 43 46 24 13 51 21 59 17 16 -5 68 -108 68 -132 0 -6 12 -34 26
-61 25 -48 27 -74 9 -131 -6 -17 -3 -23 8 -23 24 0 31 -19 16 -46 -9 -17 -21
-24 -41 -24 -21 0 -41 -12 -73 -46 -54 -55 -61 -98 -20 -128 31 -23 32 -42 4
-57 -13 -7 -19 -7 -15 -1 13 21 -15 23 -43 3 -15 -11 -48 -23 -72 -27 -24 -4
-53 -14 -64 -24 -11 -9 -28 -20 -37 -23 -26 -9 -22 -36 7 -47 45 -17 41 -37
-16 -90 -59 -56 -89 -62 -99 -20 -5 22 -11 25 -40 22 -19 -2 -43 -5 -52 -8
-12 -4 -18 0 -18 10 0 9 -6 16 -13 16 -17 0 -37 42 -37 76 0 21 -3 23 -19 14
-11 -5 -32 -10 -46 -10 -14 0 -35 -5 -45 -10 -28 -15 -33 3 -15 57 16 48 13
113 -5 113 -16 0 -90 -105 -90 -127 0 -19 -50 -53 -78 -53 -19 0 -62 -53 -62
-76 0 -13 -4 -24 -8 -24 -5 0 -19 -9 -32 -20 -14 -12 -37 -20 -60 -20 -22 0
-48 -8 -63 -20 -14 -11 -32 -20 -40 -20 -8 0 -31 -13 -52 -30 -20 -16 -63 -42
-94 -57 -52 -25 -65 -27 -181 -28 -186 0 -230 7 -286 46 -42 28 -60 34 -129
40 -44 3 -95 12 -113 19 -18 7 -46 10 -62 7 -29 -6 -90 17 -90 34 0 5 -7 9
-16 9 -14 0 -14 3 -4 15 19 22 -2 19 -55 -10 -44 -23 -48 -23 -71 -9 -30 20
-92 11 -112 -17 -7 -10 -29 -26 -50 -35 -20 -10 -52 -28 -71 -42 -31 -23 -47
-26 -188 -35 l-155 -9 -39 32 c-50 40 -92 36 -108 -11 -7 -20 -17 -29 -32 -29
-16 0 -20 -5 -16 -20 3 -12 -4 -28 -21 -45 -24 -25 -34 -60 -33 -119 0 -16 4
-32 8 -35 28 -21 35 -48 40 -148 2 -59 9 -115 13 -124 5 -9 7 -19 4 -21 -11
-12 75 -220 97 -233 5 -4 9 -15 9 -26 0 -17 44 -71 67 -80 5 -2 16 -69 26
-149 21 -169 38 -235 79 -307 32 -58 64 -80 158 -113 97 -33 174 -38 208 -13
45 33 112 40 457 45 l150 2 66 -39 c63 -38 98 -82 85 -104 -4 -5 -2 -12 4 -16
5 -3 10 -17 10 -29 0 -13 7 -40 15 -61 23 -53 117 -175 136 -175 41 0 173 -85
165 -106 -3 -8 0 -14 7 -14 18 0 39 -38 32 -60 -3 -10 -1 -21 4 -24 6 -4 8
-13 4 -22 -3 -8 1 -22 9 -32 17 -19 58 -103 58 -117 0 -8 37 -115 60 -170 20
-51 32 -105 27 -124 -10 -39 15 -91 67 -138 66 -59 119 -85 246 -118 178 -46
278 -16 338 101 51 98 72 117 173 151 90 31 96 31 146 18 28 -7 61 -11 72 -8
33 9 89 -6 111 -29 20 -21 20 -21 34 -2 14 19 15 19 49 1 19 -10 57 -39 86
-64 42 -37 51 -50 51 -77 0 -34 48 -99 113 -156 35 -29 57 -70 57 -104 0 -25
63 -145 83 -158 19 -12 97 -9 97 3 0 17 70 2 102 -22 51 -36 76 -41 96 -18 9
12 28 32 42 46 l25 24 22 -28 c54 -68 60 -71 149 -78 100 -9 130 -4 177 28 20
13 59 27 88 31 28 4 70 16 92 27 21 11 65 29 96 39 31 11 128 45 216 76 88 31
187 59 220 64 57 7 137 37 215 80 19 11 78 40 130 65 174 83 192 95 312 208
34 32 73 60 87 64 34 8 118 50 126 62 3 6 25 23 48 39 23 16 69 47 103 71 70
48 204 192 259 278 57 87 56 86 114 154 64 76 87 89 154 89 37 0 56 5 72 20
12 11 36 22 52 23 18 1 28 6 25 12 -4 6 -8 20 -10 33 -3 27 27 41 78 35 35 -5
141 35 155 57 3 6 15 10 25 10 10 0 32 11 48 25 17 14 34 25 38 25 5 0 30 23
56 51 34 37 48 60 48 80 0 22 5 29 19 29 14 0 21 10 26 36 7 41 28 78 61 110
13 13 25 40 29 67 4 26 13 52 21 58 8 6 14 17 14 24 0 6 9 20 20 30 11 10 20
25 20 34 0 9 7 26 15 37 39 57 76 139 91 200 8 38 22 76 30 85 8 8 14 20 14
26 0 6 15 40 33 75 48 93 55 123 68 337 6 107 15 207 19 221 4 15 3 51 -2 80
-6 35 -6 79 1 129 9 67 8 79 -8 106 -11 16 -26 55 -34 85 -11 37 -29 68 -55
95 -52 55 -60 72 -55 115 3 22 1 40 -6 44 -6 4 -11 19 -11 34 -1 15 -7 38 -15
52 -8 14 -14 38 -15 54 0 17 -12 42 -31 63 -16 19 -28 42 -27 51 2 10 -7 34
-20 56 -14 22 -28 66 -33 104 -14 97 -82 188 -199 266 -36 24 -113 83 -171
133 -59 49 -122 99 -141 111 -20 12 -76 65 -126 117 -49 52 -96 95 -104 95 -8
0 -23 10 -34 21 -28 31 -118 68 -198 81 -39 6 -80 17 -91 25 -11 7 -27 13 -37
13 -10 0 -41 13 -71 29 -29 16 -67 32 -84 35 -17 4 -37 14 -44 22 -6 8 -39 31
-73 51 -33 20 -80 53 -104 74 -23 20 -54 40 -69 44 -14 3 -45 23 -69 43 -23
20 -69 48 -101 61 -32 13 -71 34 -88 46 -23 17 -51 24 -119 29 -49 4 -110 14
-135 23 -25 9 -77 17 -116 17 -52 1 -75 6 -89 19 -23 20 -33 21 -38 5z m-1153
-848 c9 -15 -50 -70 -75 -70 -24 0 -20 12 19 51 28 29 46 35 56 19z m-404
-439 l24 -19 -23 -65 c-12 -35 -22 -80 -22 -99 0 -35 -14 -58 -37 -58 -7 0
-13 7 -13 16 0 13 -10 15 -57 12 -57 -3 -58 -2 -61 25 -2 15 1 27 6 27 6 0 15
13 20 29 6 16 31 44 56 63 25 18 45 40 46 49 0 15 19 39 31 39 4 0 17 -9 30
-19z m-51 -349 c21 -17 22 -21 9 -47 -17 -34 -41 -50 -63 -42 -21 8 -21 50 0
82 19 30 25 30 54 7z m394 -48 c14 -36 3 -44 -29 -21 -10 8 -15 19 -11 25 10
17 33 15 40 -4z m-144 -18 c0 -8 5 -16 12 -18 21 -7 -2 -28 -31 -28 -15 0 -36
-7 -47 -15 -26 -20 -34 -19 -34 5 0 13 10 24 25 30 14 5 28 17 31 25 8 19 44
20 44 1z m-244 -113 c-2 -3 -9 -2 -15 1 -7 5 -6 16 2 34 l12 27 3 -29 c2 -15
1 -30 -2 -33z m-132 27 c14 -5 26 -14 26 -20 0 -16 -15 -12 -41 10 -27 22 -22
25 15 10z m-87 -47 c12 -25 31 -44 56 -56 20 -9 37 -22 37 -27 0 -6 25 -10 56
-10 51 0 61 -4 95 -35 31 -28 44 -33 67 -29 31 6 66 -21 44 -35 -7 -4 -8 -12
-2 -21 17 -27 11 -76 -12 -96 -14 -13 -19 -14 -14 -4 4 8 -2 4 -13 -10 -11
-14 -21 -28 -21 -31 0 -4 -20 -13 -45 -22 -40 -13 -48 -13 -60 0 -8 8 -15 19
-15 24 0 15 -40 10 -47 -7 -3 -8 0 -26 7 -39 11 -20 9 -32 -8 -77 -11 -29 -23
-61 -26 -71 -10 -31 -36 -32 -61 -1 -21 27 -26 28 -54 18 -40 -15 -72 4 -55
33 6 10 21 19 33 21 28 4 27 28 -4 48 -22 14 -25 23 -25 78 0 49 -4 65 -20 79
-14 12 -18 24 -14 46 4 16 1 31 -5 35 -18 11 -13 94 9 138 11 23 20 50 20 59
0 16 15 25 47 28 7 0 21 -16 30 -36z m408 22 c0 -5 -10 -11 -22 -13 -16 -2
-23 2 -23 13 0 11 7 15 23 13 12 -2 22 -7 22 -13z m-150 -5 c3 -5 1 -10 -4
-10 -6 0 -11 5 -11 10 0 6 2 10 4 10 3 0 8 -4 11 -10z m459 -536 c11 3 28 0
38 -5 15 -8 17 -17 12 -44 -9 -50 26 -65 132 -58 66 5 83 3 96 -11 9 -9 25
-16 35 -16 34 0 46 -16 40 -51 -16 -98 -20 -119 -27 -119 -3 0 -17 -22 -30
-50 -20 -42 -21 -54 -12 -75 7 -14 12 -50 12 -80 0 -30 5 -57 10 -60 6 -3 10
-17 10 -31 0 -14 9 -46 20 -72 23 -53 50 -195 43 -223 -3 -11 -25 -24 -59 -35
-30 -9 -57 -21 -60 -25 -7 -12 -44 -11 -44 1 0 6 -8 10 -18 10 -28 0 -81 -125
-62 -144 13 -13 13 -127 1 -158 -5 -13 -12 -34 -15 -48 -7 -27 -71 -78 -125
-98 -19 -6 -40 -21 -48 -32 -10 -14 -31 -21 -74 -26 -44 -5 -64 -12 -77 -28
-9 -12 -24 -25 -32 -29 -8 -4 -23 -13 -33 -19 -13 -10 -19 -10 -25 -1 -4 6
-20 16 -35 22 -16 6 -27 18 -27 30 0 10 -8 29 -18 41 -17 21 -21 22 -49 10
-18 -8 -29 -19 -26 -27 4 -9 -6 -13 -35 -13 -48 0 -54 7 -42 49 l9 31 -37 -6
c-37 -5 -53 2 -103 48 -15 14 -17 23 -9 44 22 57 15 96 -26 151 -21 29 -47 53
-56 53 -22 0 -23 13 -3 30 13 11 13 16 -2 40 -14 24 -14 31 -4 44 11 13 11 19
0 32 -7 9 -12 28 -11 43 2 26 -2 28 -50 37 -50 8 -53 11 -53 39 0 27 3 30 38
33 25 2 37 -1 37 -9 0 -32 20 11 24 52 3 24 12 58 20 74 9 17 16 35 16 42 0 7
25 49 55 93 50 74 70 130 45 130 -21 0 -9 24 33 65 23 23 56 58 72 77 17 19
62 54 100 78 39 23 72 45 75 49 18 22 72 50 110 56 53 9 90 31 90 54 0 30 47
49 94 39 22 -5 49 -7 60 -4z m-947 -568 c-8 -8 -17 -12 -21 -9 -3 3 2 12 12
19 22 16 29 9 9 -10z m-101 -13 c-3 -8 -6 -17 -6 -21 0 -3 -6 3 -14 13 -17 23
-12 37 10 28 8 -3 13 -12 10 -20z m173 -9 c-5 -6 -7 -19 -3 -28 3 -9 1 -16 -5
-16 -19 0 -25 30 -11 56 10 17 16 21 21 12 4 -7 4 -18 -2 -24z m111 -6 c-1
-17 -25 -48 -37 -48 -5 0 -20 12 -34 27 l-24 26 25 -16 c31 -22 37 -21 45 3 7
22 25 27 25 8z m-190 -28 c0 -11 -7 -23 -15 -27 -21 -8 -24 -2 -14 25 10 28
29 29 29 2z m14 -61 c-4 -7 -10 -37 -13 -68 -7 -65 -28 -75 -46 -22 -6 19 -17
37 -23 39 -19 6 -14 30 10 46 26 19 83 22 72 5z m-100 -108 c3 -5 -1 -14 -9
-21 -12 -10 -18 -10 -30 0 -8 7 -15 16 -15 21 0 12 47 12 54 0z m1133 -2296
c8 -22 -6 -33 -17 -15 -13 20 -12 30 0 30 6 0 13 -7 17 -15z"/>
<path d="M4160 2098 c0 -9 5 -20 10 -23 13 -8 13 5 0 25 -8 13 -10 13 -10 -2z"/>
</g>
</svg>
