<?xml version="1.0" standalone="no"?>
<!DOCTYPE svg PUBLIC "-//W3C//DTD SVG 20010904//EN"
 "http://www.w3.org/TR/2001/REC-SVG-20010904/DTD/svg10.dtd">
<svg version="1.0" xmlns="http://www.w3.org/2000/svg"
 width="990.000000pt" height="622.000000pt" viewBox="0 0 990.000000 622.000000"
 preserveAspectRatio="xMidYMid meet">
<metadata>
Created by potrace 1.14, written by Peter Selinger 2001-2017
</metadata>
<g transform="translate(0.000000,622.000000) scale(0.100000,-0.100000)"
fill="#000000" stroke="none">
<path d="M5742 5878 c-6 -6 -37 -12 -69 -14 -32 -2 -60 -4 -63 -5 -3 -1 -9 -2
-15 -3 -55 -10 -92 -20 -100 -26 -5 -5 -39 -14 -75 -20 -188 -35 -216 -42
-257 -74 -23 -17 -47 -40 -53 -51 -6 -11 -43 -45 -81 -75 -38 -30 -78 -62 -88
-72 -11 -9 -28 -19 -39 -22 -11 -4 -27 -15 -37 -26 -10 -11 -24 -20 -31 -20
-7 0 -25 -16 -40 -36 -30 -39 -98 -78 -156 -88 -27 -5 -45 -17 -64 -41 -21
-27 -34 -35 -59 -35 -18 0 -53 -12 -79 -26 -42 -23 -60 -27 -176 -30 -86 -3
-130 -1 -130 6 0 18 -36 11 -73 -14 -31 -21 -45 -24 -109 -22 -40 2 -90 7
-110 11 -31 6 -45 3 -81 -18 -42 -25 -45 -30 -52 -82 -5 -43 -3 -61 11 -84 15
-25 15 -32 3 -60 -8 -18 -19 -29 -27 -26 -7 2 -18 -4 -24 -15 -7 -11 -19 -20
-26 -20 -43 0 -101 -80 -81 -111 5 -8 9 -37 9 -65 0 -28 7 -68 15 -88 10 -24
13 -50 9 -74 -9 -52 -54 -130 -79 -136 -19 -5 -19 -7 -3 -22 22 -23 135 -26
147 -4 18 30 56 79 62 80 7 0 39 -73 39 -91 0 -22 24 -81 44 -112 l19 -29 -31
-61 c-17 -34 -33 -72 -37 -85 -4 -12 -18 -30 -31 -39 -35 -23 -55 -67 -52
-115 3 -52 -26 -79 -107 -98 -56 -13 -72 -23 -103 -62 -20 -25 1 -58 38 -58
16 0 31 -4 34 -8 6 -10 -63 -86 -86 -95 -15 -5 -37 9 -36 23 1 3 -2 15 -6 28
-8 24 -27 28 -55 10 -15 -9 -25 -6 -55 17 -24 18 -35 33 -31 44 3 10 -1 25 -7
34 -11 14 -19 15 -48 7 -19 -5 -46 -10 -59 -10 -23 0 -23 1 -8 18 19 21 22 57
7 67 -5 3 -10 22 -10 41 0 21 -6 37 -14 40 -21 8 -54 -12 -62 -38 -4 -13 -17
-37 -30 -54 -13 -17 -24 -42 -24 -56 0 -20 -9 -29 -42 -43 -53 -23 -98 -63
-98 -86 0 -28 -50 -57 -87 -52 -23 4 -47 -4 -90 -27 -32 -17 -65 -37 -73 -44
-8 -7 -46 -28 -84 -46 -78 -37 -155 -49 -290 -44 -96 4 -136 17 -198 67 -31
25 -47 30 -108 33 -43 3 -86 12 -108 23 -32 16 -39 17 -69 5 -29 -13 -33 -12
-33 1 0 8 -9 15 -20 15 -10 0 -24 9 -30 19 -12 24 -43 20 -96 -11 -22 -13 -38
-17 -42 -11 -18 28 -132 12 -132 -18 0 -5 -23 -21 -52 -35 -29 -15 -65 -36
-80 -47 -23 -17 -45 -22 -116 -23 -48 -2 -110 -6 -139 -9 -56 -7 -101 9 -125
44 -10 15 -25 19 -61 19 -28 -1 -47 -6 -46 -12 5 -42 -2 -56 -27 -56 -22 0
-25 -3 -20 -23 4 -18 -1 -29 -24 -45 -29 -22 -31 -32 -31 -121 0 -20 8 -42 21
-56 15 -16 22 -39 25 -81 13 -179 36 -273 94 -381 17 -31 31 -64 31 -74 0 -9
19 -34 42 -55 28 -25 43 -48 44 -64 6 -136 47 -338 84 -410 36 -69 55 -83 160
-120 126 -43 218 -44 234 -4 3 8 19 14 36 14 17 0 39 5 49 12 15 9 28 9 56 1
23 -7 47 -8 67 -2 18 5 108 10 202 11 l171 2 72 -40 c57 -30 73 -44 73 -61 0
-13 5 -23 11 -23 6 0 8 -9 4 -20 -4 -11 -2 -20 4 -20 6 0 11 -15 11 -33 0 -55
117 -228 157 -232 45 -5 167 -79 160 -98 -2 -6 5 -19 16 -27 14 -12 21 -32 24
-71 2 -31 10 -57 18 -61 7 -5 16 -21 20 -37 3 -16 13 -35 21 -42 8 -6 14 -19
14 -29 0 -16 37 -125 60 -175 13 -31 22 -75 24 -132 6 -119 123 -207 344 -258
77 -18 167 -16 213 5 30 14 67 56 126 145 52 79 54 80 143 113 52 18 76 22
120 17 30 -4 83 -7 118 -8 58 -2 66 -5 93 -35 24 -27 29 -29 29 -13 0 11 4 23
10 26 15 10 71 -21 128 -71 42 -36 52 -52 52 -76 0 -35 31 -80 101 -148 52
-50 69 -78 69 -111 0 -24 45 -125 64 -144 32 -33 98 -47 112 -24 11 19 93 4
110 -19 20 -30 71 -38 95 -16 10 9 19 22 19 27 0 12 31 36 47 37 7 0 21 -17
32 -38 11 -21 30 -43 43 -48 13 -6 69 -12 125 -13 97 -2 105 0 136 23 19 15
45 26 58 26 35 0 112 23 194 57 80 34 193 73 280 98 80 23 119 37 126 47 3 4
34 11 69 15 59 6 206 61 220 83 3 4 55 31 115 59 61 29 121 58 135 64 38 18
169 123 202 162 16 19 46 39 66 45 52 16 117 47 133 62 16 15 118 84 163 111
54 32 211 202 257 278 24 41 62 95 85 120 22 25 47 56 56 67 19 28 59 42 119
42 36 0 54 5 69 20 12 12 33 20 54 20 37 0 55 15 39 31 -6 6 -8 21 -5 35 4 23
8 25 44 19 40 -7 118 17 118 37 0 4 8 8 19 8 10 0 24 6 30 14 7 8 25 18 41 21
15 3 36 15 46 26 9 10 22 19 27 19 12 0 107 95 108 109 1 6 3 16 4 21 1 6 3
15 4 20 0 6 8 10 16 10 8 0 15 9 15 20 0 11 4 28 9 38 5 9 16 33 25 52 8 19
23 40 34 47 11 6 22 27 25 47 3 19 11 41 16 48 24 29 63 92 97 161 19 39 40
80 46 91 5 10 17 42 25 70 8 28 22 62 31 76 20 30 60 103 101 185 22 44 31 80
36 134 3 40 7 76 9 80 7 10 28 172 28 211 0 19 6 51 14 70 12 27 13 44 5 80
-6 25 -10 90 -9 145 1 97 -13 162 -41 179 -5 4 -13 21 -16 39 -10 43 -63 125
-88 133 -17 5 -19 12 -13 50 4 31 1 47 -9 58 -8 8 -15 30 -15 49 0 19 -7 40
-15 47 -8 7 -15 26 -15 43 0 17 -11 45 -25 63 -14 18 -25 42 -25 53 0 11 -4
23 -10 26 -5 3 -10 13 -10 22 0 9 -9 26 -19 37 -13 14 -21 40 -24 77 -3 42
-11 62 -31 83 -14 16 -26 35 -26 42 0 20 -101 119 -145 142 -22 11 -49 27 -60
36 -11 9 -60 47 -110 85 -49 38 -106 82 -125 99 -19 16 -44 32 -55 36 -11 3
-65 53 -120 112 -69 73 -120 117 -163 141 -67 38 -147 63 -200 63 -18 0 -50 9
-70 19 -55 29 -164 77 -191 86 -14 4 -45 23 -70 41 -26 19 -62 42 -82 53 -19
11 -41 27 -49 36 -7 8 -42 32 -77 51 -34 20 -66 42 -70 49 -8 13 -81 55 -96
55 -5 0 -27 13 -50 28 -58 38 -96 55 -137 58 -19 2 -60 5 -90 8 -30 2 -68 9
-85 14 -62 21 -117 29 -150 22 -26 -6 -38 -4 -54 11 -23 22 -33 23 -49 7z
m-1558 -1346 c2 -4 -2 -32 -10 -62 -8 -30 -12 -71 -9 -91 5 -26 2 -39 -10 -49
-13 -11 -19 -9 -40 14 -13 14 -28 26 -32 26 -4 0 -8 16 -9 36 -1 36 32 84 57
84 5 0 15 11 21 25 11 25 23 31 32 17z m-34 -328 c14 -15 -5 -61 -31 -77 -43
-27 -66 31 -32 77 18 24 44 24 63 0z m384 -41 c4 -9 3 -20 -2 -25 -11 -11 -47
16 -38 30 11 17 33 15 40 -5z m-144 -17 c0 -8 5 -16 12 -18 21 -7 -2 -28 -31
-28 -15 0 -36 -7 -47 -15 -26 -20 -34 -19 -34 5 0 13 10 24 25 30 14 5 28 17
31 25 8 19 44 20 44 1z m-244 -102 c-3 -8 -10 -13 -16 -9 -6 3 -5 16 3 32 9
21 13 23 15 9 2 -9 1 -24 -2 -32z m-132 16 c14 -5 26 -14 26 -20 0 -16 -15
-12 -41 10 -27 22 -22 25 15 10z m321 -19 c3 -5 -4 -13 -16 -16 -23 -8 -34 -1
-24 14 8 13 32 14 40 2z m-401 -43 c13 -26 28 -39 49 -44 16 -3 31 -14 34 -23
3 -13 15 -16 62 -14 54 2 60 0 91 -32 29 -30 39 -34 65 -29 22 4 35 1 45 -11
12 -14 12 -18 -1 -25 -11 -7 -11 -12 -1 -22 16 -16 15 -73 -1 -87 -8 -6 -16
-8 -19 -6 -3 3 -13 -6 -22 -21 -17 -25 -70 -54 -101 -54 -8 0 -20 11 -25 24
-7 18 -14 23 -30 19 -29 -8 -44 -38 -25 -53 20 -16 19 -28 -5 -78 -11 -22 -20
-50 -20 -60 0 -11 -7 -25 -15 -32 -13 -11 -20 -9 -44 14 -24 23 -34 26 -63 21
-28 -5 -37 -3 -42 10 -8 22 1 35 25 35 28 0 24 34 -6 58 -22 17 -25 28 -25 79
0 46 -4 62 -20 76 -15 12 -19 24 -14 42 3 14 2 31 -4 38 -16 19 -8 108 13 147
11 19 18 39 17 44 -2 5 3 13 10 18 25 16 52 3 72 -34z m-174 -113 c0 -8 -4
-16 -9 -19 -12 -8 -34 21 -27 33 9 14 36 2 36 -14z m886 -391 c32 8 55 -18 48
-54 -9 -44 30 -60 132 -53 66 5 83 3 96 -11 9 -9 23 -16 31 -16 32 0 47 -13
47 -39 -1 -34 -22 -114 -36 -132 -24 -32 -46 -98 -39 -119 4 -12 8 -43 9 -69
3 -47 10 -74 41 -166 31 -94 55 -209 48 -236 -3 -10 -15 -21 -27 -24 -11 -4
-45 -16 -74 -27 -50 -20 -53 -20 -66 -3 -12 17 -14 16 -34 -5 -28 -30 -57
-119 -43 -133 16 -16 13 -130 -4 -163 -8 -16 -15 -39 -15 -51 0 -13 -4 -23
-10 -23 -5 0 -24 -13 -42 -28 -18 -16 -48 -34 -66 -40 -18 -6 -41 -21 -50 -32
-12 -15 -32 -22 -72 -25 -42 -3 -60 -10 -75 -28 -12 -13 -27 -26 -35 -30 -8
-4 -23 -12 -32 -19 -14 -10 -20 -10 -30 4 -7 9 -22 18 -32 20 -13 2 -23 17
-30 43 -9 30 -17 41 -35 43 -13 2 -27 -2 -31 -9 -11 -18 -40 -3 -40 21 0 11
-7 20 -15 20 -12 0 -13 -4 -3 -25 6 -14 15 -25 20 -25 4 0 8 -7 8 -15 0 -17
-46 -21 -69 -6 -11 7 -11 14 2 41 l16 32 -38 -7 c-31 -5 -45 -1 -80 22 -42 27
-43 29 -37 70 3 24 8 53 11 65 7 27 -64 128 -99 141 -21 8 -21 9 -1 23 16 12
17 17 7 32 -22 30 -26 46 -14 50 16 5 15 35 0 50 -7 7 -12 24 -13 38 0 24 -4
27 -44 30 -54 5 -61 9 -61 38 0 19 7 25 33 29 21 3 36 0 44 -10 15 -19 23 -5
30 59 3 29 12 62 19 73 6 11 15 31 19 45 4 13 30 56 56 95 47 68 60 110 39
131 -11 11 167 204 189 204 7 0 45 23 84 51 46 34 88 56 123 64 60 14 84 29
84 54 0 30 47 49 93 39 23 -5 51 -7 63 -4z m-1056 -574 c0 -5 -4 -10 -9 -10
-6 0 -13 5 -16 10 -3 6 1 10 9 10 9 0 16 -4 16 -10z m181 -9 c-8 -5 -12 -18
-8 -30 7 -27 -10 -28 -18 -1 -8 25 1 40 23 40 14 0 14 -2 3 -9z m95 -29 c-17
-16 -18 -16 -5 5 7 12 15 20 18 17 3 -2 -3 -12 -13 -22z m-178 -14 c-4 -27
-28 -36 -28 -10 0 20 8 32 22 32 5 0 8 -10 6 -22z m5 -112 c-3 -33 -9 -65 -13
-70 -13 -14 -28 2 -36 36 -3 18 -14 38 -23 45 -14 12 -14 15 8 32 13 10 34 19
47 19 21 0 22 -3 17 -62z m-89 -55 c3 -5 -1 -14 -9 -21 -12 -10 -18 -10 -30 0
-8 7 -15 16 -15 21 0 12 47 12 54 0z"/>
</g>
</svg>
