<?xml version="1.0" standalone="no"?>
<!DOCTYPE svg PUBLIC "-//W3C//DTD SVG 20010904//EN"
 "http://www.w3.org/TR/2001/REC-SVG-20010904/DTD/svg10.dtd">
<svg version="1.0" xmlns="http://www.w3.org/2000/svg"
 width="990.000000pt" height="622.000000pt" viewBox="0 0 990.000000 622.000000"
 preserveAspectRatio="xMidYMid meet">
<metadata>
Created by potrace 1.14, written by Peter Selinger 2001-2017
</metadata>
<g transform="translate(0.000000,622.000000) scale(0.100000,-0.100000)"
fill="#000000" stroke="none">
<path d="M5761 5883 c-1 -12 -33 -26 -66 -29 -61 -4 -183 -27 -200 -39 -11 -7
-45 -16 -75 -20 -88 -12 -175 -32 -201 -45 -33 -18 -99 -72 -99 -81 0 -15 -99
-105 -137 -125 -21 -10 -40 -21 -43 -25 -3 -3 -22 -13 -42 -22 -33 -16 -61
-39 -120 -104 -18 -18 -102 -57 -148 -67 -14 -3 -33 -19 -43 -35 -13 -22 -28
-32 -55 -36 -20 -3 -44 -10 -52 -15 -68 -42 -128 -59 -181 -51 -25 4 -58 4
-74 -1 -33 -9 -97 0 -106 14 -3 5 -26 -3 -50 -17 -36 -20 -57 -25 -117 -25
-40 0 -82 5 -93 11 -27 14 -126 -14 -133 -39 -17 -60 -17 -91 1 -109 20 -20
24 -74 5 -81 -9 -3 -9 -9 -1 -24 9 -16 7 -24 -6 -37 -15 -15 -16 -14 -11 14 4
17 3 24 0 18 -3 -7 -11 -13 -19 -13 -7 0 -18 -7 -25 -15 -7 -9 -21 -13 -31
-10 -11 4 -19 2 -19 -3 0 -5 -9 -12 -20 -15 -25 -6 -36 -52 -21 -92 8 -22 8
-41 2 -58 -8 -19 -6 -34 6 -57 34 -68 12 -171 -48 -228 l-28 -26 40 -12 c50
-15 90 -5 106 26 15 29 61 80 74 80 5 0 9 -11 9 -23 0 -13 9 -32 20 -42 13
-12 18 -25 14 -40 -3 -13 -1 -26 5 -29 6 -4 11 -14 11 -23 0 -8 11 -28 25 -45
14 -16 25 -37 25 -46 0 -32 -80 -179 -111 -201 -58 -43 -58 -106 0 -131 30
-12 40 -33 22 -44 -5 -3 -14 1 -21 9 -17 20 -36 19 -60 -5 -11 -11 -39 -24
-63 -30 -24 -5 -64 -21 -90 -35 -56 -32 -64 -62 -17 -71 46 -10 56 -29 26 -49
-14 -10 -26 -22 -26 -29 0 -6 -16 -21 -36 -34 -28 -19 -38 -21 -50 -11 -8 6
-12 14 -10 17 3 2 1 12 -4 22 -7 14 -17 16 -55 10 -34 -5 -45 -4 -45 7 0 7 -8
13 -19 13 -20 0 -31 25 -31 74 0 23 -3 27 -17 21 -10 -5 -34 -10 -53 -13 -19
-2 -41 -9 -48 -15 -22 -17 -26 2 -9 38 18 38 22 111 8 134 -5 8 -16 11 -24 8
-20 -7 -97 -126 -97 -149 0 -11 -14 -24 -36 -33 -58 -24 -94 -54 -94 -79 0
-34 -50 -66 -104 -66 -24 0 -51 -6 -58 -13 -7 -7 -27 -19 -45 -26 -18 -7 -38
-20 -44 -28 -7 -7 -46 -30 -88 -49 -67 -32 -89 -37 -186 -43 -60 -4 -118 -4
-127 1 -9 4 -33 8 -53 8 -35 0 -100 27 -126 53 -23 22 -71 35 -134 36 -35 1
-69 8 -83 17 -23 15 -53 15 -96 -2 -16 -6 -18 -4 -13 9 7 19 -17 24 -28 7 -4
-6 -11 -8 -16 -4 -5 3 -7 10 -4 15 4 5 -1 12 -9 15 -9 3 -13 10 -10 15 10 17
-27 9 -67 -13 -29 -17 -41 -20 -47 -11 -13 20 -112 9 -131 -15 -9 -11 -38 -31
-64 -46 -26 -14 -59 -34 -74 -43 -18 -12 -51 -18 -107 -20 -45 -1 -105 -5
-134 -8 -64 -8 -115 7 -136 41 -16 24 -56 34 -56 13 0 -6 -9 -8 -20 -4 -15 5
-18 3 -14 -9 3 -9 1 -16 -6 -16 -6 0 -9 -4 -6 -9 8 -12 -21 -34 -34 -26 -6 4
-10 -4 -10 -19 0 -14 -11 -35 -25 -49 -36 -32 -40 -128 -8 -172 17 -24 22 -50
27 -132 3 -56 11 -126 17 -155 11 -52 82 -213 99 -223 5 -3 7 -12 3 -21 -3 -9
10 -30 38 -57 l44 -42 18 -145 c21 -166 38 -234 76 -298 35 -60 61 -78 165
-113 104 -35 172 -38 209 -9 14 11 39 20 55 20 17 0 33 4 36 8 5 8 304 18 437
14 67 -1 82 -6 134 -37 32 -19 62 -35 67 -35 4 0 8 -9 8 -19 0 -11 5 -23 11
-26 6 -4 8 -13 5 -21 -3 -7 -1 -16 4 -19 6 -4 10 -17 10 -31 0 -14 7 -41 15
-61 18 -42 115 -172 130 -174 5 -1 15 -2 20 -3 46 -9 158 -82 152 -99 -2 -6 5
-19 16 -27 13 -11 21 -32 23 -65 3 -27 11 -56 18 -65 8 -8 17 -27 21 -42 4
-15 13 -32 21 -39 8 -6 14 -18 14 -27 0 -14 40 -134 59 -177 18 -41 33 -114
27 -133 -13 -40 31 -108 105 -165 74 -56 283 -114 375 -103 84 10 124 40 184
140 52 85 76 105 169 136 68 22 90 26 118 18 19 -5 65 -10 103 -11 61 -2 73
-6 98 -30 29 -28 29 -28 35 -7 7 26 34 21 87 -18 73 -52 100 -85 100 -118 0
-32 49 -98 113 -154 34 -29 57 -70 57 -103 0 -13 17 -54 37 -90 44 -80 79 -98
141 -74 40 15 89 8 107 -15 8 -11 58 -38 69 -38 8 0 46 38 46 46 0 5 12 17 25
27 23 17 24 17 42 -9 55 -78 49 -75 166 -81 104 -5 109 -5 148 21 22 15 52 29
67 31 64 11 110 24 149 44 23 11 46 21 50 21 5 0 44 14 88 31 77 30 104 38
228 73 33 9 69 23 80 31 12 8 41 15 65 15 47 0 142 37 252 99 36 20 101 52
145 71 84 37 222 134 280 199 24 26 49 42 79 50 41 10 237 132 244 152 2 5 10
9 18 9 29 0 194 174 261 275 37 55 86 122 110 149 24 26 43 52 43 58 0 16 68
38 119 38 38 0 55 5 70 21 14 15 26 19 41 14 16 -5 20 -4 15 5 -5 9 -2 10 14
5 12 -4 21 -2 21 4 0 6 -4 11 -9 11 -12 0 -9 53 4 62 5 5 29 5 51 2 42 -6 114
18 114 37 0 5 7 9 16 9 8 0 22 7 30 15 9 8 25 15 36 15 21 0 51 20 124 84 29
26 47 52 54 78 6 21 17 41 25 44 8 3 17 16 21 27 12 43 49 117 57 117 19 0 38
31 39 65 1 19 7 40 15 46 7 6 13 17 13 23 0 7 11 23 25 36 14 13 25 29 25 37
0 7 13 34 29 60 16 27 32 58 36 70 3 13 11 23 16 23 5 0 8 3 7 8 -3 9 30 111
44 137 13 24 50 93 65 120 47 90 50 100 58 210 4 39 13 133 22 210 21 194 25
465 7 485 -7 9 -23 46 -34 82 -19 62 -44 97 -97 140 -18 14 -20 22 -13 48 9
32 4 60 -11 60 -5 0 -9 18 -9 39 0 22 -7 46 -15 55 -8 8 -15 28 -15 44 0 19
-11 41 -30 62 -22 24 -28 38 -24 56 4 17 1 26 -10 30 -9 3 -16 13 -16 20 0 8
-7 25 -14 37 -8 12 -16 42 -17 67 -5 91 -88 199 -216 282 -37 25 -90 64 -118
87 -74 63 -88 74 -115 92 -14 10 -34 26 -46 37 -11 11 -30 23 -42 26 -12 4
-45 33 -74 64 -117 125 -166 169 -221 196 -31 16 -64 29 -72 29 -8 0 -15 3
-15 7 0 4 -33 12 -72 19 -40 7 -86 19 -102 27 -16 8 -35 14 -43 14 -7 0 -39
13 -71 29 -31 15 -67 31 -79 35 -23 7 -172 105 -217 142 -15 14 -48 33 -71 44
-24 11 -50 28 -57 39 -14 20 -85 61 -105 61 -7 0 -16 6 -20 13 -4 7 -26 21
-48 31 -22 10 -46 23 -53 29 -8 6 -34 10 -58 8 -25 -1 -52 3 -60 9 -8 7 -27
10 -42 7 -16 -3 -41 0 -56 9 -16 8 -42 14 -58 14 -16 0 -37 4 -47 10 -12 6
-32 5 -57 -1 -28 -8 -39 -8 -42 0 -2 6 -10 11 -17 11 -7 0 -16 8 -18 18 -3 9
-5 12 -6 5z m-1181 -908 c0 -15 -38 -40 -47 -31 -3 3 5 14 18 25 29 25 29 25
29 6z m-392 -428 c7 -8 6 -29 -5 -67 -8 -30 -14 -73 -14 -94 1 -21 -4 -45 -10
-52 -15 -19 -39 -18 -39 1 0 16 -29 25 -70 22 -30 -2 -42 17 -14 21 44 7 46
10 29 42 -8 16 -12 30 -7 30 4 0 17 8 28 19 11 10 30 24 42 30 14 7 22 21 22
36 0 27 21 33 38 12z m-48 -335 c21 -17 22 -21 9 -47 -17 -34 -41 -50 -63 -42
-21 8 -21 50 0 82 19 30 25 30 54 7z m394 -48 c14 -36 3 -44 -29 -21 -10 8
-15 19 -11 25 10 17 33 15 40 -4z m-144 -18 c0 -8 5 -16 12 -18 21 -7 -2 -28
-31 -28 -15 0 -36 -7 -47 -15 -26 -20 -34 -19 -34 5 0 13 10 24 25 30 14 5 28
17 31 25 8 19 44 20 44 1z m-535 -16 c8 -13 -20 -24 -41 -16 -20 8 -9 26 16
26 10 0 22 -5 25 -10z m291 -97 c-2 -3 -9 -2 -15 1 -7 5 -6 16 2 34 l12 27 3
-29 c2 -15 1 -30 -2 -33z m-132 27 c14 -5 26 -14 26 -20 0 -16 -15 -12 -41 10
-27 22 -22 25 15 10z m-81 -59 c7 -14 29 -34 50 -44 20 -9 37 -23 37 -30 0 -8
17 -11 58 -10 55 2 61 0 92 -32 29 -30 39 -34 65 -29 22 4 35 1 45 -11 12 -14
12 -18 -1 -25 -11 -7 -11 -12 -1 -22 17 -17 15 -73 -3 -88 -8 -7 -15 -9 -15
-5 0 5 -15 -8 -32 -28 -42 -46 -106 -62 -115 -28 -7 27 -48 28 -62 2 -8 -14
-7 -22 4 -31 19 -16 19 -34 -2 -73 -9 -18 -19 -45 -22 -61 -4 -16 -14 -34 -24
-40 -15 -9 -22 -6 -39 17 -19 26 -25 28 -61 22 -28 -5 -42 -3 -48 6 -10 17 8
39 32 39 28 0 24 35 -6 58 -22 17 -25 28 -25 79 0 46 -4 62 -20 76 -15 12 -19
24 -14 42 3 14 1 31 -4 38 -23 27 -3 153 27 172 6 3 8 12 5 20 -8 19 36 37 54
23 6 -6 18 -22 25 -37z m402 34 c0 -5 -10 -11 -22 -13 -16 -2 -23 2 -23 13 0
11 7 15 23 13 12 -2 22 -7 22 -13z m-150 -5 c3 -5 1 -10 -4 -10 -6 0 -11 5
-11 10 0 6 2 10 4 10 3 0 8 -4 11 -10z m461 -536 c32 8 55 -18 48 -54 -9 -44
30 -60 132 -53 66 5 83 3 96 -11 9 -9 23 -16 31 -16 32 0 47 -13 47 -39 -1
-41 -23 -111 -54 -170 -18 -35 -25 -61 -21 -75 3 -11 8 -48 11 -81 3 -33 9
-64 14 -69 6 -6 10 -21 10 -34 0 -13 9 -44 20 -70 22 -52 50 -196 42 -224 -2
-9 -14 -20 -26 -23 -11 -4 -45 -16 -75 -28 -39 -15 -56 -17 -59 -9 -11 35 -72
-17 -72 -62 0 -9 -6 -25 -12 -36 -10 -15 -10 -22 0 -32 17 -17 15 -118 -4
-180 -18 -57 -64 -100 -133 -126 -19 -6 -40 -21 -48 -32 -10 -14 -31 -21 -74
-26 -44 -5 -64 -12 -77 -28 -9 -12 -24 -25 -32 -29 -8 -4 -23 -12 -32 -19 -14
-10 -20 -10 -30 4 -7 9 -22 18 -32 20 -12 2 -23 15 -28 34 -12 47 -31 59 -67
43 -17 -8 -27 -18 -24 -26 4 -9 -5 -13 -28 -13 -50 0 -62 11 -49 44 14 38 14
38 -23 31 -26 -5 -42 0 -76 22 -42 27 -43 29 -37 70 3 24 8 53 11 65 7 28 -71
138 -97 138 -22 0 -23 13 -3 30 13 11 13 16 -2 40 -13 23 -14 32 -4 44 10 12
10 19 0 38 -7 13 -12 32 -10 44 2 18 -5 22 -51 30 -50 9 -53 11 -53 39 0 25 4
30 28 33 16 2 34 -2 42 -8 18 -15 25 -1 31 57 2 25 8 51 14 58 5 6 17 31 25
55 8 23 35 71 60 105 45 64 55 101 33 123 -8 8 0 22 33 55 24 25 62 64 85 88
22 24 61 54 85 66 24 12 53 30 64 40 36 33 89 61 130 69 49 9 85 31 85 53 0
30 47 49 93 39 23 -5 51 -7 63 -4z m-878 -585 c-6 -4 -8 -16 -5 -28 6 -24 -11
-29 -20 -5 -8 21 18 69 28 52 4 -7 3 -16 -3 -19z m-175 1 c-3 -12 -6 -19 -7
-18 -1 2 -8 11 -15 21 -12 15 -11 17 7 17 15 0 19 -5 15 -20z m273 -37 c-8
-15 -15 -22 -16 -15 0 17 20 55 27 49 2 -3 -2 -18 -11 -34z m-178 -5 c-4 -27
-28 -36 -28 -10 0 20 8 32 22 32 5 0 8 -10 6 -22z m16 -59 c-4 -7 -10 -37 -13
-68 -7 -68 -31 -77 -45 -18 -5 20 -15 37 -23 37 -21 0 -15 26 10 43 26 19 82
23 71 6z m-100 -108 c3 -5 -1 -14 -9 -21 -12 -10 -18 -10 -30 0 -8 7 -15 16
-15 21 0 12 47 12 54 0z m1131 -2301 c3 -5 2 -10 -4 -10 -5 0 -13 5 -16 10 -3
6 -2 10 4 10 5 0 13 -4 16 -10z"/>
<path d="M4160 2090 c6 -11 13 -20 15 -20 3 0 5 9 5 20 0 11 -7 20 -15 20 -13
0 -14 -4 -5 -20z"/>
</g>
</svg>
