<?xml version="1.0" standalone="no"?>
<!DOCTYPE svg PUBLIC "-//W3C//DTD SVG 20010904//EN"
 "http://www.w3.org/TR/2001/REC-SVG-20010904/DTD/svg10.dtd">
<svg version="1.0" xmlns="http://www.w3.org/2000/svg"
 width="990.000000pt" height="622.000000pt" viewBox="0 0 990.000000 622.000000"
 preserveAspectRatio="xMidYMid meet">
<metadata>
Created by potrace 1.14, written by Peter Selinger 2001-2017
</metadata>
<g transform="translate(0.000000,622.000000) scale(0.100000,-0.100000)"
fill="#000000" stroke="none">
<path d="M5735 5888 c-11 -7 -45 -13 -75 -14 -62 -2 -158 -20 -174 -33 -6 -4
-36 -11 -66 -15 -178 -22 -237 -44 -316 -121 -37 -35 -95 -80 -103 -80 -4 0
-24 -19 -45 -43 -21 -23 -48 -48 -61 -55 -39 -21 -125 -89 -125 -97 0 -13 -85
-57 -145 -74 -30 -9 -60 -25 -67 -35 -7 -10 -36 -23 -64 -30 -28 -7 -64 -19
-80 -27 -40 -21 -239 -37 -279 -22 -26 9 -38 7 -75 -13 -41 -22 -58 -24 -171
-24 -122 0 -127 -1 -162 -28 -36 -27 -37 -29 -37 -97 0 -38 5 -72 10 -75 6 -3
10 -20 10 -37 0 -24 -3 -29 -17 -24 -10 4 -26 -2 -42 -18 -14 -14 -43 -41 -65
-61 -36 -33 -38 -38 -32 -78 3 -23 6 -59 6 -79 -1 -21 6 -51 15 -67 19 -37 19
-88 1 -132 -16 -38 -54 -83 -77 -91 -31 -10 12 -36 71 -43 73 -8 91 -3 113 35
33 56 61 27 73 -75 4 -30 13 -60 20 -66 8 -6 14 -19 14 -28 0 -28 -61 -164
-90 -201 -19 -23 -31 -54 -37 -90 -6 -43 -13 -57 -31 -65 -12 -5 -22 -13 -22
-18 0 -5 -10 -5 -21 -2 -16 5 -19 4 -14 -6 6 -9 -2 -11 -38 -6 -37 5 -47 4
-47 -8 0 -8 -13 -29 -28 -47 -16 -18 -31 -40 -34 -48 -9 -24 -101 -45 -126
-29 -11 7 -18 18 -16 24 7 16 -19 46 -41 47 -11 1 -35 -2 -54 -6 -29 -7 -33
-6 -28 8 4 9 2 36 -3 59 -5 23 -12 54 -15 70 -9 48 -57 31 -90 -32 -9 -19 -26
-43 -36 -54 -10 -12 -19 -33 -19 -47 0 -20 -8 -30 -35 -43 -20 -9 -40 -17 -46
-17 -13 0 -48 -41 -49 -56 0 -7 -8 -22 -19 -35 -15 -19 -27 -23 -62 -21 -34 2
-52 -3 -78 -22 -19 -15 -40 -26 -47 -26 -6 0 -16 -6 -22 -13 -14 -16 -121 -71
-181 -92 -29 -10 -84 -15 -166 -16 -135 -1 -175 10 -247 68 -30 24 -51 32
-105 37 -37 4 -86 15 -107 26 -28 12 -47 15 -62 9 -23 -8 -77 11 -89 32 -9 14
-37 11 -79 -10 -31 -16 -47 -18 -89 -11 -30 5 -56 4 -62 -1 -5 -5 -17 -9 -27
-9 -10 0 -18 -7 -18 -15 0 -8 -23 -27 -52 -41 -29 -15 -63 -35 -78 -45 -19
-14 -49 -20 -125 -23 -55 -3 -119 -8 -141 -12 -47 -7 -78 5 -109 42 -20 24
-36 29 -86 26 -21 -2 -28 -8 -32 -31 -4 -17 -14 -30 -26 -34 -13 -3 -21 -13
-21 -26 0 -11 -11 -31 -23 -44 -16 -15 -26 -40 -31 -76 -6 -44 -3 -61 18 -104
16 -35 28 -84 35 -152 6 -55 12 -107 14 -115 2 -8 7 -28 11 -45 10 -39 79
-189 88 -193 5 -2 8 -14 8 -26 0 -25 45 -81 70 -88 8 -3 16 -17 16 -34 6 -156
47 -353 87 -425 32 -56 55 -73 146 -105 115 -39 173 -48 215 -30 20 8 36 19
36 24 0 15 94 27 160 22 14 -1 52 1 85 4 33 3 121 6 196 7 l136 1 71 -38 c56
-31 72 -44 72 -61 0 -13 5 -23 11 -23 6 0 8 -8 4 -19 -3 -11 -1 -22 5 -26 5
-3 10 -17 10 -30 0 -35 18 -71 74 -150 57 -80 65 -87 88 -81 10 2 22 -2 29
-10 6 -8 18 -14 26 -14 22 0 104 -60 97 -71 -3 -5 4 -18 17 -27 16 -14 23 -32
26 -72 2 -30 8 -57 12 -60 5 -3 16 -21 25 -40 8 -19 20 -42 25 -50 4 -8 17
-42 27 -75 10 -33 26 -80 36 -103 10 -24 22 -80 27 -123 10 -93 39 -143 107
-190 79 -54 248 -109 339 -109 113 0 154 27 235 154 l55 86 80 31 c69 26 88
30 135 24 30 -4 83 -8 117 -9 64 -2 88 -14 98 -47 8 -25 25 -25 25 0 0 11 4
23 10 26 16 10 77 -25 130 -74 40 -37 50 -54 50 -79 0 -34 15 -55 96 -136 55
-55 79 -91 69 -106 -8 -12 58 -152 80 -170 17 -14 35 -15 147 -8 25 1 45 -4
60 -17 13 -11 34 -26 47 -33 20 -12 26 -11 47 9 13 12 24 27 24 32 0 12 31 36
46 37 6 0 20 -18 33 -40 12 -22 31 -44 41 -50 10 -5 67 -10 127 -10 99 0 112
2 145 25 20 14 50 25 65 25 33 0 94 16 143 37 55 24 72 30 120 44 25 7 48 17
51 22 3 5 21 12 40 17 107 28 188 54 219 70 19 10 60 21 90 23 52 5 176 53
210 82 18 14 79 46 210 109 96 47 130 70 229 162 38 35 79 61 126 79 39 16 72
31 75 34 3 4 52 38 110 76 127 83 258 214 330 330 27 44 69 101 94 127 26 26
46 52 46 57 0 13 52 28 119 35 30 3 61 12 70 19 9 8 33 17 54 21 35 7 37 9 37
46 l0 40 44 -6 c40 -6 83 9 106 37 3 3 28 16 55 28 124 57 225 143 225 191 0
19 6 30 17 32 10 2 18 10 18 18 2 47 21 96 49 123 17 18 37 50 45 72 8 22 17
42 20 45 28 23 127 220 167 332 8 24 25 59 38 78 13 19 26 45 30 56 4 12 15
29 26 39 11 10 20 24 20 32 0 8 11 29 24 46 20 27 35 81 38 137 0 8 12 67 25
130 14 63 28 140 32 170 4 30 12 65 19 77 12 22 6 79 -9 89 -5 3 -9 47 -9 97
0 104 -12 156 -46 206 -13 20 -24 45 -24 56 0 21 -27 60 -71 105 -19 18 -28
40 -32 75 -10 85 -19 129 -32 150 -7 11 -16 34 -20 52 -3 17 -17 43 -29 56
-13 15 -26 45 -30 70 -4 25 -15 52 -25 61 -11 10 -22 38 -26 64 -7 46 -21 82
-35 92 -4 3 -22 29 -40 58 -27 44 -123 132 -145 132 -8 0 -97 62 -151 106 -27
22 -57 46 -68 54 -10 8 -33 27 -50 41 -17 14 -45 33 -62 42 -17 9 -82 67 -145
129 -129 128 -180 159 -304 183 -44 8 -98 24 -120 34 -59 29 -188 88 -205 95
-8 3 -44 26 -80 51 -36 24 -80 55 -98 67 -18 13 -39 28 -45 33 -7 6 -33 23
-59 38 -27 15 -48 32 -48 36 0 5 -8 11 -17 15 -10 3 -25 10 -33 14 -8 5 -31
17 -50 26 -33 15 -96 49 -130 71 -8 5 -33 10 -55 11 -82 5 -165 17 -171 25 -3
5 -22 9 -42 10 -20 0 -46 4 -57 8 -11 5 -33 4 -50 0 -24 -7 -36 -5 -57 11 -31
23 -36 24 -63 8z m-1567 -1420 c-5 -24 -7 -60 -5 -80 3 -22 0 -44 -8 -55 -12
-16 -15 -15 -41 13 -16 17 -27 39 -26 48 2 10 -1 23 -7 29 -8 8 3 23 37 53 26
23 50 40 53 38 4 -2 3 -23 -3 -46z m-19 -262 c13 -16 2 -55 -22 -75 -24 -19
-57 -5 -57 25 0 48 53 82 79 50z m386 -44 c3 -9 2 -19 -3 -24 -11 -11 -47 16
-39 29 9 15 35 12 42 -5z m-149 -17 c-3 -9 0 -15 10 -15 31 0 7 -25 -30 -31
-20 -3 -42 -11 -49 -18 -17 -17 -27 -13 -27 9 0 13 10 24 25 30 14 5 28 17 31
25 4 8 15 15 26 15 14 0 18 -5 14 -15z m-245 -108 c-8 -8 -11 -5 -11 9 0 27
14 41 18 19 2 -9 -1 -22 -7 -28z m-105 11 c3 -5 4 -12 1 -14 -7 -7 -47 15 -47
25 0 11 38 2 46 -11z m299 -7 c3 -5 -4 -13 -16 -16 -23 -8 -34 -1 -24 14 8 13
32 14 40 2z m-404 -41 c15 -27 31 -41 52 -46 16 -3 31 -14 34 -23 3 -13 15
-16 61 -14 53 2 59 0 93 -33 29 -29 41 -34 63 -28 16 4 32 1 41 -6 17 -14 21
-35 5 -25 -5 3 -10 -1 -10 -9 0 -8 5 -18 10 -21 15 -10 12 -71 -5 -85 -12 -10
-15 -10 -15 1 0 8 -9 -1 -20 -19 -19 -31 -71 -62 -105 -62 -8 0 -20 11 -25 24
-7 18 -14 22 -34 19 -32 -7 -44 -40 -20 -57 17 -13 16 -16 -4 -67 -11 -30 -22
-63 -24 -74 -5 -28 -36 -31 -63 -5 -18 17 -31 21 -51 16 -18 -5 -30 -3 -35 6
-14 22 -10 39 9 36 28 -5 27 37 -2 60 -23 17 -26 27 -26 80 0 47 -4 63 -17 71
-12 6 -16 20 -15 44 1 20 -2 38 -8 42 -17 11 -2 112 26 165 32 62 54 65 85 10z
m-171 -115 c0 -8 -6 -15 -14 -15 -8 0 -16 7 -20 15 -4 10 1 15 14 15 11 0 20
-7 20 -15z m-295 -177 c19 -13 35 -26 35 -30 0 -4 -11 -19 -23 -34 -36 -41
-57 -27 -57 36 0 27 2 50 5 50 3 0 21 -10 40 -22z m1181 -214 c32 8 55 -18 48
-54 -9 -44 30 -60 132 -53 66 5 83 3 96 -11 9 -9 23 -16 31 -16 32 0 47 -13
47 -39 -1 -33 -22 -114 -35 -132 -31 -44 -47 -89 -40 -116 4 -15 7 -44 6 -63
-1 -20 3 -49 10 -65 6 -17 15 -48 19 -70 5 -22 17 -65 28 -95 42 -116 44 -194
5 -206 -10 -3 -40 -14 -68 -25 -45 -18 -51 -18 -62 -3 -16 22 -47 4 -62 -36
-6 -16 -16 -44 -22 -60 -9 -23 -9 -34 1 -45 14 -17 8 -117 -11 -185 -13 -48
-41 -74 -117 -110 -24 -11 -51 -29 -60 -40 -11 -13 -34 -21 -67 -24 -63 -6
-83 -13 -90 -36 -3 -10 -13 -20 -23 -24 -9 -3 -25 -11 -34 -18 -14 -10 -20
-10 -30 4 -7 9 -22 18 -32 20 -13 2 -23 17 -30 43 -9 30 -17 41 -35 43 -13 2
-27 -2 -31 -9 -12 -18 -40 -3 -40 22 0 21 -3 22 -59 16 -54 -6 -64 -4 -101 21
-45 29 -44 25 -25 127 5 25 -1 40 -36 85 -22 30 -51 59 -63 63 -21 8 -21 9 -1
23 16 12 17 17 7 32 -22 30 -26 46 -14 50 16 5 15 35 0 50 -7 7 -12 24 -13 38
0 24 -5 27 -40 31 -57 5 -65 9 -65 37 0 19 6 25 33 29 21 3 36 0 43 -9 6 -8
14 -14 17 -14 5 0 14 42 22 103 6 44 70 167 116 222 25 30 31 67 13 86 -13 14
-5 25 80 112 52 54 100 97 106 97 7 0 46 24 88 54 48 33 92 55 117 59 45 7 91
38 88 59 -2 7 9 21 23 29 21 13 36 14 67 7 23 -5 51 -7 63 -4z m-1056 -574 c0
-5 -2 -10 -4 -10 -3 0 -8 5 -11 10 -3 6 -1 10 4 10 6 0 11 -4 11 -10z m175
-30 c0 -16 -3 -30 -7 -30 -10 0 -20 38 -13 50 12 19 20 10 20 -20z m-77 -22
c-4 -27 -28 -36 -28 -10 0 20 8 32 22 32 5 0 8 -10 6 -22z m6 -77 c-4 -14 -7
-44 -8 -66 -1 -51 -26 -54 -40 -5 -6 19 -17 41 -25 47 -14 11 -13 15 8 32 13
10 35 19 48 19 22 0 24 -4 17 -27z m-90 -90 c3 -5 -1 -14 -9 -21 -12 -10 -18
-10 -30 0 -18 15 -11 30 15 30 10 0 21 -4 24 -9z m565 -630 c27 -37 26 -41 -3
-41 -46 0 -55 9 -44 41 13 36 21 36 47 0z"/>
</g>
</svg>
