<?xml version="1.0" standalone="no"?>
<!DOCTYPE svg PUBLIC "-//W3C//DTD SVG 20010904//EN"
 "http://www.w3.org/TR/2001/REC-SVG-20010904/DTD/svg10.dtd">
<svg version="1.0" xmlns="http://www.w3.org/2000/svg"
 width="990.000000pt" height="622.000000pt" viewBox="0 0 990.000000 622.000000"
 preserveAspectRatio="xMidYMid meet">
<metadata>
Created by potrace 1.14, written by Peter Selinger 2001-2017
</metadata>
<g transform="translate(0.000000,622.000000) scale(0.100000,-0.100000)"
fill="#000000" stroke="none">
<path d="M5730 5900 c-8 -6 -37 -10 -65 -9 -27 1 -61 -3 -75 -9 -14 -5 -44
-13 -67 -17 -24 -4 -45 -11 -49 -16 -3 -5 -22 -9 -42 -9 -49 0 -198 -29 -243
-47 -20 -8 -55 -32 -79 -54 -23 -21 -45 -39 -47 -39 -2 0 -20 -12 -38 -26 -19
-14 -39 -23 -44 -20 -5 4 -12 -3 -16 -14 -8 -24 -107 -124 -157 -158 -21 -13
-38 -29 -38 -33 0 -5 -17 -17 -37 -27 -21 -9 -40 -20 -43 -23 -3 -4 -30 -14
-61 -22 -31 -9 -67 -25 -81 -36 -13 -11 -38 -23 -54 -26 -16 -4 -51 -15 -79
-25 -71 -26 -218 -38 -295 -25 -28 5 -43 1 -72 -19 -26 -18 -50 -25 -85 -25
-26 0 -55 0 -63 0 -8 -1 -34 2 -57 5 -46 6 -115 -19 -146 -54 -18 -20 -26
-137 -12 -184 7 -25 5 -28 -19 -28 -19 0 -26 -5 -26 -20 0 -11 -12 -26 -29
-34 -45 -24 -71 -88 -65 -161 3 -33 13 -78 21 -100 31 -81 2 -176 -65 -216
l-37 -22 25 -10 c93 -39 169 -38 202 3 32 40 48 16 48 -74 0 -31 6 -56 16 -67
14 -16 14 -24 -11 -96 -15 -43 -38 -94 -51 -114 -14 -20 -31 -60 -39 -89 -8
-29 -15 -53 -17 -54 -25 -19 -88 -32 -117 -24 -37 10 -51 0 -51 -39 0 -12 -11
-30 -25 -41 -14 -11 -25 -24 -25 -29 0 -9 -69 -33 -95 -33 -8 0 -15 6 -15 13
0 7 -14 24 -31 36 -23 17 -39 21 -63 17 -31 -6 -32 -5 -49 52 -9 32 -17 65
-17 72 0 8 -4 21 -9 29 -8 12 -15 10 -44 -12 -19 -14 -41 -41 -50 -60 -9 -19
-23 -40 -32 -47 -8 -7 -15 -22 -15 -34 0 -11 -4 -26 -8 -32 -10 -16 -55 -39
-70 -36 -15 4 -45 -29 -72 -80 -18 -33 -22 -36 -52 -29 -24 6 -41 3 -63 -10
-16 -10 -47 -27 -67 -39 -20 -11 -39 -24 -43 -30 -8 -12 -115 -64 -180 -85
-39 -14 -75 -16 -170 -13 -110 3 -125 6 -168 31 -26 15 -55 37 -66 48 -13 14
-41 24 -92 31 -41 6 -89 19 -108 29 -25 13 -39 15 -58 8 -29 -11 -58 -4 -91
22 -19 15 -28 16 -55 7 -18 -6 -37 -15 -44 -20 -7 -6 -39 -8 -72 -6 -33 1 -63
0 -67 -5 -4 -4 -16 -7 -26 -7 -10 0 -18 -4 -18 -10 0 -5 -19 -22 -42 -37 -24
-14 -59 -37 -79 -50 -27 -18 -49 -23 -100 -23 -35 0 -97 -5 -137 -10 -82 -11
-108 -4 -145 36 -19 21 -37 28 -70 30 -40 3 -44 1 -53 -28 -5 -16 -12 -28 -15
-26 -10 5 -39 -24 -39 -39 0 -8 -12 -29 -26 -46 -16 -18 -24 -38 -20 -50 2
-10 0 -29 -6 -42 -8 -19 -5 -32 16 -72 14 -26 28 -70 30 -98 14 -150 37 -244
93 -365 64 -140 66 -143 100 -166 18 -12 30 -24 27 -26 -2 -3 0 -36 5 -74 34
-233 46 -293 67 -340 26 -57 80 -111 122 -120 15 -3 41 -12 57 -19 46 -20 145
-36 182 -29 19 4 39 15 47 25 7 11 24 19 37 20 84 3 191 9 229 13 25 3 106 6
182 6 l136 1 71 -38 c54 -29 71 -43 71 -60 0 -12 4 -24 10 -28 5 -3 7 -12 4
-19 -3 -8 -1 -17 5 -21 6 -3 11 -17 11 -29 0 -34 18 -72 75 -154 34 -49 58
-74 75 -78 14 -3 33 -9 42 -15 10 -5 23 -9 30 -9 6 0 20 -7 30 -17 10 -9 28
-21 41 -28 15 -7 21 -18 19 -33 -2 -14 2 -22 12 -22 21 0 29 -16 33 -74 2 -28
8 -53 12 -56 5 -3 16 -21 25 -40 8 -19 20 -42 24 -50 11 -18 70 -190 83 -240
5 -19 9 -55 9 -80 1 -117 119 -210 336 -264 116 -30 216 -16 271 36 12 12 46
59 75 105 52 82 54 84 123 110 71 28 89 29 235 20 89 -5 103 -10 120 -43 16
-29 30 -31 30 -5 0 11 4 23 10 26 16 10 77 -25 130 -74 40 -37 50 -54 50 -79
0 -34 15 -55 91 -131 57 -58 81 -94 74 -113 -3 -8 11 -48 32 -89 27 -53 47
-78 68 -88 37 -18 84 -18 95 -1 11 17 75 5 92 -18 7 -10 26 -23 42 -30 26 -12
31 -11 52 9 13 13 24 28 24 36 0 7 7 13 15 13 8 0 15 5 15 10 0 24 28 7 49
-30 12 -22 31 -44 41 -50 10 -5 67 -10 127 -10 99 0 112 2 145 25 25 17 51 25
81 25 24 0 72 12 108 26 35 14 71 27 79 28 48 7 88 21 112 37 28 20 139 59
168 59 9 0 43 13 76 29 33 16 83 31 114 34 63 6 118 29 216 89 38 22 102 56
144 75 114 52 136 65 167 93 16 14 44 36 63 49 19 14 49 41 66 60 17 20 49 42
70 49 63 22 115 49 179 92 33 22 87 58 120 80 77 51 193 178 262 288 57 90
143 185 178 195 11 4 43 9 70 13 28 3 59 12 70 19 11 7 35 16 52 19 34 8 55
27 52 48 -4 32 2 35 44 31 35 -4 47 -1 72 22 28 24 103 65 122 65 12 0 81 48
136 95 33 27 49 49 53 73 4 18 12 36 19 38 7 3 16 26 20 51 9 60 23 89 51 108
13 8 29 33 35 56 7 23 19 43 26 46 7 3 13 10 13 16 0 5 11 25 25 43 14 18 25
38 25 44 0 7 9 24 19 39 11 15 23 40 27 57 4 16 10 34 15 39 4 6 20 44 35 85
14 41 30 77 34 80 4 3 20 25 35 50 16 24 34 51 42 58 7 7 13 22 13 31 0 10 7
24 16 32 24 20 41 60 49 114 4 28 21 100 37 160 16 61 32 128 34 150 3 22 14
59 25 82 21 46 17 95 -9 125 -10 12 -16 43 -17 95 -2 87 -26 174 -56 204 -10
10 -19 26 -19 35 0 16 -18 56 -30 64 -4 3 -15 19 -23 37 -9 17 -25 34 -34 37
-14 4 -18 17 -19 53 -2 80 -9 131 -22 145 -6 8 -18 34 -27 57 -8 23 -24 55
-35 71 -11 16 -20 44 -20 64 0 26 -7 42 -25 58 -14 12 -25 30 -25 39 0 10 -4
21 -10 24 -5 3 -10 17 -10 30 0 13 -11 36 -23 52 -13 15 -36 49 -51 75 -30 52
-57 74 -171 143 -44 27 -110 73 -146 104 -37 31 -91 72 -120 91 -29 19 -103
85 -166 146 -131 129 -214 178 -329 195 -38 6 -78 15 -89 21 -75 42 -212 108
-224 108 -7 0 -21 8 -30 18 -18 19 -87 72 -95 72 -6 0 -225 147 -247 166 -8 8
-22 14 -30 14 -16 0 -119 52 -159 80 -14 10 -41 18 -60 18 -50 -1 -250 31
-273 43 -12 7 -28 7 -49 0 -31 -11 -68 0 -68 19 0 13 -41 13 -60 0z m-1560
-1406 c0 -4 -5 -24 -12 -45 -9 -30 -8 -45 1 -66 10 -22 9 -29 -6 -45 -18 -18
-20 -18 -40 10 -12 16 -23 43 -25 61 -2 27 3 37 32 61 34 29 50 36 50 24z
m-20 -288 c9 -12 9 -21 -2 -42 -18 -38 -42 -51 -62 -35 -21 17 -20 46 1 71 20
24 46 26 63 6z m390 -59 c0 -13 -43 -4 -47 10 -2 6 4 13 14 15 17 4 33 -8 33
-25z m-154 -2 c-3 -9 0 -15 10 -15 31 0 7 -25 -30 -31 -20 -3 -42 -11 -49 -18
-17 -17 -27 -13 -27 9 0 13 10 24 25 30 14 5 28 17 31 25 4 8 15 15 26 15 14
0 18 -5 14 -15z m-245 -108 c-8 -8 -11 -5 -11 9 0 27 14 41 18 19 2 -9 -1 -22
-7 -28z m-103 6 c5 -18 -10 -16 -34 2 -18 15 -18 15 5 13 14 -2 26 -9 29 -15z
m297 -2 c3 -5 -4 -13 -16 -16 -23 -8 -34 -1 -24 14 8 13 32 14 40 2z m-415
-23 c15 -37 35 -56 64 -64 16 -4 31 -14 33 -23 3 -13 16 -16 61 -14 53 2 59 0
94 -34 30 -29 41 -34 63 -29 32 8 65 -12 43 -25 -10 -7 -11 -12 0 -29 17 -27
15 -75 -3 -90 -12 -10 -15 -10 -15 0 0 7 -10 -2 -23 -21 -14 -21 -37 -39 -62
-47 -46 -15 -65 -10 -65 19 0 15 -4 19 -16 15 -9 -3 -22 -6 -29 -6 -23 0 -29
-40 -9 -54 17 -13 16 -16 -4 -67 -11 -30 -22 -63 -24 -74 -5 -28 -36 -31 -63
-5 -15 14 -33 21 -51 18 -21 -2 -30 2 -32 15 -2 10 3 17 12 17 26 0 19 46 -9
68 -22 17 -25 28 -25 81 0 46 -4 63 -15 67 -10 4 -15 20 -15 44 0 22 -4 41 -9
44 -25 16 18 182 54 208 18 14 35 8 45 -14z m-162 -130 c-6 -18 -28 -21 -28
-4 0 9 7 16 16 16 9 0 14 -5 12 -12z m-279 -211 c13 -16 -4 -37 -31 -37 -21 0
-22 4 -8 31 12 22 23 24 39 6z m1167 -183 c32 8 55 -18 48 -54 -9 -44 30 -60
132 -53 66 5 83 3 96 -11 9 -9 25 -16 35 -16 34 0 46 -16 40 -51 -14 -82 -20
-105 -31 -119 -33 -43 -58 -102 -47 -113 6 -6 11 -35 11 -65 0 -29 5 -63 12
-75 6 -12 15 -40 19 -62 4 -22 14 -60 22 -85 9 -25 22 -73 30 -107 19 -81 9
-101 -58 -120 -27 -8 -56 -20 -64 -26 -10 -9 -16 -7 -27 7 -12 18 -15 18 -38
2 -14 -9 -28 -29 -32 -44 -3 -15 -10 -39 -16 -54 -7 -18 -6 -33 2 -48 13 -25
8 -112 -11 -180 -13 -49 -41 -74 -118 -110 -25 -12 -51 -29 -58 -40 -7 -10
-21 -19 -31 -19 -79 -2 -119 -15 -127 -41 -3 -10 -13 -20 -23 -24 -9 -3 -25
-11 -34 -18 -14 -10 -20 -10 -30 4 -7 9 -22 18 -33 20 -12 2 -21 14 -26 34 -3
17 -9 36 -13 42 -9 15 -56 16 -56 2 0 -20 -29 -10 -36 13 -10 32 -19 35 -72
25 -43 -9 -51 -7 -90 18 -46 30 -47 31 -31 104 11 54 5 73 -43 124 -10 11 -18
24 -18 28 0 5 -12 13 -27 19 -26 10 -27 11 -10 24 19 14 16 55 -4 55 -5 0 -9
7 -9 15 0 8 5 15 10 15 13 0 13 33 1 45 -5 6 -11 23 -13 39 -3 26 -7 29 -43
33 -58 5 -65 9 -65 38 0 23 4 25 40 25 22 0 40 -4 40 -10 0 -5 4 -10 9 -10 8
0 19 41 26 96 2 12 10 35 19 52 9 17 16 37 16 45 0 8 22 46 50 84 57 82 68
114 47 135 -13 13 -7 24 56 91 75 79 281 227 317 227 26 0 100 30 102 41 0 5
1 15 2 22 1 6 12 19 24 28 19 13 32 15 65 7 23 -5 51 -7 63 -4z m-1056 -574
c0 -5 -2 -10 -4 -10 -3 0 -8 5 -11 10 -3 6 -1 10 4 10 6 0 11 -4 11 -10z m175
-30 c0 -35 -11 -39 -20 -9 -5 14 -2 25 6 30 8 5 14 9 14 9 0 0 0 -13 0 -30z
m-77 -22 c-4 -27 -28 -36 -28 -10 0 20 8 32 22 32 5 0 8 -10 6 -22z m7 -72
c-4 -11 -8 -40 -9 -63 -2 -65 -28 -73 -40 -12 -3 18 -14 38 -24 45 -16 13 -15
15 7 33 13 10 35 19 48 19 21 0 24 -4 18 -22z m-90 -96 c8 -13 -20 -24 -41
-16 -20 8 -9 26 16 26 10 0 22 -5 25 -10z m564 -629 c27 -37 26 -41 -3 -41
-46 0 -55 9 -44 41 13 36 21 36 47 0z"/>
</g>
</svg>
