<?xml version="1.0" standalone="no"?>
<!DOCTYPE svg PUBLIC "-//W3C//DTD SVG 20010904//EN"
 "http://www.w3.org/TR/2001/REC-SVG-20010904/DTD/svg10.dtd">
<svg version="1.0" xmlns="http://www.w3.org/2000/svg"
 width="990.000000pt" height="622.000000pt" viewBox="0 0 990.000000 622.000000"
 preserveAspectRatio="xMidYMid meet">
<metadata>
Created by potrace 1.14, written by Peter Selinger 2001-2017
</metadata>
<g transform="translate(0.000000,622.000000) scale(0.100000,-0.100000)"
fill="#000000" stroke="none">
<path d="M5716 5909 c-10 -6 -39 -9 -64 -6 -25 3 -53 2 -61 -3 -45 -21 -155
-50 -190 -50 -33 0 -117 -14 -207 -35 -20 -4 -80 -47 -115 -80 -9 -8 -19 -15
-24 -15 -4 0 -23 -11 -41 -25 -18 -14 -35 -21 -39 -15 -8 13 -45 -20 -45 -41
0 -22 -93 -123 -144 -158 -91 -62 -134 -84 -186 -98 -30 -7 -61 -20 -70 -27
-36 -33 -250 -75 -379 -76 -76 0 -100 -4 -126 -20 -18 -11 -49 -20 -71 -19
-21 0 -50 0 -64 0 -14 0 -41 1 -60 2 -19 0 -55 -9 -80 -22 -83 -41 -81 -38
-83 -150 -2 -98 -2 -101 -24 -101 -16 0 -23 -6 -23 -18 0 -11 -9 -27 -21 -38
-12 -10 -30 -37 -41 -58 -24 -46 -21 -138 7 -222 13 -41 14 -59 6 -90 -15 -54
-42 -92 -81 -113 -36 -19 -56 -49 -25 -37 10 3 23 2 29 -3 11 -9 49 -18 119
-28 30 -4 46 0 69 17 39 29 51 14 43 -54 -4 -34 -2 -55 9 -71 14 -22 14 -29
-5 -87 -12 -35 -37 -95 -55 -134 -19 -39 -34 -77 -34 -85 0 -21 -21 -39 -45
-39 -12 0 -26 -5 -32 -11 -7 -7 -21 -6 -48 5 -51 22 -58 20 -52 -11 15 -80
-98 -149 -165 -102 -16 12 -46 23 -67 26 -45 6 -69 43 -73 113 -2 34 -7 46
-21 48 -31 6 -127 -111 -143 -174 -7 -27 -39 -54 -65 -54 -10 0 -30 -14 -46
-31 -58 -64 -78 -79 -106 -79 -24 0 -90 -37 -152 -86 -43 -34 -163 -84 -229
-95 -85 -14 -225 -5 -269 18 -18 9 -54 33 -82 53 -35 26 -65 39 -100 44 -27 3
-68 15 -92 27 -37 18 -47 19 -77 8 -30 -11 -37 -10 -61 9 -34 27 -55 28 -99 2
-25 -14 -52 -19 -93 -18 -67 1 -109 -8 -116 -27 -3 -7 -39 -33 -80 -57 l-75
-46 -145 -7 c-156 -8 -174 -4 -210 42 -16 20 -27 24 -65 21 -39 -3 -47 -7 -52
-26 -3 -12 -16 -28 -30 -35 -16 -8 -26 -23 -28 -40 -2 -15 -7 -27 -11 -27 -13
0 -30 -46 -37 -98 -5 -42 -2 -55 19 -88 16 -26 26 -60 30 -99 13 -152 44 -261
103 -375 19 -35 34 -71 34 -80 0 -20 44 -67 70 -75 11 -4 18 -11 15 -16 -6 -9
-2 -39 31 -259 22 -149 69 -245 131 -267 177 -64 280 -76 312 -37 10 12 30 22
47 23 16 1 63 3 104 6 41 2 156 7 255 11 l180 6 73 -39 c62 -32 72 -41 69 -60
-2 -13 0 -23 4 -23 5 0 9 -9 9 -19 0 -11 5 -23 10 -26 6 -3 10 -17 10 -29 0
-34 18 -71 78 -158 36 -53 59 -78 72 -78 19 0 29 -4 83 -32 89 -47 89 -46 77
-69 -9 -16 -7 -19 9 -19 27 0 47 -36 30 -56 -8 -10 -8 -14 0 -14 6 0 11 -12
11 -26 0 -14 7 -32 15 -40 8 -9 15 -23 15 -33 0 -10 9 -26 20 -36 11 -10 20
-28 20 -41 0 -13 6 -38 14 -56 43 -102 58 -154 65 -227 7 -65 14 -88 36 -117
64 -84 235 -159 386 -171 130 -10 171 14 256 146 62 96 63 97 118 112 22 6 45
15 52 21 13 11 73 13 197 6 73 -4 80 -6 107 -36 33 -37 39 -39 39 -13 0 11 4
23 10 26 17 10 76 -24 129 -75 41 -40 51 -55 51 -82 0 -28 13 -47 80 -118 79
-84 84 -92 80 -119 -2 -16 56 -138 78 -163 8 -10 30 -22 48 -28 27 -9 40 -8
66 5 36 17 86 12 95 -11 3 -8 20 -21 38 -30 28 -13 36 -13 54 -2 12 7 21 16
21 20 0 11 46 58 57 58 6 0 21 -20 34 -45 13 -25 31 -47 39 -50 8 -2 65 -5
125 -7 103 -2 112 -1 142 22 24 17 50 25 95 28 35 2 68 8 73 12 6 4 26 11 45
15 19 4 40 11 45 15 6 4 31 11 57 14 28 4 60 17 77 32 16 13 36 24 45 24 10 0
29 6 44 14 15 7 45 17 67 20 22 4 59 18 81 32 24 13 67 26 100 30 64 7 161 43
209 78 50 36 98 61 220 116 71 32 183 114 240 174 24 25 56 48 80 56 98 30
326 180 408 267 86 92 102 112 137 175 19 35 67 96 107 136 65 65 76 72 112
72 37 0 181 50 209 72 6 6 12 19 12 29 0 16 8 19 43 19 34 0 49 7 77 34 20 18
53 39 75 47 22 7 54 23 72 36 17 13 35 23 39 23 3 0 24 16 45 35 22 19 43 35
49 35 5 0 15 19 22 43 6 23 18 46 25 50 7 4 13 23 13 42 0 47 28 113 50 120
10 3 23 20 29 37 6 17 31 61 56 97 44 64 80 141 132 286 25 68 32 80 101 166
17 23 32 45 32 51 0 5 12 25 26 43 24 32 30 49 54 145 31 125 42 161 64 213
14 32 26 69 26 83 0 14 7 39 16 56 21 40 13 122 -14 152 -15 16 -21 40 -24 96
-5 78 -36 168 -70 202 -10 10 -18 27 -18 37 0 11 -11 33 -25 49 -14 17 -25 35
-25 40 0 6 -10 18 -21 26 -19 13 -23 27 -26 97 -2 46 -8 88 -14 95 -5 6 -21
40 -34 75 -14 34 -30 66 -37 70 -6 4 -13 32 -16 63 -3 42 -9 57 -23 61 -16 6
-49 56 -49 77 0 8 -48 87 -60 98 -3 3 -14 21 -24 41 -10 19 -24 42 -30 50 -11
14 -111 79 -122 79 -6 0 -117 70 -124 79 -21 25 -203 161 -217 161 -5 0 -60
52 -122 115 -62 63 -119 115 -126 115 -8 0 -20 6 -27 13 -25 24 -114 56 -171
63 -54 6 -145 44 -187 78 -8 7 -44 25 -80 40 -36 15 -67 31 -70 34 -10 14 -86
69 -138 100 -30 18 -63 42 -75 52 -11 11 -25 20 -30 20 -6 0 -33 17 -61 38
-28 21 -66 42 -85 45 -19 4 -67 27 -106 52 -45 28 -83 44 -101 44 -16 -1 -81
6 -144 16 -63 9 -141 18 -174 19 -42 2 -61 7 -68 19 -10 19 -54 22 -82 6z
m-1561 -1493 c0 -41 -4 -78 -8 -82 -4 -4 -18 3 -32 16 -37 35 -34 81 8 114 17
14 32 26 32 26 0 0 0 -33 0 -74z m-14 -207 c24 -12 18 -43 -14 -73 -15 -14
-24 -17 -36 -9 -23 14 -25 38 -5 67 18 29 26 31 55 15z m387 -67 c-13 -6 -38
6 -38 17 0 16 35 18 41 1 4 -8 2 -17 -3 -18z m-141 4 c-3 -8 1 -17 9 -20 23
-9 6 -26 -25 -26 -15 0 -36 -7 -47 -15 -26 -20 -34 -19 -34 5 0 13 10 24 25
30 14 5 28 17 31 25 4 8 15 15 26 15 13 0 18 -5 15 -14z m-246 -109 c-8 -8
-11 -5 -11 9 0 27 14 41 18 19 2 -9 -1 -22 -7 -28z m-106 12 c4 -6 5 -12 2
-15 -7 -7 -37 7 -37 17 0 13 27 11 35 -2z m300 -8 c3 -5 -4 -13 -16 -16 -23
-8 -34 -1 -24 14 8 13 32 14 40 2z m-415 -23 c15 -37 35 -56 64 -64 16 -4 31
-14 33 -23 3 -13 16 -16 61 -14 53 2 59 0 93 -33 31 -30 42 -35 66 -30 21 5
34 2 43 -9 10 -12 10 -15 -5 -15 -16 0 -16 -2 -1 -25 9 -13 16 -35 16 -47 0
-28 -16 -55 -26 -45 -4 4 -18 -9 -31 -28 -16 -24 -36 -38 -63 -45 -46 -12 -60
-7 -60 22 0 14 -5 18 -16 14 -9 -3 -22 -6 -29 -6 -21 0 -30 -41 -11 -52 20
-11 20 -19 -3 -71 -11 -23 -22 -54 -25 -69 -7 -32 -39 -38 -54 -12 -5 9 -26
19 -47 23 -38 6 -62 31 -31 31 26 0 19 46 -9 68 -22 17 -25 28 -25 81 0 47 -4
63 -16 68 -10 4 -14 16 -12 38 1 18 -3 39 -9 47 -24 28 14 183 52 210 18 14
35 8 45 -14z m-168 -133 c0 -5 -5 -11 -11 -13 -6 -2 -11 4 -11 13 0 9 5 15 11
13 6 -2 11 -8 11 -13z m894 -391 c32 8 55 -18 48 -54 -9 -44 30 -60 132 -53
66 5 83 3 96 -11 9 -9 25 -16 35 -16 34 0 46 -16 40 -51 -15 -84 -20 -105 -32
-119 -29 -35 -57 -102 -46 -113 6 -6 11 -36 11 -66 1 -31 7 -67 15 -81 8 -14
14 -38 15 -53 0 -15 7 -42 16 -58 8 -17 20 -54 25 -82 27 -147 24 -160 -34
-171 -18 -3 -45 -13 -62 -22 -27 -14 -30 -14 -42 3 -24 32 -55 -2 -82 -89 -9
-27 -9 -43 -2 -57 17 -30 12 -110 -8 -170 -21 -59 -78 -114 -131 -126 -16 -3
-36 -17 -45 -31 -11 -18 -22 -23 -40 -20 -14 3 -27 0 -31 -6 -3 -5 -17 -7 -30
-4 -17 5 -32 -2 -58 -26 -64 -61 -65 -62 -84 -45 -9 8 -26 17 -37 19 -12 2
-21 14 -26 34 -3 17 -9 36 -13 42 -9 16 -49 15 -64 0 -10 -10 -15 -10 -22 2
-6 8 -8 20 -6 27 7 18 -16 22 -71 12 -46 -9 -54 -7 -93 18 -39 26 -41 30 -36
63 18 108 19 103 -19 145 -19 22 -35 45 -35 52 0 7 -4 14 -10 14 -5 1 -14 2
-19 3 -19 2 -23 16 -7 22 21 8 21 40 0 52 -14 8 -14 12 -3 30 11 17 11 25 0
44 -7 13 -11 28 -10 34 6 33 -2 41 -48 43 -47 1 -65 13 -60 41 3 18 55 26 70
11 22 -22 25 -18 47 84 15 72 39 125 90 197 51 72 60 104 38 126 -10 10 -5 21
27 51 22 21 54 56 71 78 18 21 58 53 91 71 32 17 67 40 78 52 10 11 23 20 30
20 7 0 20 9 30 20 10 11 31 20 48 20 32 0 96 27 99 41 0 5 1 15 2 22 1 6 12
19 24 28 19 13 32 15 65 7 23 -5 51 -7 63 -4z m-884 -606 c-5 -32 -5 -32 -15
-10 -8 18 -7 26 4 33 8 5 14 9 15 9 0 0 -2 -15 -4 -32z m-75 -32 c-4 -9 -11
-16 -17 -16 -11 0 -14 33 -3 44 11 10 26 -11 20 -28z m8 -59 c-4 -12 -8 -38
-10 -57 -3 -54 -4 -60 -14 -60 -5 0 -15 17 -22 38 -6 20 -18 41 -25 45 -8 4
-14 12 -14 17 0 12 45 35 71 37 17 2 20 -2 14 -20z m-90 -97 c8 -13 -20 -24
-41 -16 -20 8 -9 26 16 26 10 0 22 -5 25 -10z m563 -630 c28 -38 28 -40 -7
-40 -35 0 -45 12 -37 46 8 31 18 30 44 -6z"/>
</g>
</svg>
