<?xml version="1.0" standalone="no"?>
<!DOCTYPE svg PUBLIC "-//W3C//DTD SVG 20010904//EN"
 "http://www.w3.org/TR/2001/REC-SVG-20010904/DTD/svg10.dtd">
<svg version="1.0" xmlns="http://www.w3.org/2000/svg"
 width="990.000000pt" height="622.000000pt" viewBox="0 0 990.000000 622.000000"
 preserveAspectRatio="xMidYMid meet">
<metadata>
Created by potrace 1.14, written by Peter Selinger 2001-2017
</metadata>
<g transform="translate(0.000000,622.000000) scale(0.100000,-0.100000)"
fill="#000000" stroke="none">
<path d="M5594 5920 c-20 -19 -144 -54 -219 -62 -156 -15 -188 -23 -245 -61
-30 -20 -62 -43 -71 -51 -9 -9 -23 -16 -31 -16 -9 0 -21 -7 -28 -15 -7 -9 -20
-13 -30 -10 -22 7 -72 -32 -68 -54 1 -9 -4 -27 -11 -40 -16 -29 -104 -121
-116 -121 -5 0 -16 -6 -24 -14 -31 -28 -107 -64 -161 -77 -30 -7 -62 -18 -70
-25 -32 -27 -278 -73 -393 -73 -62 -1 -85 -5 -107 -21 -16 -12 -44 -20 -66
-20 -22 0 -66 1 -99 1 -49 0 -73 -6 -120 -31 -32 -17 -63 -37 -69 -46 -6 -8
-11 -55 -11 -104 0 -89 0 -90 -27 -99 -18 -7 -28 -17 -28 -30 0 -11 -5 -23
-10 -26 -6 -3 -20 -27 -33 -53 -27 -57 -28 -172 -3 -224 37 -72 5 -169 -70
-212 -17 -10 -36 -27 -43 -38 -11 -18 -10 -19 16 -14 16 4 61 -2 105 -14 72
-19 81 -19 114 -5 l37 15 -6 -53 c-5 -37 -2 -61 8 -81 9 -18 12 -34 6 -44 -5
-10 -14 -42 -21 -73 -7 -31 -29 -87 -49 -124 -30 -56 -42 -70 -73 -80 -29 -10
-43 -9 -75 2 -53 20 -69 21 -64 3 16 -59 13 -72 -19 -101 -21 -19 -38 -28 -50
-24 -10 3 -21 1 -25 -5 -7 -12 -46 -3 -56 12 -3 5 -25 12 -48 15 -57 8 -86 53
-76 118 5 36 3 46 -9 51 -19 7 -103 -58 -116 -90 -5 -11 -18 -34 -29 -51 -12
-16 -21 -37 -21 -46 0 -22 -32 -49 -59 -49 -13 0 -41 -20 -71 -50 -28 -28 -58
-50 -70 -50 -20 0 -60 -21 -90 -47 -34 -30 -90 -65 -166 -103 -69 -35 -97 -43
-178 -51 -129 -13 -234 6 -276 51 -30 32 -90 62 -148 75 -40 9 -73 22 -76 31
-7 17 -41 18 -86 2 -28 -9 -35 -8 -45 5 -17 23 -76 22 -119 -3 -26 -14 -50
-18 -88 -16 -60 4 -88 -6 -130 -46 -16 -15 -39 -30 -51 -34 -12 -4 -35 -17
-52 -29 -27 -20 -46 -23 -182 -29 l-152 -7 -43 40 c-35 32 -50 39 -78 38 -29
-2 -37 -8 -49 -34 -9 -20 -22 -33 -32 -33 -12 0 -28 -21 -48 -64 -37 -76 -40
-137 -12 -193 11 -21 22 -60 26 -88 15 -125 55 -275 96 -359 21 -45 39 -89 39
-99 0 -18 53 -79 76 -88 10 -3 36 -164 51 -314 5 -50 50 -165 64 -165 4 0 10
-8 13 -18 7 -21 56 -52 84 -52 10 0 33 -7 49 -15 42 -21 141 -38 182 -31 18 3
42 13 53 23 11 10 34 19 52 21 64 5 176 11 351 17 l180 7 73 -38 c68 -37 72
-41 66 -67 -4 -17 -1 -27 6 -27 7 0 10 -7 6 -15 -3 -8 -1 -15 4 -15 5 0 12
-12 16 -27 11 -52 28 -88 77 -161 50 -73 72 -93 94 -85 6 2 14 -1 18 -6 3 -6
13 -11 21 -11 9 0 36 -14 60 -31 35 -23 43 -35 39 -50 -5 -14 -2 -19 14 -19
26 0 43 -30 30 -53 -7 -11 -6 -17 1 -17 5 0 10 -13 10 -30 0 -16 4 -30 10 -30
5 0 13 -12 16 -27 4 -16 15 -40 25 -55 11 -14 19 -34 19 -45 1 -10 7 -29 15
-43 8 -14 14 -33 15 -43 0 -10 9 -37 21 -60 12 -25 23 -72 26 -117 3 -41 12
-87 19 -101 64 -128 393 -242 531 -184 52 22 68 39 129 132 54 82 85 113 114
113 8 0 28 7 44 15 31 17 81 20 208 13 78 -4 102 -15 113 -49 8 -26 40 -20 40
6 0 31 41 21 101 -26 62 -48 84 -78 84 -116 0 -21 20 -49 80 -113 59 -63 79
-92 80 -113 0 -15 10 -47 22 -70 12 -23 27 -53 34 -67 20 -40 59 -63 109 -65
33 -2 45 2 45 12 0 11 8 13 33 8 40 -9 47 -13 47 -29 0 -20 66 -39 90 -26 11
6 20 15 20 20 0 13 45 60 58 60 6 0 20 -20 31 -43 12 -24 31 -48 44 -54 12 -5
70 -9 128 -8 93 1 109 4 134 23 21 16 41 22 81 22 29 0 65 5 81 11 15 6 44 15
63 19 19 5 46 11 60 15 14 4 42 10 63 12 26 4 43 13 54 29 8 13 23 24 32 24 9
0 34 9 56 20 22 11 49 20 60 20 12 0 43 11 71 24 27 13 85 32 129 40 44 9 84
21 89 26 6 6 16 10 23 10 7 0 44 20 82 45 75 48 191 108 231 120 39 11 192
127 242 182 14 16 46 35 70 43 62 19 134 58 200 107 31 23 72 49 90 59 51 26
204 190 244 261 70 125 162 207 246 218 29 4 62 12 73 19 11 7 39 18 63 26 23
7 42 17 42 22 0 4 7 8 15 8 9 0 15 9 15 21 0 19 4 21 36 16 33 -6 40 -2 71 32
19 22 55 47 81 57 26 9 61 28 78 41 17 12 35 23 41 23 5 0 18 9 29 21 10 12
31 27 46 35 26 13 35 31 42 78 1 10 7 21 13 24 6 4 14 33 18 66 6 49 13 65 45
99 21 21 41 50 44 63 4 13 16 34 29 48 12 13 27 30 33 38 14 18 60 116 69 148
20 71 71 188 92 211 12 14 23 29 23 33 0 4 16 24 35 44 19 20 35 43 35 51 0 7
13 28 29 46 16 19 36 59 45 92 9 32 21 72 27 88 6 17 14 44 18 60 5 17 22 60
40 97 17 37 31 81 31 97 0 16 4 32 9 35 4 3 14 25 20 48 15 52 3 116 -26 147
-14 15 -22 41 -26 79 -5 64 -37 149 -74 199 -12 17 -23 37 -23 44 0 7 -11 27
-25 45 -14 18 -25 38 -25 44 0 7 -10 20 -22 30 -20 15 -23 28 -26 96 -2 76
-16 134 -32 134 -4 0 -11 12 -14 28 -4 15 -18 51 -33 80 -17 36 -23 63 -20 82
5 23 1 32 -26 53 -32 24 -75 89 -143 211 -21 40 -43 65 -66 76 -119 60 -183
100 -253 159 -44 37 -110 86 -146 109 -36 23 -104 82 -150 131 -110 116 -195
166 -316 187 -41 7 -86 20 -101 27 -62 33 -79 43 -99 62 -12 11 -45 28 -75 39
-29 10 -60 26 -68 35 -8 9 -26 24 -40 34 -53 37 -195 132 -205 137 -43 22
-105 63 -105 70 0 5 -17 12 -37 15 -48 8 -99 31 -141 63 -29 22 -53 28 -186
43 -84 9 -163 22 -174 28 -15 8 -29 8 -48 1 -23 -9 -31 -7 -50 11 -18 17 -30
20 -56 15 -74 -16 -107 -17 -125 -7 -12 6 -24 6 -29 1z m-1445 -1585 c-6 -6
-18 0 -34 17 -29 32 -25 80 9 104 21 14 21 13 27 -48 4 -35 3 -67 -2 -73z m-8
-126 c24 -12 18 -43 -14 -73 -15 -14 -24 -17 -36 -9 -23 14 -25 38 -5 67 18
29 26 31 55 15z m387 -67 c-5 -2 -16 -1 -26 3 -16 6 -15 8 3 21 17 13 20 13
26 -3 3 -10 2 -20 -3 -21z m-141 6 c-2 -7 3 -18 12 -25 14 -10 12 -12 -14 -18
-25 -5 -50 -15 -87 -33 -5 -2 -8 6 -8 17 0 14 9 25 25 31 14 5 28 17 31 25 7
18 48 21 41 3z m-246 -111 c-8 -8 -11 -5 -11 9 0 27 14 41 18 19 2 -9 -1 -22
-7 -28z m-106 12 c4 -6 5 -12 2 -15 -7 -7 -37 7 -37 17 0 13 27 11 35 -2z
m299 -8 c3 -5 -4 -11 -16 -14 -25 -7 -33 -3 -23 12 8 13 32 14 39 2z m-405
-41 c17 -26 34 -41 54 -46 16 -3 31 -14 34 -23 3 -13 15 -16 62 -14 55 2 60 1
91 -33 28 -31 36 -35 65 -30 22 5 36 2 45 -9 10 -12 10 -15 -4 -15 -14 0 -14
-3 1 -34 18 -40 11 -91 -12 -82 -8 3 -15 2 -15 -2 0 -4 -11 -20 -24 -35 -38
-44 -127 -61 -112 -21 7 18 -8 26 -38 18 -31 -7 -45 -43 -22 -56 20 -11 20
-19 -3 -71 -11 -23 -22 -54 -25 -69 -8 -33 -34 -37 -59 -8 -10 12 -29 20 -46
20 -33 0 -51 17 -27 26 25 9 19 54 -9 76 -22 17 -25 27 -25 79 0 45 -4 61 -16
66 -10 4 -14 16 -13 37 2 17 -2 40 -8 51 -25 46 30 216 70 215 6 0 23 -18 36
-40z m-178 -113 c-1 -12 -15 -9 -19 4 -3 6 1 10 8 8 6 -3 11 -8 11 -12z m895
-393 c32 8 55 -18 48 -53 -5 -22 -1 -31 19 -44 20 -13 41 -15 109 -10 70 5 87
3 100 -11 9 -9 23 -16 31 -16 29 0 47 -12 47 -31 0 -26 -20 -111 -31 -129 -45
-77 -60 -113 -50 -123 6 -6 11 -33 11 -60 0 -27 7 -70 15 -96 44 -141 75 -267
75 -305 0 -29 -12 -39 -70 -55 -25 -7 -51 -18 -59 -24 -10 -9 -17 -7 -27 8
-11 15 -18 17 -32 9 -34 -21 -69 -123 -53 -153 16 -28 13 -122 -4 -151 -8 -14
-14 -35 -15 -46 0 -26 -79 -90 -120 -99 -16 -3 -35 -17 -44 -30 -11 -16 -22
-22 -36 -18 -11 3 -26 1 -33 -5 -7 -6 -22 -9 -34 -6 -14 4 -31 -4 -56 -28 -65
-61 -66 -62 -85 -45 -9 8 -26 17 -37 19 -12 2 -21 14 -26 34 -3 17 -9 36 -13
42 -9 16 -49 15 -64 0 -10 -10 -15 -10 -22 2 -6 8 -8 20 -6 27 7 19 -21 23
-74 12 -47 -10 -52 -9 -80 14 -16 14 -35 27 -41 29 -10 3 -10 17 -1 63 16 78
17 74 -23 120 -19 22 -35 45 -35 52 0 7 -12 16 -26 19 -22 6 -24 8 -10 16 21
12 21 44 0 56 -14 8 -14 12 -3 30 11 17 11 26 2 41 -6 10 -10 27 -7 37 3 11
-2 28 -10 39 -9 11 -16 15 -16 10 0 -6 -17 -9 -40 -7 -39 4 -60 28 -45 52 8
13 58 13 72 -1 13 -13 36 -2 27 12 -3 5 -1 16 5 23 6 7 13 31 15 53 2 22 11
51 20 65 9 14 13 27 10 30 -6 7 9 40 29 60 26 28 77 116 77 134 0 11 -5 25
-12 32 -9 9 -1 22 33 56 24 25 57 61 73 79 17 19 55 48 86 65 31 17 65 40 75
52 10 11 23 20 30 20 7 0 20 9 30 20 11 12 31 20 49 20 48 0 101 31 100 58 0
12 3 22 8 22 5 0 16 6 23 14 11 11 24 12 57 4 23 -5 52 -7 64 -4z m-884 -600
c-4 -23 -6 -24 -15 -9 -8 14 2 32 19 35 1 0 -1 -12 -4 -26z m-78 -37 c-3 -9
-10 -17 -15 -17 -11 0 -12 34 -2 44 11 11 24 -9 17 -27z m11 -59 c-4 -13 -8
-41 -9 -63 -1 -49 -25 -55 -39 -10 -6 17 -17 35 -25 41 -20 15 -8 32 31 43 48
14 50 13 42 -11z m-96 -97 c9 -6 10 -11 2 -15 -15 -10 -53 3 -46 15 8 11 26
11 44 0z m569 -631 c28 -38 28 -40 -7 -40 -35 0 -45 12 -37 46 8 31 18 30 44
-6z"/>
<path d="M3340 4030 c0 -5 4 -10 9 -10 6 0 13 5 16 10 3 6 -1 10 -9 10 -9 0
-16 -4 -16 -10z"/>
</g>
</svg>
