<?xml version="1.0" standalone="no"?>
<!DOCTYPE svg PUBLIC "-//W3C//DTD SVG 20010904//EN"
 "http://www.w3.org/TR/2001/REC-SVG-20010904/DTD/svg10.dtd">
<svg version="1.0" xmlns="http://www.w3.org/2000/svg"
 width="990.000000pt" height="622.000000pt" viewBox="0 0 990.000000 622.000000"
 preserveAspectRatio="xMidYMid meet">
<metadata>
Created by potrace 1.14, written by Peter Selinger 2001-2017
</metadata>
<g transform="translate(0.000000,622.000000) scale(0.100000,-0.100000)"
fill="#000000" stroke="none">
<path d="M5570 5925 c-41 -21 -123 -45 -154 -45 -28 0 -173 -17 -222 -26 -11
-2 -31 -13 -45 -25 -13 -11 -41 -29 -61 -40 -20 -10 -39 -23 -43 -29 -3 -5
-15 -10 -25 -10 -10 0 -25 -6 -32 -13 -7 -6 -26 -13 -43 -14 -38 -2 -77 -45
-70 -76 4 -14 -1 -30 -15 -44 -11 -12 -20 -26 -20 -31 0 -17 -122 -112 -144
-112 -4 0 -20 -9 -35 -19 -14 -11 -49 -22 -76 -27 -28 -4 -60 -14 -73 -22 -13
-8 -34 -16 -48 -18 -14 -1 -47 -7 -72 -13 -75 -18 -180 -33 -272 -38 -61 -3
-92 -10 -111 -24 -20 -14 -48 -19 -125 -22 -83 -3 -107 -8 -149 -30 -91 -48
-94 -52 -96 -155 -3 -91 -3 -91 -31 -97 -20 -5 -28 -13 -28 -29 0 -12 -13 -57
-30 -99 -16 -43 -30 -89 -30 -102 0 -13 12 -60 26 -105 25 -79 25 -82 8 -126
-12 -30 -36 -61 -75 -95 -62 -53 -75 -76 -36 -62 32 11 83 7 128 -11 22 -9 58
-16 80 -16 l42 0 -7 -39 c-3 -23 -1 -52 6 -68 6 -15 10 -32 8 -38 -2 -5 -7
-36 -11 -69 -13 -88 -57 -167 -105 -190 -41 -19 -35 -20 -126 17 -20 8 -30 8
-42 -2 -14 -12 -14 -16 4 -38 25 -33 25 -50 0 -58 -11 -3 -20 -15 -20 -26 0
-23 -15 -25 -24 -4 -8 22 -34 18 -41 -5 -6 -19 -8 -19 -42 -5 -19 8 -45 15
-57 15 -13 0 -32 11 -45 24 -19 20 -21 32 -19 91 2 48 -1 69 -10 72 -21 8
-125 -108 -160 -178 -27 -56 -37 -67 -63 -73 -17 -3 -43 -18 -57 -34 -36 -38
-81 -68 -114 -76 -14 -3 -41 -22 -59 -41 -19 -19 -37 -35 -42 -35 -5 0 -23
-10 -40 -22 -42 -30 -134 -78 -172 -90 -16 -5 -68 -13 -115 -18 -136 -13 -214
10 -307 91 -19 17 -53 32 -88 39 -54 11 -63 16 -88 53 -12 17 -15 17 -66 -4
-49 -21 -54 -21 -63 -6 -11 21 -76 14 -124 -13 -22 -13 -48 -17 -90 -15 -60 3
-92 -7 -107 -32 -4 -7 -27 -23 -50 -34 -23 -12 -55 -31 -72 -44 -27 -19 -46
-23 -174 -28 -156 -6 -167 -4 -213 45 -19 20 -35 28 -60 28 -37 -1 -68 -20
-68 -43 0 -8 -11 -18 -25 -21 -15 -4 -30 -18 -36 -34 -6 -15 -18 -41 -26 -58
-21 -45 -21 -133 1 -166 10 -15 22 -62 27 -105 6 -43 14 -82 20 -87 5 -6 9
-21 9 -36 0 -39 34 -147 74 -233 20 -43 36 -84 36 -92 0 -19 58 -85 75 -85 8
0 16 -35 24 -107 7 -60 17 -130 22 -156 5 -26 9 -62 9 -78 0 -41 44 -131 84
-174 24 -25 42 -35 64 -35 17 0 46 -9 64 -20 21 -12 62 -22 113 -26 77 -6 82
-5 112 20 19 16 37 24 48 20 9 -4 27 -1 39 6 17 9 33 9 61 1 27 -7 47 -7 74 2
21 7 105 13 201 15 160 2 166 2 210 -23 25 -14 58 -30 73 -36 24 -10 27 -15
22 -40 -4 -19 -3 -29 5 -29 7 0 10 -7 6 -15 -3 -8 -1 -15 4 -15 5 0 12 -12 16
-28 11 -51 28 -87 77 -162 51 -78 69 -95 92 -86 8 3 17 1 20 -4 4 -6 14 -10
24 -10 9 0 27 -9 39 -20 12 -11 25 -20 30 -20 5 0 15 -7 22 -15 10 -12 10 -18
0 -30 -10 -13 -9 -15 10 -15 31 0 53 -30 37 -49 -9 -11 -9 -15 1 -18 6 -3 12
-17 12 -33 0 -15 7 -33 15 -40 8 -7 15 -22 15 -35 0 -12 9 -30 20 -40 11 -10
20 -31 20 -46 0 -15 4 -30 9 -34 5 -3 13 -20 16 -38 4 -17 16 -50 27 -72 11
-23 22 -72 25 -115 7 -92 19 -117 81 -171 116 -99 362 -159 469 -114 52 22 68
39 128 130 63 95 62 95 141 123 66 24 94 26 214 19 91 -5 106 -11 126 -49 12
-23 18 -27 29 -18 8 6 12 17 9 25 -3 7 -1 16 5 20 18 10 76 -24 130 -76 40
-39 51 -56 49 -78 -2 -31 29 -76 111 -156 38 -36 51 -57 51 -78 0 -15 10 -47
22 -70 12 -23 27 -53 34 -67 19 -39 71 -70 115 -68 26 1 39 6 39 15 0 11 8 13
33 8 40 -9 47 -13 47 -28 1 -7 16 -19 35 -28 38 -18 38 -18 100 55 21 24 27
27 40 16 9 -8 22 -28 30 -47 18 -42 38 -49 155 -52 81 -1 101 1 135 20 24 13
70 25 115 30 69 7 114 16 180 34 23 7 58 12 88 14 6 1 22 12 34 26 12 14 28
25 35 25 8 0 25 7 38 16 13 8 46 21 74 29 27 7 63 22 78 33 15 10 53 22 83 26
81 11 161 41 237 90 91 58 190 111 236 126 21 7 61 31 87 55 27 24 57 46 68
49 11 4 38 29 61 56 23 28 48 50 55 50 27 0 143 54 201 93 34 23 88 60 121 82
63 42 204 183 226 225 73 143 173 240 246 240 19 0 56 11 84 25 27 14 55 25
61 25 18 0 77 44 77 57 0 9 14 12 40 11 35 -1 45 4 78 39 21 23 54 46 77 53
22 7 49 20 60 30 11 10 31 23 43 30 13 6 34 21 47 32 13 11 34 26 47 32 15 7
26 26 33 51 5 22 15 43 22 48 7 4 10 14 7 22 -11 27 18 116 43 139 14 11 34
37 44 56 11 19 37 59 58 89 43 59 52 79 107 233 21 59 47 118 59 131 11 13 39
46 63 72 23 26 42 51 42 56 0 5 16 29 35 54 19 25 39 65 45 88 13 48 72 191
106 257 13 25 24 52 24 61 0 9 9 42 20 74 28 82 26 140 -6 182 -15 19 -35 68
-45 108 -17 70 -70 189 -86 197 -4 1 -16 19 -26 38 -42 82 -51 96 -69 117 -17
19 -20 32 -16 90 5 64 3 72 -33 139 -22 39 -39 79 -39 88 0 9 -4 16 -10 16 -5
0 -10 28 -12 62 -2 51 -7 64 -23 73 -54 27 -86 68 -155 199 -39 72 -31 66
-190 146 -75 38 -87 47 -171 124 -34 31 -68 56 -74 56 -21 0 -146 103 -215
178 -81 87 -186 146 -287 162 -77 12 -190 63 -198 91 -3 10 -19 21 -35 24 -17
4 -32 11 -35 16 -4 5 -14 9 -24 9 -9 0 -26 8 -37 18 -40 37 -141 112 -149 112
-6 0 -39 19 -75 43 -36 24 -90 60 -121 80 -30 20 -65 37 -77 37 -28 0 -67 17
-122 54 -40 27 -60 32 -200 49 -85 10 -177 21 -205 24 -27 3 -58 12 -67 20
-12 11 -28 13 -53 9 -19 -3 -50 -9 -69 -12 -20 -3 -36 -1 -40 5 -9 14 -34 13
-66 -4z m-1422 -1522 c15 -71 -1 -95 -32 -48 -19 28 -20 49 -6 76 17 30 28 23
38 -28z m-7 -194 c24 -12 18 -43 -14 -73 -15 -14 -24 -17 -36 -9 -23 14 -25
38 -5 67 18 29 26 31 55 15z m393 -54 c4 -10 -1 -15 -14 -15 -11 0 -20 7 -20
15 0 8 6 15 14 15 8 0 16 -7 20 -15z m-147 -7 c-2 -7 3 -18 12 -25 14 -10 12
-12 -14 -18 -25 -5 -50 -15 -87 -33 -5 -2 -8 6 -8 17 0 14 8 23 25 27 13 3 27
15 30 25 4 10 15 19 27 19 11 0 18 -5 15 -12z m-246 -111 c-8 -8 -11 -5 -11 9
0 27 14 41 18 19 2 -9 -1 -22 -7 -28z m-106 12 c4 -6 5 -12 2 -15 -7 -7 -37 7
-37 17 0 13 27 11 35 -2z m299 -8 c6 -9 -35 -24 -43 -15 -6 5 18 24 31 24 4 0
9 -4 12 -9z m-404 -42 c16 -26 35 -42 55 -48 22 -6 30 -13 29 -29 0 -12 3 -22
8 -22 4 0 8 4 8 9 0 5 25 9 55 9 49 -1 57 -4 86 -35 27 -30 36 -34 64 -29 22
5 36 2 45 -9 10 -12 10 -15 -4 -15 -20 0 -20 -10 -1 -36 19 -25 19 -58 0 -74
-8 -7 -15 -9 -15 -5 0 4 -17 -11 -37 -34 -29 -31 -46 -42 -73 -44 -29 -2 -35
1 -35 18 0 16 -7 20 -30 18 -17 -1 -35 -10 -42 -20 -11 -14 -10 -20 8 -39 l20
-22 -19 -43 c-11 -24 -23 -56 -26 -71 -7 -33 -28 -36 -56 -8 -11 11 -31 20
-44 20 -27 0 -42 15 -26 25 19 12 11 57 -15 77 -22 17 -25 27 -25 78 0 44 -4
61 -17 68 -12 7 -14 18 -10 39 4 19 1 38 -8 50 -8 11 -12 23 -9 25 2 3 6 28 8
56 1 31 10 59 19 70 9 10 17 23 17 28 0 13 21 34 35 34 5 0 21 -19 35 -41z
m-176 -120 c-6 -11 -24 -2 -24 11 0 5 7 7 15 4 8 -4 12 -10 9 -15z m892 -385
c32 8 55 -18 48 -53 -5 -22 -1 -31 19 -44 20 -13 41 -15 109 -10 70 5 87 3
100 -11 9 -9 23 -16 31 -16 29 0 47 -12 47 -31 0 -26 -20 -111 -31 -129 -43
-75 -59 -113 -51 -123 6 -7 12 -39 14 -72 5 -64 22 -140 45 -193 13 -30 22
-70 39 -174 7 -42 -7 -68 -38 -68 -10 0 -37 -9 -60 -20 -39 -19 -42 -19 -54
-2 -10 13 -17 15 -31 6 -35 -21 -70 -122 -54 -153 16 -28 13 -122 -4 -151 -8
-14 -14 -35 -15 -46 0 -26 -79 -90 -121 -99 -16 -4 -36 -17 -45 -30 -10 -15
-21 -21 -35 -18 -10 3 -25 1 -32 -5 -7 -6 -22 -9 -34 -6 -14 4 -31 -4 -56 -28
-65 -61 -66 -62 -86 -44 -10 9 -25 16 -33 16 -10 0 -21 16 -30 43 -14 45 -45
60 -74 36 -13 -10 -17 -10 -25 2 -5 8 -7 19 -4 26 7 19 -34 26 -81 13 -41 -12
-45 -11 -73 13 -17 14 -36 27 -43 29 -10 4 -10 15 0 57 17 74 16 81 -23 126
-19 22 -35 45 -35 52 0 7 -12 16 -26 19 -22 6 -24 8 -10 16 21 12 20 44 -1 57
-15 8 -16 12 -5 22 14 16 16 59 2 59 -6 0 -8 10 -5 23 3 12 -1 31 -9 42 -9 11
-16 15 -16 10 0 -6 -17 -9 -40 -7 -39 4 -60 28 -45 52 9 14 58 13 73 -2 9 -9
15 -9 24 0 7 7 9 12 5 12 -4 0 -2 10 5 23 6 12 13 39 14 59 1 21 9 45 18 53 9
9 16 28 16 43 0 16 13 42 30 62 17 19 33 43 36 53 3 9 9 17 14 17 15 0 23 69
10 85 -10 12 -4 23 32 59 23 25 57 60 73 79 17 18 55 48 85 66 30 17 77 48
105 68 28 21 69 40 94 45 60 11 94 34 88 59 -3 10 -1 19 5 19 5 0 16 6 23 14
11 11 24 12 57 4 23 -5 52 -7 64 -4z m-884 -600 c-4 -23 -6 -24 -15 -9 -8 14
2 32 19 35 1 0 -1 -12 -4 -26z m-85 -41 c-16 -16 -17 -16 -17 3 0 11 3 24 7
28 4 3 11 2 17 -4 7 -7 5 -16 -7 -27z m18 -55 c-4 -13 -8 -41 -9 -63 -1 -49
-25 -55 -39 -10 -6 17 -17 35 -25 41 -20 15 -8 32 31 43 48 14 50 13 42 -11z
m-100 -99 c10 -15 -1 -22 -24 -14 -12 3 -19 11 -16 16 8 12 32 11 40 -2z m575
-667 c-45 -7 -68 26 -38 56 9 9 17 4 35 -21 l24 -32 -21 -3z"/>
<path d="M3221 4107 c-11 -11 -16 -67 -5 -67 20 0 44 24 44 44 0 27 -22 40
-39 23z"/>
<path d="M3345 4042 c-17 -12 -58 -73 -52 -78 3 -3 16 6 28 19 13 14 36 27 52
31 33 8 37 36 5 36 -13 0 -28 -4 -33 -8z"/>
</g>
</svg>
