<?xml version="1.0" standalone="no"?>
<!DOCTYPE svg PUBLIC "-//W3C//DTD SVG 20010904//EN"
 "http://www.w3.org/TR/2001/REC-SVG-20010904/DTD/svg10.dtd">
<svg version="1.0" xmlns="http://www.w3.org/2000/svg"
 width="990.000000pt" height="622.000000pt" viewBox="0 0 990.000000 622.000000"
 preserveAspectRatio="xMidYMid meet">
<metadata>
Created by potrace 1.14, written by Peter Selinger 2001-2017
</metadata>
<g transform="translate(0.000000,622.000000) scale(0.100000,-0.100000)"
fill="#000000" stroke="none">
<path d="M5581 5946 c-17 -20 -136 -54 -211 -61 -179 -15 -208 -20 -232 -42
-30 -28 -116 -73 -140 -73 -10 0 -21 -6 -23 -12 -3 -7 -15 -14 -28 -15 -65 -4
-104 -46 -91 -98 4 -17 0 -27 -15 -37 -12 -7 -21 -20 -21 -29 0 -23 -40 -57
-104 -88 -30 -16 -61 -32 -68 -38 -15 -11 -88 -33 -111 -33 -9 0 -28 -5 -44
-11 -15 -6 -39 -13 -53 -15 -14 -2 -36 -6 -50 -9 -14 -2 -54 -9 -90 -14 -36
-5 -85 -14 -110 -20 -25 -6 -70 -11 -100 -11 -37 0 -66 -7 -88 -20 -23 -14
-52 -20 -100 -21 -94 -2 -176 -31 -249 -88 -27 -21 -30 -29 -26 -57 3 -18 2
-58 -1 -88 -6 -46 -11 -56 -26 -56 -23 0 -34 -16 -36 -50 -1 -14 -9 -50 -18
-80 -42 -136 -42 -132 -3 -228 19 -47 20 -58 8 -100 -10 -37 -27 -61 -82 -114
-73 -71 -87 -96 -41 -72 35 18 105 18 140 0 15 -8 44 -17 64 -21 42 -8 39 6
38 -178 0 -180 -71 -246 -202 -188 -36 17 -47 27 -50 48 -5 40 -40 48 -75 15
-27 -25 -63 -75 -63 -87 0 -12 29 -4 53 15 14 11 32 20 41 20 14 0 14 -4 -1
-42 -9 -24 -21 -50 -28 -58 -7 -8 -15 -22 -18 -32 -5 -13 -15 -15 -54 -11 -87
9 -107 33 -91 106 8 38 19 55 54 84 31 27 42 42 38 55 -3 11 1 20 10 24 8 3
12 12 9 20 -3 8 -10 11 -15 8 -6 -4 -14 -1 -18 6 -10 16 -52 -28 -71 -72 -6
-15 -19 -30 -29 -33 -30 -10 -119 -114 -158 -187 -28 -53 -43 -70 -63 -75 -15
-3 -49 -23 -75 -45 -27 -23 -67 -49 -89 -58 -22 -10 -57 -34 -78 -54 -20 -20
-41 -36 -45 -36 -5 0 -17 -8 -28 -18 -10 -9 -52 -34 -93 -55 -59 -30 -93 -41
-172 -51 -145 -18 -229 2 -309 75 -19 18 -61 43 -93 55 -32 13 -71 34 -88 48
-35 30 -36 30 -69 11 -30 -17 -67 -19 -72 -4 -4 12 -41 3 -120 -29 -20 -8 -44
-12 -52 -9 -9 4 -16 2 -16 -3 0 -12 -40 -13 -59 -1 -16 10 -66 -13 -75 -34 -3
-8 -24 -24 -48 -36 -24 -12 -56 -31 -73 -44 -27 -20 -45 -23 -179 -28 l-149
-5 -42 39 c-61 56 -125 58 -145 3 -5 -13 -18 -24 -28 -24 -23 0 -42 -19 -42
-42 0 -10 -9 -35 -20 -55 -26 -49 -26 -125 -1 -167 10 -17 21 -54 25 -82 13
-106 65 -287 113 -390 15 -32 28 -66 29 -75 2 -26 46 -79 70 -85 20 -5 23 -15
29 -82 4 -43 13 -113 21 -157 7 -44 14 -92 14 -107 0 -40 46 -138 82 -176 24
-24 41 -32 67 -32 19 0 42 -7 52 -15 21 -20 139 -39 192 -32 21 3 45 14 52 24
12 17 49 24 115 22 14 -1 36 -1 50 -1 14 -1 57 4 95 10 39 6 126 12 195 12
114 -1 129 -3 170 -25 25 -14 57 -30 72 -36 23 -9 26 -15 21 -40 -4 -19 -1
-29 7 -29 7 0 10 -6 7 -14 -3 -8 -2 -16 3 -18 6 -2 16 -26 23 -54 13 -50 106
-201 133 -217 8 -4 20 -7 26 -6 27 4 98 -30 98 -47 0 -8 6 -11 13 -8 8 3 20
-2 27 -11 10 -12 10 -18 0 -30 -10 -13 -9 -15 10 -15 29 0 53 -30 38 -47 -7
-9 -7 -17 2 -28 6 -8 9 -19 5 -25 -3 -5 3 -22 14 -36 12 -15 21 -33 21 -41 0
-8 9 -26 20 -40 11 -14 20 -36 20 -49 0 -12 4 -25 9 -29 5 -3 13 -20 16 -38 4
-17 16 -50 26 -72 11 -22 22 -74 26 -115 3 -41 12 -87 19 -101 18 -36 100
-107 149 -129 123 -56 158 -64 271 -64 106 -1 112 0 148 27 20 16 49 47 64 70
15 23 30 47 35 52 4 6 18 26 30 45 17 26 40 42 91 62 71 29 101 32 226 25 92
-5 106 -11 122 -48 7 -16 16 -29 19 -29 12 0 29 27 22 34 -4 4 -1 11 7 16 20
12 77 -20 133 -75 36 -36 47 -53 45 -74 -2 -31 29 -76 111 -156 38 -36 51 -57
51 -78 0 -15 10 -47 22 -70 12 -23 27 -53 34 -67 19 -40 71 -70 120 -70 24 0
43 3 41 8 -4 12 11 15 43 8 22 -4 30 -11 30 -27 0 -12 3 -20 6 -16 4 3 19 0
34 -8 25 -13 30 -13 54 6 14 11 26 25 26 30 0 15 40 50 51 44 5 -4 18 -24 29
-45 11 -22 29 -44 39 -50 11 -5 66 -10 123 -10 89 0 108 3 138 22 25 16 54 23
100 24 91 4 150 13 187 30 17 8 47 14 66 14 19 0 40 7 47 15 17 20 120 75 141
75 10 0 46 15 81 33 35 18 79 34 98 35 61 4 157 42 236 94 81 52 192 111 234
123 34 10 205 139 229 174 12 16 40 35 68 45 26 10 66 25 88 34 50 21 248 153
295 196 63 59 143 157 167 205 29 59 106 148 136 157 12 3 29 13 38 20 8 8 38
17 65 20 27 4 60 15 74 24 14 10 39 21 57 24 17 4 37 14 44 22 6 8 18 14 25
14 8 0 14 6 14 14 0 9 10 14 28 14 43 -1 65 10 87 44 13 20 37 37 69 49 27 10
57 27 68 39 10 11 25 20 32 20 7 0 26 12 42 26 16 14 41 32 57 40 19 10 31 28
39 59 7 25 15 45 19 45 3 0 10 31 13 70 7 65 23 100 47 100 6 0 16 15 24 33 8
19 21 40 30 47 43 36 93 131 131 250 39 126 58 160 124 225 33 33 60 65 60 73
0 7 16 30 34 50 19 20 38 48 41 62 7 26 64 154 92 204 46 83 73 143 73 164 0
13 7 46 16 73 24 72 16 157 -18 194 -15 15 -29 44 -33 64 -9 49 -92 220 -110
227 -8 4 -15 12 -15 19 0 8 -11 27 -25 43 -14 17 -25 36 -25 44 0 8 -9 26 -21
39 -18 21 -20 32 -15 90 7 64 6 67 -45 164 -47 91 -51 104 -47 153 5 53 4 53
-32 72 -51 26 -103 83 -142 154 -18 34 -39 74 -48 89 -11 22 -38 39 -111 70
-114 50 -128 59 -204 131 -33 30 -76 63 -95 72 -48 23 -111 75 -204 168 -106
107 -184 151 -296 168 -82 13 -137 38 -181 82 -19 18 -58 44 -88 57 -29 12
-64 32 -76 43 -52 47 -133 106 -146 106 -8 0 -30 13 -49 29 -19 15 -54 38 -76
49 -23 12 -54 32 -70 45 -18 15 -47 26 -77 29 -33 4 -65 17 -100 41 -57 39
-115 56 -193 57 -28 0 -54 3 -58 7 -4 4 -26 8 -49 9 -62 2 -161 16 -172 24
-22 16 -79 30 -89 21 -21 -16 -71 -19 -96 -6 -32 18 -35 18 -49 1z m-1437
-1557 c8 -61 3 -70 -23 -38 -24 28 -25 42 -9 69 19 30 25 25 32 -31z m0 -182
c16 -12 17 -17 6 -38 -22 -41 -40 -54 -59 -42 -23 14 -25 38 -5 67 18 29 32
32 58 13z m386 -52 c0 -8 -7 -15 -15 -15 -8 0 -15 7 -15 15 0 8 7 15 15 15 8
0 15 -7 15 -15z m-143 -7 c-2 -7 3 -18 12 -25 14 -10 12 -12 -14 -18 -25 -5
-50 -15 -87 -33 -5 -2 -8 6 -8 17 0 14 8 23 25 27 13 3 27 15 30 25 4 10 15
19 27 19 11 0 18 -5 15 -12z m-246 -111 c-8 -8 -11 -5 -11 9 0 27 14 41 18 19
2 -9 -1 -22 -7 -28z m-107 14 c3 -4 3 -11 0 -14 -8 -8 -34 3 -34 14 0 11 27
12 34 0z m286 -23 c-13 -5 -25 -6 -29 -3 -9 10 21 24 37 17 12 -4 10 -7 -8
-14z m-390 -29 c16 -26 35 -42 55 -48 22 -6 30 -13 29 -29 -1 -26 0 -26 26
-10 16 10 24 10 40 0 12 -7 20 -8 20 -2 0 22 38 8 68 -26 28 -32 36 -35 66
-30 24 5 37 2 46 -9 10 -12 10 -15 -4 -15 -20 0 -20 -10 -1 -36 18 -24 19 -58
3 -72 -7 -6 -16 -10 -19 -9 -3 1 -18 -12 -33 -30 -32 -38 -94 -63 -107 -42 -4
7 -6 16 -3 20 8 13 -16 21 -41 15 -14 -4 -29 -15 -35 -27 -9 -16 -7 -23 11
-37 l21 -18 -21 -42 c-11 -23 -21 -50 -21 -60 0 -11 -7 -25 -15 -32 -12 -10
-20 -8 -41 9 -15 12 -37 21 -50 21 -27 0 -29 7 -14 45 9 23 6 30 -20 53 -27
24 -30 33 -30 84 0 43 -4 59 -17 66 -12 7 -14 18 -10 39 4 18 1 38 -8 50 -8
12 -10 25 -5 33 5 8 6 26 4 40 -9 43 44 140 76 140 3 0 16 -19 30 -41z m-510
-98 c0 -14 -49 -31 -56 -20 -7 12 -7 12 21 27 20 10 35 8 35 -7z m330 -22 c0
-6 -4 -7 -10 -4 -5 3 -10 11 -10 16 0 6 5 7 10 4 6 -3 10 -11 10 -16z m896
-385 c32 8 55 -18 48 -53 -5 -22 -1 -31 20 -44 21 -14 40 -16 109 -11 69 6 86
4 99 -10 9 -9 23 -16 31 -16 29 0 47 -12 47 -31 0 -26 -20 -111 -31 -129 -40
-68 -59 -113 -52 -123 4 -7 10 -39 14 -72 6 -66 23 -133 50 -210 10 -27 23
-82 30 -122 13 -79 6 -103 -33 -103 -10 0 -37 -9 -60 -20 -39 -19 -42 -19 -54
-2 -10 13 -17 15 -31 6 -35 -21 -70 -122 -54 -153 16 -29 13 -106 -4 -148 -8
-19 -15 -44 -15 -54 0 -10 -12 -27 -27 -36 -15 -10 -35 -25 -44 -34 -9 -10
-31 -20 -48 -24 -18 -4 -37 -15 -44 -26 -7 -11 -23 -19 -39 -19 -15 0 -30 -5
-33 -10 -3 -6 -17 -7 -31 -4 -18 5 -31 -1 -53 -25 -16 -17 -33 -31 -39 -31 -5
0 -15 -7 -22 -15 -12 -14 -15 -14 -30 0 -9 8 -24 15 -32 15 -10 0 -21 16 -30
43 -10 32 -19 43 -37 45 -13 2 -28 -1 -34 -7 -17 -17 -27 -13 -27 10 0 41 -22
50 -78 32 l-50 -16 -32 26 c-17 15 -36 27 -42 27 -6 0 -8 12 -3 33 19 92 18
111 -9 140 -14 16 -33 41 -41 58 -10 19 -23 29 -38 29 -20 1 -20 2 -4 11 9 5
17 19 17 29 0 10 -8 23 -17 29 -15 8 -16 12 -5 22 14 15 16 55 2 64 -5 3 -7
12 -4 19 3 8 -1 27 -10 43 -8 15 -15 21 -16 13 0 -24 -77 -14 -85 11 -4 10 -3
23 0 29 10 16 63 12 73 -6 8 -14 10 -14 21 0 8 9 10 16 6 16 -4 0 0 10 8 23 8
13 15 39 14 59 0 21 6 42 16 52 9 10 17 26 17 37 0 19 18 59 32 69 4 3 21 26
37 50 31 46 39 88 21 106 -7 7 4 26 36 60 25 27 56 60 68 73 11 12 50 43 86
67 36 24 88 59 115 77 28 19 67 36 89 40 53 8 89 34 83 58 -3 10 -1 19 5 19 5
0 16 6 23 14 11 11 24 12 57 4 23 -5 52 -7 64 -4z m-884 -600 c-3 -18 -7 -22
-13 -13 -4 7 -3 19 3 26 15 18 16 17 10 -13z m-85 -41 c-16 -16 -17 -16 -17 3
0 11 3 24 7 28 4 3 11 2 17 -4 7 -7 5 -16 -7 -27z m16 -55 c-4 -13 -8 -41 -8
-63 0 -49 -23 -55 -38 -10 -6 17 -17 36 -26 43 -14 11 -14 14 4 27 11 9 28 14
38 11 9 -2 17 0 17 5 0 5 5 9 11 9 6 0 7 -8 2 -22z m-98 -99 c10 -15 -1 -22
-24 -14 -12 3 -19 11 -16 16 8 12 32 11 40 -2z m575 -667 c-45 -7 -68 26 -38
56 9 9 17 4 35 -21 l24 -32 -21 -3z"/>
<path d="M3290 4265 c-15 -18 -6 -45 14 -45 15 0 36 29 36 49 0 16 -36 13 -50
-4z"/>
</g>
</svg>
