<?xml version="1.0" standalone="no"?>
<!DOCTYPE svg PUBLIC "-//W3C//DTD SVG 20010904//EN"
 "http://www.w3.org/TR/2001/REC-SVG-20010904/DTD/svg10.dtd">
<svg version="1.0" xmlns="http://www.w3.org/2000/svg"
 width="990.000000pt" height="622.000000pt" viewBox="0 0 990.000000 622.000000"
 preserveAspectRatio="xMidYMid meet">
<metadata>
Created by potrace 1.14, written by Peter Selinger 2001-2017
</metadata>
<g transform="translate(0.000000,622.000000) scale(0.100000,-0.100000)"
fill="#000000" stroke="none">
<path d="M5570 5956 c-58 -32 -110 -47 -171 -51 -182 -10 -251 -23 -274 -51
-18 -22 -103 -64 -129 -64 -14 0 -27 -4 -30 -9 -3 -4 -25 -14 -48 -20 -69 -20
-80 -32 -80 -91 1 -36 -4 -53 -14 -57 -8 -3 -14 -13 -14 -22 0 -10 -9 -26 -19
-38 -30 -32 -205 -113 -245 -113 -19 0 -47 -5 -63 -12 -15 -6 -32 -10 -36 -9
-5 1 -45 -5 -90 -14 -45 -8 -101 -17 -125 -19 -23 -3 -47 -8 -52 -11 -5 -3
-43 -10 -83 -14 -40 -5 -89 -16 -108 -24 -19 -9 -63 -18 -99 -21 -80 -5 -170
-38 -232 -84 l-46 -35 5 -52 c8 -72 -11 -125 -43 -125 -13 0 -24 -3 -24 -7 -3
-75 -12 -158 -18 -167 -5 -6 -14 -30 -21 -54 -13 -45 -6 -80 25 -140 31 -59 8
-142 -53 -190 -18 -15 -56 -55 -85 -89 -28 -35 -61 -66 -72 -69 -30 -9 -66
-44 -66 -65 0 -28 -31 -92 -63 -129 -16 -19 -59 -66 -95 -104 -36 -38 -82 -99
-102 -135 -28 -52 -44 -70 -75 -84 -22 -11 -49 -27 -60 -37 -11 -10 -45 -31
-75 -46 -30 -16 -72 -48 -94 -71 -21 -24 -44 -43 -51 -43 -7 0 -18 -7 -25 -15
-7 -8 -48 -33 -92 -56 -67 -34 -96 -42 -171 -50 -155 -16 -193 -5 -321 88 -32
24 -63 43 -68 43 -6 0 -30 13 -54 30 -58 39 -87 45 -136 29 -28 -9 -41 -10
-46 -2 -8 13 -80 -3 -130 -31 -19 -9 -40 -15 -48 -12 -8 3 -14 1 -14 -4 0 -13
-36 -13 -60 0 -13 7 -21 7 -25 0 -3 -5 -14 -10 -24 -10 -10 0 -21 -9 -24 -19
-2 -11 -24 -29 -48 -41 -24 -12 -57 -32 -74 -45 -27 -20 -45 -23 -179 -28
l-149 -5 -41 38 c-22 20 -56 40 -74 43 -29 6 -38 2 -64 -24 -17 -17 -42 -35
-54 -39 -16 -6 -27 -23 -34 -52 -7 -24 -15 -47 -20 -53 -4 -5 -10 -31 -13 -56
-5 -36 -2 -55 14 -85 11 -22 23 -66 26 -99 3 -33 9 -67 13 -75 5 -9 20 -60 35
-115 14 -55 32 -114 40 -130 36 -78 55 -128 55 -145 0 -23 62 -90 83 -90 12 0
17 -17 22 -77 4 -43 13 -114 21 -158 7 -44 14 -94 14 -112 0 -39 28 -105 69
-161 27 -36 36 -42 69 -42 21 0 48 -9 62 -20 14 -11 41 -20 60 -20 19 0 52 -4
73 -9 43 -10 95 3 114 28 9 12 33 16 105 18 111 2 187 9 195 17 4 3 67 6 142
6 125 -1 140 -2 181 -25 25 -14 57 -30 72 -36 23 -9 26 -15 21 -40 -3 -19 -1
-29 6 -29 7 0 10 -4 7 -9 -4 -5 1 -22 9 -38 8 -15 17 -40 19 -54 3 -15 32 -67
65 -116 57 -88 60 -90 105 -96 51 -7 86 -25 86 -44 0 -7 9 -13 19 -13 25 0 37
-18 22 -33 -18 -18 -13 -25 14 -19 25 4 25 4 29 -48 1 -8 5 -21 9 -27 5 -7 5
-18 2 -23 -3 -6 3 -22 14 -36 12 -15 21 -34 21 -42 0 -9 7 -23 16 -33 9 -10
20 -32 24 -51 11 -45 51 -151 61 -164 5 -6 12 -47 15 -90 8 -88 19 -118 65
-163 42 -43 100 -75 194 -108 69 -24 95 -28 187 -28 104 0 107 1 145 31 21 17
64 69 96 117 51 76 63 88 105 102 26 10 56 21 68 27 11 5 72 7 140 4 111 -5
120 -7 140 -30 12 -13 24 -31 26 -38 4 -11 8 -11 21 0 9 8 13 20 10 28 -3 9 2
14 17 14 35 0 77 -28 142 -95 23 -22 28 -36 24 -56 -4 -23 8 -40 80 -118 63
-69 84 -98 84 -119 0 -15 6 -36 14 -47 7 -11 19 -37 25 -57 19 -57 74 -98 133
-98 30 0 48 5 50 13 5 21 68 1 68 -22 0 -12 12 -21 37 -29 35 -11 40 -9 65 15
15 15 26 28 24 31 -3 2 5 13 16 24 24 24 42 13 58 -38 16 -46 39 -54 166 -54
83 0 110 4 131 18 17 11 58 20 113 24 141 12 194 19 205 27 5 5 26 11 46 15
21 4 48 15 60 25 31 24 117 66 150 74 14 4 41 17 61 30 21 15 58 27 94 32 32
4 80 15 106 25 44 17 177 94 188 110 8 11 150 80 164 80 19 0 183 123 227 169
20 22 56 45 85 56 69 25 163 71 204 101 19 14 46 33 59 42 141 100 134 94 190
162 25 29 50 58 56 64 6 6 19 29 29 51 33 70 116 164 146 165 8 0 26 9 40 20
15 12 41 20 63 20 23 0 49 8 64 20 14 11 33 20 42 20 9 0 32 10 51 22 19 12
37 23 40 23 3 1 12 4 20 8 8 3 27 8 43 11 28 7 48 24 80 70 10 14 26 26 36 26
24 0 81 29 81 41 0 6 12 15 28 22 72 32 131 80 149 123 10 24 21 44 24 44 3 0
6 29 7 65 1 81 6 98 34 110 12 6 26 19 32 30 6 11 25 36 41 56 17 20 37 45 45
55 23 29 56 105 64 144 4 19 21 72 38 117 27 73 38 90 99 148 38 36 69 72 69
79 0 8 16 29 35 47 19 19 35 37 35 42 0 16 62 136 76 148 8 6 14 18 14 26 0 8
8 27 18 41 45 65 82 144 82 174 0 18 9 53 20 77 31 68 27 131 -13 194 -18 29
-45 83 -61 121 -15 37 -38 85 -51 104 -14 20 -25 42 -25 48 0 6 -9 18 -20 25
-11 8 -40 50 -65 94 -45 80 -45 80 -39 151 6 68 5 74 -23 115 -53 80 -75 144
-68 203 l7 52 -50 22 c-72 33 -116 81 -162 177 -30 65 -47 88 -68 96 -15 7
-38 16 -52 21 -14 6 -38 16 -55 24 -16 7 -46 20 -65 28 -19 8 -66 44 -104 80
-38 36 -79 68 -90 72 -33 10 -132 90 -221 181 -46 46 -88 83 -95 83 -6 0 -31
13 -54 30 -31 21 -69 34 -132 46 -110 20 -147 37 -191 92 -21 24 -44 42 -57
43 -29 1 -81 36 -190 126 -22 18 -47 33 -56 33 -8 0 -31 13 -51 29 -19 16 -55
38 -79 50 -25 11 -58 32 -74 46 -20 17 -41 25 -67 25 -35 0 -88 22 -129 54 -8
6 -25 17 -38 24 -26 14 -172 33 -249 32 -29 -1 -63 5 -75 11 -13 7 -36 12 -51
10 -15 -1 -38 4 -50 12 -36 23 -64 26 -107 11 -36 -13 -44 -12 -63 1 -26 18
-35 18 -67 1z m-1425 -1572 c8 -45 1 -53 -25 -29 -23 21 -25 36 -8 53 19 19
25 14 33 -24z m-578 -20 c83 -36 80 -34 82 -77 0 -23 3 -81 7 -129 5 -79 3
-92 -17 -127 -28 -50 -65 -65 -122 -50 -38 10 -97 59 -97 80 0 5 -13 9 -29 9
-23 0 -39 -12 -77 -56 -43 -50 -46 -57 -32 -70 12 -13 20 -14 37 -5 26 15 26
7 1 -35 -24 -38 -48 -48 -90 -39 -42 9 -52 26 -44 76 5 35 17 54 55 92 27 26
49 52 49 57 0 6 5 10 11 10 7 0 8 16 3 46 -5 38 -3 48 15 65 11 11 23 32 26
47 9 41 18 54 64 90 49 37 97 42 158 16z m577 -160 c13 -12 14 -20 4 -37 -20
-39 -38 -52 -57 -40 -25 16 -25 42 0 69 26 28 32 29 53 8z m386 -49 c0 -8 -7
-15 -15 -15 -8 0 -15 7 -15 15 0 8 7 15 15 15 8 0 15 -7 15 -15z m-143 -7 c-2
-7 3 -18 12 -25 14 -10 12 -12 -14 -18 -17 -3 -45 -13 -62 -20 -31 -14 -33
-13 -33 5 0 13 9 22 25 26 13 3 27 15 30 25 4 10 15 19 27 19 11 0 18 -5 15
-12z m-246 -111 c-8 -8 -11 -5 -11 9 0 27 14 41 18 19 2 -9 -1 -22 -7 -28z
m-107 14 c3 -4 3 -11 0 -14 -8 -8 -34 3 -34 14 0 11 27 12 34 0z m286 -23
c-13 -5 -25 -6 -29 -3 -9 10 21 24 37 17 12 -4 10 -7 -8 -14z m-390 -32 c21
-32 38 -46 58 -48 21 -2 27 -8 26 -25 -1 -27 0 -27 26 -11 16 10 24 10 40 0
12 -7 20 -8 20 -2 0 22 40 8 64 -22 22 -28 32 -33 67 -33 28 0 44 -5 47 -14 3
-10 0 -12 -13 -8 -15 6 -15 3 4 -28 25 -43 27 -68 6 -85 -12 -10 -15 -10 -15
1 0 8 -8 1 -18 -16 -24 -39 -43 -54 -81 -65 -29 -8 -33 -6 -41 16 -14 35 -60
31 -81 -8 -8 -15 -6 -22 12 -36 l21 -18 -21 -42 c-11 -23 -21 -50 -21 -60 0
-11 -7 -25 -15 -32 -13 -10 -19 -9 -38 6 -12 11 -25 23 -28 28 -4 5 -12 5 -18
2 -20 -13 -30 3 -21 35 8 28 6 34 -20 57 -27 24 -30 33 -30 83 0 38 -5 61 -15
69 -8 7 -15 26 -15 44 -3 171 -3 177 14 194 9 10 16 22 16 27 0 6 29 33 37 35
1 0 16 -20 33 -44z m-186 -112 c3 -8 2 -12 -4 -9 -6 3 -10 10 -10 16 0 14 7
11 14 -7z m902 -390 c14 4 29 0 38 -10 19 -18 19 -20 6 -44 -8 -15 -5 -23 17
-40 24 -18 35 -20 113 -14 72 6 89 4 102 -10 9 -9 25 -16 35 -16 32 0 46 -16
40 -46 -3 -16 -8 -47 -12 -69 -4 -22 -13 -47 -20 -55 -7 -8 -22 -34 -35 -57
-19 -35 -22 -47 -12 -65 6 -13 13 -45 15 -73 4 -55 20 -123 48 -200 10 -27 23
-82 30 -122 13 -79 6 -103 -33 -103 -10 0 -38 -9 -61 -20 -36 -18 -42 -18 -50
-5 -21 37 -58 5 -83 -73 -14 -44 -15 -56 -4 -77 24 -45 -10 -204 -50 -232 -13
-9 -31 -24 -41 -34 -9 -9 -31 -20 -48 -24 -18 -4 -37 -15 -44 -26 -7 -11 -23
-19 -39 -19 -15 0 -30 -5 -33 -10 -3 -6 -17 -7 -31 -4 -18 5 -31 -1 -53 -25
-16 -17 -33 -31 -39 -31 -5 0 -15 -7 -22 -15 -12 -14 -15 -14 -30 0 -9 8 -24
15 -33 15 -11 0 -20 14 -28 45 -10 40 -14 45 -40 45 -15 0 -31 -4 -34 -10 -11
-18 -25 -10 -25 14 0 40 -21 48 -78 30 l-51 -17 -31 27 c-17 14 -36 26 -42 26
-6 0 -8 12 -4 33 21 98 20 102 -25 166 -28 40 -50 61 -63 61 -19 1 -19 1 -3
11 9 5 17 19 17 29 0 10 -8 23 -17 29 -15 8 -16 12 -5 22 13 14 16 51 5 62 -3
4 -8 17 -9 30 -12 95 -12 108 1 121 8 7 14 33 13 56 0 30 5 46 16 52 9 5 16
20 16 34 0 14 20 54 45 88 55 78 65 104 52 133 -9 19 -4 29 32 70 75 85 85 94
155 142 130 87 171 111 193 111 38 0 93 32 93 53 0 11 9 28 20 37 17 15 28 16
62 8 23 -5 52 -7 64 -4z m-886 -606 c0 -18 -2 -20 -9 -8 -6 8 -7 18 -5 22 9
14 14 9 14 -14z m-70 -17 c0 -5 -7 -14 -15 -21 -13 -10 -15 -9 -15 9 0 12 6
21 15 21 8 0 15 -4 15 -9z m3 -73 c-4 -13 -8 -41 -8 -63 0 -48 -24 -56 -36
-12 -4 16 -16 35 -26 43 -17 13 -17 15 2 29 11 9 28 14 38 11 9 -2 17 0 17 5
0 5 5 9 11 9 6 0 7 -8 2 -22z m-98 -99 c10 -15 -1 -22 -24 -14 -12 3 -19 11
-16 16 8 12 32 11 40 -2z m255 -29 c17 -32 11 -40 -29 -40 -31 0 -41 4 -46 20
-9 28 0 37 35 38 20 0 33 -6 40 -18z m312 -597 c25 -23 23 -43 -6 -43 -30 0
-40 13 -31 40 8 24 13 25 37 3z"/>
</g>
</svg>
