<?xml version="1.0" standalone="no"?>
<!DOCTYPE svg PUBLIC "-//W3C//DTD SVG 20010904//EN"
 "http://www.w3.org/TR/2001/REC-SVG-20010904/DTD/svg10.dtd">
<svg version="1.0" xmlns="http://www.w3.org/2000/svg"
 width="990.000000pt" height="622.000000pt" viewBox="0 0 990.000000 622.000000"
 preserveAspectRatio="xMidYMid meet">
<metadata>
Created by potrace 1.14, written by Peter Selinger 2001-2017
</metadata>
<g transform="translate(0.000000,622.000000) scale(0.100000,-0.100000)"
fill="#000000" stroke="none">
<path d="M5554 5966 c-70 -36 -97 -44 -169 -50 -157 -11 -250 -25 -260 -38
-16 -22 -105 -68 -134 -69 -14 0 -57 -17 -96 -37 l-70 -37 -3 -52 c-2 -29 -8
-53 -13 -53 -6 0 -9 -8 -7 -18 5 -29 -34 -68 -93 -93 -30 -12 -61 -28 -69 -35
-17 -14 -86 -34 -94 -27 -2 3 -31 -1 -63 -8 -32 -6 -114 -20 -183 -29 -69 -10
-150 -25 -180 -34 -30 -9 -69 -16 -85 -16 -17 0 -36 -5 -42 -11 -6 -6 -52 -17
-102 -25 -49 -7 -100 -19 -113 -25 -47 -25 -58 -29 -73 -29 -9 0 -35 -18 -59
-40 -42 -39 -43 -41 -38 -93 5 -62 -7 -91 -46 -109 -26 -13 -27 -16 -28 -93
-1 -58 -8 -97 -24 -141 l-24 -61 32 -66 c36 -75 38 -84 17 -132 -13 -34 -163
-189 -240 -249 -39 -31 -48 -46 -65 -111 -7 -28 -31 -62 -78 -111 -84 -90
-136 -157 -165 -213 -16 -32 -34 -51 -64 -65 -23 -12 -50 -28 -60 -36 -10 -8
-44 -28 -76 -45 -36 -18 -71 -46 -90 -72 -18 -23 -37 -43 -44 -43 -6 0 -24
-11 -40 -23 -26 -22 -42 -31 -134 -78 -44 -22 -204 -39 -276 -30 -29 4 -61 15
-71 24 -10 9 -23 17 -28 17 -5 0 -17 8 -26 17 -25 26 -148 113 -168 118 -3 1
-22 9 -42 18 -45 20 -52 21 -96 5 -28 -10 -36 -10 -39 -1 -4 10 -11 9 -33 -2
-16 -8 -36 -15 -44 -15 -8 0 -31 -9 -50 -21 -19 -11 -41 -19 -48 -18 -7 1 -21
-1 -30 -5 -9 -4 -26 -2 -38 4 -16 9 -25 9 -33 1 -6 -6 -19 -11 -28 -11 -9 0
-19 -9 -22 -20 -3 -11 -13 -23 -24 -27 -10 -3 -45 -23 -78 -44 l-60 -37 -144
-5 -143 -5 -45 44 c-25 24 -50 41 -55 38 -5 -3 -15 -1 -22 5 -11 9 -22 4 -50
-23 -20 -19 -47 -37 -59 -40 -28 -7 -68 -100 -74 -174 -4 -40 0 -60 15 -85 10
-18 22 -62 26 -97 4 -35 12 -73 18 -83 6 -11 21 -61 34 -111 14 -50 31 -104
38 -121 27 -58 54 -130 60 -156 7 -32 52 -79 76 -79 15 0 19 -18 29 -119 7
-66 16 -135 22 -153 5 -18 9 -52 9 -76 0 -93 86 -212 153 -212 18 0 41 -7 51
-15 11 -8 33 -15 48 -15 16 0 49 -5 74 -11 50 -13 97 0 125 35 12 14 20 17 34
9 12 -7 27 -7 46 0 21 8 34 8 52 -2 21 -11 33 -11 73 3 56 18 44 17 229 22
135 4 142 3 185 -21 25 -14 57 -31 72 -37 22 -10 26 -16 21 -40 -4 -18 -1 -28
6 -28 7 0 9 -4 6 -10 -3 -5 1 -20 9 -32 9 -12 16 -31 16 -42 0 -20 50 -113 98
-181 24 -34 35 -41 77 -48 51 -8 85 -30 85 -53 0 -7 6 -11 13 -9 6 3 19 1 27
-5 12 -7 12 -12 2 -22 -18 -18 -15 -27 7 -21 21 5 47 -29 36 -48 -4 -5 -1 -16
5 -24 6 -8 9 -19 5 -25 -3 -5 3 -22 14 -36 12 -15 21 -34 21 -42 0 -9 6 -23
14 -31 8 -9 19 -32 24 -51 6 -19 23 -66 37 -105 35 -92 47 -143 42 -180 -18
-124 190 -259 419 -272 145 -8 171 6 260 138 60 88 72 100 113 115 25 9 55 20
67 26 11 5 72 7 140 4 125 -5 132 -8 163 -65 8 -13 12 -13 25 -1 10 7 15 19
12 27 -10 26 41 13 90 -24 74 -56 96 -84 90 -114 -4 -22 8 -41 80 -118 59 -64
84 -99 84 -116 0 -14 9 -43 20 -65 11 -22 20 -45 20 -53 0 -20 63 -77 95 -85
34 -10 97 -3 89 9 -3 5 2 9 11 9 28 0 55 -20 55 -41 0 -11 4 -18 9 -14 5 3 21
0 36 -7 25 -11 29 -9 65 28 22 21 39 45 40 52 0 25 24 6 46 -38 12 -23 30 -48
40 -53 11 -6 67 -10 128 -9 86 1 114 5 140 21 24 14 58 20 153 24 75 4 135 12
158 21 21 9 45 16 54 16 9 0 47 18 84 39 37 22 77 43 89 46 39 12 108 48 108
57 0 4 14 8 32 8 70 0 194 47 281 107 83 57 195 117 238 128 14 3 41 20 60 36
19 17 52 42 74 56 22 15 48 36 58 47 43 52 59 64 104 80 115 42 155 60 188 85
85 65 123 91 130 91 26 0 194 182 220 238 28 59 92 137 128 155 74 36 110 49
127 44 10 -2 31 6 46 19 16 13 38 23 50 24 12 0 38 11 58 25 20 14 49 27 64
31 58 12 85 29 108 66 13 21 28 38 33 38 6 0 22 5 38 12 15 6 31 12 35 12 4 1
15 11 23 24 9 12 24 22 34 22 10 0 24 7 31 15 7 8 19 15 26 15 8 0 14 5 14 10
0 6 11 15 23 19 40 15 77 106 77 185 0 60 3 70 26 91 15 14 31 25 35 25 5 0 9
4 9 10 0 5 23 38 50 72 64 80 100 143 100 177 0 30 28 121 41 136 5 5 9 18 9
29 0 12 30 49 74 91 40 38 80 84 89 102 9 17 26 38 37 46 11 8 31 37 45 65 13
28 37 66 52 84 16 18 36 49 46 68 10 19 35 64 57 100 21 36 39 76 39 89 1 14
12 57 26 96 30 89 24 149 -23 217 -18 26 -32 49 -32 53 0 15 -57 124 -87 166
-18 26 -33 51 -33 57 0 6 -6 15 -12 19 -22 14 -76 88 -92 127 -11 27 -14 57
-10 109 3 50 1 79 -8 94 -84 141 -81 132 -75 213 l6 75 -69 28 c-87 35 -107
57 -160 165 l-43 89 -61 17 c-33 10 -68 22 -76 27 -8 5 -26 14 -40 20 -60 27
-83 43 -128 91 -25 27 -69 61 -97 75 -61 31 -84 50 -202 164 -50 49 -96 89
-103 89 -6 0 -30 13 -53 28 -48 33 -113 54 -175 58 -55 4 -117 40 -158 91 -20
25 -46 43 -71 51 -21 6 -49 21 -62 33 -57 53 -156 127 -164 122 -8 -5 -55 22
-72 42 -5 7 -35 25 -65 41 -30 15 -65 37 -77 47 -12 11 -29 17 -37 14 -19 -8
-85 11 -116 33 -87 61 -111 68 -259 75 -78 4 -144 12 -147 16 -3 5 -23 9 -44
9 -21 0 -42 5 -45 10 -3 6 -15 10 -25 10 -11 0 -25 6 -32 13 -10 11 -16 11
-38 0 -32 -16 -58 -16 -90 2 -30 17 -25 18 -76 -9z m-1414 -1591 c7 -14 10
-28 6 -32 -10 -10 -50 33 -42 46 11 17 21 13 36 -14z m-586 -10 c11 -8 28 -15
37 -15 21 0 38 -26 32 -50 -2 -9 3 -44 11 -77 28 -108 14 -197 -34 -223 -36
-19 -94 -3 -144 41 -64 57 -83 52 -155 -40 -24 -31 -32 -49 -28 -68 6 -32 -13
-53 -46 -53 -40 0 -48 19 -30 75 11 33 32 64 65 95 44 42 48 50 48 92 0 28 6
50 15 58 8 7 20 31 26 54 25 95 141 158 203 111z m596 -177 c0 -41 -41 -78
-65 -58 -31 26 -3 80 42 80 17 0 23 -6 23 -22z m380 -33 c0 -8 -7 -15 -15 -15
-8 0 -15 7 -15 15 0 8 7 15 15 15 8 0 15 -7 15 -15z m-143 -7 c-2 -7 3 -18 12
-24 12 -10 9 -13 -20 -19 -19 -4 -46 -14 -61 -21 -26 -14 -28 -13 -28 6 0 13
9 22 25 26 13 3 27 15 30 25 4 10 15 19 27 19 11 0 18 -5 15 -12z m-241 -105
c-11 -11 -19 6 -11 24 8 17 8 17 12 0 3 -10 2 -21 -1 -24z m-112 8 c3 -4 3
-11 0 -14 -8 -8 -34 3 -34 14 0 11 27 12 34 0z m286 -23 c-13 -5 -25 -6 -29
-3 -9 10 21 24 37 17 12 -4 10 -7 -8 -14z m-386 -38 c18 -28 33 -40 50 -40 24
0 41 -24 30 -41 -7 -13 3 -11 26 3 16 10 24 10 40 0 12 -7 20 -8 20 -2 0 23
41 7 66 -25 24 -32 32 -36 67 -33 24 2 42 -2 44 -9 3 -7 -4 -10 -19 -6 -13 3
-19 1 -13 -4 42 -34 58 -109 23 -107 -10 1 -20 -7 -23 -17 -17 -53 -125 -96
-125 -49 0 33 -62 24 -81 -12 -8 -15 -6 -22 10 -36 l20 -17 -20 -50 c-12 -27
-25 -60 -30 -73 -9 -23 -9 -23 -39 -5 -17 9 -30 21 -30 25 0 4 -9 8 -20 8 -17
0 -20 6 -18 36 2 29 -3 40 -25 56 -24 17 -27 26 -27 78 0 39 -5 62 -15 70 -8
7 -15 26 -15 44 0 17 -1 61 -2 98 -1 57 2 72 25 107 15 23 33 41 41 41 7 0 25
-18 40 -40z m712 -496 c14 4 29 0 38 -10 19 -18 19 -20 6 -44 -8 -15 -5 -23
17 -40 24 -18 35 -20 113 -14 72 6 89 4 102 -10 9 -9 25 -16 35 -16 32 0 46
-16 40 -46 -3 -16 -8 -47 -12 -69 -4 -22 -13 -47 -20 -55 -7 -8 -23 -34 -36
-58 -19 -36 -21 -46 -11 -62 7 -11 12 -42 12 -69 0 -27 7 -65 15 -84 8 -20 15
-48 15 -62 0 -14 6 -36 14 -48 8 -12 22 -63 32 -114 19 -99 13 -123 -28 -123
-10 0 -38 -9 -61 -20 -36 -18 -42 -18 -50 -5 -4 8 -13 15 -19 15 -17 0 -58
-41 -58 -59 0 -8 -5 -29 -12 -47 -9 -27 -9 -38 2 -59 11 -21 12 -37 1 -88 -6
-34 -14 -76 -17 -94 -4 -19 -16 -39 -31 -48 -13 -9 -33 -25 -43 -35 -10 -10
-32 -21 -49 -25 -18 -4 -37 -15 -44 -26 -7 -11 -23 -19 -39 -19 -15 0 -30 -4
-33 -10 -3 -5 -19 -7 -34 -4 -24 5 -33 1 -52 -25 -12 -17 -28 -31 -35 -31 -6
0 -17 -7 -24 -15 -11 -13 -14 -13 -27 0 -8 8 -23 15 -34 15 -14 0 -22 11 -30
46 l-12 46 -43 -4 c-36 -2 -44 0 -44 13 0 33 -24 40 -78 23 -51 -17 -51 -17
-81 9 -17 14 -36 27 -43 29 -10 4 -10 13 0 45 7 22 12 52 12 67 0 37 -78 146
-104 146 -19 1 -19 1 -3 11 22 13 22 37 0 61 -9 11 -11 18 -5 18 12 0 17 52 6
63 -21 20 -19 143 1 164 11 10 14 25 9 48 -4 24 -2 34 10 38 10 4 16 18 16 38
0 27 33 88 60 109 4 3 16 26 29 52 18 38 20 51 11 68 -12 22 3 42 93 138 37
40 259 182 283 182 38 0 94 32 94 53 0 11 9 28 20 37 17 15 28 16 62 8 23 -5
52 -7 64 -4z m-889 -606 c-3 -8 -6 -5 -6 6 -1 11 2 17 5 13 3 -3 4 -12 1 -19z
m-67 -17 c0 -5 -7 -14 -15 -21 -13 -10 -15 -9 -15 9 0 12 6 21 15 21 8 0 15
-4 15 -9z m4 -68 c-4 -10 -8 -38 -9 -63 0 -55 -24 -62 -37 -12 -5 18 -16 36
-24 39 -26 10 15 46 44 38 15 -4 21 -2 17 5 -3 5 -1 10 5 10 8 0 9 -6 4 -17z
m-99 -102 c7 -12 -12 -24 -25 -16 -11 7 -4 25 10 25 5 0 11 -4 15 -9z m252
-30 c22 -28 15 -41 -21 -41 -37 0 -60 19 -51 42 8 21 56 20 72 -1z m317 -603
c22 -31 20 -38 -8 -38 -30 0 -40 13 -31 40 8 26 20 25 39 -2z"/>
</g>
</svg>
