<?xml version="1.0" standalone="no"?>
<!DOCTYPE svg PUBLIC "-//W3C//DTD SVG 20010904//EN"
 "http://www.w3.org/TR/2001/REC-SVG-20010904/DTD/svg10.dtd">
<svg version="1.0" xmlns="http://www.w3.org/2000/svg"
 width="990.000000pt" height="622.000000pt" viewBox="0 0 990.000000 622.000000"
 preserveAspectRatio="xMidYMid meet">
<metadata>
Created by potrace 1.14, written by Peter Selinger 2001-2017
</metadata>
<g transform="translate(0.000000,622.000000) scale(0.100000,-0.100000)"
fill="#000000" stroke="none">
<path d="M5590 6002 c0 -7 -38 -25 -80 -37 -14 -4 -31 -13 -39 -19 -8 -6 -42
-12 -75 -12 -144 -4 -244 -20 -283 -46 -82 -54 -95 -60 -119 -54 -16 4 -35 0
-52 -11 -49 -32 -67 -43 -88 -52 -25 -11 -55 -70 -52 -103 2 -14 -2 -22 -10
-20 -8 1 -11 -5 -7 -21 9 -33 -33 -76 -96 -98 -30 -11 -55 -24 -57 -29 -2 -6
-10 -10 -18 -10 -8 0 -14 -4 -14 -9 0 -4 -35 -11 -77 -14 -152 -12 -268 -26
-298 -36 -16 -6 -43 -12 -60 -15 -16 -2 -43 -9 -58 -15 -16 -6 -43 -11 -61
-11 -18 0 -50 -8 -72 -19 -21 -10 -67 -21 -102 -24 -34 -3 -74 -12 -87 -21
-13 -9 -30 -16 -37 -16 -36 0 -157 -86 -159 -113 0 -6 -1 -37 -2 -67 -2 -53
-3 -55 -39 -72 -41 -19 -55 -47 -39 -77 23 -42 4 -177 -31 -219 -11 -12 -4
-35 23 -82 49 -85 45 -117 -32 -206 -72 -85 -81 -94 -114 -111 -50 -25 -112
-103 -129 -160 -12 -43 -29 -67 -90 -129 -42 -43 -76 -82 -76 -87 0 -5 -9 -17
-20 -27 -11 -10 -33 -43 -49 -75 -28 -54 -34 -60 -137 -117 -73 -40 -128 -79
-165 -116 -65 -67 -66 -67 -144 -112 -81 -47 -115 -58 -204 -66 -42 -3 -78 -6
-81 -7 -25 -3 -110 20 -129 34 -13 11 -28 19 -33 19 -9 0 -24 11 -56 41 -39
37 -146 101 -193 116 -40 13 -55 14 -70 5 -23 -15 -49 -16 -49 -2 0 6 -15 3
-32 -7 -18 -9 -41 -16 -50 -14 -10 1 -18 -2 -18 -7 0 -10 -51 -37 -64 -33 -6
1 -20 -3 -32 -9 -16 -9 -27 -9 -43 0 -27 14 -77 -5 -84 -32 -3 -10 -13 -21
-24 -25 -10 -3 -45 -23 -78 -44 l-60 -37 -135 -2 c-74 -2 -140 -2 -147 -1 -7
0 -28 17 -48 36 -19 20 -47 40 -62 46 -23 8 -31 6 -62 -21 -20 -17 -48 -35
-63 -41 -16 -6 -33 -25 -43 -47 -9 -20 -20 -45 -26 -55 -5 -10 -10 -47 -10
-82 -1 -48 4 -70 19 -92 13 -17 22 -51 25 -88 3 -33 15 -87 26 -120 12 -33 28
-83 36 -112 8 -29 23 -72 34 -95 35 -76 51 -120 51 -138 0 -24 56 -80 80 -80
15 0 19 -12 25 -82 3 -46 11 -110 16 -143 6 -33 14 -90 18 -127 9 -69 37 -129
85 -180 19 -21 35 -28 62 -28 21 0 45 -7 55 -16 10 -9 35 -17 56 -19 21 -1 55
-6 75 -10 45 -9 104 9 118 35 9 16 14 18 35 8 18 -8 28 -8 38 1 11 8 22 8 46
0 25 -9 43 -9 74 1 59 17 96 22 243 27 140 5 136 6 244 -53 19 -10 36 -20 38
-20 1 -1 -2 -13 -7 -28 -9 -21 -8 -26 5 -26 8 0 13 -4 10 -9 -3 -5 1 -22 9
-37 8 -16 15 -36 15 -44 0 -14 32 -73 95 -172 24 -39 35 -48 58 -48 41 0 98
-27 104 -50 3 -11 9 -17 14 -14 5 3 16 1 25 -4 11 -6 13 -11 5 -16 -20 -13
-13 -38 8 -31 22 7 45 -24 35 -48 -3 -8 -1 -18 5 -21 6 -4 8 -13 4 -22 -3 -8
1 -22 10 -32 8 -9 18 -28 22 -42 4 -14 13 -32 20 -40 7 -8 18 -31 23 -50 6
-19 23 -66 37 -105 37 -95 47 -144 40 -182 -12 -67 59 -150 178 -208 96 -46
175 -65 269 -65 130 0 158 19 256 172 27 41 53 70 70 76 115 42 120 43 219 38
54 -3 106 -6 115 -6 10 0 30 -20 46 -45 l28 -46 12 26 c7 15 10 31 7 36 -4 5
5 9 19 9 15 0 48 -19 83 -47 75 -61 84 -73 79 -104 -4 -22 9 -42 80 -118 66
-72 84 -97 84 -121 0 -16 9 -44 20 -62 11 -18 20 -40 20 -48 1 -20 39 -64 69
-80 44 -23 155 -22 120 1 -11 7 -10 9 3 9 32 0 48 -12 48 -37 0 -18 4 -24 15
-19 8 3 27 0 41 -6 25 -12 29 -9 74 40 l47 52 15 -22 c8 -13 18 -33 22 -45 14
-43 46 -53 164 -50 92 2 113 5 131 21 18 16 39 20 129 21 99 2 193 17 217 35
6 4 25 11 43 15 18 4 58 22 89 41 31 19 63 34 70 34 7 0 36 15 65 33 37 24 70
36 108 40 97 10 210 60 285 128 26 23 139 83 185 98 19 6 60 31 90 56 30 25
62 47 70 50 9 3 31 23 49 45 39 47 65 62 169 97 42 14 96 39 119 57 23 17 65
47 92 66 95 65 124 90 172 147 27 32 56 65 64 73 8 9 20 29 27 45 20 47 85
130 110 143 51 25 130 52 139 46 6 -3 27 5 47 18 20 13 56 30 79 37 23 8 44
20 48 28 3 9 12 12 20 9 8 -3 15 -1 15 4 0 6 13 10 29 10 28 0 47 14 115 89
11 12 25 20 30 18 6 -2 17 2 24 10 8 7 18 11 22 8 5 -3 14 4 20 16 7 11 26 27
43 35 37 17 66 34 85 52 7 6 16 12 20 12 4 0 20 25 36 56 24 46 30 70 30 124
l1 67 55 55 c124 125 156 177 172 278 6 35 22 89 36 120 25 55 103 140 128
140 8 0 14 7 14 15 0 8 4 15 10 15 5 0 12 11 16 24 3 13 23 40 44 58 21 19 47
52 58 74 11 21 33 53 48 69 16 17 58 75 93 130 48 75 65 111 68 145 3 25 8 54
13 65 35 87 38 160 8 212 -12 21 -32 56 -45 78 -12 22 -33 63 -47 91 -13 28
-28 54 -34 58 -5 3 -22 29 -37 57 -15 29 -47 71 -71 95 -49 49 -79 117 -63
145 5 10 9 44 9 77 0 47 -4 63 -21 78 -18 16 -38 51 -43 74 -1 3 -10 18 -20
33 -17 25 -18 34 -6 103 12 70 12 76 -6 89 -10 7 -37 17 -59 20 -82 14 -118
45 -170 149 l-47 95 -57 16 c-31 9 -79 28 -108 41 -28 13 -57 24 -62 24 -6 0
-42 31 -79 69 -37 37 -88 77 -112 88 -46 21 -212 159 -229 191 -6 10 -37 33
-70 51 -33 17 -63 36 -66 41 -7 12 -65 29 -137 40 -79 12 -147 47 -166 86 -14
30 -78 74 -106 74 -7 0 -32 17 -55 38 -91 82 -123 105 -145 107 -26 3 -66 26
-66 38 0 4 -16 15 -35 24 -19 9 -35 21 -35 25 0 5 -5 6 -10 3 -10 -6 -72 31
-78 47 -2 4 -21 8 -42 8 -47 0 -79 13 -142 58 -27 19 -48 31 -48 28 0 -4 -9
-2 -21 5 -11 6 -53 13 -92 15 -40 2 -103 6 -142 8 -38 3 -71 10 -73 16 -3 7
-17 8 -40 4 -27 -5 -38 -3 -48 11 -7 10 -20 15 -28 12 -9 -4 -22 0 -29 8 -9 9
-18 10 -24 4 -17 -17 -90 -15 -111 4 -20 18 -32 22 -32 9z m-1440 -1643 c0
-18 -35 -5 -38 14 -3 16 -1 17 17 7 12 -6 21 -15 21 -21z m-577 -6 c33 -14 37
-20 32 -42 -3 -15 2 -58 10 -96 27 -119 12 -205 -35 -205 -21 0 -114 45 -149
71 -18 15 -27 16 -43 8 -29 -16 -66 -55 -118 -127 -26 -36 -52 -62 -62 -62
-19 0 -24 15 -8 25 6 3 10 17 10 31 0 31 25 70 69 110 28 24 35 39 36 70 1 21
11 55 23 74 12 19 22 42 22 51 0 24 47 82 83 102 35 19 67 17 130 -10z m577
-165 c0 -41 -41 -78 -65 -58 -31 26 -3 80 42 80 17 0 23 -6 23 -22z m380 -35
c0 -7 -7 -13 -15 -13 -8 0 -15 6 -15 13 0 8 7 14 15 14 8 0 15 -6 15 -14z
m-145 -4 c-4 -6 1 -16 11 -24 17 -12 15 -14 -21 -20 -22 -4 -50 -14 -62 -21
-21 -13 -23 -13 -23 6 0 13 9 22 25 26 13 3 27 15 30 25 4 10 15 19 26 19 12
0 17 -4 14 -11z m-239 -106 c-11 -11 -19 6 -11 24 8 17 8 17 12 0 3 -10 2 -21
-1 -24z m-112 8 c3 -4 3 -11 0 -14 -8 -8 -34 3 -34 14 0 11 27 12 34 0z m286
-21 c-29 -8 -40 -3 -21 10 8 4 21 5 30 2 12 -5 10 -8 -9 -12z m-386 -40 c18
-28 33 -40 50 -40 24 0 41 -24 30 -41 -7 -13 3 -11 26 3 15 10 25 10 38 2 12
-8 22 -8 35 0 16 9 24 5 50 -27 18 -20 40 -37 49 -37 26 0 79 -71 76 -100 -2
-17 -9 -25 -20 -24 -10 1 -20 -7 -23 -17 -17 -53 -125 -96 -125 -49 0 25 -35
27 -68 4 -27 -19 -28 -35 -2 -52 19 -12 19 -14 4 -50 -9 -20 -20 -52 -26 -69
-10 -38 -36 -43 -63 -13 -10 11 -27 20 -38 20 -17 0 -18 5 -13 34 6 30 3 37
-22 55 -25 17 -29 26 -30 77 -1 35 -7 63 -16 73 -9 10 -16 30 -16 47 0 16 -1
59 -1 96 -2 58 2 74 25 108 14 22 32 40 40 40 7 0 25 -18 40 -40z m341 -141
c11 -17 0 -20 -21 -4 -17 13 -17 14 -2 15 9 0 20 -5 23 -11z m370 -355 c33 8
49 -8 42 -43 -5 -25 -2 -34 20 -51 24 -18 35 -20 113 -14 72 6 89 4 102 -10 9
-9 23 -16 31 -16 29 0 47 -12 47 -31 0 -39 -29 -126 -59 -177 -33 -56 -37 -72
-22 -88 5 -5 12 -36 14 -69 6 -64 27 -162 40 -183 5 -6 12 -33 17 -60 5 -26
14 -71 21 -99 13 -58 3 -83 -33 -83 -10 0 -37 -9 -60 -20 -37 -18 -42 -18 -53
-4 -26 36 -60 3 -86 -84 -10 -35 -10 -47 1 -67 11 -21 11 -37 1 -88 -6 -34
-14 -76 -17 -94 -4 -19 -16 -39 -32 -49 -15 -10 -35 -25 -46 -35 -10 -10 -31
-21 -46 -24 -16 -3 -36 -15 -46 -26 -9 -10 -27 -19 -40 -19 -13 0 -26 -4 -29
-10 -3 -5 -19 -7 -34 -4 -24 5 -33 1 -52 -25 -12 -17 -28 -31 -35 -31 -6 0
-17 -7 -24 -15 -11 -13 -14 -13 -27 0 -8 8 -23 15 -33 15 -18 0 -22 7 -34 62
-7 32 -33 42 -70 29 -22 -9 -26 -8 -26 8 0 35 -23 43 -78 25 l-51 -17 -33 28
c-44 37 -50 49 -38 80 20 52 12 87 -32 148 -27 36 -50 57 -63 57 -18 1 -19 1
-2 11 18 11 23 44 7 54 -5 3 -7 19 -3 35 3 16 2 37 -2 47 -20 51 -20 149 1
170 9 9 13 25 10 37 -3 13 3 34 14 51 11 16 17 39 14 50 -3 14 4 31 22 50 15
16 40 54 57 83 25 47 28 58 18 80 -11 22 -9 28 16 51 15 14 40 43 55 62 15 20
56 56 90 80 35 23 91 62 126 86 35 24 74 43 87 43 39 0 95 31 95 53 0 11 9 28
20 37 17 15 28 16 62 8 23 -5 52 -7 63 -4z m-955 -623 c0 -5 -7 -14 -15 -21
-12 -10 -15 -10 -15 2 0 8 3 18 7 21 9 10 23 9 23 -2z m-14 -72 c4 -6 7 -32 8
-58 1 -56 -23 -64 -36 -13 -5 18 -16 36 -24 39 -13 5 -13 8 2 24 19 21 39 24
50 8z m-81 -98 c7 -12 -12 -24 -25 -16 -11 7 -4 25 10 25 5 0 11 -4 15 -9z
m251 -35 c21 -29 17 -36 -20 -36 -36 0 -60 19 -51 42 8 20 54 16 71 -6z m334
-628 c0 -5 -11 -8 -25 -8 -30 0 -43 24 -24 46 11 14 15 13 31 -8 9 -13 18 -26
18 -30z"/>
</g>
</svg>
