<?xml version="1.0" standalone="no"?>
<!DOCTYPE svg PUBLIC "-//W3C//DTD SVG 20010904//EN"
 "http://www.w3.org/TR/2001/REC-SVG-20010904/DTD/svg10.dtd">
<svg version="1.0" xmlns="http://www.w3.org/2000/svg"
 width="990.000000pt" height="622.000000pt" viewBox="0 0 990.000000 622.000000"
 preserveAspectRatio="xMidYMid meet">
<metadata>
Created by potrace 1.14, written by Peter Selinger 2001-2017
</metadata>
<g transform="translate(0.000000,622.000000) scale(0.100000,-0.100000)"
fill="#000000" stroke="none">
<path d="M5570 6004 c-71 -39 -129 -58 -180 -60 -124 -3 -264 -25 -280 -43 -3
-4 -27 -18 -55 -33 -38 -20 -54 -23 -66 -15 -18 11 -62 -11 -111 -58 -15 -14
-31 -25 -35 -25 -12 0 -53 -76 -53 -99 0 -12 -5 -21 -11 -21 -6 0 -9 -7 -5
-15 11 -30 -27 -74 -78 -90 -27 -9 -64 -28 -82 -41 -20 -16 -44 -24 -65 -24
-19 1 -52 -3 -74 -9 -22 -6 -69 -11 -104 -11 -36 0 -78 -4 -95 -10 -48 -15
-207 -50 -250 -55 -22 -2 -42 -8 -45 -13 -9 -13 -60 -26 -112 -27 -25 -1 -61
-9 -79 -19 -18 -9 -43 -16 -54 -16 -12 0 -32 -9 -46 -20 -14 -11 -28 -20 -32
-20 -3 0 -25 -16 -47 -36 -40 -37 -40 -37 -34 -94 l6 -58 -42 -21 c-45 -24
-58 -52 -42 -95 18 -45 13 -104 -14 -171 l-26 -64 31 -72 30 -71 -18 -42 c-11
-22 -36 -61 -56 -85 -20 -24 -42 -53 -47 -63 -6 -11 -24 -25 -39 -32 -48 -20
-126 -117 -141 -176 -11 -43 -25 -63 -89 -125 -83 -82 -105 -109 -140 -175
-32 -60 -50 -80 -70 -80 -10 0 -23 -7 -30 -15 -6 -8 -40 -30 -75 -50 -35 -19
-94 -66 -132 -103 -98 -96 -194 -149 -307 -168 -106 -19 -196 -12 -237 17 -15
10 -30 19 -35 19 -4 0 -27 16 -51 36 -75 62 -142 104 -173 111 -17 3 -33 10
-36 14 -7 12 -65 11 -84 0 -8 -6 -19 -7 -25 -3 -18 12 -34 10 -46 -4 -6 -8
-20 -14 -31 -14 -10 0 -32 -9 -47 -21 -16 -12 -37 -19 -47 -17 -11 2 -24 -3
-30 -11 -10 -13 -16 -13 -39 -3 -33 15 -81 -1 -88 -30 -3 -10 -17 -22 -31 -27
-14 -6 -49 -26 -78 -45 -53 -35 -53 -35 -178 -36 -69 -1 -134 -2 -144 -1 -11
0 -35 16 -55 35 -20 20 -51 40 -69 47 -29 10 -36 8 -68 -17 -20 -16 -47 -35
-61 -43 -15 -7 -36 -37 -50 -70 -34 -73 -35 -159 -5 -216 14 -25 22 -57 22
-88 0 -27 6 -63 14 -80 8 -18 27 -70 41 -117 15 -47 38 -109 51 -138 13 -29
24 -59 24 -67 0 -7 5 -17 10 -20 6 -3 10 -18 10 -33 0 -32 46 -82 76 -82 21 0
23 -6 29 -87 12 -159 41 -326 63 -368 33 -64 88 -118 113 -112 12 3 37 -3 58
-14 19 -10 52 -19 71 -19 19 0 50 -4 68 -9 39 -12 96 8 112 39 8 15 15 18 28
12 23 -12 165 -7 227 8 28 6 109 14 180 17 l130 5 77 -38 c80 -40 80 -41 61
-92 -4 -8 0 -10 13 -5 11 4 15 3 10 -5 -4 -6 -2 -19 3 -29 5 -10 15 -33 20
-52 10 -30 44 -95 102 -190 12 -20 27 -28 63 -33 56 -8 100 -33 92 -54 -4 -10
2 -14 19 -14 25 0 33 -14 15 -25 -20 -12 -10 -27 14 -21 29 7 41 -7 38 -46 -1
-15 2 -28 6 -28 5 0 7 -10 5 -23 -3 -14 2 -29 11 -36 9 -8 16 -19 16 -26 0 -7
8 -23 18 -36 10 -13 31 -62 47 -109 15 -47 35 -98 43 -115 9 -17 16 -60 17
-100 2 -89 19 -122 93 -180 85 -67 194 -106 314 -112 53 -3 112 -3 131 1 46 9
92 53 157 153 l54 83 78 26 c73 24 84 25 190 17 l111 -8 23 -40 c12 -22 20
-43 17 -47 -2 -5 -1 -8 4 -8 12 0 35 58 28 70 -4 6 4 10 19 10 15 0 48 -19 83
-47 75 -61 84 -73 79 -104 -4 -22 9 -42 80 -118 67 -73 84 -97 84 -122 0 -16
10 -49 22 -72 12 -23 27 -53 33 -67 17 -34 89 -70 142 -70 23 0 44 4 48 10 9
14 35 0 35 -20 0 -27 73 -36 105 -13 13 10 25 21 25 24 0 3 11 18 24 32 l24
26 16 -24 c9 -13 16 -29 16 -35 0 -6 11 -22 25 -35 22 -23 31 -25 125 -25 88
0 108 3 156 26 48 23 58 24 90 14 21 -7 51 -9 73 -5 20 4 56 10 81 15 54 9
165 46 200 66 92 52 235 113 290 124 116 21 156 41 275 133 47 36 115 73 171
91 28 9 64 30 80 47 16 17 45 40 64 51 19 11 55 42 80 68 36 37 59 52 105 65
100 29 144 49 178 77 17 16 35 28 38 28 8 0 181 129 189 140 8 12 83 102 100
119 8 9 24 35 34 59 10 23 22 42 25 42 3 0 16 15 29 33 12 19 32 39 45 45 71
35 120 52 136 47 10 -3 33 5 52 18 19 13 56 30 82 37 26 8 47 20 47 26 0 6 26
19 58 28 57 16 87 39 111 84 8 15 18 21 28 18 10 -4 21 2 30 13 7 11 20 18 27
15 8 -3 20 4 28 15 8 11 25 25 39 31 44 19 119 77 119 93 0 5 9 22 21 39 15
21 22 48 25 100 4 90 8 100 44 120 16 9 30 24 30 33 0 8 9 15 19 15 11 0 22 9
26 20 3 11 19 32 34 48 42 41 77 119 84 182 8 80 66 182 128 226 26 20 62 58
79 85 16 27 40 54 53 60 13 6 31 29 41 52 10 22 33 55 51 71 32 30 87 105 113
156 7 14 24 43 37 65 14 23 25 56 25 77 0 20 5 49 10 64 6 15 13 62 16 103 3
60 1 83 -13 108 -10 18 -47 90 -82 160 -36 70 -70 133 -77 138 -6 6 -14 22
-18 38 -4 18 -13 27 -26 27 -11 0 -20 5 -20 10 0 6 -10 21 -22 34 -38 37 -48
83 -41 174 5 75 4 86 -15 112 -12 16 -22 34 -22 40 0 5 -4 10 -10 10 -5 0 -10
8 -10 19 0 10 -7 24 -15 31 -17 14 -20 46 -4 55 5 4 8 12 6 18 -2 7 0 20 5 29
15 30 -16 84 -61 107 -22 12 -49 21 -61 21 -55 0 -116 67 -178 197 -13 26 -26
36 -71 49 -31 9 -78 27 -105 40 -28 13 -56 24 -63 24 -8 0 -45 30 -84 67 -38
37 -98 83 -133 104 -35 20 -102 74 -150 120 -48 46 -108 95 -135 109 -27 14
-55 30 -62 36 -17 14 -99 40 -153 49 -63 11 -124 44 -146 80 -19 30 -89 75
-118 75 -6 0 -17 8 -24 18 -21 29 -130 110 -171 127 -21 8 -60 31 -86 50 -27
19 -54 35 -60 35 -6 0 -30 11 -52 26 -22 14 -57 27 -77 30 -19 2 -56 16 -81
31 -148 85 -134 81 -321 83 -47 1 -83 7 -97 16 -14 9 -33 12 -48 8 -18 -4 -32
-1 -45 11 -10 9 -24 14 -31 9 -7 -4 -18 0 -25 11 -11 14 -16 16 -28 6 -23 -19
-92 -18 -114 2 -21 20 -19 19 -52 1z m-1998 -1656 c23 -16 25 -22 18 -49 -6
-21 -3 -51 10 -101 18 -71 17 -120 -3 -146 -15 -19 -71 -7 -134 30 l-53 29
-27 -20 c-16 -11 -39 -34 -53 -51 -45 -54 -90 -100 -100 -100 -34 0 -4 85 39
115 34 22 51 54 51 94 0 15 7 36 15 47 8 10 19 35 25 54 5 19 23 52 40 72 47
57 113 67 172 26z m566 14 c6 -18 -15 -14 -22 4 -4 10 -1 14 6 12 6 -2 14 -10
16 -16z m12 -177 c0 -25 -37 -68 -54 -62 -24 8 -30 35 -13 61 24 35 67 36 67
1z m380 -32 c0 -7 -7 -13 -15 -13 -8 0 -15 6 -15 13 0 8 7 14 15 14 8 0 15 -6
15 -14z m-145 -4 c-4 -6 1 -16 11 -23 16 -12 13 -15 -27 -24 -24 -5 -52 -13
-61 -17 -13 -5 -18 -2 -18 9 0 8 11 18 25 22 13 3 27 15 30 25 4 10 15 19 26
19 12 0 17 -4 14 -11z m-239 -106 c-11 -11 -19 6 -11 24 8 17 8 17 12 0 3 -10
2 -21 -1 -24z m-116 2 c0 -9 -6 -12 -15 -9 -8 4 -15 10 -15 15 0 5 7 9 15 9 8
0 15 -7 15 -15z m290 -15 c-29 -8 -40 -3 -21 10 8 4 21 5 30 2 12 -5 10 -8 -9
-12z m-386 -40 c18 -28 33 -40 50 -40 24 0 41 -24 30 -41 -7 -13 3 -11 26 3
15 10 25 10 38 2 12 -8 22 -8 35 0 15 9 24 5 50 -26 18 -20 41 -38 51 -40 10
-1 32 -20 49 -40 23 -29 28 -43 23 -63 -4 -17 -12 -25 -20 -22 -8 3 -18 -5
-25 -19 -23 -51 -121 -86 -121 -44 0 25 -35 27 -68 4 -27 -19 -28 -35 -3 -51
19 -12 19 -14 -7 -79 -14 -36 -32 -69 -40 -71 -7 -3 -23 4 -36 16 -12 11 -30
21 -40 21 -15 0 -17 6 -12 34 6 30 3 37 -22 54 -25 18 -28 27 -29 77 -1 36 -7
63 -17 74 -9 9 -16 30 -16 47 0 16 -1 58 -1 94 -2 56 2 73 25 108 14 23 32 42
40 42 7 0 25 -18 40 -40z m341 -141 c11 -17 0 -20 -21 -4 -17 13 -17 14 -2 15
9 0 20 -5 23 -11z m370 -355 c33 8 49 -8 42 -43 -5 -25 -2 -34 20 -51 24 -18
35 -20 113 -14 72 6 89 4 102 -10 9 -9 23 -16 31 -16 29 0 47 -12 47 -31 0
-30 -29 -131 -42 -148 -7 -9 -22 -33 -32 -54 -15 -30 -17 -42 -8 -60 6 -12 13
-47 15 -77 3 -54 21 -136 38 -175 5 -11 13 -40 19 -65 5 -25 14 -67 20 -93 7
-26 10 -54 7 -61 -3 -7 -29 -21 -59 -31 -29 -9 -59 -22 -66 -28 -11 -8 -16 -7
-23 6 -14 24 -46 21 -63 -5 -24 -39 -42 -126 -28 -140 16 -16 15 -65 -3 -124
-8 -27 -15 -59 -15 -70 0 -12 -12 -29 -27 -40 -15 -9 -36 -25 -47 -35 -10 -10
-33 -21 -50 -25 -17 -4 -37 -15 -44 -25 -7 -11 -24 -19 -37 -19 -13 0 -27 -4
-30 -10 -3 -5 -19 -7 -34 -4 -24 5 -33 1 -52 -25 -12 -17 -28 -31 -35 -31 -6
0 -17 -7 -24 -15 -7 -9 -16 -12 -19 -7 -3 5 -19 15 -36 23 -21 10 -31 24 -36
48 -9 42 -25 53 -66 46 -25 -4 -33 -2 -33 8 0 31 -25 38 -75 22 -47 -16 -47
-16 -86 11 l-40 27 7 71 6 71 -42 55 c-23 30 -48 56 -56 58 -11 3 -11 7 -1 23
9 15 9 23 0 39 -7 10 -10 26 -7 34 3 9 0 48 -7 88 -15 84 -13 120 7 131 8 5
14 24 14 47 0 21 5 40 11 42 7 2 12 21 13 41 1 25 10 48 31 73 17 20 42 57 57
84 24 44 25 50 11 69 -16 23 -10 31 95 137 59 59 231 173 271 179 60 10 101
32 101 56 0 11 10 29 22 38 18 15 29 16 62 9 22 -5 50 -7 61 -4z m-955 -623
c0 -5 -7 -14 -15 -21 -12 -10 -15 -10 -15 2 0 8 3 18 7 21 9 10 23 9 23 -2z
m-17 -73 c16 -17 16 -100 0 -105 -7 -3 -17 13 -24 36 -8 25 -18 41 -28 41 -12
1 -10 5 8 20 27 24 29 24 44 8z m-78 -97 c7 -12 -12 -24 -25 -16 -11 7 -4 25
10 25 5 0 11 -4 15 -9z m255 -53 c0 -30 -64 -22 -68 9 -2 16 3 22 20 25 29 5
48 -9 48 -34z m320 -611 c-11 -12 -50 1 -50 17 0 6 6 18 12 24 10 10 16 8 30
-10 9 -13 13 -27 8 -31z"/>
</g>
</svg>
