<?xml version="1.0" standalone="no"?>
<!DOCTYPE svg PUBLIC "-//W3C//DTD SVG 20010904//EN"
 "http://www.w3.org/TR/2001/REC-SVG-20010904/DTD/svg10.dtd">
<svg version="1.0" xmlns="http://www.w3.org/2000/svg"
 width="990.000000pt" height="622.000000pt" viewBox="0 0 990.000000 622.000000"
 preserveAspectRatio="xMidYMid meet">
<metadata>
Created by potrace 1.14, written by Peter Selinger 2001-2017
</metadata>
<g transform="translate(0.000000,622.000000) scale(0.100000,-0.100000)"
fill="#000000" stroke="none">
<path d="M5560 6018 c-14 -6 -41 -17 -60 -25 -19 -8 -43 -18 -53 -24 -10 -5
-26 -7 -36 -4 -25 8 -249 -21 -296 -38 -22 -8 -56 -24 -74 -35 -25 -15 -39
-18 -52 -12 -34 19 -81 -14 -151 -108 -38 -49 -68 -94 -68 -101 0 -7 -7 -28
-16 -47 -12 -26 -30 -40 -75 -60 -32 -14 -66 -35 -75 -45 -9 -11 -29 -19 -44
-19 -15 0 -49 -7 -76 -15 -27 -8 -74 -15 -104 -15 -30 0 -95 -9 -145 -20 -49
-11 -119 -25 -155 -31 -36 -6 -87 -20 -114 -30 -27 -11 -66 -19 -88 -19 -21 0
-55 -7 -75 -15 -19 -8 -47 -15 -60 -15 -14 0 -37 -8 -51 -18 -15 -10 -34 -22
-42 -25 -8 -4 -35 -22 -60 -41 l-45 -33 3 -59 c4 -59 3 -60 -35 -85 -42 -27
-42 -30 -27 -158 5 -44 2 -64 -21 -117 -25 -58 -26 -69 -16 -109 16 -66 14
-103 -9 -122 -11 -10 -20 -23 -20 -29 0 -22 -61 -145 -74 -150 -20 -8 -101
-115 -121 -160 -9 -21 -22 -49 -28 -60 -18 -34 -94 -112 -122 -126 -25 -13
-44 -42 -86 -125 -12 -24 -25 -43 -29 -43 -4 0 -11 -11 -14 -25 -5 -19 -13
-25 -32 -25 -16 0 -34 -10 -46 -25 -11 -14 -25 -25 -33 -25 -7 0 -18 -6 -24
-13 -6 -8 -31 -24 -56 -37 -24 -13 -47 -31 -50 -41 -4 -11 -10 -19 -14 -19 -5
0 -26 -17 -48 -37 -94 -92 -158 -126 -268 -142 -44 -7 -88 -14 -97 -16 -25 -4
-97 13 -138 33 -19 9 -71 44 -115 77 -110 83 -194 116 -277 109 -35 -3 -67 -9
-72 -14 -6 -6 -18 -10 -28 -10 -10 0 -21 -6 -24 -14 -6 -16 -62 -42 -71 -33
-3 4 -11 -1 -18 -9 -9 -13 -16 -14 -33 -5 -26 14 -62 14 -62 1 0 -5 -7 -10
-15 -10 -8 0 -15 -5 -15 -11 0 -16 -21 -33 -58 -48 -18 -8 -48 -26 -67 -41
-34 -27 -37 -27 -180 -28 l-146 -2 -43 40 c-24 22 -50 40 -59 40 -9 0 -19 5
-22 10 -4 7 -24 -3 -50 -24 -23 -19 -54 -41 -68 -47 -32 -14 -74 -99 -82 -166
-5 -40 -2 -56 19 -96 17 -31 28 -71 32 -115 3 -36 10 -74 14 -83 11 -20 36
-88 56 -153 9 -27 27 -73 40 -102 13 -29 29 -75 35 -103 11 -53 45 -91 81 -91
24 0 27 -9 32 -100 6 -102 42 -323 57 -352 6 -13 27 -44 46 -70 29 -40 40 -48
67 -48 17 0 41 -6 51 -14 11 -8 45 -16 75 -19 30 -3 72 -9 93 -13 24 -4 43 -2
52 6 9 7 18 10 22 6 3 -3 11 4 17 17 11 20 17 22 76 17 99 -7 128 -4 215 20
65 18 100 21 190 18 106 -3 112 -5 177 -42 l68 -38 -16 -30 c-15 -28 -15 -30
0 -25 10 4 16 1 16 -7 0 -8 -6 -17 -12 -19 -7 -3 -3 -6 10 -6 14 -1 22 -7 22
-18 0 -36 117 -252 138 -254 4 0 23 -1 42 -3 44 -3 91 -32 83 -52 -3 -9 2 -14
17 -14 19 0 21 -4 16 -26 -6 -23 -4 -26 12 -22 31 8 40 -3 45 -60 3 -29 12
-61 20 -70 9 -9 19 -30 23 -45 3 -16 12 -31 20 -34 7 -2 16 -19 19 -36 3 -18
10 -41 15 -52 41 -90 71 -203 64 -245 -12 -75 75 -167 211 -224 128 -53 266
-67 352 -35 35 13 74 57 132 145 51 78 55 82 119 105 58 21 82 23 180 21 121
-2 152 -11 152 -42 0 -10 5 -22 11 -26 6 -3 9 -19 7 -35 -6 -37 9 -38 18 -1 4
15 11 33 16 39 6 7 8 20 4 28 -17 46 92 -11 152 -80 35 -39 37 -46 22 -61 -7
-7 20 -43 80 -108 72 -78 90 -104 90 -128 0 -16 7 -42 14 -56 8 -15 22 -44 32
-65 27 -62 95 -96 187 -93 24 1 37 -4 40 -14 3 -11 18 -16 51 -18 43 -1 50 2
91 42 l45 43 15 -23 c8 -13 15 -28 15 -34 0 -5 9 -19 20 -30 18 -18 33 -20
134 -20 98 0 120 3 150 21 31 18 42 19 97 11 66 -10 134 2 233 39 27 11 55 19
63 19 8 0 42 15 76 34 34 19 73 37 86 41 12 4 39 18 58 31 20 13 48 24 63 24
89 0 248 67 325 137 30 27 144 93 161 93 24 0 75 30 114 66 19 19 46 39 60 45
14 7 42 33 63 59 38 48 46 51 167 84 50 14 200 99 208 118 2 4 8 8 14 8 32 0
233 205 267 272 8 15 21 36 30 45 9 10 24 31 34 46 23 35 115 79 176 83 26 2
52 11 65 22 11 11 36 23 54 27 18 4 45 18 59 31 14 13 37 24 51 24 30 0 106
55 121 88 6 12 17 22 25 22 7 0 19 7 26 15 7 8 22 15 34 15 12 0 27 9 34 20 7
11 21 20 32 20 12 0 23 7 26 15 4 8 12 15 18 15 35 0 118 135 115 186 -5 70
11 109 59 149 109 90 192 204 192 265 0 14 11 46 24 70 13 25 33 63 44 85 11
22 44 61 74 86 29 25 62 62 72 81 10 19 31 41 45 50 15 8 36 33 47 54 10 21
39 58 65 81 25 23 52 55 59 70 8 15 36 61 62 102 32 49 49 85 50 110 0 20 2
47 3 61 15 157 17 213 8 233 -6 12 -31 65 -56 117 -25 52 -54 125 -63 163 -11
40 -24 67 -31 67 -8 0 -16 14 -20 31 -4 21 -14 34 -32 40 -14 6 -35 22 -46 37
-18 24 -20 40 -17 136 3 108 2 110 -28 152 -16 23 -30 49 -30 56 0 8 -5 19
-12 26 -8 8 -8 15 0 25 7 8 9 17 5 20 -3 4 0 13 6 21 8 10 10 27 6 46 -9 39
-104 117 -155 127 -50 9 -104 46 -131 90 -13 21 -27 40 -31 41 -5 2 -17 21
-28 42 -18 35 -84 80 -117 80 -31 0 -143 59 -178 95 -51 51 -107 94 -170 130
-27 16 -89 66 -136 111 -91 87 -171 133 -329 188 -99 35 -161 66 -182 92 -10
12 -43 34 -75 50 -32 15 -66 38 -76 50 -28 36 -111 92 -169 116 -29 12 -72 36
-95 55 -23 18 -48 33 -55 33 -8 0 -37 11 -64 25 -27 14 -57 25 -67 25 -10 0
-42 15 -72 34 -116 75 -129 78 -337 91 -38 2 -73 7 -79 10 -6 4 -27 9 -47 10
-54 5 -96 17 -103 28 -4 6 -25 5 -56 -3 -42 -11 -53 -10 -80 4 -37 18 -39 18
-73 4z m-2015 -1664 c18 -13 20 -28 22 -136 1 -67 0 -125 -3 -129 -3 -5 -27 0
-55 11 -93 37 -106 32 -198 -77 -31 -37 -61 -63 -72 -63 -23 0 -23 1 -6 43 8
18 26 41 41 52 34 25 56 65 56 104 0 16 4 32 9 36 5 3 17 28 26 55 23 69 76
120 124 120 20 0 45 -7 56 -16z m605 -169 c0 -25 -37 -68 -54 -62 -41 14 -16
87 30 87 19 0 24 -5 24 -25z m380 -36 c0 -5 -7 -9 -15 -9 -8 0 -15 7 -15 15 0
9 6 12 15 9 8 -4 15 -10 15 -15z m-150 -3 c0 -8 6 -16 13 -19 17 -6 2 -19 -26
-22 -14 -2 -34 -8 -45 -14 -27 -14 -32 -14 -32 3 0 8 14 19 30 25 17 5 30 17
30 25 0 9 7 16 15 16 8 0 15 -6 15 -14z m-234 -103 c-11 -11 -19 6 -11 24 8
17 8 17 12 0 3 -10 2 -21 -1 -24z m-116 7 c0 -5 -4 -10 -9 -10 -6 0 -13 5 -16
10 -3 6 1 10 9 10 9 0 16 -4 16 -10z m284 -20 c-10 -4 -21 -6 -24 -3 -8 7 24
22 34 16 5 -4 1 -10 -10 -13z m-384 -40 c16 -27 31 -40 46 -40 27 0 40 -17 35
-45 -3 -19 -2 -19 16 -2 22 19 48 22 58 7 4 -6 13 -5 26 3 18 11 24 8 51 -25
16 -21 38 -38 48 -38 29 0 70 -56 70 -95 0 -24 -4 -33 -13 -29 -8 3 -18 -6
-25 -21 -24 -51 -122 -88 -122 -45 0 25 -45 28 -72 3 -23 -21 -23 -31 2 -51
19 -17 19 -17 -5 -65 -14 -27 -25 -55 -25 -63 0 -19 -44 -18 -60 1 -7 8 -18
15 -25 15 -17 0 -26 25 -18 47 4 11 -3 24 -23 39 -25 20 -29 31 -30 79 -1 35
-8 63 -18 74 -8 9 -15 30 -15 47 0 16 -1 59 -2 96 0 55 4 74 22 100 22 32 39
48 49 48 3 0 16 -18 30 -40z m340 -140 c0 -5 -7 -7 -15 -4 -8 4 -15 8 -15 10
0 2 7 4 15 4 8 0 15 -4 15 -10z m375 -356 c34 9 48 -8 41 -47 -6 -33 -4 -37
23 -52 24 -12 48 -14 114 -9 69 6 86 4 99 -10 9 -9 25 -16 35 -16 33 0 46 -16
40 -46 -17 -88 -26 -116 -39 -132 -8 -9 -23 -34 -33 -55 -16 -31 -18 -41 -7
-57 6 -11 12 -39 12 -63 0 -24 10 -79 21 -123 12 -43 27 -104 35 -134 7 -30
18 -72 24 -93 14 -49 5 -76 -28 -83 -42 -9 -86 -27 -94 -38 -4 -6 -14 -1 -25
13 l-18 22 -27 -20 c-36 -29 -55 -109 -38 -162 11 -32 10 -49 -4 -106 -9 -37
-16 -76 -16 -85 0 -10 -9 -22 -19 -28 -11 -5 -26 -16 -33 -24 -18 -18 -73 -46
-90 -46 -7 0 -19 -9 -26 -20 -8 -13 -23 -20 -41 -20 -17 0 -32 -4 -35 -9 -3
-4 -16 -6 -30 -4 -18 4 -29 -2 -47 -26 -12 -17 -31 -31 -40 -31 -10 0 -19 -5
-21 -11 -2 -7 -17 -5 -43 7 -31 15 -41 26 -46 52 -9 45 -22 56 -64 54 -24 -1
-35 3 -35 13 0 23 -35 27 -79 9 -41 -16 -42 -16 -82 11 l-40 28 7 73 7 73 -37
42 c-20 24 -36 49 -36 56 0 7 -10 13 -22 14 -13 0 -17 3 -10 6 13 5 17 63 4
63 -4 0 -7 29 -6 65 1 36 -3 68 -7 71 -5 3 -9 27 -9 55 0 46 2 49 25 49 29 0
28 0 15 36 -8 21 -7 32 6 51 9 14 14 36 11 49 -3 16 6 35 27 61 49 59 90 143
77 156 -21 21 -18 27 86 140 14 16 44 41 67 55 22 15 69 48 104 74 37 28 80
50 101 53 60 10 101 32 101 56 0 11 10 29 22 38 18 15 29 16 62 9 22 -5 50 -7
61 -4z m-955 -623 c0 -12 -20 -25 -27 -18 -7 7 6 27 18 27 5 0 9 -4 9 -9z
m-17 -78 c9 -35 7 -92 -2 -98 -6 -3 -15 12 -21 34 -6 22 -16 42 -23 45 -8 3
-6 9 7 20 25 20 34 20 39 -1z m-78 -92 c7 -12 -12 -24 -25 -16 -11 7 -4 25 10
25 5 0 11 -4 15 -9z m253 -49 c3 -21 0 -23 -30 -20 -24 2 -34 8 -36 23 -2 17
3 21 30 20 27 0 34 -4 36 -23z m310 -584 c16 -16 15 -38 0 -38 -23 0 -41 18
-35 34 8 19 19 20 35 4z"/>
</g>
</svg>
