<?xml version="1.0" standalone="no"?>
<!DOCTYPE svg PUBLIC "-//W3C//DTD SVG 20010904//EN"
 "http://www.w3.org/TR/2001/REC-SVG-20010904/DTD/svg10.dtd">
<svg version="1.0" xmlns="http://www.w3.org/2000/svg"
 width="990.000000pt" height="622.000000pt" viewBox="0 0 990.000000 622.000000"
 preserveAspectRatio="xMidYMid meet">
<metadata>
Created by potrace 1.14, written by Peter Selinger 2001-2017
</metadata>
<g transform="translate(0.000000,622.000000) scale(0.100000,-0.100000)"
fill="#000000" stroke="none">
<path d="M5515 5989 c-44 -20 -90 -32 -125 -34 -190 -9 -316 -38 -342 -79 -4
-5 -26 -11 -50 -11 -24 -1 -49 -3 -56 -3 -40 -5 -172 -175 -172 -221 0 -25
-31 -70 -52 -76 -41 -12 -91 -37 -112 -56 -12 -12 -35 -19 -57 -19 -21 0 -49
-4 -64 -10 -14 -5 -58 -12 -98 -15 -88 -6 -188 -23 -242 -40 -22 -7 -62 -16
-90 -20 -27 -3 -65 -13 -84 -22 -18 -8 -65 -19 -103 -24 -37 -5 -77 -13 -88
-19 -10 -5 -30 -10 -43 -10 -13 0 -36 -9 -50 -20 -14 -11 -29 -20 -34 -20 -4
0 -30 -20 -57 -44 -49 -42 -50 -43 -37 -74 19 -45 7 -78 -34 -98 -41 -19 -52
-49 -36 -95 18 -53 13 -119 -14 -177 -26 -56 -31 -87 -17 -96 5 -3 14 -29 21
-59 13 -54 13 -54 -21 -108 -20 -30 -47 -76 -62 -102 -15 -26 -37 -52 -49 -56
-33 -13 -113 -121 -132 -178 -11 -35 -31 -64 -61 -92 -24 -22 -44 -45 -44 -50
0 -5 -9 -13 -20 -16 -18 -6 -47 -41 -85 -104 -62 -103 -75 -119 -93 -114 -13
3 -24 -4 -36 -21 -9 -14 -22 -26 -28 -26 -6 0 -25 -10 -42 -23 -17 -12 -43
-28 -57 -35 -14 -7 -40 -32 -59 -55 -36 -46 -61 -65 -160 -126 -110 -67 -312
-88 -382 -40 -14 11 -33 19 -42 19 -9 0 -16 4 -16 9 0 12 -192 141 -210 141
-9 0 -20 4 -26 10 -18 18 -158 14 -174 -5 -7 -8 -21 -15 -32 -15 -10 0 -29 -9
-41 -20 -12 -12 -31 -19 -42 -18 -11 2 -25 -3 -30 -10 -8 -10 -17 -11 -39 -2
-21 8 -36 7 -57 -2 -16 -7 -29 -17 -29 -21 0 -14 -23 -32 -58 -46 -18 -8 -48
-26 -67 -41 -35 -28 -37 -28 -183 -29 l-148 -1 -39 40 c-22 22 -46 40 -55 40
-9 0 -20 4 -26 10 -6 6 -25 -4 -54 -30 -25 -21 -50 -39 -57 -40 -29 -1 -84
-120 -85 -185 -1 -24 10 -63 25 -96 18 -36 27 -73 27 -103 0 -27 6 -62 14 -79
25 -59 45 -112 56 -152 12 -41 16 -53 43 -115 9 -19 21 -56 27 -82 14 -54 52
-98 85 -98 21 0 23 -6 30 -87 14 -184 42 -342 68 -386 40 -67 75 -97 114 -97
19 0 41 -7 49 -15 9 -9 34 -15 58 -15 24 0 58 -5 76 -11 38 -14 96 2 117 31 9
12 24 15 65 13 115 -6 145 -5 164 5 34 19 134 32 239 32 100 0 104 -1 176 -39
46 -24 73 -44 70 -53 -2 -7 -6 -22 -9 -32 -4 -14 -2 -17 8 -11 10 6 12 3 8
-13 -4 -15 -2 -22 8 -22 8 0 14 -8 14 -17 0 -24 48 -125 94 -195 32 -51 41
-58 69 -58 44 0 102 -31 101 -53 -1 -12 6 -17 22 -17 24 0 32 -14 14 -25 -20
-12 -10 -26 17 -23 26 3 28 1 36 -57 5 -33 15 -67 23 -76 8 -8 14 -20 14 -26
0 -6 9 -21 19 -35 11 -13 23 -38 26 -54 4 -16 10 -38 15 -49 49 -113 64 -164
63 -226 0 -55 4 -72 26 -105 68 -99 224 -174 383 -182 53 -2 112 -2 131 2 46
9 92 53 157 153 l54 83 78 26 c73 24 84 25 190 17 l113 -8 17 -35 c10 -19 16
-47 15 -62 -2 -16 0 -28 5 -28 4 0 8 6 8 13 0 6 7 25 15 41 9 16 13 36 11 43
-11 27 43 12 92 -26 66 -53 93 -88 86 -115 -4 -17 14 -42 81 -114 70 -76 85
-98 85 -125 0 -17 9 -45 20 -62 11 -16 20 -36 20 -43 0 -24 39 -69 73 -85 36
-17 112 -24 140 -12 13 5 17 2 17 -13 0 -16 9 -21 46 -27 49 -7 54 -4 114 58
l27 27 17 -24 c9 -14 16 -30 16 -35 0 -6 10 -19 22 -31 19 -18 35 -20 133 -20
89 0 115 3 135 18 19 13 47 17 120 18 107 2 179 13 230 36 19 9 48 19 64 23
17 3 41 14 55 24 14 10 51 28 81 40 29 13 70 33 90 46 19 12 60 25 90 28 91
10 151 34 230 91 93 68 165 110 227 134 57 22 203 130 238 176 18 23 41 38 82
51 122 37 145 48 235 108 51 33 95 64 98 67 3 3 24 20 48 39 46 36 144 152
182 216 13 22 27 42 30 45 3 3 16 19 28 36 12 17 39 39 59 48 21 9 46 21 55
26 10 6 35 10 57 10 22 0 49 8 62 18 13 10 45 26 71 36 25 9 49 24 52 32 3 8
10 13 15 9 5 -3 12 -1 16 5 3 5 16 10 29 10 26 0 104 57 112 82 3 10 14 18 24
18 10 0 20 7 24 15 3 8 17 15 30 15 15 0 30 8 36 20 6 11 18 20 27 20 24 0 99
65 134 117 28 41 32 55 35 127 3 69 6 83 25 96 21 15 64 57 131 127 48 50 88
128 88 171 0 45 67 180 105 212 56 47 92 85 110 117 10 17 29 37 43 44 13 8
33 31 44 53 11 22 38 58 60 81 41 41 108 138 108 155 0 6 4 10 8 10 4 0 20 24
34 52 22 43 29 78 39 181 12 131 6 186 -26 227 -17 22 -102 210 -109 243 -4
15 -13 27 -20 27 -8 0 -17 15 -20 35 -5 25 -12 35 -25 35 -19 0 -58 46 -78 91
-9 20 -9 46 -1 98 11 74 7 111 -16 133 -26 26 -66 122 -55 134 5 6 7 18 3 27
-3 8 -1 18 5 22 40 24 -45 125 -121 146 -70 18 -111 45 -133 85 -11 21 -27 45
-36 54 -8 8 -21 30 -28 48 -15 37 -31 47 -101 68 -93 28 -156 63 -231 131 -42
37 -89 75 -105 83 -48 25 -126 86 -189 150 -38 37 -88 74 -135 98 -72 37 -100
48 -235 89 -44 13 -71 29 -100 60 -23 23 -67 54 -98 68 -31 13 -57 29 -57 33
0 20 -161 132 -190 132 -6 0 -35 18 -65 40 -30 22 -60 40 -67 40 -7 0 -31 12
-53 25 -22 14 -51 25 -65 25 -14 0 -50 14 -80 31 -155 88 -132 82 -338 94 -46
3 -89 8 -95 12 -7 5 -25 9 -42 10 -48 2 -89 15 -98 29 -7 12 -13 11 -37 -1
-37 -19 -71 -19 -96 0 -27 20 -40 19 -119 -16z m-1953 -1642 c25 -21 26 -27
17 -53 -8 -22 -7 -47 3 -99 19 -90 11 -131 -24 -128 -14 1 -45 11 -69 22 -74
36 -96 29 -159 -48 -67 -83 -110 -112 -110 -76 0 24 27 71 53 92 35 28 57 64
57 94 0 15 6 40 14 56 7 15 24 50 36 76 13 27 35 57 48 68 35 27 100 25 134
-4z m578 13 c0 -5 -4 -10 -10 -10 -5 0 -10 5 -10 10 0 6 5 10 10 10 6 0 10 -4
10 -10z m10 -175 c0 -25 -37 -68 -54 -62 -41 14 -16 87 30 87 19 0 24 -5 24
-25z m380 -32 c0 -7 -7 -13 -15 -13 -8 0 -15 6 -15 13 0 8 7 14 15 14 8 0 15
-6 15 -14z m-150 -7 c0 -8 6 -16 13 -19 17 -6 2 -19 -26 -22 -14 -2 -34 -8
-45 -14 -27 -14 -32 -14 -32 4 0 8 11 17 25 21 13 3 27 15 30 25 7 22 35 26
35 5z m-234 -103 c-11 -11 -19 6 -11 24 8 17 8 17 12 0 3 -10 2 -21 -1 -24z
m-116 1 c0 -14 -3 -14 -15 -4 -8 7 -15 14 -15 16 0 2 7 4 15 4 8 0 15 -7 15
-16z m284 -14 c-10 -4 -21 -6 -24 -3 -8 7 24 22 34 16 5 -4 1 -10 -10 -13z
m-394 -22 c15 -37 36 -58 57 -58 24 0 48 -25 38 -40 -8 -13 1 -13 25 2 15 10
25 10 38 2 12 -8 22 -8 35 0 16 9 24 5 50 -27 18 -20 39 -37 48 -37 8 0 25
-11 37 -23 36 -39 49 -113 18 -101 -7 3 -18 -7 -24 -21 -24 -51 -122 -88 -122
-45 0 25 -45 28 -72 3 -23 -21 -23 -35 2 -50 19 -12 19 -14 -10 -80 -31 -74
-46 -85 -75 -53 -10 11 -27 20 -38 20 -17 0 -18 5 -13 34 6 30 3 37 -22 54
-25 18 -28 27 -29 77 -1 36 -7 63 -17 74 -9 9 -16 30 -16 47 0 16 0 59 -1 95
0 57 4 73 27 108 30 46 50 52 64 19z m350 -158 c0 -5 -7 -7 -15 -4 -8 4 -15 8
-15 10 0 2 7 4 15 4 8 0 15 -4 15 -10z m375 -356 c34 9 48 -8 41 -46 -5 -30
-3 -36 23 -51 24 -14 44 -16 113 -11 70 6 87 4 100 -10 9 -9 23 -16 31 -16 29
0 47 -12 47 -31 0 -30 -29 -131 -42 -148 -7 -9 -22 -33 -32 -54 -15 -30 -17
-42 -8 -60 6 -12 13 -47 15 -77 3 -56 22 -141 38 -172 5 -9 11 -36 15 -60 3
-24 13 -63 21 -88 22 -68 13 -86 -55 -105 -31 -9 -60 -22 -64 -28 -4 -7 -13
-3 -25 11 -16 21 -20 21 -39 8 -35 -25 -68 -146 -44 -161 15 -9 12 -64 -5
-121 -8 -27 -15 -59 -15 -70 0 -12 -12 -29 -27 -40 -15 -9 -36 -25 -47 -35
-10 -10 -33 -21 -50 -25 -17 -4 -37 -15 -43 -24 -13 -18 -57 -31 -105 -30 -19
0 -34 -9 -49 -30 -13 -16 -31 -30 -40 -30 -10 0 -19 -5 -21 -11 -2 -7 -17 -5
-43 7 -30 14 -41 27 -46 50 -10 49 -18 56 -60 52 -25 -2 -39 1 -39 8 0 6 -7
17 -15 24 -12 10 -24 9 -61 -5 l-45 -17 -40 28 -40 27 7 74 c6 70 5 75 -18
101 -14 15 -33 39 -43 55 -9 15 -24 27 -31 27 -11 0 -12 4 -3 19 7 11 9 26 4
37 -4 11 -8 47 -9 81 0 34 -4 65 -8 69 -5 4 -8 29 -8 55 0 42 3 47 26 53 20 5
24 10 15 19 -15 15 -14 39 4 73 8 16 12 37 9 46 -3 11 5 28 21 45 14 16 42 56
61 91 34 60 35 65 19 82 -15 17 -14 20 24 58 23 22 41 45 41 50 0 6 27 30 59
54 33 23 91 66 130 95 43 31 87 55 109 58 61 10 102 32 102 56 0 11 10 29 22
38 18 15 29 16 62 9 22 -5 50 -7 61 -4z m-955 -623 c0 -5 -7 -14 -15 -21 -12
-10 -15 -10 -15 2 0 8 3 18 7 21 9 10 23 9 23 -2z m-17 -72 c13 -13 11 -109
-3 -109 -5 0 -14 17 -21 38 -6 20 -17 40 -23 45 -7 5 -5 12 8 22 24 18 24 18
39 4z m-78 -98 c7 -12 -12 -24 -25 -16 -11 7 -4 25 10 25 5 0 11 -4 15 -9z
m253 -49 c3 -21 0 -23 -30 -20 -25 2 -34 8 -36 25 -3 18 1 21 30 20 26 -2 34
-7 36 -25z m316 -591 c20 -22 7 -36 -24 -26 -20 6 -26 25 -13 38 10 11 19 8
37 -12z"/>
</g>
</svg>
