<?xml version="1.0" standalone="no"?>
<!DOCTYPE svg PUBLIC "-//W3C//DTD SVG 20010904//EN"
 "http://www.w3.org/TR/2001/REC-SVG-20010904/DTD/svg10.dtd">
<svg version="1.0" xmlns="http://www.w3.org/2000/svg"
 width="990.000000pt" height="622.000000pt" viewBox="0 0 990.000000 622.000000"
 preserveAspectRatio="xMidYMid meet">
<metadata>
Created by potrace 1.14, written by Peter Selinger 2001-2017
</metadata>
<g transform="translate(0.000000,622.000000) scale(0.100000,-0.100000)"
fill="#000000" stroke="none">
<path d="M5555 6033 c-11 -2 -39 -13 -62 -24 -24 -10 -62 -19 -85 -19 -101 -1
-325 -41 -365 -66 -12 -8 -38 -14 -58 -14 -69 0 -97 -20 -139 -103 -21 -43
-42 -77 -45 -77 -14 0 -61 -52 -55 -61 11 -19 -26 -59 -76 -80 -28 -12 -60
-35 -71 -50 -17 -24 -28 -29 -62 -29 -23 -1 -53 -7 -67 -15 -14 -8 -45 -14
-69 -15 -49 0 -143 -14 -241 -35 -36 -8 -83 -17 -105 -20 -22 -3 -65 -14 -95
-24 -30 -10 -82 -23 -115 -29 -107 -19 -139 -28 -185 -55 -25 -15 -61 -35 -80
-46 -58 -31 -73 -54 -63 -93 13 -46 7 -60 -33 -86 -35 -23 -36 -24 -30 -75 19
-154 19 -153 -5 -198 -15 -31 -24 -68 -27 -123 -4 -66 -8 -79 -23 -83 -11 -3
-22 -17 -25 -32 -3 -14 -10 -36 -15 -49 -5 -13 -9 -37 -9 -53 0 -28 -14 -67
-29 -79 -13 -10 -80 -119 -110 -176 -36 -70 -114 -154 -159 -173 -18 -7 -32
-19 -32 -25 0 -21 -52 -121 -67 -129 -8 -5 -18 -20 -23 -33 -7 -17 -17 -24
-35 -24 -17 0 -29 -8 -37 -25 -6 -14 -15 -25 -19 -25 -16 0 -119 -76 -193
-143 -136 -124 -156 -134 -316 -157 -81 -11 -88 -11 -157 13 -43 15 -92 41
-120 64 -108 88 -224 143 -293 138 -54 -3 -100 -16 -100 -26 0 -5 -6 -9 -13
-9 -8 0 -27 -11 -43 -25 -33 -28 -40 -30 -50 -13 -5 7 -10 4 -16 -11 -6 -17
-13 -21 -26 -16 -32 14 -72 18 -72 6 0 -6 -9 -11 -21 -11 -11 0 -18 -4 -15 -9
7 -11 -19 -34 -69 -59 -22 -11 -50 -29 -62 -39 -19 -17 -40 -20 -167 -21
l-145 -1 -34 33 c-19 18 -49 41 -67 50 -32 16 -34 15 -68 -11 -18 -16 -48 -36
-66 -45 -22 -11 -43 -37 -65 -77 -42 -79 -44 -136 -7 -206 18 -35 26 -65 26
-100 0 -47 18 -102 102 -310 11 -27 28 -78 38 -111 25 -86 37 -104 71 -111 16
-3 33 -11 37 -17 4 -6 10 -49 14 -96 13 -166 43 -324 68 -366 13 -21 27 -41
30 -44 4 -3 12 -15 18 -27 13 -24 98 -53 172 -58 25 -2 61 -8 80 -14 44 -14
123 -4 116 14 -2 7 1 21 8 30 10 14 17 15 32 7 11 -6 53 -12 94 -13 61 -2 89
3 150 25 69 26 84 28 190 24 111 -4 117 -5 182 -42 l68 -38 -15 -29 c-14 -26
-14 -29 0 -29 18 0 21 -20 3 -21 -7 0 -3 -4 9 -9 12 -5 24 -21 27 -37 12 -52
101 -214 131 -236 5 -4 19 -6 30 -5 11 1 25 0 30 -3 6 -4 22 -9 38 -13 17 -4
27 -13 27 -25 0 -10 9 -21 19 -24 14 -3 18 -11 14 -26 -5 -18 -1 -21 26 -21
29 0 31 -2 32 -37 1 -21 1 -44 0 -51 -1 -7 7 -24 18 -39 12 -14 21 -32 21 -39
0 -8 8 -22 18 -32 10 -10 24 -36 29 -58 6 -21 21 -64 33 -94 37 -94 41 -113
41 -184 l-1 -69 68 -66 c54 -53 83 -73 146 -99 148 -60 322 -64 392 -10 14 12
41 44 60 72 81 122 86 128 154 154 57 22 79 25 179 24 69 -1 119 -6 127 -13
24 -20 46 -76 39 -100 -5 -15 -3 -20 6 -17 7 2 20 28 28 56 9 31 21 52 29 52
21 0 109 -67 139 -106 20 -27 23 -37 14 -48 -14 -17 4 -42 90 -124 54 -50 89
-105 76 -119 -4 -3 2 -22 13 -42 10 -20 26 -53 34 -73 20 -52 82 -90 154 -96
31 -3 61 -10 67 -17 5 -7 29 -15 51 -18 36 -4 47 0 85 30 48 38 82 40 87 7 2
-12 12 -30 24 -40 30 -28 230 -27 271 0 23 16 38 17 101 11 54 -5 88 -2 132
10 139 39 225 71 332 126 82 43 125 59 153 59 86 0 207 55 299 135 27 24 144
86 196 105 17 6 46 26 65 43 19 18 50 42 69 54 19 12 51 41 70 63 37 45 85 70
132 70 51 0 228 97 316 173 66 57 142 141 190 207 25 36 49 67 53 70 3 3 11
15 17 27 21 39 102 85 162 92 30 4 69 14 85 23 17 9 48 24 69 34 22 11 48 27
58 36 10 10 27 18 39 18 24 0 84 44 147 107 26 26 51 43 66 43 13 0 29 7 36
15 7 8 19 15 26 15 8 0 22 9 31 20 10 11 22 20 28 20 5 0 27 28 49 63 29 47
41 78 47 127 4 36 11 75 14 87 7 21 74 73 95 73 5 0 10 4 10 8 0 5 23 32 52
61 51 52 90 119 103 182 4 19 22 52 40 74 18 22 35 50 39 61 4 12 29 45 57 74
28 29 62 70 76 91 14 22 29 39 33 39 12 0 45 34 59 62 8 15 38 51 68 79 30 28
63 68 74 88 11 20 27 48 37 62 76 115 71 98 69 284 l-2 170 -42 91 c-49 107
-81 243 -61 255 9 6 3 12 -19 21 -27 10 -33 18 -33 41 0 22 -6 30 -30 38 -16
6 -39 26 -50 44 -17 28 -19 41 -12 91 10 75 0 134 -35 200 -26 50 -27 54 -10
72 32 35 22 70 -35 126 -78 77 -117 106 -141 106 -12 0 -33 7 -47 15 -14 8
-35 19 -48 24 -12 6 -25 19 -29 28 -3 10 -22 34 -42 54 -20 20 -49 52 -64 72
-16 19 -41 40 -55 45 -15 6 -55 20 -88 32 -38 13 -78 37 -105 62 -24 23 -89
74 -144 114 -55 40 -128 99 -163 131 -63 58 -157 123 -177 123 -17 0 -169 66
-229 100 -30 16 -61 30 -68 30 -24 0 -184 105 -217 142 -19 22 -63 52 -109 74
-42 20 -91 43 -108 51 -16 8 -43 25 -59 39 -15 13 -36 24 -45 24 -9 0 -20 3
-23 7 -4 3 -29 14 -57 24 -28 10 -81 38 -119 63 -38 25 -76 46 -85 46 -9 0
-28 7 -41 16 -24 16 -44 18 -214 30 -47 3 -92 9 -101 14 -9 5 -22 8 -30 8 -53
-3 -90 3 -90 15 0 11 -11 12 -56 4 -39 -6 -68 -6 -94 2 -39 11 -42 12 -75 4z
m-2028 -1687 l28 -24 -16 -48 c-10 -33 -13 -61 -7 -84 11 -51 5 -62 -29 -49
-58 22 -103 -3 -173 -92 -52 -66 -81 -92 -92 -81 -16 16 0 49 48 96 24 24 44
52 44 62 0 41 56 168 91 205 42 45 67 49 106 15z m623 -161 c0 -28 -36 -66
-56 -58 -33 12 -4 83 33 83 18 0 23 -6 23 -25z m237 -50 c6 -14 8 -26 5 -26
-4 -1 -16 -3 -27 -4 -12 -1 -30 -7 -42 -14 -28 -14 -33 -14 -33 3 0 8 14 19
30 25 17 5 30 17 30 25 0 25 24 19 37 -9z m143 15 c0 -5 -7 -10 -15 -10 -8 0
-15 5 -15 10 0 6 7 10 15 10 8 0 15 -4 15 -10z m-384 -107 c-10 -10 -19 5 -10
18 6 11 8 11 12 0 2 -7 1 -15 -2 -18z m-116 7 c0 -5 -4 -10 -9 -10 -6 0 -13 5
-16 10 -3 6 1 10 9 10 9 0 16 -4 16 -10z m284 -20 c-10 -4 -21 -6 -24 -3 -8 7
24 22 34 16 5 -4 1 -10 -10 -13z m-383 -45 c15 -21 34 -35 49 -37 19 -2 26
-10 28 -30 3 -27 4 -27 29 -11 20 13 29 14 44 5 11 -7 20 -8 24 -2 11 17 26
11 58 -25 17 -19 36 -35 42 -35 6 0 25 -13 43 -29 34 -31 46 -91 19 -91 -8 0
-19 -11 -25 -25 -23 -51 -122 -88 -122 -46 0 29 -15 33 -55 17 -39 -17 -45
-39 -16 -64 20 -17 20 -17 -1 -59 -11 -24 -24 -43 -28 -43 -5 0 -6 -9 -3 -20
4 -16 0 -20 -20 -20 -13 0 -30 7 -37 15 -7 8 -19 15 -26 15 -9 0 -14 12 -14
34 0 25 -7 39 -25 53 -22 15 -26 28 -30 81 -2 42 -9 68 -19 75 -9 7 -15 27
-15 47 0 51 0 70 0 113 -1 40 10 69 37 100 22 25 37 21 63 -18z m334 -135 c3
-6 -1 -7 -9 -4 -18 7 -21 14 -7 14 6 0 13 -4 16 -10z m380 -356 c34 9 48 -8
41 -47 -6 -30 -3 -37 19 -51 21 -14 40 -16 113 -10 74 6 91 4 104 -10 9 -9 25
-16 35 -16 33 0 46 -16 40 -46 -18 -88 -26 -114 -41 -129 -9 -9 -16 -22 -16
-29 0 -8 -7 -19 -15 -26 -16 -13 -21 -55 -7 -64 4 -2 9 -31 10 -63 2 -56 24
-157 43 -198 5 -11 11 -38 13 -60 2 -22 11 -60 20 -84 21 -55 14 -78 -27 -86
-18 -4 -49 -15 -69 -25 -36 -17 -38 -17 -43 1 -9 27 -29 23 -58 -10 -30 -36
-43 -109 -26 -154 9 -25 9 -44 -1 -82 -6 -28 -14 -67 -17 -88 -3 -23 -12 -41
-22 -45 -9 -3 -27 -16 -41 -29 -14 -13 -41 -28 -60 -35 -19 -6 -41 -19 -47
-29 -9 -11 -33 -19 -73 -24 -48 -6 -66 -13 -87 -35 -15 -16 -31 -26 -36 -23
-4 3 -14 -2 -20 -10 -11 -14 -16 -14 -47 1 -27 13 -36 24 -38 47 -5 39 -29 65
-60 65 -14 0 -36 9 -48 21 -16 15 -26 18 -40 11 -71 -37 -70 -37 -113 -3 l-40
32 6 69 c6 67 5 70 -25 104 -16 19 -33 44 -37 55 -4 12 -15 21 -26 21 -19 0
-19 1 -5 16 20 20 20 29 0 49 -13 12 -13 19 -4 30 6 8 9 19 5 25 -4 6 -7 27
-7 46 0 19 -4 37 -9 40 -5 3 -9 25 -9 50 0 47 20 68 43 45 17 -17 27 -13 27 9
0 11 -4 20 -9 20 -16 0 -23 38 -11 61 7 12 12 37 12 56 0 24 8 42 27 61 14 14
39 51 54 81 23 47 26 59 16 78 -10 19 -6 28 42 83 30 34 83 82 119 108 36 25
67 48 70 52 19 22 115 71 158 80 57 13 84 32 75 55 -3 9 5 23 18 34 19 15 30
16 63 9 22 -5 50 -7 61 -4z m-955 -623 c0 -12 -20 -25 -27 -18 -7 7 6 27 18
27 5 0 9 -4 9 -9z m-12 -126 c0 -55 -15 -68 -24 -20 -3 19 -14 39 -23 45 -14
8 -14 10 4 24 28 20 42 5 43 -49z m-86 -57 c-6 -6 -16 -7 -22 -3 -9 6 -9 9 1
16 17 10 34 0 21 -13z m258 -38 c0 -20 -22 -26 -54 -14 -30 12 -18 34 19 34
28 0 35 -4 35 -20z m308 -582 c16 -16 15 -38 0 -38 -23 0 -39 16 -32 33 7 20
16 21 32 5z"/>
</g>
</svg>
