<?xml version="1.0" standalone="no"?>
<!DOCTYPE svg PUBLIC "-//W3C//DTD SVG 20010904//EN"
 "http://www.w3.org/TR/2001/REC-SVG-20010904/DTD/svg10.dtd">
<svg version="1.0" xmlns="http://www.w3.org/2000/svg"
 width="990.000000pt" height="622.000000pt" viewBox="0 0 990.000000 622.000000"
 preserveAspectRatio="xMidYMid meet">
<metadata>
Created by potrace 1.14, written by Peter Selinger 2001-2017
</metadata>
<g transform="translate(0.000000,622.000000) scale(0.100000,-0.100000)"
fill="#000000" stroke="none">
<path d="M5539 6021 c-14 -5 -36 -14 -49 -21 -23 -12 -88 -22 -245 -36 -38 -4
-78 -10 -87 -15 -9 -5 -25 -9 -35 -9 -10 0 -40 -12 -68 -25 -29 -14 -58 -22
-71 -19 -34 9 -92 -24 -110 -61 -8 -18 -24 -41 -35 -51 -10 -9 -19 -22 -19
-29 0 -6 -13 -24 -30 -40 -16 -16 -30 -37 -30 -47 0 -34 -33 -69 -85 -93 -29
-12 -60 -32 -71 -43 -10 -11 -35 -23 -55 -26 -19 -3 -62 -12 -94 -20 -31 -9
-61 -13 -65 -11 -10 6 -238 -32 -265 -45 -11 -5 -47 -12 -80 -15 -33 -4 -64
-10 -70 -15 -15 -11 -54 -21 -115 -30 -47 -7 -119 -24 -155 -36 -5 -2 -28 -15
-50 -29 -22 -13 -57 -34 -77 -45 -44 -24 -59 -47 -47 -75 17 -44 9 -69 -31
-97 -46 -32 -49 -49 -25 -133 16 -53 16 -54 -15 -133 -27 -71 -30 -87 -24
-145 6 -58 4 -67 -15 -83 -11 -10 -21 -24 -21 -30 0 -6 -7 -25 -15 -40 -8 -16
-15 -37 -15 -47 0 -23 -26 -73 -43 -84 -18 -11 -117 -169 -117 -186 0 -22
-101 -133 -136 -151 -22 -11 -42 -36 -64 -78 -18 -35 -39 -71 -48 -81 -8 -9
-20 -27 -26 -40 -7 -12 -21 -22 -33 -22 -12 0 -28 -8 -35 -17 -15 -20 -109
-88 -121 -88 -4 0 -22 -15 -40 -32 -176 -176 -253 -212 -447 -213 -78 0 -135
26 -255 115 -93 69 -205 116 -236 100 -11 -6 -24 -8 -30 -4 -14 8 -97 -24
-136 -54 -18 -13 -38 -22 -45 -20 -7 3 -18 -2 -24 -10 -8 -11 -15 -12 -32 -3
-26 14 -62 14 -62 1 0 -5 -9 -10 -20 -10 -12 0 -17 -5 -14 -13 3 -9 -16 -25
-53 -45 -32 -17 -68 -39 -80 -50 -20 -16 -41 -19 -168 -20 l-146 -2 -43 40
c-24 22 -50 40 -59 40 -8 0 -17 6 -20 13 -2 8 -19 0 -48 -23 -24 -20 -56 -41
-70 -47 -17 -7 -37 -33 -58 -76 -37 -78 -40 -136 -11 -185 12 -20 25 -67 31
-115 6 -45 17 -92 25 -104 8 -12 14 -31 14 -42 0 -11 4 -22 8 -25 5 -3 17 -33
27 -68 11 -35 27 -78 37 -96 10 -19 25 -61 33 -94 16 -68 43 -103 86 -112 26
-5 29 -9 30 -48 3 -143 38 -360 67 -413 48 -90 121 -135 217 -135 20 0 58 -7
85 -16 38 -12 53 -13 70 -4 12 6 24 9 28 6 3 -4 12 8 19 25 10 24 17 29 30 24
35 -13 165 -15 197 -1 64 26 154 38 258 34 97 -4 107 -7 170 -42 l68 -38 -15
-29 c-14 -26 -14 -29 0 -29 18 0 21 -20 3 -21 -7 0 -3 -4 9 -9 13 -5 24 -22
28 -41 9 -41 99 -199 127 -222 12 -10 28 -15 36 -12 8 3 20 1 26 -3 6 -5 23
-12 38 -16 19 -4 28 -13 28 -26 0 -13 7 -20 20 -20 17 0 19 -4 14 -27 -6 -23
-4 -25 13 -21 31 8 41 -3 45 -52 4 -45 53 -160 68 -160 5 0 11 -15 15 -33 3
-17 10 -41 15 -52 42 -90 69 -197 63 -243 -6 -46 14 -86 69 -138 105 -100 309
-161 448 -134 67 13 95 32 138 96 38 55 59 85 85 119 10 14 46 33 85 46 56 20
85 23 176 21 63 -1 115 -7 123 -13 22 -19 46 -77 40 -99 -3 -11 -1 -20 4 -20
5 0 12 14 16 30 3 17 10 33 14 36 5 3 9 14 9 25 0 31 30 23 92 -26 68 -53 96
-91 80 -107 -14 -14 17 -55 105 -143 52 -53 63 -69 63 -97 0 -18 6 -42 14 -53
7 -11 17 -31 21 -45 22 -71 97 -120 185 -120 36 0 50 -4 50 -14 0 -9 12 -14
34 -14 19 0 39 -3 44 -6 5 -3 27 10 50 29 22 19 45 35 50 35 6 0 12 5 14 12 2
6 14 -9 26 -34 13 -28 30 -49 44 -54 13 -4 67 -7 120 -7 76 0 106 5 140 21 38
18 49 19 96 10 43 -9 65 -8 115 6 120 32 232 70 257 86 14 9 45 24 69 34 23 9
59 28 79 41 24 16 51 25 76 25 91 0 202 48 311 135 48 38 150 95 171 95 19 0
59 25 107 68 21 18 48 38 61 43 12 6 40 33 62 60 21 27 46 49 56 49 9 0 20 5
23 10 3 6 22 10 40 10 109 0 393 203 502 358 107 153 119 167 176 195 31 15
70 27 87 27 17 0 60 14 95 30 35 17 71 30 80 30 8 0 15 9 15 20 0 12 7 20 18
21 55 2 70 10 146 82 23 21 48 44 57 52 9 8 25 15 36 15 11 0 26 7 33 15 7 8
19 15 26 15 8 0 22 9 31 20 10 11 23 20 29 20 6 0 30 28 54 62 34 50 43 72 46
116 6 84 20 125 51 144 61 38 68 44 77 58 5 8 27 33 49 55 42 43 87 122 87
155 0 21 36 101 50 110 4 3 17 23 28 45 11 22 46 64 76 94 31 30 58 62 61 72
3 9 21 29 40 44 19 14 42 39 50 54 8 16 41 56 73 90 32 33 71 85 86 115 16 31
35 61 43 67 31 26 42 79 47 232 l5 154 -36 79 c-50 112 -84 213 -88 259 -2 31
-7 41 -23 43 -15 2 -22 12 -24 35 -2 24 -8 33 -26 35 -12 2 -34 19 -48 37 -25
33 -26 38 -19 117 7 82 -6 168 -24 168 -5 0 -11 8 -15 18 -3 9 -10 27 -15 38
-7 15 -5 30 5 49 24 48 18 72 -35 125 -56 56 -107 90 -136 90 -30 0 -114 57
-125 84 -5 13 -17 30 -28 37 -10 8 -26 28 -35 46 -21 39 -56 64 -127 87 -91
30 -114 43 -169 95 -29 28 -94 79 -145 113 -50 34 -118 88 -151 120 -83 80
-111 97 -256 156 -167 68 -235 101 -288 140 -24 18 -50 32 -58 32 -7 0 -13 5
-13 10 0 6 -7 10 -15 10 -8 0 -22 11 -31 25 -20 31 -133 106 -194 129 -25 10
-62 31 -82 47 -20 16 -42 29 -48 29 -7 0 -24 7 -38 15 -15 8 -49 21 -76 30
-26 8 -67 28 -90 44 -70 48 -149 82 -201 86 -158 12 -292 26 -305 32 -8 3 -19
5 -23 4 -5 -1 -21 6 -37 16 -24 14 -34 15 -55 5 -32 -15 -82 -16 -90 -2 -7 12
-58 12 -96 1z m-1999 -1676 c20 -22 22 -28 12 -67 -5 -24 -7 -72 -5 -107 6
-64 5 -64 -18 -57 -48 14 -88 18 -112 12 -13 -3 -54 -42 -91 -86 -71 -84 -96
-98 -96 -54 0 18 13 38 39 63 45 42 61 70 61 105 0 14 4 27 9 31 5 3 15 22 21
43 17 51 60 119 85 131 35 17 70 12 95 -14z m610 -160 c0 -22 -34 -65 -51 -65
-21 0 -27 36 -11 62 22 37 62 39 62 3z m380 -36 c0 -5 -7 -9 -15 -9 -8 0 -15
7 -15 15 0 9 6 12 15 9 8 -4 15 -10 15 -15z m-150 -3 c0 -8 6 -16 13 -19 17
-6 2 -19 -26 -22 -14 -2 -34 -8 -45 -14 -27 -14 -32 -14 -32 3 0 8 14 19 30
25 17 5 30 17 30 25 0 9 7 16 15 16 8 0 15 -6 15 -14z m-234 -103 c-11 -11
-19 6 -11 24 8 17 8 17 12 0 3 -10 2 -21 -1 -24z m-116 7 c0 -5 -4 -10 -9 -10
-6 0 -13 5 -16 10 -3 6 1 10 9 10 9 0 16 -4 16 -10z m284 -20 c-10 -4 -21 -6
-24 -3 -8 7 24 22 34 16 5 -4 1 -10 -10 -13z m-364 -72 c0 -5 11 -8 24 -8 29
0 42 -16 37 -45 -3 -19 -2 -19 16 -2 22 19 49 22 58 7 5 -8 11 -8 20 0 17 14
38 5 64 -30 12 -17 29 -30 39 -30 27 0 72 -58 72 -91 0 -18 -5 -29 -13 -29 -8
0 -19 -11 -25 -25 -24 -51 -122 -88 -122 -45 0 15 -7 20 -29 20 -29 0 -61 -22
-61 -42 0 -5 9 -17 20 -26 19 -17 19 -17 -5 -65 -14 -27 -25 -55 -25 -63 0
-19 -44 -18 -60 1 -7 8 -19 15 -26 15 -9 0 -14 12 -14 34 0 26 -7 39 -27 54
-24 17 -27 27 -29 83 -2 44 -7 65 -18 71 -9 5 -16 22 -16 41 0 18 0 43 0 57
-2 101 7 136 47 175 16 16 18 15 45 -16 15 -19 28 -37 28 -41z m315 -108 c3
-6 -1 -7 -9 -4 -18 7 -21 14 -7 14 6 0 13 -4 16 -10z m380 -356 c34 9 48 -8
41 -47 -6 -33 -4 -37 23 -52 24 -12 48 -14 114 -9 69 6 86 4 99 -10 9 -9 25
-16 35 -16 33 0 46 -16 40 -46 -18 -90 -26 -116 -41 -133 -9 -9 -16 -22 -16
-28 0 -6 -7 -16 -15 -23 -16 -13 -21 -55 -7 -64 4 -2 9 -31 10 -63 2 -58 25
-162 43 -195 5 -9 11 -36 15 -60 3 -24 13 -62 21 -85 18 -48 11 -80 -20 -88
-67 -18 -97 -29 -97 -37 0 -16 -19 -8 -25 12 -15 46 -67 2 -86 -73 -9 -38 -9
-56 1 -86 10 -30 10 -49 0 -87 -6 -27 -15 -66 -18 -87 -6 -31 -16 -44 -66 -77
-32 -22 -66 -40 -75 -40 -9 0 -22 -9 -28 -19 -8 -13 -29 -21 -71 -26 -58 -7
-102 -31 -102 -56 0 -6 -7 -8 -16 -5 -9 4 -22 0 -28 -8 -10 -13 -16 -12 -46 2
-28 14 -36 24 -38 49 -4 37 -33 63 -70 63 -13 0 -32 10 -42 22 -13 17 -21 20
-31 12 -8 -6 -28 -16 -46 -23 -28 -11 -35 -10 -72 15 l-42 27 7 73 c7 72 6 74
-24 108 -17 19 -33 44 -37 55 -4 12 -15 21 -26 21 -19 0 -19 1 -5 16 20 19 20
29 0 48 -11 11 -12 21 -6 33 5 9 6 29 2 44 -5 15 -6 30 -2 33 3 3 0 16 -7 29
-7 13 -11 41 -9 63 3 35 6 39 31 39 31 -1 33 6 11 41 -15 23 -15 26 1 44 11
13 16 30 13 50 -4 23 3 39 27 68 17 20 44 59 59 87 23 42 25 53 15 71 -10 20
-6 29 37 79 27 32 94 90 149 131 55 41 106 78 112 84 7 6 41 17 75 26 69 17
100 38 91 60 -3 8 5 22 18 33 19 15 30 16 63 9 22 -5 50 -7 61 -4z m-955 -623
c0 -12 -20 -25 -27 -18 -7 7 6 27 18 27 5 0 9 -4 9 -9z m-12 -126 c0 -53 -13
-68 -23 -25 -4 17 -14 37 -22 46 -14 13 -14 16 3 29 27 19 41 3 42 -50z m-83
-44 c7 -12 -12 -24 -25 -16 -11 7 -4 25 10 25 5 0 11 -4 15 -9z m253 -50 c3
-20 0 -22 -30 -19 -40 4 -52 34 -16 41 35 6 43 3 46 -22z m310 -583 c16 -16
15 -38 0 -38 -23 0 -41 18 -35 34 8 19 19 20 35 4z"/>
</g>
</svg>
