<?xml version="1.0" standalone="no"?>
<!DOCTYPE svg PUBLIC "-//W3C//DTD SVG 20010904//EN"
 "http://www.w3.org/TR/2001/REC-SVG-20010904/DTD/svg10.dtd">
<svg version="1.0" xmlns="http://www.w3.org/2000/svg"
 width="990.000000pt" height="622.000000pt" viewBox="0 0 990.000000 622.000000"
 preserveAspectRatio="xMidYMid meet">
<metadata>
Created by potrace 1.14, written by Peter Selinger 2001-2017
</metadata>
<g transform="translate(0.000000,622.000000) scale(0.100000,-0.100000)"
fill="#000000" stroke="none">
<path d="M5480 6030 c-30 -11 -131 -29 -225 -41 -93 -12 -188 -28 -210 -36
-22 -8 -51 -16 -63 -18 -13 -2 -46 -9 -73 -15 -49 -12 -51 -15 -64 -79 -12
-59 -48 -116 -75 -119 -14 -2 -29 -11 -35 -20 -10 -17 -11 -23 -14 -50 0 -7
-25 -24 -54 -37 -29 -14 -67 -40 -84 -60 -24 -27 -39 -35 -65 -35 -18 0 -43
-6 -54 -14 -11 -8 -49 -16 -84 -19 -36 -2 -105 -12 -155 -21 -49 -9 -117 -20
-150 -25 -33 -5 -88 -18 -122 -30 -34 -11 -73 -21 -86 -21 -38 0 -194 -49
-245 -77 -79 -43 -117 -66 -125 -77 -4 -6 -6 -30 -3 -53 5 -39 2 -46 -28 -74
-43 -38 -50 -79 -24 -143 18 -47 18 -95 -2 -121 -4 -5 -20 -49 -36 -97 -30
-94 -45 -106 -88 -73 -11 8 -23 15 -28 15 -9 0 -27 -63 -19 -70 3 -3 16 -17
29 -31 27 -31 21 -54 -19 -75 -37 -19 -37 -28 1 -44 17 -7 30 -15 30 -19 -1
-16 -33 -97 -48 -120 -10 -14 -30 -51 -46 -82 -15 -31 -54 -85 -86 -119 -55
-59 -59 -62 -100 -59 -47 4 -58 -7 -42 -38 16 -30 1 -74 -38 -113 -21 -21 -40
-44 -42 -51 -3 -8 -13 -14 -23 -14 -11 0 -24 -10 -31 -22 -10 -21 -95 -93
-109 -93 -9 0 -135 -109 -175 -151 -48 -51 -108 -75 -218 -88 -142 -17 -193
-3 -327 94 -112 80 -196 118 -263 116 -57 0 -122 -27 -164 -66 -17 -16 -29
-20 -39 -14 -19 12 -32 11 -24 -1 10 -16 -24 -24 -52 -11 -21 10 -29 9 -43 -4
-9 -8 -24 -15 -32 -15 -9 0 -15 -8 -14 -17 0 -11 -17 -26 -46 -42 -26 -15 -58
-35 -70 -46 -20 -17 -40 -19 -168 -21 l-145 -2 -40 37 c-49 46 -98 68 -117 52
-53 -46 -74 -61 -84 -61 -32 0 -92 -107 -101 -180 -5 -40 -1 -56 19 -92 18
-30 28 -66 32 -117 4 -40 11 -81 16 -90 22 -41 59 -130 66 -156 4 -17 18 -52
31 -80 13 -27 28 -72 34 -100 12 -63 36 -97 77 -107 18 -5 32 -12 33 -16 0 -4
4 -45 9 -92 19 -197 41 -314 68 -364 35 -64 84 -116 110 -116 11 0 24 -5 27
-10 3 -5 30 -10 59 -10 30 0 73 -7 97 -16 30 -10 59 -13 92 -8 43 5 48 8 43
28 -3 11 -1 28 4 36 8 12 11 12 28 -3 14 -13 37 -17 98 -17 44 0 84 4 89 8 6
5 32 17 60 27 68 25 276 28 320 4 24 -13 60 -32 104 -56 2 -1 -1 -16 -7 -32
-9 -26 -8 -31 5 -31 12 0 13 -3 4 -14 -9 -11 -7 -15 9 -19 11 -3 20 -13 20
-24 0 -25 53 -136 97 -201 29 -44 40 -53 61 -51 49 4 96 -20 100 -50 2 -11 10
-21 18 -21 8 0 13 -3 13 -7 -4 -24 4 -33 29 -33 25 0 27 -3 29 -48 1 -45 53
-162 72 -162 4 0 12 -19 18 -43 6 -23 25 -80 42 -127 22 -61 31 -102 31 -148
0 -72 12 -97 75 -157 44 -42 113 -80 200 -110 71 -25 258 -27 301 -3 30 17 94
82 94 96 0 4 20 34 44 67 62 82 101 97 271 103 122 4 131 3 149 -17 12 -13 19
-37 20 -66 1 -63 26 -56 46 13 9 31 20 52 29 52 17 0 74 -42 120 -87 27 -28
32 -40 28 -63 -6 -25 3 -38 73 -110 83 -84 105 -114 95 -130 -3 -5 11 -44 31
-86 42 -87 91 -127 170 -138 26 -3 52 -10 58 -15 6 -5 31 -11 56 -15 39 -5 51
-2 90 24 51 34 90 39 90 13 1 -40 26 -55 107 -63 86 -9 167 3 195 28 14 11 28
13 65 7 27 -5 67 -8 89 -8 60 1 281 78 403 140 73 38 115 53 143 53 73 0 187
46 271 111 43 32 82 59 86 59 5 0 14 6 21 14 6 8 43 27 82 42 43 16 89 44 119
70 28 24 53 44 57 44 11 0 42 30 72 69 31 42 48 50 121 62 61 10 159 55 259
120 52 34 250 223 250 239 0 7 23 38 92 122 17 21 36 38 43 38 6 0 24 11 39
24 19 16 46 25 83 29 31 3 61 11 66 16 6 6 20 11 31 11 12 0 32 9 46 20 14 11
33 20 43 20 9 0 17 7 17 15 0 8 6 16 13 16 6 1 17 2 23 3 6 0 27 14 45 29 19
16 44 33 57 38 12 5 25 16 29 26 12 30 46 63 65 63 11 0 29 5 41 12 12 7 29
13 37 14 8 2 22 12 32 23 9 12 21 21 27 21 6 0 17 12 24 27 6 16 14 30 17 33
31 30 50 75 50 117 0 77 24 127 76 152 24 12 70 48 102 80 55 54 78 91 116
184 9 22 27 48 41 59 14 11 35 39 47 61 11 23 28 49 37 58 9 9 34 40 56 69 22
29 61 75 87 102 27 26 48 52 48 57 0 13 81 90 101 96 9 3 28 31 42 63 15 31
41 72 57 91 48 54 78 134 59 157 -5 6 -14 74 -20 150 -10 142 -21 204 -43 239
-37 60 -66 223 -45 256 5 9 -2 18 -22 27 -23 12 -29 21 -29 47 0 27 -5 35 -29
45 -53 21 -58 35 -59 157 -1 90 -5 120 -21 151 -13 25 -16 43 -10 53 26 41 -4
122 -58 155 -15 10 -49 39 -76 65 -26 26 -59 50 -73 53 -58 15 -123 50 -133
73 -6 13 -21 28 -33 34 -13 6 -43 35 -68 64 -35 40 -60 58 -110 79 -36 14 -71
26 -77 26 -7 0 -24 16 -39 35 -14 19 -31 35 -36 35 -5 0 -29 16 -52 35 -24 19
-47 35 -52 35 -5 0 -20 12 -34 27 -14 14 -46 39 -72 55 -27 17 -48 33 -48 37
0 10 -125 112 -158 129 -14 7 -60 24 -101 38 -95 31 -157 60 -168 76 -14 23
-57 45 -111 57 -65 14 -119 47 -185 115 -53 55 -135 106 -169 106 -20 0 -110
50 -139 76 -14 13 -34 24 -45 24 -12 0 -24 3 -28 7 -7 8 -11 9 -52 11 -12 1
-41 20 -65 43 -48 45 -107 79 -138 79 -11 0 -22 4 -25 9 -6 9 -48 19 -111 26
-22 3 -80 10 -130 16 -49 6 -114 11 -142 11 -36 1 -53 5 -53 14 0 9 -13 11
-52 7 -57 -6 -66 -6 -148 1 -38 3 -72 -1 -110 -14z m-1963 -1700 c10 -21 9
-30 -7 -58 -11 -18 -20 -46 -20 -63 0 -25 -4 -29 -29 -29 -21 0 -39 -12 -70
-45 -22 -24 -41 -49 -41 -54 0 -5 -9 -20 -20 -33 -11 -12 -29 -35 -41 -50 -21
-29 -59 -38 -59 -15 0 18 28 56 65 89 18 16 37 45 44 70 25 91 57 161 88 195
30 31 72 28 90 -7z m631 -146 c3 -24 -21 -54 -44 -54 -22 0 -28 28 -13 56 16
31 53 29 57 -2z m232 -44 c0 -11 6 -20 13 -20 6 0 4 -5 -6 -11 -10 -6 -21 -8
-24 -5 -3 3 -18 -1 -34 -9 -35 -18 -39 -19 -39 -1 0 8 14 19 30 25 17 5 30 17
30 25 0 9 7 16 15 16 8 0 15 -9 15 -20z m150 10 c0 -5 -7 -10 -15 -10 -8 0
-15 5 -15 10 0 6 7 10 15 10 8 0 15 -4 15 -10z m-388 -102 c-7 -7 -12 -8 -12
-2 0 6 3 14 7 17 3 4 9 5 12 2 2 -3 -1 -11 -7 -17z m-117 2 c3 -5 2 -10 -4
-10 -5 0 -13 5 -16 10 -3 6 -2 10 4 10 5 0 13 -4 16 -10z m289 -20 c-10 -4
-21 -6 -24 -3 -8 7 24 22 34 16 5 -4 1 -10 -10 -13z m-384 -45 c15 -20 35 -35
50 -37 19 -2 26 -10 28 -30 3 -27 4 -27 27 -12 17 11 29 13 43 5 13 -7 22 -7
30 1 9 9 21 3 50 -25 21 -20 42 -37 48 -37 5 0 24 -13 42 -29 35 -33 46 -91
17 -91 -9 0 -20 -11 -25 -25 -10 -27 -64 -65 -93 -65 -10 0 -22 11 -27 25 -11
29 -11 29 -55 11 -38 -16 -45 -41 -19 -61 22 -15 12 -58 -20 -90 -13 -13 -19
-26 -13 -28 6 -2 7 -9 3 -15 -20 -32 -96 15 -96 59 0 18 -9 34 -25 46 -22 15
-26 28 -30 82 -2 44 -9 67 -19 73 -11 6 -14 23 -12 71 2 34 7 70 11 80 4 10 3
17 -4 17 -6 0 -11 8 -11 18 0 23 47 92 63 92 7 0 23 -16 37 -35z m715 -491
c34 9 48 -8 41 -47 -6 -31 -3 -38 18 -52 19 -13 40 -15 113 -9 75 6 92 4 105
-10 9 -9 25 -16 35 -16 34 0 46 -16 39 -51 -4 -19 -9 -48 -12 -66 -4 -17 -15
-39 -25 -49 -10 -9 -19 -25 -19 -34 0 -10 -7 -23 -16 -31 -11 -9 -14 -22 -10
-43 4 -17 9 -58 12 -91 4 -33 15 -91 26 -130 11 -38 22 -90 25 -115 3 -24 11
-53 18 -65 17 -27 27 -77 17 -91 -4 -5 -36 -20 -71 -32 -60 -20 -65 -20 -77
-4 -10 14 -15 15 -37 3 -45 -24 -72 -129 -46 -177 11 -21 10 -34 -4 -89 -9
-35 -17 -75 -17 -89 0 -14 -4 -26 -10 -26 -5 0 -25 -14 -44 -30 -19 -17 -49
-36 -68 -42 -18 -6 -39 -19 -45 -29 -9 -11 -34 -19 -75 -24 -50 -6 -66 -13
-88 -37 -20 -22 -29 -26 -33 -16 -5 10 -8 9 -17 -5 -8 -12 -18 -15 -38 -11
-34 8 -52 30 -52 65 0 30 -35 59 -71 59 -12 0 -30 7 -40 16 -11 10 -23 13 -31
8 -7 -5 -28 -14 -47 -21 -31 -11 -37 -9 -67 14 -33 25 -50 55 -40 72 3 5 7 29
7 54 2 38 -3 52 -29 81 -16 19 -33 44 -37 55 -3 12 -13 21 -21 21 -11 0 -12 4
-2 19 9 15 8 24 -5 44 -11 18 -13 28 -6 33 6 4 8 17 3 33 -4 14 -6 38 -5 54 1
15 -3 27 -9 27 -5 0 -10 21 -10 46 0 43 2 46 23 41 12 -2 30 -8 40 -12 14 -6
17 -2 17 23 0 21 -6 31 -20 35 -24 6 -27 35 -5 43 12 5 14 17 10 49 -4 38 -2
46 23 67 15 13 42 52 60 87 29 58 31 66 17 81 -14 15 -12 20 17 53 18 19 40
44 48 55 15 19 152 126 225 174 22 15 65 32 95 39 65 14 83 25 74 51 -4 12 2
25 17 37 19 15 30 16 63 9 22 -5 50 -7 61 -4z m-955 -623 c0 -12 -20 -25 -27
-18 -7 7 6 27 18 27 5 0 9 -4 9 -9z m-15 -123 c3 -52 -11 -65 -21 -20 -4 15
-14 33 -23 40 -14 11 -14 14 -1 22 30 20 43 7 45 -42z m-83 -60 c-6 -6 -16 -7
-22 -3 -9 6 -9 9 1 16 17 10 34 0 21 -13z m253 -38 c0 -13 -14 -16 -55 -11 -5
1 -10 7 -10 15 0 9 11 13 33 12 20 -1 32 -7 32 -16z m314 -589 c13 -8 8 -31
-7 -31 -17 1 -34 19 -28 29 9 13 16 14 35 2z"/>
<path d="M4025 820 c3 -5 8 -10 11 -10 2 0 4 5 4 10 0 6 -5 10 -11 10 -5 0 -7
-4 -4 -10z"/>
</g>
</svg>
