<?xml version="1.0" standalone="no"?>
<!DOCTYPE svg PUBLIC "-//W3C//DTD SVG 20010904//EN"
 "http://www.w3.org/TR/2001/REC-SVG-20010904/DTD/svg10.dtd">
<svg version="1.0" xmlns="http://www.w3.org/2000/svg"
 width="990.000000pt" height="622.000000pt" viewBox="0 0 990.000000 622.000000"
 preserveAspectRatio="xMidYMid meet">
<metadata>
Created by potrace 1.14, written by Peter Selinger 2001-2017
</metadata>
<g transform="translate(0.000000,622.000000) scale(0.100000,-0.100000)"
fill="#000000" stroke="none">
<path d="M5546 6039 c-22 -5 -45 -14 -52 -20 -7 -5 -84 -19 -171 -29 -202 -25
-260 -35 -289 -55 -13 -8 -39 -15 -58 -15 -56 0 -116 -28 -116 -54 0 -11 -12
-47 -27 -78 -20 -40 -37 -61 -60 -72 -23 -11 -33 -22 -33 -39 0 -29 -31 -59
-90 -85 -25 -11 -52 -32 -59 -45 -10 -19 -24 -26 -63 -30 -28 -4 -55 -11 -62
-16 -6 -5 -38 -11 -71 -14 -55 -4 -108 -12 -240 -38 -27 -5 -63 -12 -80 -14
-16 -2 -55 -11 -85 -20 -30 -8 -90 -22 -134 -31 -43 -8 -86 -19 -96 -24 -10
-6 -26 -10 -35 -10 -21 0 -86 -31 -160 -78 l-60 -38 0 -56 c0 -45 -4 -60 -20
-72 -11 -9 -23 -16 -27 -16 -3 0 -12 -16 -18 -35 -10 -29 -8 -41 9 -81 26 -58
26 -73 2 -127 -22 -47 -51 -153 -51 -186 0 -14 -8 -23 -25 -27 -26 -6 -43 -43
-30 -64 4 -6 -5 -27 -20 -46 -20 -26 -32 -33 -46 -29 -11 4 -19 2 -19 -4 0 -6
14 -11 30 -11 17 0 33 -6 36 -14 6 -16 -29 -98 -61 -141 -12 -16 -34 -55 -49
-85 -33 -68 -122 -166 -158 -175 -33 -8 -41 -18 -58 -73 -7 -23 -28 -60 -47
-81 -18 -22 -33 -44 -33 -49 0 -6 -12 -12 -27 -14 -17 -2 -32 -12 -37 -24 -5
-11 -34 -36 -63 -55 -58 -36 -97 -69 -193 -159 -77 -73 -129 -98 -231 -111
-45 -5 -86 -12 -90 -15 -10 -6 -94 15 -144 36 -22 10 -62 36 -90 59 -27 23
-91 63 -142 87 -85 42 -95 45 -151 40 -55 -5 -142 -38 -142 -55 0 -3 -9 -12
-21 -19 -15 -10 -24 -10 -34 -2 -10 8 -15 6 -20 -9 -6 -19 -9 -20 -38 -7 -29
12 -37 11 -67 -5 -19 -11 -31 -19 -26 -19 18 0 -20 -33 -63 -55 -25 -13 -56
-32 -68 -42 -19 -17 -40 -20 -168 -21 l-145 -1 -32 35 c-18 20 -48 42 -66 50
-30 12 -36 12 -60 -3 -15 -10 -29 -20 -32 -24 -3 -3 -23 -17 -45 -31 -44 -28
-89 -105 -101 -171 -5 -29 0 -49 21 -93 18 -37 29 -77 31 -117 2 -34 14 -84
25 -112 12 -27 30 -68 39 -90 9 -22 20 -52 24 -68 4 -15 17 -51 30 -80 13 -28
27 -71 31 -94 8 -53 36 -89 73 -96 34 -7 42 -26 42 -107 0 -30 4 -70 10 -88 5
-19 14 -76 20 -128 10 -90 31 -153 62 -185 7 -8 20 -25 29 -39 19 -29 107 -60
169 -60 22 0 59 -6 82 -14 64 -22 110 -10 120 32 8 31 21 41 32 23 3 -4 40
-11 83 -14 69 -5 85 -3 143 20 58 24 79 27 190 27 112 1 129 -1 165 -22 22
-12 52 -27 68 -33 29 -12 33 -28 17 -60 -9 -15 -7 -19 6 -19 13 0 14 -3 5 -14
-9 -11 -7 -15 8 -19 11 -3 22 -17 26 -37 9 -40 48 -120 88 -180 36 -53 45 -61
72 -59 11 1 27 -1 35 -4 8 -3 23 -8 33 -11 9 -3 20 -14 24 -23 4 -10 12 -22
20 -26 7 -4 13 -17 13 -27 0 -16 7 -20 31 -20 27 0 30 -3 29 -28 -1 -15 -1
-31 0 -37 1 -5 3 -17 4 -25 2 -22 55 -120 64 -120 5 0 13 -19 19 -42 6 -24 25
-81 42 -128 23 -62 31 -102 31 -148 0 -49 5 -71 22 -95 44 -65 122 -124 193
-147 22 -7 45 -16 50 -21 18 -14 186 -31 238 -25 28 4 62 13 76 21 30 15 73
60 90 93 7 12 30 47 52 76 36 49 47 56 112 77 60 20 89 23 177 21 117 -3 127
-8 146 -71 8 -29 9 -43 0 -51 -8 -9 -6 -11 9 -8 14 2 24 18 35 56 9 30 20 52
29 52 20 0 108 -68 138 -106 21 -28 23 -37 13 -49 -14 -17 13 -53 100 -135 51
-49 74 -85 65 -100 -3 -6 3 -27 14 -48 11 -20 27 -54 35 -74 19 -49 79 -87
149 -97 31 -4 62 -12 69 -18 7 -6 30 -13 51 -17 31 -6 44 -2 80 23 59 40 97
45 97 12 0 -11 12 -29 28 -41 25 -20 36 -22 139 -18 91 3 116 8 133 23 18 16
28 17 88 9 70 -10 117 -1 291 56 68 22 199 82 243 112 15 10 53 21 85 24 111
10 173 37 293 128 36 27 94 62 130 78 108 50 131 62 143 78 7 9 30 29 52 45
22 16 58 49 81 73 42 45 96 72 148 72 30 0 150 56 201 94 17 13 35 25 42 27
34 11 190 171 268 274 48 64 95 120 104 123 9 3 31 16 50 29 21 14 49 23 72
23 36 0 78 14 141 46 14 8 33 14 42 14 9 0 16 7 16 15 0 8 12 17 28 21 40 9
126 70 162 115 17 22 39 39 49 39 9 0 26 7 37 15 10 8 27 15 36 15 10 0 23 9
30 20 7 11 18 20 25 20 7 0 32 32 58 70 38 59 45 79 45 119 0 73 22 116 77
147 97 58 160 141 213 281 6 17 23 42 36 54 14 13 32 37 40 54 8 16 24 42 36
56 13 15 39 46 58 70 19 24 51 60 70 79 19 19 46 51 59 70 25 36 100 110 112
110 3 0 21 28 39 63 18 34 44 78 59 97 49 64 54 83 47 157 -4 37 -10 113 -12
168 -5 110 -12 140 -55 231 -33 69 -55 200 -37 221 8 10 3 16 -21 24 -26 9
-31 16 -31 44 0 29 -4 35 -34 45 -43 14 -61 53 -53 118 8 61 -11 170 -36 205
-18 26 -18 30 -3 62 28 59 14 83 -103 185 -64 55 -88 69 -123 70 -16 0 -28 4
-28 8 0 5 -16 16 -35 25 -19 9 -35 21 -35 26 0 21 -156 170 -185 177 -53 12
-129 51 -151 75 -21 24 -112 94 -210 160 -29 20 -68 52 -87 70 -79 80 -178
149 -213 149 -25 0 -159 60 -210 94 -30 20 -59 36 -66 36 -41 2 -191 85 -211
117 -23 37 -82 77 -162 110 -49 21 -109 53 -132 70 -24 18 -50 33 -57 33 -8 0
-17 4 -20 9 -3 4 -24 11 -47 15 -28 4 -64 23 -103 53 -34 25 -70 49 -81 53
-11 4 -38 15 -60 24 -40 17 -59 19 -216 31 -41 3 -89 9 -105 13 -16 5 -47 8
-69 8 -22 -1 -43 3 -47 9 -4 5 -45 10 -90 10 -46 0 -90 3 -98 7 -8 3 -33 2
-54 -3z m-2025 -1700 c21 -30 21 -32 4 -68 -9 -21 -15 -53 -13 -72 3 -34 3
-34 -44 -37 -48 -3 -66 -17 -135 -108 -12 -16 -32 -41 -43 -56 -22 -28 -60
-38 -60 -15 1 21 24 53 57 82 20 16 38 45 47 73 46 146 75 198 120 218 42 18
42 18 67 -17z m629 -153 c0 -29 -24 -56 -51 -56 -12 0 -19 7 -19 20 0 32 23
60 47 60 18 0 23 -6 23 -24z m237 -51 c6 -14 8 -26 5 -26 -4 -1 -16 -3 -27 -4
-12 -1 -30 -7 -42 -14 -28 -14 -33 -14 -33 3 0 8 14 19 30 25 17 5 30 17 30
25 0 25 24 19 37 -9z m143 15 c0 -5 -7 -10 -15 -10 -8 0 -15 5 -15 10 0 6 7
10 15 10 8 0 15 -4 15 -10z m-388 -102 c-7 -7 -12 -8 -12 -2 0 6 3 14 7 17 3
4 9 5 12 2 2 -3 -1 -11 -7 -17z m-117 2 c3 -5 2 -10 -4 -10 -5 0 -13 5 -16 10
-3 6 -2 10 4 10 5 0 13 -4 16 -10z m289 -20 c-10 -4 -21 -6 -24 -3 -8 7 24 22
34 16 5 -4 1 -10 -10 -13z m-383 -45 c15 -21 34 -35 49 -37 19 -2 26 -10 28
-30 3 -27 4 -27 29 -11 19 13 29 14 43 6 13 -9 20 -9 29 0 8 8 21 2 49 -26 21
-20 42 -37 48 -37 5 0 24 -13 42 -29 34 -31 46 -91 19 -91 -8 0 -19 -11 -25
-25 -23 -51 -122 -88 -122 -46 0 29 -15 33 -55 17 -37 -16 -48 -49 -20 -60 8
-3 15 -12 15 -21 0 -16 -27 -76 -39 -85 -3 -3 -6 -12 -6 -20 0 -24 -32 -23
-65 1 -21 16 -30 31 -30 50 0 18 -9 34 -25 46 -22 15 -26 28 -30 82 -2 38 -9
67 -17 72 -15 10 -21 111 -7 145 5 15 4 24 -3 26 -25 9 27 108 56 108 8 0 24
-16 37 -35z m714 -491 c34 9 48 -8 41 -47 -6 -30 -3 -37 19 -51 21 -14 40 -16
113 -10 74 6 91 4 104 -10 9 -9 25 -16 35 -16 33 0 46 -16 40 -46 -18 -88 -26
-114 -41 -129 -9 -9 -16 -22 -16 -29 0 -8 -7 -19 -15 -26 -16 -13 -21 -55 -7
-64 4 -2 9 -31 10 -63 2 -55 23 -153 42 -198 5 -11 11 -38 13 -60 3 -22 12
-60 21 -84 21 -55 14 -78 -27 -86 -18 -4 -49 -15 -69 -25 -36 -17 -38 -17 -43
1 -9 27 -29 23 -58 -11 -31 -37 -45 -121 -26 -157 11 -20 10 -35 -4 -91 -9
-37 -17 -77 -17 -89 0 -13 -4 -23 -10 -23 -5 0 -25 -14 -44 -30 -19 -17 -49
-36 -68 -42 -18 -6 -39 -19 -45 -29 -9 -11 -34 -19 -75 -24 -50 -6 -66 -13
-88 -36 -20 -23 -29 -26 -38 -17 -9 9 -12 8 -12 -6 0 -15 -5 -16 -32 -11 -38
8 -58 29 -58 61 0 13 -7 29 -15 38 -18 17 -54 30 -63 22 -3 -3 -15 3 -28 15
-16 15 -26 18 -40 11 -72 -37 -70 -37 -114 -2 -38 30 -41 35 -35 70 13 76 9
98 -23 134 -16 19 -33 44 -37 55 -4 13 -15 21 -28 21 -20 1 -20 2 -4 11 21 12
22 33 1 54 -13 12 -13 19 -4 30 7 8 9 23 4 37 -4 13 -7 35 -6 51 1 15 -2 27
-8 27 -15 0 -13 90 3 91 17 2 20 1 40 -6 22 -9 24 27 2 45 -19 15 -19 34 -1
49 8 7 12 26 10 48 -2 30 4 44 32 75 19 21 34 44 34 51 0 6 9 23 20 37 21 27
26 60 10 76 -10 10 8 36 85 118 17 18 79 66 138 108 85 61 120 79 165 88 67
14 85 26 76 52 -4 12 2 25 17 37 19 15 30 16 63 9 22 -5 50 -7 61 -4z m-955
-623 c0 -12 -20 -25 -27 -18 -7 7 6 27 18 27 5 0 9 -4 9 -9z m-14 -126 c3 -49
-12 -61 -22 -17 -4 15 -13 33 -22 40 -14 11 -14 13 4 26 26 20 37 6 40 -49z
m-84 -57 c-6 -6 -16 -7 -22 -3 -9 6 -9 9 1 16 17 10 34 0 21 -13z m254 -29
c10 -18 -13 -32 -40 -25 -37 9 -34 36 3 36 17 0 33 -5 37 -11z m310 -593 c17
-18 18 -36 2 -36 -23 0 -39 16 -32 33 8 21 11 21 30 3z"/>
<path d="M3280 4660 c0 -19 11 -26 23 -14 8 8 -3 34 -14 34 -5 0 -9 -9 -9 -20z"/>
</g>
</svg>
