<?xml version="1.0" standalone="no"?>
<!DOCTYPE svg PUBLIC "-//W3C//DTD SVG 20010904//EN"
 "http://www.w3.org/TR/2001/REC-SVG-20010904/DTD/svg10.dtd">
<svg version="1.0" xmlns="http://www.w3.org/2000/svg"
 width="990.000000pt" height="622.000000pt" viewBox="0 0 990.000000 622.000000"
 preserveAspectRatio="xMidYMid meet">
<metadata>
Created by potrace 1.14, written by Peter Selinger 2001-2017
</metadata>
<g transform="translate(0.000000,622.000000) scale(0.100000,-0.100000)"
fill="#000000" stroke="none">
<path d="M5500 6048 c-38 -9 -134 -24 -215 -34 -27 -3 -68 -10 -90 -15 -22 -4
-59 -9 -82 -9 -23 0 -54 -5 -70 -11 -15 -5 -59 -17 -97 -25 -38 -8 -80 -23
-94 -33 -23 -16 -26 -26 -27 -78 -1 -74 -23 -113 -64 -113 -30 0 -61 -27 -61
-53 0 -9 -25 -29 -59 -48 -41 -22 -64 -43 -75 -66 -15 -31 -19 -33 -50 -28
-27 6 -38 2 -54 -15 -17 -18 -27 -21 -56 -16 -23 5 -52 1 -83 -10 -27 -9 -82
-20 -123 -25 -41 -5 -88 -11 -105 -13 -16 -3 -83 -18 -147 -35 -65 -17 -127
-31 -139 -31 -46 0 -236 -75 -267 -106 -7 -8 -18 -14 -23 -14 -24 0 -49 -42
-49 -83 0 -35 -6 -49 -30 -72 -42 -40 -48 -83 -20 -147 23 -53 22 -62 -7 -143
-36 -99 -60 -124 -120 -125 -17 0 -23 -9 -33 -51 -7 -27 -9 -53 -6 -56 3 -4
-1 -14 -10 -24 -21 -24 -11 -85 15 -94 16 -5 18 -14 15 -62 -2 -31 -10 -63
-17 -72 -8 -9 -23 -37 -33 -63 -11 -27 -48 -79 -84 -119 -59 -64 -69 -71 -109
-74 -51 -3 -60 -15 -54 -65 7 -47 -19 -94 -59 -111 -15 -6 -28 -15 -28 -19 0
-16 -87 -102 -132 -131 -27 -17 -62 -44 -79 -60 -17 -16 -44 -37 -60 -46 -16
-10 -29 -20 -29 -24 0 -18 -52 -67 -92 -86 -42 -20 -168 -43 -239 -43 -40 0
-159 37 -174 54 -35 41 -232 156 -267 156 -8 0 -18 4 -23 9 -21 20 -185 -34
-185 -61 0 -17 -40 -29 -60 -18 -17 9 -20 8 -20 -10 0 -23 -9 -25 -44 -8 -22
9 -29 8 -46 -7 -11 -10 -28 -15 -40 -12 -18 5 -19 3 -8 -10 11 -13 10 -18 -6
-27 -10 -6 -46 -29 -80 -50 l-61 -39 -139 -2 -139 -2 -42 38 c-36 33 -82 59
-103 59 -4 0 -23 -14 -42 -31 -19 -17 -47 -36 -62 -41 -34 -12 -85 -92 -100
-157 -10 -45 -9 -52 21 -110 25 -49 31 -74 31 -124 0 -52 6 -75 40 -142 22
-43 42 -92 46 -109 3 -16 19 -56 35 -90 16 -34 29 -74 29 -91 0 -47 32 -91 73
-99 40 -7 47 -27 47 -127 0 -32 4 -69 9 -82 5 -14 14 -68 20 -121 7 -57 19
-109 30 -128 42 -76 83 -128 100 -128 10 0 24 -7 31 -15 9 -10 32 -15 77 -15
35 0 74 -5 86 -12 12 -6 51 -11 86 -10 67 1 94 13 73 34 -13 13 -16 48 -4 48
4 0 12 -8 19 -19 10 -16 23 -18 95 -17 69 1 94 7 138 28 49 24 69 27 176 30
l121 3 69 -36 c60 -31 69 -39 66 -60 -2 -13 -9 -30 -15 -38 -10 -11 -8 -13 13
-6 20 6 23 5 13 -6 -18 -18 -16 -27 3 -25 11 1 21 -13 29 -39 19 -62 55 -135
92 -186 25 -35 41 -48 66 -52 80 -12 97 -21 97 -48 0 -10 3 -19 8 -19 4 0 12
-10 17 -22 7 -17 17 -22 35 -20 24 3 25 0 26 -54 1 -31 7 -59 12 -63 6 -4 18
-23 26 -43 9 -20 20 -39 25 -42 5 -4 15 -23 21 -44 6 -20 15 -46 20 -57 38
-84 59 -168 60 -237 0 -48 5 -63 33 -100 91 -119 271 -190 449 -175 91 8 126
27 173 94 84 119 102 139 139 156 54 25 125 37 231 37 111 0 129 -12 129 -89
0 -41 2 -47 17 -44 12 4 22 23 30 59 14 63 26 67 78 27 74 -56 103 -93 97
-123 -4 -24 6 -39 79 -116 84 -86 89 -95 85 -123 -1 -8 10 -39 25 -70 15 -31
32 -66 37 -78 11 -23 114 -83 144 -83 17 0 65 -13 112 -31 16 -7 32 -5 50 5
44 24 113 56 122 56 5 0 10 -12 12 -27 2 -20 13 -33 38 -46 49 -25 187 -20
251 10 45 22 57 22 136 -2 33 -10 318 87 433 148 81 43 106 51 170 57 91 8
157 36 260 114 67 50 108 74 219 125 18 9 58 37 90 63 80 67 83 70 117 111 27
33 38 38 97 46 37 5 88 21 114 34 26 14 66 34 88 43 22 10 60 32 84 49 61 42
230 204 247 237 22 42 124 158 139 158 7 0 27 13 43 30 19 19 36 28 46 24 20
-8 153 24 169 40 12 13 53 36 95 55 13 6 37 24 55 41 18 17 42 33 54 36 12 3
29 21 37 39 21 44 33 52 94 60 40 5 57 13 68 31 9 13 24 26 35 29 10 4 19 13
19 21 0 18 28 73 46 92 12 11 19 61 15 98 -2 22 29 83 51 99 13 8 40 20 61 26
20 5 37 14 37 19 0 10 91 100 101 100 4 0 10 12 14 28 13 53 96 172 120 172 7
0 20 18 30 40 10 22 26 47 36 56 11 10 19 23 19 31 0 7 16 30 35 50 19 20 37
45 40 55 4 9 15 20 26 23 11 4 32 25 47 48 15 23 43 55 62 72 67 58 98 92 105
116 4 13 23 41 41 61 18 20 42 54 53 75 23 45 37 126 25 145 -23 36 -40 113
-42 193 -3 94 -16 149 -50 225 -28 62 -32 88 -23 138 7 33 5 42 -5 42 -17 0
-18 12 -4 26 14 14 -8 64 -28 64 -11 0 -13 8 -9 33 4 29 1 34 -34 57 -36 22
-39 27 -39 72 0 26 -5 58 -11 72 -9 19 -9 36 1 70 11 40 10 49 -4 72 -12 17
-14 29 -7 37 7 9 0 37 -22 92 -28 69 -36 80 -66 90 -18 6 -43 22 -55 36 -33
38 -117 99 -137 99 -10 0 -24 6 -31 13 -8 6 -21 17 -30 22 -46 30 -128 98
-164 137 -37 40 -94 71 -170 93 -12 3 -26 16 -31 28 -6 12 -39 40 -74 62 -65
39 -147 104 -251 197 -75 67 -139 101 -238 127 -91 24 -160 63 -160 92 0 21
-67 53 -114 55 -28 1 -60 2 -71 3 -11 1 -56 38 -100 84 -70 72 -88 85 -140
101 -83 26 -177 71 -197 95 -10 12 -27 21 -37 21 -11 0 -23 4 -26 10 -3 5 -19
7 -35 3 -27 -5 -36 1 -83 50 -57 58 -96 80 -168 92 -24 4 -50 12 -58 18 -7 6
-30 13 -50 14 -47 3 -203 20 -263 29 -33 4 -48 3 -48 -5 0 -6 -4 -11 -10 -11
-5 0 -10 6 -10 13 0 14 -234 19 -290 5z m-2002 -1721 c3 -28 -15 -58 -76 -123
-18 -19 -43 -56 -55 -82 -34 -73 -96 -152 -118 -152 -22 0 -6 46 25 75 39 37
76 92 76 115 0 8 6 27 14 41 7 14 16 37 19 50 4 14 20 44 37 68 37 50 73 54
78 8z m650 -143 c4 -25 -32 -59 -53 -51 -20 8 -19 36 2 59 21 23 47 19 51 -8z
m232 -44 c0 -11 6 -20 13 -20 6 0 4 -5 -6 -11 -9 -5 -22 -7 -27 -4 -6 3 -20
-1 -32 -9 -26 -18 -38 -20 -38 -6 0 5 14 16 30 25 17 9 30 22 30 30 0 8 7 15
15 15 8 0 15 -9 15 -20z m150 10 c0 -5 -7 -10 -15 -10 -8 0 -15 5 -15 10 0 6
7 10 15 10 8 0 15 -4 15 -10z m-388 -102 c-7 -7 -12 -8 -12 -2 0 6 3 14 7 17
3 4 9 5 12 2 2 -3 -1 -11 -7 -17z m-117 2 c3 -5 2 -10 -4 -10 -5 0 -13 5 -16
10 -3 6 -2 10 4 10 5 0 13 -4 16 -10z m289 -20 c-10 -4 -21 -6 -24 -3 -8 7 24
22 34 16 5 -4 1 -10 -10 -13z m-384 -45 c15 -20 35 -35 50 -37 20 -2 25 -9 25
-30 -1 -33 -1 -33 30 -12 20 13 28 14 40 4 12 -10 18 -10 30 0 13 11 22 7 53
-23 21 -21 42 -37 47 -37 5 0 24 -14 42 -32 36 -35 46 -88 18 -88 -9 0 -20
-11 -25 -24 -10 -28 -42 -51 -82 -61 -24 -6 -29 -3 -38 19 -8 23 -14 25 -37
20 -16 -4 -34 -11 -40 -17 -18 -13 -16 -44 2 -51 8 -3 15 -13 15 -22 0 -26
-32 -72 -54 -78 -17 -5 -18 -8 -7 -15 13 -9 7 -31 -9 -31 -18 0 -70 56 -70 75
0 25 -10 40 -32 48 -14 5 -18 18 -19 54 -1 66 -5 85 -23 95 -18 10 -16 111 2
146 11 19 10 23 -3 28 -8 3 -15 11 -15 18 0 18 50 86 63 86 7 0 23 -16 37 -35z
m715 -491 c34 9 48 -8 41 -47 -6 -31 -3 -38 18 -52 19 -13 40 -15 113 -9 75 6
92 4 105 -10 9 -9 25 -16 35 -16 32 0 46 -16 40 -46 -12 -65 -26 -106 -41
-123 -9 -10 -16 -25 -16 -33 0 -9 -7 -21 -15 -28 -15 -12 -21 -61 -9 -73 4 -4
9 -30 11 -59 2 -29 11 -82 19 -118 9 -36 20 -87 26 -115 6 -27 19 -72 30 -98
10 -26 17 -56 14 -65 -4 -11 -31 -25 -73 -38 -62 -20 -69 -20 -80 -5 -11 15
-14 15 -39 -1 -41 -24 -57 -78 -49 -169 4 -49 2 -91 -6 -120 -6 -24 -12 -52
-11 -61 1 -19 -89 -92 -128 -103 -14 -4 -31 -16 -38 -26 -8 -12 -32 -20 -78
-24 -53 -6 -68 -12 -81 -31 -11 -17 -21 -22 -38 -18 -15 4 -24 0 -28 -10 -5
-13 -11 -14 -34 -4 -35 16 -43 26 -43 59 0 33 -26 57 -71 65 -19 4 -39 11 -46
16 -7 5 -18 6 -25 1 -7 -4 -29 -13 -48 -20 -36 -13 -38 -12 -89 36 -15 13 -18
83 -6 120 3 10 -12 39 -35 70 -22 29 -40 57 -40 62 0 5 -7 9 -15 9 -12 0 -13
4 -4 19 8 11 9 26 4 37 -8 18 -13 63 -14 126 -1 15 -5 29 -11 33 -5 3 -10 24
-10 46 0 44 14 50 48 19 31 -29 42 -25 42 15 0 19 0 38 0 43 1 4 -8 8 -20 10
-20 3 -29 32 -9 32 6 0 9 18 8 44 -3 39 2 49 34 85 20 23 37 50 37 60 0 11 5
23 11 26 19 12 30 56 18 71 -9 11 -7 20 5 39 9 14 21 25 26 25 6 0 10 6 10 13
0 16 54 67 133 128 112 85 140 101 206 117 71 17 84 26 77 56 -3 11 4 26 16
36 18 14 29 15 62 8 22 -5 50 -7 61 -4z m-969 -641 c-10 -10 -19 5 -10 18 6
11 8 11 12 0 2 -7 1 -15 -2 -18z m-2 -110 c7 -50 -11 -60 -21 -12 -3 17 -12
33 -19 36 -19 7 -17 21 4 26 24 5 28 -2 36 -50z m-81 -50 c-7 -2 -19 -2 -25 0
-7 3 -2 5 12 5 14 0 19 -2 13 -5z m251 -38 c4 -12 -3 -15 -29 -15 -19 0 -35 5
-35 11 0 6 8 8 19 4 11 -3 22 -1 26 5 8 14 12 13 19 -5z m316 -595 c12 -7 12
-12 3 -21 -9 -9 -16 -9 -27 1 -26 21 -5 39 24 20z"/>
<path d="M4016 831 c-3 -5 1 -14 9 -21 12 -10 15 -10 15 3 0 19 -16 31 -24 18z"/>
</g>
</svg>
