<?xml version="1.0" standalone="no"?>
<!DOCTYPE svg PUBLIC "-//W3C//DTD SVG 20010904//EN"
 "http://www.w3.org/TR/2001/REC-SVG-20010904/DTD/svg10.dtd">
<svg version="1.0" xmlns="http://www.w3.org/2000/svg"
 width="990.000000pt" height="622.000000pt" viewBox="0 0 990.000000 622.000000"
 preserveAspectRatio="xMidYMid meet">
<metadata>
Created by potrace 1.14, written by Peter Selinger 2001-2017
</metadata>
<g transform="translate(0.000000,622.000000) scale(0.100000,-0.100000)"
fill="#000000" stroke="none">
<path d="M5540 6049 c-19 -4 -53 -12 -76 -18 -22 -6 -78 -15 -125 -20 -203
-24 -267 -34 -317 -52 -30 -10 -65 -19 -78 -19 -13 0 -42 -7 -64 -16 -37 -15
-40 -19 -41 -58 0 -22 -8 -61 -18 -86 -15 -37 -25 -47 -54 -55 -43 -12 -52
-20 -52 -48 0 -17 -15 -30 -63 -55 -39 -21 -68 -44 -77 -63 -13 -25 -21 -29
-55 -29 -27 0 -47 -7 -60 -20 -16 -16 -28 -19 -62 -14 -27 4 -59 0 -88 -10
-25 -9 -60 -16 -79 -16 -50 0 -140 -17 -266 -51 -60 -16 -118 -29 -127 -29
-64 0 -284 -91 -335 -140 -18 -16 -23 -32 -23 -70 0 -41 -4 -51 -26 -67 -38
-28 -47 -89 -22 -145 25 -56 17 -98 -41 -218 -25 -54 -27 -55 -68 -55 -23 -1
-45 -3 -48 -7 -3 -3 -9 -31 -12 -62 -3 -31 -10 -56 -14 -56 -5 0 -9 -5 -9 -11
0 -8 5 -8 15 1 8 7 22 9 31 6 27 -10 -4 -39 -34 -31 -21 5 -23 3 -17 -17 4
-13 16 -31 28 -41 16 -14 21 -28 18 -60 -4 -63 -81 -207 -151 -279 -55 -58
-60 -61 -105 -60 l-47 0 7 -49 c6 -44 4 -53 -20 -85 -15 -19 -38 -39 -51 -44
-17 -7 -22 -14 -17 -26 4 -12 2 -15 -8 -12 -15 5 -30 -7 -47 -39 -7 -12 -42
-42 -79 -67 -86 -59 -165 -124 -177 -145 -31 -54 -103 -88 -228 -105 -106 -15
-132 -13 -216 18 -35 13 -107 59 -132 86 -10 11 -67 42 -130 71 -36 17 -73 35
-82 40 -10 5 -19 5 -23 -1 -3 -6 -25 -10 -49 -10 -34 0 -53 -8 -96 -40 -41
-31 -59 -38 -78 -33 -17 4 -23 2 -18 -5 11 -18 -14 -25 -45 -12 -25 11 -32 10
-48 -4 -9 -9 -25 -16 -33 -16 -9 0 -15 -8 -14 -17 0 -11 -12 -24 -32 -34 -18
-9 -52 -29 -75 -45 -40 -26 -47 -27 -181 -29 l-139 -2 -42 38 c-36 33 -82 59
-103 59 -4 0 -23 -14 -42 -31 -19 -17 -46 -36 -60 -40 -33 -12 -76 -79 -96
-147 -16 -54 -16 -54 15 -117 24 -48 31 -76 31 -120 0 -57 3 -67 71 -211 10
-22 19 -46 19 -53 0 -7 13 -42 30 -78 16 -35 30 -77 30 -93 0 -44 19 -77 55
-95 18 -8 37 -15 43 -15 12 0 22 -49 22 -114 0 -28 4 -66 10 -84 5 -19 14 -76
20 -128 6 -54 17 -107 27 -122 70 -113 85 -132 107 -132 13 0 29 -6 35 -14 7
-9 43 -16 94 -20 45 -4 110 -9 144 -12 l63 -6 0 41 c0 43 9 51 30 26 22 -26
166 -20 231 9 41 19 78 26 159 30 117 7 154 -1 233 -48 48 -29 54 -47 25 -83
-7 -8 -3 -10 14 -5 20 5 21 3 10 -10 -10 -13 -9 -16 6 -20 12 -3 21 -18 25
-37 8 -40 69 -162 104 -207 19 -26 33 -35 52 -33 48 4 95 -20 99 -50 2 -11 7
-21 11 -21 4 0 13 -11 19 -24 8 -17 16 -22 34 -19 21 4 23 1 23 -40 0 -40 33
-120 68 -165 9 -11 59 -147 88 -237 5 -16 9 -57 9 -90 1 -49 6 -67 28 -100 79
-114 276 -195 447 -182 115 8 130 20 235 171 61 89 107 107 280 114 118 4 126
3 144 -17 13 -15 20 -37 20 -70 1 -68 28 -59 46 15 15 62 27 66 79 27 75 -55
104 -92 98 -123 -5 -25 4 -38 74 -111 87 -90 104 -113 94 -130 -8 -12 59 -150
83 -171 28 -25 79 -48 130 -59 158 -35 146 -34 184 -6 19 15 49 30 66 33 29 6
32 4 32 -20 0 -39 38 -58 123 -61 78 -3 149 10 184 33 16 10 33 12 55 7 72
-17 142 -8 264 33 116 38 308 124 320 143 3 5 30 9 60 9 79 0 184 39 249 93
57 46 130 94 175 114 94 41 121 56 148 83 15 15 43 37 62 51 19 13 42 33 51
44 54 66 87 85 146 85 35 0 198 74 234 106 8 8 21 14 27 14 16 0 231 209 247
241 8 15 20 33 27 41 7 7 30 34 51 61 21 26 44 47 52 47 7 0 27 13 43 30 24
23 39 30 69 30 45 0 126 25 163 50 14 9 30 15 36 13 6 -2 14 5 17 17 3 12 13
20 27 20 12 0 40 16 63 35 22 19 46 35 52 35 7 0 25 20 41 45 22 35 34 45 55
45 15 0 31 5 34 10 3 5 17 10 30 10 13 0 30 8 37 18 7 9 22 22 33 28 11 6 22
20 24 30 2 10 16 39 33 63 23 34 29 55 29 97 1 30 5 57 10 60 5 3 9 14 9 24 0
23 65 70 97 70 12 0 24 8 27 18 4 10 27 36 52 57 32 28 56 62 84 120 24 51 53
93 79 117 23 20 41 41 41 47 0 5 21 40 48 76 26 36 57 80 70 98 13 18 34 38
46 46 13 8 32 28 42 45 21 36 87 106 101 106 15 0 49 42 63 80 8 19 33 59 57
87 23 29 49 75 57 102 14 46 13 54 -5 103 -13 34 -21 89 -24 153 -5 110 -15
152 -53 235 -16 36 -26 76 -27 115 -1 33 -6 68 -10 78 -5 12 -2 22 9 30 15 11
14 14 -14 30 -25 15 -30 24 -30 57 0 34 -3 39 -29 45 -16 3 -35 13 -42 21 -11
14 -20 113 -19 212 1 23 -6 52 -14 63 -10 15 -13 36 -9 69 7 59 -18 116 -61
139 -16 9 -55 39 -85 68 -36 34 -74 59 -113 73 -32 12 -76 38 -97 58 -22 20
-67 64 -102 97 -56 53 -147 105 -186 105 -7 0 -25 16 -40 35 -15 19 -34 35
-40 35 -7 0 -13 4 -13 9 0 5 -24 24 -52 41 -55 32 -122 85 -221 173 -81 73
-116 92 -245 134 -80 26 -119 44 -135 62 -44 52 -78 71 -124 71 -48 0 -92 19
-132 56 -14 13 -29 24 -33 24 -4 0 -15 14 -25 30 -23 39 -73 72 -143 94 -71
23 -151 65 -168 88 -7 10 -24 18 -37 18 -13 0 -27 5 -30 10 -3 6 -21 10 -38
10 -24 0 -44 12 -83 48 -28 26 -68 55 -90 63 -72 29 -175 60 -183 55 -4 -3
-24 -1 -43 5 -34 9 -140 18 -240 21 -27 0 -48 5 -48 9 0 5 -44 8 -98 7 -54 -1
-103 1 -108 4 -5 2 -25 1 -44 -3z m-2031 -1719 c1 -14 -6 -43 -17 -65 -12 -22
-23 -48 -26 -57 -3 -10 -15 -18 -26 -18 -19 0 -35 -20 -132 -169 -10 -14 -25
-32 -35 -38 -52 -39 -43 18 12 75 28 28 51 64 60 92 28 88 46 134 68 164 28
41 37 47 67 44 18 -2 26 -10 29 -28z m639 -146 c4 -25 -32 -59 -53 -51 -20 8
-19 36 2 59 21 23 47 19 51 -8z m232 -44 c0 -11 6 -20 13 -20 6 0 4 -5 -6 -11
-9 -5 -21 -7 -27 -4 -5 3 -21 -2 -35 -11 -26 -17 -42 -14 -30 6 4 6 18 15 31
20 13 5 24 16 24 25 0 8 7 15 15 15 8 0 15 -9 15 -20z m150 10 c0 -5 -7 -10
-15 -10 -8 0 -15 5 -15 10 0 6 7 10 15 10 8 0 15 -4 15 -10z m-388 -102 c-7
-7 -12 -8 -12 -2 0 6 3 14 7 17 3 4 9 5 12 2 2 -3 -1 -11 -7 -17z m-117 2 c3
-5 2 -10 -4 -10 -5 0 -13 5 -16 10 -3 6 -2 10 4 10 5 0 13 -4 16 -10z m289
-20 c-10 -4 -21 -6 -24 -3 -8 7 24 22 34 16 5 -4 1 -10 -10 -13z m-384 -45
c15 -20 35 -35 50 -37 19 -2 26 -10 28 -30 3 -27 4 -27 27 -12 17 11 29 13 43
5 13 -7 22 -7 30 1 9 9 21 3 50 -25 21 -20 42 -37 47 -37 6 0 25 -14 43 -31
35 -33 46 -89 17 -89 -9 0 -20 -11 -25 -25 -10 -27 -64 -65 -93 -65 -10 0 -22
11 -27 25 -11 29 -11 29 -55 11 -38 -16 -45 -41 -19 -61 22 -16 12 -59 -22
-90 -17 -16 -21 -25 -13 -30 8 -6 7 -10 -2 -16 -20 -13 -24 -12 -58 18 -17 15
-31 37 -31 49 0 12 -11 31 -24 41 -20 15 -25 29 -29 82 -3 44 -9 66 -20 72
-19 11 -18 111 1 147 12 20 9 26 -10 23 -5 0 -8 7 -8 17 0 23 47 92 63 92 7 0
23 -16 37 -35z m715 -491 c34 9 48 -8 41 -47 -6 -31 -3 -38 18 -52 19 -13 40
-15 113 -9 75 6 92 4 105 -10 9 -9 25 -16 35 -16 34 0 46 -16 39 -51 -4 -19
-9 -48 -12 -66 -4 -17 -15 -39 -25 -49 -10 -9 -19 -25 -19 -34 0 -10 -7 -23
-15 -30 -15 -13 -21 -61 -8 -73 3 -4 8 -32 10 -64 3 -31 15 -99 29 -150 13
-51 24 -102 24 -112 0 -10 6 -31 14 -47 20 -40 28 -77 19 -90 -5 -5 -37 -20
-72 -32 -60 -20 -65 -20 -77 -4 -12 16 -14 16 -41 0 -38 -23 -60 -101 -47
-167 7 -34 5 -66 -6 -124 -15 -73 -18 -80 -62 -116 -26 -21 -60 -42 -75 -46
-15 -3 -33 -15 -40 -25 -9 -12 -32 -20 -74 -25 -47 -6 -68 -13 -84 -31 -13
-14 -29 -22 -37 -19 -8 3 -20 -1 -27 -9 -10 -12 -17 -13 -39 -3 -34 15 -42 25
-42 59 0 31 -32 58 -69 58 -13 0 -32 7 -42 16 -11 10 -23 13 -31 8 -7 -5 -28
-14 -47 -21 -31 -11 -37 -9 -68 14 -18 14 -34 33 -35 42 -2 23 2 72 7 98 3 14
-6 35 -29 62 -19 23 -38 50 -41 61 -4 11 -13 20 -21 20 -11 0 -12 4 -2 19 9
15 8 24 -5 44 -11 18 -13 28 -6 33 6 4 8 17 3 33 -4 14 -6 38 -5 53 1 15 -3
29 -9 33 -5 3 -10 24 -10 46 0 42 13 49 46 24 31 -24 42 -18 42 25 1 32 -3 40
-17 40 -27 0 -33 12 -15 31 12 13 15 29 11 55 -5 31 -2 41 23 65 15 16 42 57
59 91 28 54 29 63 16 77 -13 15 -10 21 19 53 19 20 36 41 37 45 5 11 67 62
154 128 94 71 129 88 196 100 42 6 64 27 55 51 -4 10 2 23 16 33 18 15 29 16
62 9 22 -5 50 -7 61 -4z m-969 -641 c-10 -10 -19 5 -10 18 6 11 8 11 12 0 2
-7 1 -15 -2 -18z m-1 -105 c3 -52 -11 -65 -21 -20 -4 15 -14 33 -23 40 -14 11
-14 14 -1 22 30 20 43 7 45 -42z m-82 -55 c-7 -2 -19 -2 -25 0 -7 3 -2 5 12 5
14 0 19 -2 13 -5z m255 -41 c2 -8 -9 -12 -32 -12 -40 0 -49 16 -13 23 30 6 40
3 45 -11z m311 -591 c13 -8 8 -31 -7 -31 -17 1 -34 19 -28 29 9 13 16 14 35 2z"/>
<path d="M4020 821 c0 -6 5 -13 10 -16 6 -3 10 1 10 9 0 9 -4 16 -10 16 -5 0
-10 -4 -10 -9z"/>
</g>
</svg>
