<?xml version="1.0" standalone="no"?>
<!DOCTYPE svg PUBLIC "-//W3C//DTD SVG 20010904//EN"
 "http://www.w3.org/TR/2001/REC-SVG-20010904/DTD/svg10.dtd">
<svg version="1.0" xmlns="http://www.w3.org/2000/svg"
 width="990.000000pt" height="622.000000pt" viewBox="0 0 990.000000 622.000000"
 preserveAspectRatio="xMidYMid meet">
<metadata>
Created by potrace 1.14, written by Peter Selinger 2001-2017
</metadata>
<g transform="translate(0.000000,622.000000) scale(0.100000,-0.100000)"
fill="#000000" stroke="none">
<path d="M5638 6101 c-16 -11 -19 -11 -13 -1 6 10 4 12 -11 5 -27 -11 -72 -17
-119 -16 -103 2 -128 1 -240 -8 -236 -20 -385 -58 -500 -126 -42 -25 -81 -45
-86 -45 -5 0 -9 -7 -9 -15 0 -8 4 -15 8 -15 13 0 1 -62 -16 -88 -8 -13 -20
-21 -27 -18 -8 3 -10 -4 -8 -17 3 -16 -10 -37 -44 -73 -26 -29 -58 -63 -70
-75 -48 -53 -71 -62 -223 -88 -58 -10 -133 -26 -167 -35 -34 -8 -108 -22 -165
-31 -263 -39 -498 -150 -619 -291 -19 -21 -56 -60 -83 -85 -50 -47 -56 -64
-56 -154 1 -11 1 -44 1 -72 0 -52 1 -53 29 -53 15 0 31 6 33 13 3 6 6 -8 6
-33 1 -47 -17 -149 -46 -258 -9 -34 -12 -66 -8 -70 4 -4 10 -1 12 6 3 6 13 12
24 12 29 0 24 -45 -10 -80 -16 -17 -34 -44 -41 -59 -13 -33 -46 -51 -81 -44
-35 6 -83 -48 -108 -122 -76 -224 -95 -254 -236 -360 -38 -29 -80 -62 -93 -75
-13 -12 -33 -27 -45 -34 -12 -6 -60 -37 -107 -67 -47 -31 -112 -64 -145 -73
-33 -10 -72 -21 -86 -26 -25 -8 -52 -2 -152 33 -15 5 -46 23 -68 39 -48 35
-200 115 -251 132 -50 18 -117 6 -175 -31 -103 -64 -93 -60 -108 -40 -13 18
-32 7 -21 -12 3 -5 -13 -4 -36 2 -37 9 -43 8 -59 -12 -14 -17 -24 -21 -40 -16
-23 8 -23 9 -2 -42 3 -8 -3 -13 -15 -13 -12 0 -24 -5 -27 -11 -4 -6 -25 -24
-47 -40 -40 -29 -89 -37 -115 -21 -7 5 -39 4 -70 -1 -88 -15 -141 -3 -189 42
-42 38 -98 59 -109 41 -3 -6 -14 -10 -24 -10 -10 0 -28 -11 -41 -25 -13 -14
-29 -25 -35 -25 -32 0 -125 -160 -125 -215 0 -13 11 -49 25 -79 14 -31 25 -74
25 -98 1 -65 19 -130 40 -145 11 -8 20 -20 20 -28 0 -7 6 -20 13 -27 28 -29
47 -64 47 -87 0 -13 13 -53 30 -88 16 -34 30 -79 30 -99 0 -49 14 -71 50 -79
55 -12 70 -39 70 -125 0 -42 7 -99 15 -126 8 -27 15 -75 15 -107 0 -48 7 -73
38 -134 20 -41 44 -81 52 -88 97 -89 149 -115 185 -91 21 14 70 11 90 -4 23
-18 83 -22 111 -7 16 8 61 23 99 32 71 18 146 49 200 84 55 36 283 23 351 -19
29 -18 45 -57 29 -70 -7 -6 -15 -22 -18 -36 -4 -23 -2 -24 29 -18 28 5 34 3
34 -12 0 -10 16 -59 35 -109 40 -103 89 -161 140 -167 17 -1 37 -12 45 -23 8
-12 39 -43 68 -70 28 -27 52 -57 52 -67 0 -22 58 -134 77 -147 4 -3 13 -24 20
-46 6 -22 21 -65 33 -95 12 -30 25 -72 30 -93 4 -21 10 -40 13 -43 2 -3 1 -23
-4 -44 -18 -79 57 -174 186 -236 76 -37 120 -47 238 -51 160 -6 184 5 272 127
85 118 135 143 310 159 120 10 139 3 149 -58 5 -33 2 -45 -14 -61 -11 -11 -20
-29 -20 -39 0 -11 -10 -27 -22 -35 -12 -9 -19 -18 -16 -21 3 -3 33 19 66 49
46 44 62 66 72 103 7 27 14 49 16 51 1 2 18 -7 38 -20 26 -17 36 -30 36 -50 0
-47 20 -82 75 -133 30 -27 72 -67 95 -88 49 -46 74 -83 65 -96 -3 -6 8 -39 25
-73 16 -35 30 -68 30 -74 0 -23 122 -104 158 -104 7 0 23 -6 35 -14 45 -28 88
-27 167 3 l75 30 5 -22 c3 -12 21 -30 40 -40 43 -22 145 -19 233 6 67 20 113
22 123 6 16 -26 295 14 335 48 8 7 21 13 27 13 16 0 15 17 0 23 -7 3 5 6 28 6
48 1 128 27 144 46 7 9 23 12 46 8 72 -12 209 48 299 130 45 41 80 67 109 80
114 52 156 74 191 99 22 16 59 42 82 58 27 19 51 48 65 77 15 31 30 49 43 50
48 6 92 15 110 23 11 4 48 20 83 34 35 14 71 26 81 26 10 0 24 6 30 13 6 8 30
19 52 26 28 9 67 36 119 84 42 40 95 88 117 107 22 19 48 53 57 75 17 39 47
75 64 75 5 0 15 7 22 15 17 21 120 75 142 75 10 0 46 11 80 25 34 14 69 25 78
25 27 0 83 31 112 62 19 21 35 28 56 26 16 -1 41 6 55 15 15 9 33 17 41 17 10
0 13 6 10 15 -4 9 0 15 10 15 9 0 24 8 34 18 11 9 38 34 60 54 23 21 42 42 42
47 0 5 9 12 19 16 27 8 41 50 40 118 -1 51 2 61 30 89 18 19 31 42 31 57 0 24
5 79 9 91 1 3 5 -1 10 -9 17 -26 67 -17 114 22 50 41 107 120 107 149 0 10 3
18 8 18 4 1 31 23 61 50 29 27 62 52 72 55 11 4 19 12 19 20 0 7 10 22 23 32
25 20 77 88 77 100 0 4 11 21 25 37 14 16 25 32 25 36 0 7 27 35 88 93 16 15
40 48 53 73 12 25 45 67 71 93 63 62 110 141 144 241 27 81 27 81 10 136 -11
34 -15 67 -11 85 5 20 2 36 -8 47 -23 27 -28 66 -12 88 8 10 15 35 15 55 0 29
-4 38 -21 42 -17 5 -19 9 -9 26 7 14 7 21 1 21 -15 0 -44 59 -37 75 3 8 -2 19
-10 25 -18 16 -44 108 -64 230 -11 64 -39 156 -68 220 -36 79 -51 153 -51 243
l0 88 -68 64 c-37 36 -75 68 -85 71 -10 3 -18 9 -18 13 0 4 -11 13 -25 19 -14
6 -40 36 -59 65 -25 39 -43 56 -63 60 -36 7 -104 60 -218 170 -50 48 -95 87
-99 87 -9 0 -62 37 -96 68 -14 12 -63 46 -110 74 -47 28 -111 69 -142 90 -31
21 -90 50 -130 64 -129 46 -154 61 -172 98 -9 20 -33 48 -54 63 -20 15 -41 32
-47 38 -18 21 -99 63 -165 86 -36 12 -87 37 -115 55 -51 33 -118 61 -280 116
-49 17 -101 38 -114 47 -23 15 -154 66 -192 75 -9 3 -25 9 -35 14 -11 6 -46
18 -79 27 -33 10 -87 26 -120 37 -33 10 -109 23 -169 29 -60 5 -115 14 -122
20 -8 6 -43 9 -84 7 -54 -2 -70 0 -70 11 0 11 -3 11 -15 1 -11 -9 -15 -9 -15
-1 0 16 -66 10 -92 -8z m-1488 -1916 c0 -17 -35 -55 -50 -55 -14 0 -13 43 2
58 17 17 48 15 48 -3z m230 -33 c0 -4 -5 -13 -12 -20 -9 -9 -7 -12 13 -12 21
-1 22 -2 6 -11 -9 -5 -22 -7 -27 -4 -6 3 -20 -1 -32 -9 -26 -19 -38 -20 -38
-6 0 6 8 13 18 17 26 9 52 34 46 44 -3 5 2 9 10 9 9 0 16 -4 16 -8z m-355
-102 c3 -5 1 -10 -4 -10 -6 0 -11 5 -11 10 0 6 2 10 4 10 3 0 8 -4 11 -10z
m289 -20 c-10 -4 -21 -6 -24 -3 -8 7 24 22 34 16 5 -4 1 -10 -10 -13z m-332
-82 c19 -2 23 -9 22 -35 l-2 -32 29 21 c27 20 30 21 46 5 15 -15 17 -15 30 1
12 16 15 15 41 -13 15 -17 44 -41 64 -53 20 -12 41 -29 48 -37 14 -17 21 -67
8 -59 -4 3 -15 -11 -24 -31 -23 -55 -110 -87 -121 -44 -5 17 -11 19 -37 13
-56 -12 -74 -44 -39 -69 15 -11 15 -17 5 -39 -6 -14 -18 -26 -26 -26 -8 0 -21
-7 -29 -14 -21 -21 -71 -6 -75 21 -2 12 -14 29 -28 37 -21 14 -24 24 -24 76 0
49 -3 61 -20 70 -21 11 -27 44 -10 55 5 3 7 12 4 19 -3 8 3 43 14 79 11 38 16
71 11 78 -5 8 -2 20 8 31 16 18 18 17 49 -16 18 -19 43 -36 56 -38z m-118 -3
c-3 -7 -12 -16 -19 -19 -11 -4 -12 0 -3 19 11 25 31 25 22 0z m779 -451 c41
10 63 -23 35 -53 -11 -10 -7 -17 16 -37 27 -24 32 -25 120 -18 78 5 95 4 108
-10 9 -9 23 -16 31 -16 44 0 61 -35 38 -78 -6 -9 -12 -29 -15 -44 -4 -15 -13
-33 -21 -42 -8 -8 -15 -20 -15 -27 0 -7 -7 -20 -15 -29 -17 -19 -20 -51 -11
-120 3 -25 8 -72 12 -105 3 -33 12 -78 19 -100 7 -22 16 -56 19 -75 3 -20 15
-52 26 -73 11 -20 20 -48 20 -62 0 -20 -6 -25 -37 -31 -21 -4 -53 -13 -70 -21
-29 -12 -33 -11 -33 2 0 25 -53 18 -80 -10 -21 -23 -23 -32 -22 -136 1 -77 -3
-123 -13 -147 -8 -19 -15 -46 -15 -61 0 -26 -8 -32 -100 -84 -19 -11 -42 -28
-52 -39 -9 -11 -18 -14 -20 -8 -2 8 -12 8 -33 -1 -17 -6 -43 -13 -58 -14 -15
-2 -36 -10 -45 -18 -15 -14 -21 -14 -51 -1 -36 15 -58 9 -28 -7 14 -8 14 -13
4 -23 -10 -11 -17 -10 -39 6 -21 15 -28 28 -28 53 0 43 -33 70 -95 79 -34 6
-49 4 -61 -8 -24 -25 -60 -30 -86 -12 -25 18 -24 15 -26 101 -2 49 -7 66 -28
90 -33 38 -69 106 -65 124 1 7 -1 20 -5 30 -4 9 -8 30 -10 46 -1 17 -5 59 -8
95 -3 36 -2 59 3 52 4 -8 26 -16 48 -19 l40 -5 11 58 c6 33 14 84 17 114 l7
55 -22 -27 c-25 -33 -40 -36 -40 -8 0 13 5 18 15 14 11 -4 15 1 15 17 0 13 12
49 26 79 49 101 81 192 76 213 -3 9 51 59 138 128 79 63 137 99 159 99 40 0
120 24 126 37 2 8 0 23 -5 33 -8 15 -6 24 6 38 14 17 22 18 57 10 23 -5 50 -7
60 -4z m-653 -4 c13 -8 13 -10 -2 -10 -9 0 -20 5 -23 10 -8 13 5 13 25 0z
m-340 -710 c0 -5 -7 -7 -15 -4 -8 4 -15 8 -15 10 0 2 7 4 15 4 8 0 15 -4 15
-10z m-53 -86 c-3 -3 -12 -4 -19 -1 -8 3 -5 6 6 6 11 1 17 -2 13 -5z m-1180
-1146 c-3 -8 -6 -5 -6 6 -1 11 2 17 5 13 3 -3 4 -12 1 -19z"/>
<path d="M3876 3978 c3 -5 10 -6 15 -3 13 9 11 12 -6 12 -8 0 -12 -4 -9 -9z"/>
</g>
</svg>
